<svg width="828" height="365" viewBox="0 0 828 365" fill="none" xmlns="http://www.w3.org/2000/svg">
<path fill-rule="evenodd" clip-rule="evenodd" d="M776.054 276L781.926 266.196H790.734C790.681 267.575 790.505 269.041 790.165 270.574H787.011V271.28H789.999C789.617 272.798 789.074 274.377 788.333 276H776.054ZM790.751 265.49H782.349L788.333 255.499C789.019 256.567 789.809 258.375 790.294 260.726H787.012V261.455H790.432C790.641 262.679 790.764 264.032 790.751 265.49Z" fill="url(#paint0_linear_3132_328)"/>
<path d="M644.133 335.585L781.72 350.304L781.87 348.708L647.451 334.294L644.133 335.585Z" fill="#11E0C5"/>
<path d="M745.095 343.27L758.508 344.721L758.103 349.047L744.69 347.597L745.095 343.27Z" fill="#263238"/>
<path d="M769.193 333.074C773.942 333.354 771.852 339.192 770.003 345.021C769.339 347.117 769.13 349.353 769.392 351.55C770.124 357.659 771.089 363.826 766.384 363.084C761.543 362.321 763.317 356.384 766.725 350.046C767.395 348.8 767.537 347.289 767.112 345.924C764.947 338.982 764.309 332.786 769.193 333.074Z" fill="#38998C"/>
<path d="M766.245 345.957L770.338 346.4L770.156 348.342L766.063 347.899L766.245 345.957Z" fill="#11E0C5"/>
<path d="M766.081 347.89L770.174 348.333L770.003 350.163L765.91 349.721L766.081 347.89Z" fill="black"/>
<path d="M781.974 334.448C786.723 334.728 784.633 340.565 782.785 346.395C782.12 348.491 781.911 350.726 782.173 352.923C782.905 359.033 783.871 365.199 779.166 364.457C774.324 363.694 776.098 357.757 779.507 351.419C780.177 350.173 780.319 348.662 779.893 347.298C777.727 340.358 777.088 334.16 781.974 334.448Z" fill="#38998C"/>
<path d="M778.978 347.324L783.071 347.766L782.889 349.708L778.796 349.266L778.978 347.324Z" fill="#11E0C5"/>
<path d="M778.814 349.28L782.907 349.723L782.735 351.553L778.642 351.11L778.814 349.28Z" fill="black"/>
<path d="M750.35 325.499L757.947 325.355L754.17 349.209L748.227 348.567L750.35 325.499Z" fill="#38998C"/>
<path d="M696.996 338.593L703.699 339.318L703.526 341.171L696.822 340.446L696.996 338.593Z" fill="black"/>
<path d="M696.811 340.445L703.515 341.169L703.361 342.81L696.658 342.085L696.811 340.445Z" fill="black"/>
<path d="M695.754 325.695L703.306 325.648L701.518 343.452L698.837 343.162L695.754 325.695Z" fill="#29353B"/>
<path d="M812.01 324.334L805.912 345.967H799.866L806.556 324.334H812.01Z" fill="#29353B"/>
<path d="M795.062 324.334H806.575L799.885 345.967H795.062V324.334Z" fill="#324047"/>
<path d="M818.366 247.479L814.008 324.166L670.873 326.495L619.032 343.756L159.353 342.51C135.274 342.428 112.255 331.856 95.5534 313.209L30.4866 229.495C134.045 229.964 164.724 247.475 242.44 247.475C278.497 247.479 751.32 247.479 818.366 247.479Z" fill="#086155"/>
<path d="M37.9906 190.654H66.154L69.3886 187.176H238.838L241.803 193.872H34.9965L37.9906 190.654Z" fill="white"/>
<path d="M241.816 193.866L243.584 197.854L31.7317 197.387L35.0097 193.866H241.816Z" fill="#BADDF9"/>
<path d="M447.999 170.608L416.094 52.9081H400.14V62.77L404.642 71.2396V112.69H344.113L349.661 133.856L401.228 175.268L447.999 170.608Z" fill="#E3F1FC"/>
<path d="M409.687 112.69L410.588 80.5802H416.701L426.02 112.69H409.687Z" fill="white"/>
<path d="M395.436 129.428H401.936C403.192 129.428 404.209 128.335 404.209 126.985V121.041C404.209 119.691 403.192 118.598 401.936 118.598H395.436C394.18 118.598 393.163 119.691 393.163 121.041V126.985C393.163 128.335 394.18 129.428 395.436 129.428Z" fill="#32C7B4"/>
<path d="M380.885 129.428H387.386C388.641 129.428 389.658 128.335 389.658 126.985V121.041C389.658 119.691 388.641 118.598 387.386 118.598H380.885C379.629 118.598 378.612 119.691 378.612 121.041V126.985C378.612 128.335 379.629 129.428 380.885 129.428Z" fill="#32C7B4"/>
<path d="M366.313 129.428H372.814C374.07 129.428 375.087 128.335 375.087 126.985V121.041C375.087 119.691 374.07 118.598 372.814 118.598H366.313C365.058 118.598 364.041 119.691 364.041 121.041V126.985C364.041 128.335 365.058 129.428 366.313 129.428Z" fill="#32C7B4"/>
<path d="M351.763 129.428H358.263C359.519 129.428 360.536 128.335 360.536 126.985V121.041C360.536 119.691 359.519 118.598 358.263 118.598H351.763C350.507 118.598 349.49 119.691 349.49 121.041V126.985C349.49 128.335 350.507 129.428 351.763 129.428Z" fill="#32C7B4"/>
<path d="M484.615 139.591H502.633V151.243L484.615 149.082V139.591Z" fill="#32C7B4"/>
<path d="M502.633 151.23V183.405H484.615V149.068L502.633 151.23Z" fill="#263238"/>
<path d="M509.57 139.591H527.588V151.243L509.57 149.082V139.591Z" fill="#32C7B4"/>
<path d="M527.588 151.23V183.405H509.57V149.068L527.588 151.23Z" fill="#263238"/>
<path d="M664.826 201.163V196.268C664.826 193.672 666.784 191.568 669.198 191.568H684.015V179.916C684.015 173.898 688.553 169.02 694.149 169.02H726.091C731.689 169.02 736.226 173.898 736.226 179.916V200.924H764.12C768.43 200.924 771.925 204.681 771.925 209.315V219.393L638.721 219.632V217.583C638.721 208.514 645.559 201.163 653.995 201.163H664.826Z" fill="white"/>
<path d="M715.272 208.032H721.174V221.164H715.272V208.032Z" fill="white" stroke="#CED7DB" stroke-width="0.511498" stroke-miterlimit="10"/>
<path d="M270.478 180.001H290.461L317.105 156.662H329.933L333.828 152.162H413.694L410.203 140.901H343.573L349.672 133.853H418.005C421.206 133.853 424.158 135.714 425.722 138.717L440.458 167.005H452.813C455.868 167.005 458.708 168.701 460.323 171.491L464.633 178.94H531.462C534.677 178.94 537.638 180.813 539.197 183.835L553.2 210.966H579.199C581.545 210.966 583.794 211.969 585.453 213.751L589.218 217.798C589.218 217.798 495.941 217.798 457.813 217.798C320.978 217.798 361.224 197.239 250.747 197.239L270.478 180.001Z" fill="white"/>
<path d="M545.983 202.215C482.892 202.215 409.436 202.215 409.436 202.215L404.102 207.949H326.227" fill="white"/>
<path d="M545.983 202.215C482.892 202.215 409.436 202.215 409.436 202.215L404.102 207.949H326.227" stroke="#CED7DB" stroke-width="0.511498" stroke-miterlimit="10"/>
<path d="M409.425 202.216L393.991 169.517H314.963L294.209 187.548H265.07" fill="white"/>
<path d="M409.425 202.216L393.991 169.517H314.963L294.209 187.548H265.07" stroke="#CED7DB" stroke-width="0.511498" stroke-miterlimit="10" stroke-linecap="round"/>
<path d="M299.905 182.592H400.172" stroke="#CED7DB" stroke-width="0.511498" stroke-miterlimit="10" stroke-linecap="round"/>
<path d="M545.983 202.215C482.892 202.215 409.436 202.215 409.436 202.215L404.102 207.949H326.227" fill="white"/>
<path d="M545.983 202.215C482.892 202.215 409.436 202.215 409.436 202.215L404.102 207.949H326.227" stroke="#CED7DB" stroke-width="0.511498" stroke-miterlimit="10"/>
<path d="M409.425 202.216L393.991 169.517H314.963L294.209 187.548H265.07" fill="white"/>
<path d="M409.425 202.216L393.991 169.517H314.963L294.209 187.548H265.07" stroke="#CED7DB" stroke-width="0.511498" stroke-miterlimit="10" stroke-linecap="round"/>
<path d="M299.905 182.592H400.172" stroke="#CED7DB" stroke-width="0.511498" stroke-miterlimit="10" stroke-linecap="round"/>
<path d="M413.694 152.155H333.828L343.571 140.894H410.203L413.694 152.155Z" fill="#32C7B4"/>
<path d="M250.735 197.241C361.212 197.241 320.968 217.8 457.801 217.8C495.929 217.8 589.206 217.8 589.206 217.8H775.457C777.919 217.8 780.257 216.635 781.848 214.613C783.456 212.568 785.829 211.401 788.321 211.426L827.771 211.846L826.003 218.556C820.852 218.556 812.928 218.556 807.524 218.556C798.918 218.556 799.732 223.475 789.498 223.475C779.264 223.475 453.335 223.475 401.545 223.475C349.756 223.475 306.649 207.139 278.429 207.139C254.21 207.139 63.9491 207.139 10.4785 207.139L-3.82659e-05 195.44L250.735 197.241Z" fill="#E3F1FC"/>
<path d="M278.408 207.142C306.629 207.142 349.735 223.478 401.524 223.478C453.314 223.478 779.243 223.478 789.477 223.478C799.711 223.478 798.897 218.559 807.503 218.559C812.907 218.559 820.831 218.559 825.982 218.559L818.364 247.48C751.32 247.48 278.495 247.48 242.437 247.48C164.721 247.48 134.045 229.968 30.484 229.5L10.4594 207.142C63.9261 207.142 254.189 207.142 278.408 207.142Z" fill="#38998C"/>
<path d="M410.622 15.2402H413.843V22.2541H411.507V48.9218H413.36L413.923 53.0793L409.573 53.7722V0.000244141L410.622 15.2402Z" fill="white"/>
<path d="M405.805 48.9216H407.658V22.2538H405.322V15.2399H408.543L409.589 0V53.772L405.241 53.079L405.805 48.9216Z" fill="#BADDF9"/>
<path d="M379.885 28.5963H438.822V37.4877H379.885V28.5963Z" fill="white"/>
<path d="M379.885 37.4885H438.822V45.1381H379.885V37.4885Z" fill="#E3F1FC"/>
<path d="M400.709 140.903H402.237V152.164H400.709V140.903Z" fill="#E3F1FC"/>
<path d="M387.167 140.903H388.694V152.164H387.167V140.903Z" fill="#E3F1FC"/>
<path d="M373.622 140.903H375.149V152.164H373.622V140.903Z" fill="#E3F1FC"/>
<path d="M360.079 140.903H361.606V152.164H360.079V140.903Z" fill="#E3F1FC"/>
<path d="M346.557 140.903H348.085V152.164H346.557V140.903Z" fill="#E3F1FC"/>
<path d="M232.291 189.374V175.823" stroke="white" stroke-width="0.926189" stroke-miterlimit="10"/>
<path d="M224.111 189.374V175.823" stroke="white" stroke-width="0.926189" stroke-miterlimit="10"/>
<path d="M215.912 189.374V175.823" stroke="white" stroke-width="0.926189" stroke-miterlimit="10"/>
<path d="M207.712 189.374V175.823" stroke="white" stroke-width="0.926189" stroke-miterlimit="10"/>
<path d="M199.532 189.374V175.823" stroke="white" stroke-width="0.926189" stroke-miterlimit="10"/>
<path d="M191.356 189.374V175.823" stroke="white" stroke-width="0.926189" stroke-miterlimit="10"/>
<path d="M183.153 189.374V175.823" stroke="white" stroke-width="0.926189" stroke-miterlimit="10"/>
<path d="M174.98 189.374V175.823" stroke="white" stroke-width="0.926189" stroke-miterlimit="10"/>
<path d="M166.777 189.374V175.823" stroke="white" stroke-width="0.926189" stroke-miterlimit="10"/>
<path d="M158.577 189.374V175.823" stroke="white" stroke-width="0.926189" stroke-miterlimit="10"/>
<path d="M150.422 189.374V175.823" stroke="white" stroke-width="0.926189" stroke-miterlimit="10"/>
<path d="M142.245 189.374V175.823" stroke="white" stroke-width="0.926189" stroke-miterlimit="10"/>
<path d="M134.021 189.374V175.823" stroke="white" stroke-width="0.926189" stroke-miterlimit="10"/>
<path d="M125.843 189.374V175.823" stroke="white" stroke-width="0.926189" stroke-miterlimit="10"/>
<path d="M117.663 189.374V175.823" stroke="white" stroke-width="0.926189" stroke-miterlimit="10"/>
<path d="M109.466 189.374V175.823" stroke="white" stroke-width="0.926189" stroke-miterlimit="10"/>
<path d="M101.263 189.374V175.823" stroke="white" stroke-width="0.926189" stroke-miterlimit="10"/>
<path d="M93.1104 189.374V175.823" stroke="white" stroke-width="0.926189" stroke-miterlimit="10"/>
<path d="M84.9082 189.374V175.823" stroke="white" stroke-width="0.926189" stroke-miterlimit="10"/>
<path d="M76.708 189.374V175.823" stroke="white" stroke-width="0.926189" stroke-miterlimit="10"/>
<path d="M237.403 176.153H68.5963" stroke="white" stroke-width="1.38935" stroke-miterlimit="10" stroke-linecap="round"/>
<path d="M44.4994 218.561C44.4994 221.089 46.4055 223.138 48.757 223.138C51.1086 223.138 53.0146 221.089 53.0146 218.561C53.0146 216.033 51.1086 213.984 48.757 213.984C46.4055 213.986 44.4994 216.035 44.4994 218.561Z" stroke="white" stroke-width="0.926189" stroke-miterlimit="10"/>
<path d="M66.6175 218.561C66.6175 221.089 68.5236 223.138 70.8752 223.138C73.2267 223.138 75.1328 221.089 75.1328 218.561C75.1328 216.033 73.2267 213.984 70.8752 213.984C68.5236 213.984 66.6175 216.035 66.6175 218.561Z" stroke="white" stroke-width="0.926189" stroke-miterlimit="10"/>
<path d="M91.3129 218.561C91.3129 221.089 93.2189 223.138 95.5705 223.138C97.922 223.138 99.8281 221.089 99.8281 218.561C99.8281 216.033 97.922 213.984 95.5705 213.984C93.2189 213.984 91.3129 216.035 91.3129 218.561Z" stroke="white" stroke-width="0.926189" stroke-miterlimit="10"/>
<path d="M760.775 212.535C760.775 213.946 761.84 215.091 763.153 215.091C764.465 215.091 765.53 213.946 765.53 212.535C765.53 211.124 764.465 209.98 763.153 209.98C761.84 209.98 760.775 211.124 760.775 212.535Z" fill="#CED7DB"/>
<path d="M752.152 212.535C752.152 213.947 753.216 215.091 754.529 215.091C755.842 215.091 756.906 213.947 756.906 212.535C756.906 211.124 755.842 209.98 754.529 209.98C753.216 209.98 752.152 211.124 752.152 212.535Z" fill="#CED7DB"/>
<path d="M743.504 212.535C743.504 213.947 744.569 215.091 745.882 215.091C747.194 215.091 748.259 213.947 748.259 212.535C748.259 211.124 747.194 209.98 745.882 209.98C744.569 209.98 743.504 211.124 743.504 212.535Z" fill="#CED7DB"/>
<path d="M734.884 212.535C734.884 213.947 735.948 215.091 737.261 215.091C738.574 215.091 739.638 213.947 739.638 212.535C739.638 211.124 738.574 209.98 737.261 209.98C735.948 209.98 734.884 211.124 734.884 212.535Z" fill="#CED7DB"/>
<path d="M696.741 212.535C696.741 213.947 697.806 215.091 699.118 215.091C700.431 215.091 701.496 213.947 701.496 212.535C701.496 211.124 700.431 209.98 699.118 209.98C697.806 209.98 696.741 211.124 696.741 212.535Z" fill="#CED7DB"/>
<path d="M688.094 212.535C688.094 213.947 689.158 215.091 690.471 215.091C691.784 215.091 692.848 213.947 692.848 212.535C692.848 211.124 691.784 209.98 690.471 209.98C689.158 209.98 688.094 211.124 688.094 212.535Z" fill="#CED7DB"/>
<path d="M679.47 212.535C679.47 213.947 680.535 215.091 681.847 215.091C683.16 215.091 684.225 213.947 684.225 212.535C684.225 211.124 683.16 209.98 681.847 209.98C680.535 209.98 679.47 211.124 679.47 212.535Z" fill="#CED7DB"/>
<path d="M670.826 212.535C670.826 213.947 671.89 215.091 673.203 215.091C674.516 215.091 675.58 213.947 675.58 212.535C675.58 211.124 674.516 209.98 673.203 209.98C671.89 209.98 670.826 211.124 670.826 212.535Z" fill="#CED7DB"/>
<path fill-rule="evenodd" clip-rule="evenodd" d="M792.066 260.742L788.632 255L782.315 265.501H794.913L792.502 261.47H786.98V260.742H792.066ZM776 276L781.891 266.206H795.335L797.951 270.58H786.979V271.285H798.373L801.193 276H776Z" fill="url(#paint1_linear_3132_328)"/>
<path d="M792.259 260.761H804.424V261.393H792.531L792.259 260.761Z" fill="url(#paint2_linear_3132_328)"/>
<path d="M795.046 265.5H799.547V266.133H795.335L795.046 265.5Z" fill="url(#paint3_linear_3132_328)"/>
<path d="M798.107 270.646H804.429V271.278H798.554L798.107 270.646Z" fill="url(#paint4_linear_3132_328)"/>
<defs>
<linearGradient id="paint0_linear_3132_328" x1="771.759" y1="265.747" x2="809.758" y2="265.747" gradientUnits="userSpaceOnUse">
<stop stop-color="#4CD1C0"/>
<stop offset="0.109666" stop-color="#32C7B4"/>
<stop offset="0.311" stop-color="#2BAF9A"/>
<stop offset="0.541" stop-color="#248E80"/>
<stop offset="0.95263" stop-color="#1D7166"/>
</linearGradient>
<linearGradient id="paint1_linear_3132_328" x1="791.556" y1="254.468" x2="792.513" y2="276.11" gradientUnits="userSpaceOnUse">
<stop offset="1" stop-color="#3BA899"/>
</linearGradient>
<linearGradient id="paint2_linear_3132_328" x1="798.341" y1="260.761" x2="798.341" y2="261.393" gradientUnits="userSpaceOnUse">
<stop stop-color="#15554D"/>
<stop offset="1" stop-color="#32C7B4"/>
</linearGradient>
<linearGradient id="paint3_linear_3132_328" x1="797.297" y1="265.5" x2="797.297" y2="266.133" gradientUnits="userSpaceOnUse">
<stop stop-color="#15554D"/>
<stop offset="1" stop-color="#32C7B4"/>
</linearGradient>
<linearGradient id="paint4_linear_3132_328" x1="801.268" y1="270.646" x2="801.268" y2="271.278" gradientUnits="userSpaceOnUse">
<stop stop-color="#15554D"/>
<stop offset="1" stop-color="#32C7B4"/>
</linearGradient>
</defs>
</svg>
