<svg width="2906" height="1632" viewBox="0 0 2906 1632" fill="none" xmlns="http://www.w3.org/2000/svg">
<path d="M0 1631.16H2905.97V40.504C2904.98 42.4015 2904.04 44.309 2903.12 46.2459C2902.7 47.1012 2903.53 49.6477 2901.93 48.1238C2900.33 46.5998 2903.19 48.3696 2898.41 42.2246C2893.64 36.0796 2890.95 24.1435 2878.84 13.4365C2866.74 2.72942 2835.07 -5.58845 2815.64 4.67616C2811.23 7.00634 2806.61 8.7761 2802.12 8.83509C2797.62 8.89408 2793.8 7.3308 2789.73 5.88549C2767.28 -2.26524 2744.42 18.1362 2734.98 30.141C2725.54 42.1459 2729.83 50.5621 2724.5 55.9599C2721.26 59.2634 2718.68 46.1279 2710.6 46.7964C2702.53 47.465 2691.16 49.0775 2687.17 59.6469C2673.69 38.1345 2654.82 28.273 2629.39 32.4024C2625.73 32.9923 2623.49 37.1808 2620.37 36.0599C2617.26 34.9391 2615.66 28.9219 2611.28 26.1001C2581.74 7.1145 2550.83 10.9391 2525.54 34.9489C2521.3 38.9702 2522.36 45.5969 2517.07 47.9665C2511.78 50.336 2497.93 46.5703 2491.86 52.1156C2492.49 36.5417 2497.42 27.0833 2480.72 14.9309C2464.02 2.77858 2433.77 11.067 2418.28 22.3246C2402.79 33.5822 2404.21 45.9214 2394.45 56.5793C2389.49 61.9967 2383.26 50.8472 2372.22 58.0836C2361.18 65.3199 2346.29 80.8643 2350.09 98.8766C2319.93 83.5583 2289.92 80.3629 2261.91 100.263C2245.74 111.747 2241.63 128.196 2237.73 145.883C2224.39 141.488 2211.58 141.223 2198.76 146.581C2181.83 123.673 2171.76 105.847 2137.81 101.62C2103.85 97.3919 2066.87 113.89 2045.65 143.003C2036.96 154.909 2037.3 172.666 2032.32 182.979C2029.47 188.879 2014.91 190.068 2010.38 193.598C2005.86 197.128 2004.89 206.96 2000.71 204.767C1980.1 193.952 1962.98 177.916 1933.61 180.816C1904.23 183.717 1879 203.43 1866.7 231.058C1857.42 230.684 1848.25 232.159 1840.83 236.731C1833.42 241.303 1830.91 246.612 1827.63 253.839C1807.44 240.33 1787.13 236.525 1764.19 244.852C1759.63 246.494 1756.5 251.253 1753.14 251.941C1749.79 252.629 1747.97 249.218 1744.62 248.352C1707.47 238.796 1676.74 247.625 1652.79 277.711C1652.62 272.982 1639.04 271.595 1640.87 267.004C1645.84 254.901 1657.18 242.719 1654.55 226.535C1647.4 182.134 1613.04 159.54 1568.35 156.453C1548.03 155.047 1531.62 169.834 1515.38 172.056C1506.58 173.256 1500.85 158.95 1490.91 155.086C1461.42 143.622 1433.66 138.45 1403.54 152.549C1401.95 153.277 1400.85 156.236 1399.72 154.889C1388.97 142.216 1384.83 134.242 1367.81 123.162C1350.79 112.081 1324.12 102.367 1300.95 107.047C1296.98 107.834 1292.44 112.327 1289.63 110.862C1286.82 109.397 1286.22 101.492 1282.02 97.795C1261.17 79.4878 1236.94 73.687 1208.65 72.3203C1157.46 69.8328 1112.49 75.8893 1072.75 108.699C1069.23 111.648 1069.77 119.022 1065.25 118.364C1047.15 115.758 1038.02 107.804 1014.52 109.869C991.019 111.933 960.429 126.013 947.611 149.384C946.698 151.075 943.888 148.4 941.882 147.928C907.907 140.564 871.668 164.151 867.855 193.598C864.042 223.045 883.244 228.423 901.672 240.88C892.895 250.515 888.219 261.577 892.637 274.692C874.011 283.256 859.664 294.199 847.641 310.491C822.005 278.507 791.435 257.772 748.971 263.041C741.236 264.025 735.815 272.638 731.536 272.588C727.257 272.539 726.115 268.066 722.342 263.346C718.569 258.627 701.383 254.497 699.953 246.848C696.458 228.03 695.068 208.356 681.089 190.314C667.11 172.272 641.434 157.475 620.942 152.953C600.449 148.43 579.123 157.406 570.495 165.036C561.867 172.666 566.305 173.108 562.453 175.497C560.675 176.599 560.348 177.08 560.308 177.247C560.258 177.179 560.109 177.061 559.673 176.933C557.895 176.412 557.687 172.705 556.565 170.208C546.517 148.489 533.382 129.798 509.454 121.136C506.535 120.084 504.619 120.861 502.008 120.625C499.396 120.389 498.036 119.465 495.375 119.514C492.714 119.563 491.185 121.677 488.346 122.375C485.506 123.073 483.62 123.053 479.907 123.85C476.193 124.646 469.323 129.002 465.143 129.041C460.963 129.08 459.573 136.563 455.016 132.708C450.459 128.854 442.814 115.984 433.928 110.97C411.012 97.9917 388.435 88.5136 361.002 86.5374C355.313 86.1343 350.547 85.2592 343.796 86.1933C337.045 87.1273 334.642 88.7594 325.23 90.7848C315.817 92.8102 304.975 98.3751 292.048 102.583C279.121 106.791 264.407 122.552 255.223 131.479C250.497 136.081 235.267 128.638 230.035 130.919C224.802 133.2 218.835 133.416 216.423 134.4C214.01 135.383 215.539 133.672 215.261 133.23C207.626 121.431 204.737 110.803 194.411 99.614C184.085 88.4251 168.915 77.8164 152.334 73.9131C120.88 66.5096 86.8749 71.9467 67.6135 97.6672C48.3521 123.388 50.9136 150.554 57.8041 178.516C58.7969 182.635 64.0094 184.985 63.0563 188.082C62.1031 191.179 61.8251 187.856 56.7417 191.809C51.6583 195.761 42.5439 195.741 35.2662 206.468C27.9886 217.195 31.2055 238.029 43.8346 248.087C44.8274 248.864 42.3751 247.3 39.4462 247.438C36.5172 247.576 26.4596 248.333 21.0585 249.621C15.6573 250.909 14.8928 251.027 8.33999 255.599C5.79828 257.368 2.82964 261.39 0 266.021V1631.16Z" fill="#99E4DB"/>
</svg>
