<svg width="81" height="359" viewBox="0 0 81 359" fill="none" xmlns="http://www.w3.org/2000/svg">
<path d="M21.1137 83.5115C19.8999 77.4594 12.3581 72.9532 12.2891 72.9138L13.4243 71.2656C13.7383 71.4451 21.129 75.7419 22.529 82.7236L21.1137 83.5115Z" fill="#32C7B4"/>
<path d="M59.1011 83.1464L57.2578 82.7236C58.6578 75.7422 66.0484 71.4454 66.3625 71.2656L67.8954 72.9137C67.826 72.9539 60.3145 77.0944 59.1011 83.1464Z" fill="#32C7B4"/>
<path d="M20.8516 93.6918L21.1824 72.8242H58.9134L59.2442 93.6918H20.8516Z" fill="#15554D"/>
<path d="M20.8516 93.6855L29.081 93.7381L29.7875 72.6523L21.1824 72.8179L20.8516 93.6855Z" fill="#15554D"/>
<path d="M54.6 22.1484H24.8125L24.8125 46.6598H54.6L54.6 22.1484Z" fill="white"/>
<path d="M39.6962 48.146C36.1466 48.146 33.2422 45.2393 33.2422 41.6868L33.2422 34.8966C33.2422 31.3442 36.1466 28.4375 39.6962 28.4375C43.2459 28.4375 46.1503 31.3442 46.1503 34.8966L46.1503 41.6868C46.1499 45.2396 43.2459 48.146 39.6962 48.146Z" fill="#248E80"/>
<path d="M27.782 22.3008H26.5L26.5 46.4807H27.782L27.782 22.3008Z" fill="#248E80"/>
<path d="M31.7508 22.3008H30.4688L30.4688 46.4807H31.7508L31.7508 22.3008Z" fill="#248E80"/>
<path d="M37.2195 22.3008H35.9375L35.9375 46.4807H37.2195L37.2195 22.3008Z" fill="#248E80"/>
<path d="M52.5945 22.3008H51.3125L51.3125 46.4807H52.5945L52.5945 22.3008Z" fill="#248E80"/>
<path d="M48.618 22.3008H47.3359L47.3359 46.4807H48.618L48.618 22.3008Z" fill="#248E80"/>
<path d="M43.1727 22.3008H41.8906L41.8906 46.4807H43.1727L43.1727 22.3008Z" fill="#248E80"/>
<path d="M55.9058 48.6445H23.25L23.25 66.9727H55.9058L55.9058 48.6445Z" fill="#0E3833"/>
<path d="M42.3436 50.7891H28.7188L28.7188 66.5227H42.3436L42.3436 50.7891Z" fill="white"/>
<path d="M35.0859 50.7891H31.4453L31.4453 66.5227H35.0859L35.0859 50.7891Z" fill="#15554D"/>
<path d="M30.1285 93.687L28.0625 93.6922L28.7493 72.625L30.8092 72.6901L30.1285 93.687Z" fill="#248E80"/>
<path d="M41.3972 72.6523H39.3359L39.3359 93.6698H41.3972L41.3972 72.6523Z" fill="#248E80"/>
<path d="M50.4429 93.683L49.7813 72.6901L51.8414 72.625L52.5144 93.675L50.4429 93.683Z" fill="#248E80"/>
<path d="M67.8534 66.3047H12.25L12.25 72.9294H67.8534L67.8534 66.3047Z" fill="#248E80"/>
<path d="M67.8592 66.968H12.2344L12.2344 56.4375H67.8589L67.8592 66.968ZM14.1525 65.0436H65.9411L65.9411 58.3619H14.1525L14.1525 65.0436Z" fill="#248E80"/>
<path d="M58.3458 45.3203H19.9531L19.9531 48.8534H58.3458L58.3458 45.3203Z" fill="#248E80"/>
<path d="M44.909 12.6383L44.1186 11.1883C43.69 10.4018 42.8664 9.91252 41.9714 9.91252H41.6899L41.6899 7.55823H41.6305C42.4865 6.9509 43.052 5.95645 43.052 4.83241L43.052 3.34545C43.052 1.50541 41.5477 0 39.7092 0C37.8706 0 36.3663 1.50541 36.3663 3.34545L36.3663 4.83241C36.3663 5.95645 36.9318 6.9509 37.7878 7.55823H37.7284L37.7284 9.91252H37.3223C36.363 9.91252 35.4927 10.4735 35.0957 11.3474L34.5093 12.6383C25.3479 15.1165 20.1484 22.3023 20.1484 22.3023H38.9663H40.452H59.2699C59.2699 22.3023 54.0704 15.1165 44.909 12.6383Z" fill="#248E80"/>
<path d="M16.8211 57.3945H15.5391L15.5391 66.2144H16.8211L16.8211 57.3945Z" fill="#248E80"/>
<path d="M22.0164 57.3945H20.7344L20.7344 66.2144H22.0164L22.0164 57.3945Z" fill="#248E80"/>
<path d="M27.2274 57.3945H25.9453L25.9453 66.2144H27.2274L27.2274 57.3945Z" fill="#248E80"/>
<path d="M32.407 57.3945H31.125L31.125 66.2144H32.407L32.407 57.3945Z" fill="#248E80"/>
<path d="M37.618 57.3945H36.3359L36.3359 66.2144H37.618L37.618 57.3945Z" fill="#248E80"/>
<path d="M42.8211 57.3945H41.5391L41.5391 66.2144H42.8211L42.8211 57.3945Z" fill="#248E80"/>
<path d="M48.0086 57.3945H46.7266L46.7266 66.2144H48.0086L48.0086 57.3945Z" fill="#248E80"/>
<path d="M53.2039 57.3945H51.9219L51.9219 66.2144H53.2039L53.2039 57.3945Z" fill="#248E80"/>
<path d="M58.3992 57.3945H57.1172L57.1172 66.2144H58.3992L58.3992 57.3945Z" fill="#248E80"/>
<path d="M63.6102 57.3945H62.3281L62.3281 66.2144H63.6102L63.6102 57.3945Z" fill="#248E80"/>
<path d="M59.2359 93.6875H42.6873H37.3919H20.8433L10.9141 344.1H38.0535H42.0253H69.1651L59.2359 93.6875Z" fill="#CBD5D4"/>
<path d="M20.0938 112.771C24.8173 106.806 29.5975 100.396 34.1776 93.6875H20.8504L20.0938 112.771Z" fill="#248E80"/>
<path d="M59.2357 93.6875H55.1563C45.7073 113.04 31.3262 132.107 18.7332 146.887L17.1094 187.842C26.5909 178.294 44.8437 158.86 60.8997 135.661L59.2357 93.6875Z" fill="#248E80"/>
<path d="M67.3178 297.498L65.373 248.453C52.3313 277.927 26.5648 307.526 11.7455 323.134L10.9141 344.099H28.384C38.0615 334.111 53.3756 317.274 67.3178 297.498Z" fill="#248E80"/>
<path d="M63.9591 212.771L62.0162 163.766C50.8313 188.983 30.3547 214.277 15.4073 230.812L13.9518 267.518L13.8594 270.244C15.3594 268.842 42.0742 243.796 63.9591 212.771Z" fill="#248E80"/>
<path d="M29.0668 93.689L28.384 344.1H10.9141L20.8432 93.6875L29.0668 93.689Z" fill="url(#paint0_linear_2810_13666)"/>
<path d="M75.4611 348.734H4.63281L4.63281 347.588C4.63281 345.294 6.49144 343.434 8.78422 343.434H71.3097C73.6025 343.434 75.4611 345.294 75.4611 347.588L75.4611 348.734Z" fill="#024038"/>
<path d="M80.0955 348.133H0L1.78433e-08 358.621H80.0955L80.0955 348.133Z" fill="#0C3E38"/>
<defs>
<linearGradient id="paint0_linear_2810_13666" x1="25.944" y1="28.4576" x2="19.9811" y2="344.1" gradientUnits="userSpaceOnUse">
<stop stop-color="#056458"/>
<stop offset="1" stop-color="#0C413A"/>
</linearGradient>
</defs>
</svg>
