<svg width="1336" height="768" viewBox="0 0 1336 768" fill="none" xmlns="http://www.w3.org/2000/svg">
<g clip-path="url(#clip0_2874_33427)">
<rect width="1336" height="768" fill="#AB5DBC"/>
<mask id="mask0_2874_33427" style="mask-type:luminance" maskUnits="userSpaceOnUse" x="0" y="0" width="1336" height="768">
<path d="M1336 0H0V768H1336V0Z" fill="white"/>
</mask>
<g mask="url(#mask0_2874_33427)">
<path d="M1335 -114H0V816H1335V-114Z" fill="url(#paint0_linear_2874_33427)"/>
<g opacity="0.3">
<path d="M-1 837.65H1334.12V108.758C1333.67 109.628 1333.24 110.502 1332.81 111.389C1332.62 111.781 1333 112.948 1332.27 112.25C1331.53 111.551 1332.85 112.362 1330.65 109.546C1328.46 106.731 1327.22 101.261 1321.66 96.3554C1316.1 91.4484 1301.55 87.6374 1292.62 92.3414C1290.6 93.4084 1288.48 94.2194 1286.41 94.2464C1284.34 94.2734 1282.59 93.5574 1280.72 92.8954C1270.4 89.1604 1259.9 98.5084 1255.56 104.009C1251.23 109.51 1253.2 113.367 1250.75 115.84C1249.26 117.354 1248.07 111.335 1244.36 111.641C1240.66 111.948 1235.43 112.687 1233.6 117.53C1227.4 107.672 1218.73 103.153 1207.05 105.046C1205.37 105.316 1204.34 107.235 1202.91 106.722C1201.48 106.208 1200.74 103.451 1198.73 102.158C1185.16 93.4584 1170.96 95.2104 1159.34 106.212C1157.39 108.055 1157.88 111.092 1155.45 112.178C1153.01 113.263 1146.65 111.538 1143.86 114.079C1144.16 106.942 1146.42 102.608 1138.75 97.0404C1131.07 91.4714 1117.17 95.2694 1110.06 100.428C1102.94 105.586 1103.59 111.24 1099.11 116.124C1096.83 118.607 1093.97 113.498 1088.9 116.814C1083.82 120.129 1076.98 127.252 1078.73 135.506C1064.87 128.487 1051.09 127.023 1038.22 136.141C1030.79 141.404 1028.9 148.941 1027.11 157.046C1020.98 155.032 1015.09 154.911 1009.2 157.366C1001.42 146.869 996.798 138.7 981.197 136.763C965.597 134.826 948.605 142.386 938.857 155.726C934.865 161.182 935.02 169.319 932.731 174.045C931.421 176.748 924.734 177.293 922.654 178.911C920.574 180.528 920.131 185.033 918.211 184.029C908.741 179.073 900.877 171.725 887.379 173.054C873.881 174.383 862.29 183.416 856.639 196.076C852.378 195.905 848.163 196.581 844.756 198.676C841.348 200.771 840.194 203.203 838.689 206.515C829.415 200.325 820.082 198.581 809.54 202.397C807.446 203.149 806.01 205.33 804.468 205.645C802.926 205.961 802.091 204.397 800.549 204.001C783.484 199.622 769.366 203.668 758.359 217.454C758.282 215.287 752.041 214.652 752.885 212.548C755.166 207.001 760.375 201.419 759.171 194.004C755.882 173.657 740.099 163.304 719.567 161.889C710.23 161.245 702.689 168.021 695.227 169.039C691.185 169.589 688.553 163.034 683.987 161.263C670.439 156.01 657.685 153.64 643.845 160.101C643.115 160.434 642.609 161.79 642.089 161.173C637.149 155.366 635.246 151.712 627.428 146.634C619.609 141.557 607.357 137.106 596.71 139.25C594.885 139.611 592.801 141.669 591.51 140.998C590.219 140.327 589.945 136.705 588.016 135.011C578.436 126.622 567.301 123.964 554.305 123.337C530.786 122.197 510.126 124.973 491.866 140.007C490.247 141.359 490.498 144.738 488.422 144.436C480.107 143.242 475.91 139.597 465.113 140.543C454.315 141.489 440.261 147.941 434.372 158.65C433.952 159.425 432.661 158.2 431.74 157.983C416.13 154.609 399.48 165.417 397.729 178.911C395.977 192.404 404.799 194.869 413.266 200.577C409.233 204.992 407.085 210.061 409.115 216.071C400.557 219.995 393.965 225.009 388.441 232.475C376.663 217.819 362.618 208.317 343.108 210.732C339.555 211.182 337.064 215.129 335.098 215.107C333.132 215.084 332.607 213.034 330.874 210.872C329.141 208.709 321.245 206.817 320.588 203.312C318.982 194.688 318.343 185.673 311.921 177.406C305.498 169.139 293.702 162.358 284.287 160.286C274.871 158.213 265.073 162.326 261.109 165.823C257.145 169.319 259.184 169.522 257.414 170.616C256.598 171.121 256.447 171.342 256.429 171.418C256.406 171.387 256.338 171.333 256.137 171.274C255.32 171.035 255.225 169.337 254.709 168.192C250.093 158.24 244.058 149.675 233.064 145.706C231.723 145.224 230.843 145.58 229.643 145.472C228.444 145.364 227.819 144.94 226.596 144.963C225.374 144.985 224.671 145.954 223.366 146.274C222.062 146.594 221.195 146.585 219.489 146.95C217.783 147.315 214.626 149.311 212.706 149.329C210.786 149.347 210.147 152.775 208.053 151.009C205.959 149.243 202.447 143.345 198.364 141.048C187.836 135.101 177.463 130.758 164.86 129.852C162.246 129.667 160.056 129.266 156.954 129.694C153.852 130.122 152.748 130.87 148.424 131.798C144.1 132.726 139.118 135.276 133.179 137.205C127.24 139.133 120.48 146.355 116.26 150.446C114.089 152.554 107.091 149.144 104.688 150.189C102.284 151.234 99.5421 151.333 98.4336 151.784C97.3251 152.235 98.0276 151.451 97.8999 151.248C94.392 145.841 93.0646 140.971 88.3205 135.844C83.5765 130.717 76.6064 125.856 68.9885 124.067C54.5374 120.675 38.9139 123.166 30.0644 134.952C21.215 146.738 22.3918 159.186 25.5576 171.999C26.0138 173.887 28.4086 174.964 27.9707 176.383C27.5328 177.802 27.405 176.28 25.0695 178.091C22.734 179.902 18.5464 179.893 15.2028 184.808C11.8591 189.723 13.3371 199.27 19.1394 203.879C19.5956 204.235 18.4689 203.519 17.1232 203.582C15.7775 203.645 11.1566 203.992 8.67514 204.582C6.19363 205.172 5.84239 205.226 2.83174 207.321C1.66397 208.132 0.300054 209.975 -1 212.097V837.65Z" fill="white"/>
</g>
<path d="M533.977 407.857C533.083 407.627 532.27 407.062 531.374 406.762C530.068 406.344 528.71 406.141 527.347 406.16C526.101 406.142 524.846 406.044 523.634 406.408H523.579C523.137 406.219 522.68 406.066 522.215 405.952C520.85 405.639 519.587 405.821 518.222 405.993C517.758 406.057 517.291 406.095 516.823 406.109C516.635 406.109 516.444 406.109 516.257 406.087C516.222 406.087 515.953 406.061 515.875 406.047C515.132 405.879 514.383 405.751 513.629 405.664C513.468 405.664 513.287 405.639 513.134 405.631C512.889 405.416 511.568 404.985 511.428 404.934C510.709 404.665 509.968 404.471 509.213 404.357C507.876 404.153 506.593 404.43 505.33 404.591L505.02 404.616L504.859 404.591L504.539 404.497C504.248 404.398 503.965 404.281 503.672 404.186C502.194 403.708 500.6 403.518 499.092 403.996C498.598 404.153 498.123 404.361 497.652 404.562C497.448 404.356 497.226 404.17 496.99 404.007C495.716 403.204 494.232 402.867 492.762 403.048C491.578 403.176 490.483 403.777 489.374 404.219C488.391 404.606 487.282 405.029 486.459 405.751C486.413 405.797 486.371 405.846 486.33 405.898C486.178 405.81 486.02 405.726 485.859 405.646C483.548 404.522 480.556 404.128 478.161 405.161C477.72 405.36 477.308 405.624 476.936 405.945C476.684 406.111 476.44 406.29 476.205 406.481C475.833 406.361 475.387 406.299 475.059 406.219C474.054 406.001 473.068 405.688 472.114 405.285C471.115 404.839 470.089 404.467 469.043 404.172C467.855 403.853 466.636 403.687 465.412 403.675C464.327 403.593 463.239 403.756 462.218 404.157C461.338 404.562 460.652 405.332 459.802 405.799C459.628 405.901 459.446 405.988 459.259 406.058L459.007 406.12C458.922 406.123 458.838 406.133 458.754 406.149C458.492 406.149 458.225 406.149 457.966 406.149C456.751 406.149 455.533 406.149 454.318 406.149C453.134 406.219 451.947 406.164 450.773 405.985C449.37 405.64 447.914 405.611 446.5 405.901C446.111 405.993 445.719 406.08 445.333 406.182C445.058 406.09 444.776 406.02 444.491 405.974C442.972 405.653 441.409 405.653 439.891 405.974C439.43 406.094 438.959 406.168 438.485 406.193C438.143 406.193 437.662 406.051 437.243 405.985C435.928 405.784 434.6 405.69 433.27 405.704C432.08 405.704 430.882 405.631 429.691 405.898C429.448 405.952 429.21 406.014 428.964 406.061C428.27 405.827 427.546 405.711 426.818 405.719C426.363 405.748 425.907 405.742 425.453 405.7C424.897 405.62 424.334 405.496 423.774 405.412C423.174 405.316 422.566 405.275 421.958 405.288C421.422 405.349 420.881 405.366 420.341 405.343C419.266 405.204 418.266 404.872 417.164 404.894C416.692 404.874 416.219 404.928 415.762 405.055C415.606 405.098 415.463 405.179 415.342 405.292C415.236 405.405 415.199 405.46 415.209 405.486C414.987 405.486 414.762 405.533 414.711 405.707C414.66 405.883 414.997 406.112 415.243 406.215C414.585 406.27 413.919 406.215 413.257 406.313C412.224 406.483 411.18 406.568 410.134 406.565C409.231 406.565 408.343 406.201 407.439 406.116C406.231 406.031 405.021 406.015 403.811 406.069C403.149 406.069 402.487 406.069 401.829 406.138L401.522 406.168C400.498 405.588 399.208 405.544 398.072 405.609C396.158 405.722 393.817 405.292 391.729 405.554C390.766 405.675 389.827 406.134 388.862 406.182C388.688 406.182 388.52 406.182 388.343 406.16C387.674 405.912 386.965 405.811 386.258 405.861C385.886 405.916 385.523 406.023 385.177 406.179C385.093 406.21 385.005 406.229 384.917 406.237L384.446 406.124C383.023 405.795 381.737 405.912 380.3 405.967C379.959 405.967 379.911 406.146 380.143 406.412C380.487 406.723 380.919 406.901 381.368 406.916C382.18 406.916 383.201 406.635 383.965 406.89C384.879 407.197 385.716 407.554 386.695 407.561C387.154 407.556 387.611 407.503 388.06 407.404C388.93 407.621 389.823 407.711 390.714 407.675C391.5 407.622 392.279 407.478 393.035 407.244C393.817 407.043 394.621 406.958 395.424 406.992C396.4 407.025 397.372 407.145 398.349 407.208C398.771 407.233 399.195 407.255 399.621 407.248C400.219 407.521 400.852 407.701 401.498 407.78C402.463 407.863 403.432 407.855 404.395 407.755C405.204 407.711 406.02 407.726 406.832 407.711C407.258 407.711 407.695 407.682 408.121 407.711C408.581 407.772 409.036 407.86 409.487 407.974C411.478 408.346 413.517 408.328 415.503 407.919C416.291 407.755 417.107 407.857 417.891 407.733C418.614 407.617 419.283 407.226 420.014 407.193C421.741 407.111 423.473 407.252 425.169 407.613C427.139 408.029 429.09 408.422 431.09 408.657C433.09 408.89 435.093 408.981 437.099 409.021C439.015 409.108 440.933 409.084 442.846 408.948C446.476 408.616 450.066 408.427 453.69 408.97C455.709 409.307 457.767 409.272 459.774 408.868L460.771 408.664C460.897 408.708 461.023 408.762 461.071 408.776C462.21 409.154 463.412 409.261 464.593 409.091C465.11 408.972 465.6 408.742 466.033 408.415C466.872 408.856 467.788 409.104 468.722 409.145C469.404 409.181 470.466 409.047 470.964 409.094C471.988 409.181 472.957 409.535 473.987 409.587C474.95 409.688 475.923 409.563 476.837 409.222C477.147 409.08 477.451 408.92 477.744 408.74C478.052 408.899 478.37 409.032 478.697 409.138C479.655 409.452 480.826 409.404 481.655 409.503C482.819 409.66 483.89 410.046 485.088 409.995C486.017 409.949 486.936 409.765 487.818 409.448C488.705 409.149 489.616 408.89 490.493 408.55C490.978 408.361 491.415 408.083 491.885 407.86C492.025 407.795 492.165 407.726 492.309 407.675C492.36 407.659 492.412 407.65 492.465 407.649L492.52 407.675C492.745 407.784 492.964 407.915 493.202 408.039C493.564 408.244 493.941 408.419 494.328 408.562C495.26 408.886 496.513 409.113 497.458 408.729C497.63 408.668 497.785 408.559 497.905 408.412C498.37 408.472 498.839 408.472 499.304 408.412C500.612 408.186 501.874 407.719 503.034 407.033C503.194 406.941 503.429 406.868 503.61 406.762C504.214 406.998 504.834 407.177 505.466 407.299C506.876 407.603 508.331 407.564 509.725 407.186C509.95 407.116 510.172 407.025 510.407 406.945C510.49 406.919 510.575 406.883 510.667 406.861C510.697 406.863 510.727 406.87 510.756 406.879C511.326 407.098 511.924 407.221 512.53 407.244C512.661 407.238 512.792 407.218 512.919 407.182C513.131 407.208 513.342 407.233 513.554 407.244C513.78 407.277 514.008 407.293 514.236 407.292L514.349 407.317C514.732 407.404 515.12 407.481 515.516 407.547C516.782 407.749 518.066 407.79 519.342 407.668C520.496 407.878 521.671 407.937 522.839 407.843C523.546 408.033 524.274 408.114 525.003 408.083C525.553 408.013 526.099 407.898 526.634 407.736C526.972 407.678 527.315 407.659 527.657 407.678C527.818 407.719 527.981 407.751 528.145 407.773C528.903 407.883 529.667 407.945 530.418 408.094H530.465C531.54 408.504 532.656 408.781 533.79 408.919C534.031 408.945 534.943 408.977 534.997 408.554C535.052 408.131 534.233 407.919 533.977 407.857Z" fill="#FEC6FF"/>
<path d="M282.963 407.152C282.06 406.955 281.246 406.47 280.343 406.213C279.027 405.854 277.66 405.68 276.287 405.696C275.034 405.681 273.77 405.596 272.551 405.909H272.495C272.055 405.747 271.602 405.617 271.139 405.518C269.765 405.249 268.495 405.405 267.121 405.553C266.654 405.608 266.183 405.641 265.713 405.653C265.524 405.653 265.331 405.653 265.142 405.653C265.108 405.653 264.84 405.628 264.758 405.612C263.999 405.499 263.274 405.337 262.501 405.299C262.337 405.299 262.159 405.277 262.001 405.271C261.757 405.083 260.427 404.717 260.283 404.673C259.56 404.441 258.814 404.276 258.054 404.178C256.708 404.003 255.417 404.238 254.146 404.378L253.837 404.401L253.675 404.378L253.353 404.297C253.057 404.213 252.773 404.112 252.477 404.031C250.99 403.621 249.386 403.458 247.868 403.868C247.37 404.003 246.896 404.181 246.419 404.351C246.212 404.176 245.989 404.018 245.753 403.877C244.476 403.187 242.988 402.891 241.511 403.036C240.316 403.145 239.214 403.662 238.101 404.041C237.109 404.376 235.996 404.736 235.168 405.355C235.121 405.394 235.077 405.436 235.038 405.48C234.879 405.405 234.725 405.333 234.564 405.264C232.236 404.303 229.227 403.959 226.813 404.848C226.371 405.022 225.956 405.248 225.58 405.521C225.404 405.64 225.04 405.834 224.845 405.981C224.471 405.875 224.021 405.825 223.694 405.756C222.682 405.568 221.689 405.3 220.727 404.954C219.722 404.572 218.69 404.251 217.636 403.997C216.442 403.727 215.216 403.584 213.986 403.574C212.894 403.503 211.798 403.644 210.771 403.987C209.882 404.335 209.191 404.995 208.34 405.396C208.164 405.484 207.98 405.558 207.79 405.618C207.705 405.631 207.622 405.649 207.539 405.671C207.454 405.674 207.369 405.683 207.285 405.7C207.021 405.7 206.753 405.7 206.488 405.7C205.266 405.7 204.04 405.7 202.817 405.7C201.626 405.757 200.431 405.708 199.249 405.555C197.838 405.259 196.375 405.235 194.953 405.484C194.561 405.562 194.163 405.637 193.775 405.725C193.498 405.644 193.214 405.585 192.927 405.546C191.398 405.271 189.826 405.271 188.297 405.546C187.833 405.65 187.359 405.712 186.882 405.731C186.464 405.692 186.048 405.634 185.636 405.555C184.312 405.383 182.975 405.303 181.638 405.314C180.436 405.314 179.217 405.255 178.036 405.48C177.792 405.528 177.551 405.58 177.304 405.618C176.604 405.421 175.874 405.322 175.14 405.327C174.677 405.357 174.213 405.357 173.75 405.327C173.19 405.255 172.627 405.149 172.06 405.077C171.455 404.995 170.844 404.959 170.233 404.967C169.692 405.021 169.148 405.038 168.605 405.017C167.523 404.898 166.517 404.613 165.408 404.632C164.932 404.616 164.457 404.664 163.996 404.773C163.841 404.808 163.697 404.877 163.577 404.973C163.471 405.07 163.433 405.114 163.44 405.139C163.217 405.139 162.99 405.177 162.942 405.33C162.894 405.484 163.227 405.678 163.474 405.765C162.815 405.812 162.145 405.765 161.475 405.85C160.437 405.995 159.387 406.067 158.337 406.066C157.423 406.066 156.534 405.753 155.623 405.681C154.408 405.608 153.19 405.594 151.973 405.64C151.286 405.64 150.64 405.64 149.974 405.7L149.668 405.725C148.638 405.227 147.337 405.189 146.193 405.246C144.27 405.343 141.91 404.973 139.812 405.199C138.844 405.302 137.896 405.696 136.927 405.734C136.752 405.734 136.584 405.734 136.405 405.719C135.73 405.506 135.016 405.419 134.303 405.462C133.929 405.51 133.563 405.601 133.215 405.734C133.131 405.761 133.043 405.778 132.954 405.784L132.48 405.687C131.048 405.405 129.756 405.505 128.311 405.553C127.947 405.553 127.916 405.706 128.149 405.934C128.495 406.202 128.929 406.355 129.382 406.37C130.199 406.37 131.226 406.125 131.996 406.345C132.919 406.607 133.761 406.917 134.743 406.921C135.205 406.916 135.665 406.871 136.117 406.786C136.992 406.971 137.891 407.049 138.789 407.017C139.58 406.973 140.363 406.849 141.124 406.648C141.91 406.474 142.72 406.402 143.528 406.435C144.507 406.46 145.489 406.564 146.468 406.617C146.893 406.639 147.323 406.661 147.749 406.655C148.353 406.887 148.99 407.039 149.641 407.108C150.611 407.179 151.585 407.172 152.553 407.086C153.367 407.049 154.191 407.058 155.009 407.052C155.438 407.052 155.874 407.024 156.303 407.052C156.766 407.103 157.224 407.178 157.677 407.277C159.682 407.597 161.733 407.581 163.732 407.231C164.525 407.09 165.342 407.177 166.136 407.067C166.867 406.971 167.537 406.636 168.275 406.611C170.014 406.539 171.757 406.657 173.465 406.964C175.443 407.324 177.41 407.662 179.42 407.863C181.429 408.063 183.451 408.141 185.471 408.175C187.397 408.251 189.327 408.23 191.251 408.113C194.908 407.828 198.518 407.668 202.168 408.132C204.199 408.42 206.268 408.392 208.288 408.048C208.388 408.025 209.067 407.909 209.294 407.869L209.593 407.966C210.741 408.287 211.951 408.38 213.141 408.235C213.661 408.133 214.153 407.936 214.586 407.656C215.431 408.034 216.352 408.248 217.293 408.282C217.98 408.314 219.048 408.198 219.549 408.235C220.58 408.317 221.555 408.617 222.592 408.661C223.564 408.742 224.543 408.631 225.463 408.333C225.775 408.21 226.081 408.072 226.377 407.919C226.684 408.056 227.004 408.17 227.331 408.26C228.3 408.526 229.478 408.489 230.309 408.573C231.483 408.708 232.562 409.04 233.767 408.996C234.702 408.955 235.627 408.797 236.514 408.526C237.407 408.269 238.324 408.048 239.203 407.757C239.691 407.593 240.134 407.358 240.605 407.165C240.745 407.108 240.886 407.049 241.031 407.005C241.082 406.992 241.135 406.984 241.189 406.983L241.244 407.005C241.473 407.099 241.693 407.212 241.93 407.318C242.296 407.493 242.676 407.643 243.067 407.766C244.001 408.044 245.265 408.235 246.213 407.909C246.387 407.858 246.543 407.764 246.663 407.637C247.131 407.689 247.606 407.689 248.074 407.637C249.39 407.444 250.659 407.043 251.825 406.454C251.986 406.379 252.226 406.313 252.405 406.225C253.011 406.425 253.635 406.577 254.27 406.682C255.689 406.944 257.155 406.91 258.559 406.586C258.789 406.526 259.012 406.448 259.246 406.382C259.331 406.352 259.419 406.327 259.507 406.307C259.537 406.309 259.567 406.313 259.596 406.322C260.171 406.513 260.775 406.618 261.386 406.636C261.515 406.63 261.644 406.614 261.77 406.586C261.986 406.605 262.199 406.623 262.412 406.636C262.64 406.664 262.869 406.678 263.099 406.676L263.216 406.698C263.601 406.773 263.992 406.836 264.387 406.896C265.661 407.069 266.954 407.103 268.237 406.996C269.401 407.177 270.583 407.227 271.76 407.146C272.469 407.31 273.2 407.379 273.931 407.352C274.488 407.293 275.04 407.194 275.58 407.055C275.92 407.004 276.266 406.987 276.609 407.005C276.772 407.04 276.936 407.067 277.101 407.086C277.863 407.181 278.632 407.233 279.391 407.362H279.436C280.518 407.711 281.64 407.947 282.781 408.063C283.025 408.088 283.938 408.116 283.997 407.75C284.055 407.383 283.203 407.206 282.963 407.152Z" fill="#FEC6FF"/>
<path d="M372.87 405.508C372.519 405.283 372.105 405.167 371.683 405.177C370.742 405.131 369.803 405.084 368.866 405.011C368.444 404.958 368.019 404.935 367.593 404.942H367.566L367.174 404.833C365.352 404.329 363.551 404.448 361.684 404.445C360.041 404.445 358.36 404.323 356.727 404.445C356.341 404.434 355.959 404.523 355.622 404.703C355.347 404.909 355.505 404.925 355.172 404.949C354.297 405.008 353.395 404.949 352.517 404.949C351.415 404.949 350.297 405.008 349.182 405.028L349.078 405.004C348.811 404.942 348.537 404.889 348.262 404.836C347.537 404.703 346.805 404.614 346.069 404.571C345.383 404.528 344.697 404.515 344.011 404.525C343.706 404.435 343.4 404.34 343.098 404.221C341.629 403.635 340.192 403.039 338.6 402.854C337.571 402.731 336.5 402.669 335.457 402.619C334.688 402.564 333.915 402.608 333.158 402.751C332.74 402.416 332.294 402.113 331.827 401.845C330.58 401.12 329.227 400.583 327.812 400.253C326.44 399.961 323.959 399.673 322.964 400.915C322.699 401.333 322.48 401.776 322.309 402.238C322.204 402.387 322.089 402.53 321.965 402.665L321.623 402.589C321.118 402.493 320.593 402.423 320.099 402.37C319.176 402.289 318.25 402.254 317.323 402.265H316.981H316.953C316.63 402.188 316.304 402.116 315.978 402.053C314.78 401.79 313.539 401.766 312.331 401.98C310.959 402.248 309.404 402.824 308.021 402.741C307.606 402.718 306.752 402.493 306.151 402.41L306.011 402.39C305.757 402.282 305.493 402.197 305.221 402.139C304.542 401.963 303.843 401.868 303.139 401.858C302.163 401.849 301.196 402.049 300.308 402.443C299.965 402.606 299.66 402.837 299.317 402.999C299.023 403.109 298.705 403.145 298.394 403.102C296.534 403.039 294.619 403.036 292.76 403.138L291.947 403.201L291.827 403.158C290.865 402.844 289.853 402.702 288.838 402.738C287.157 402.738 285.685 401.944 284.117 402.896C283.657 403.178 284.693 403.687 284.834 403.747C285.452 404.043 286.146 404.158 286.831 404.078C287.425 403.946 288.034 403.899 288.643 403.939C288.766 403.959 288.886 403.986 289.01 404.002C289.662 404.158 290.269 404.478 290.951 404.551C291.634 404.624 292.194 404.502 292.825 404.604C293.456 404.707 294.057 404.823 294.681 404.879C295.306 404.935 295.875 404.879 296.452 404.971C297.107 405.084 297.735 405.303 298.4 405.389C299.773 405.557 301.194 405.441 302.58 405.538C303.295 405.599 304.005 405.71 304.704 405.868C305.457 406.005 306.222 406.069 306.989 406.061C308.341 406.083 309.552 406.587 310.886 406.775C312.314 406.977 313.631 406.676 315.024 406.484C316.287 406.308 317.639 406.415 318.916 406.415C320.271 406.41 321.625 406.313 322.968 406.127C324.028 405.984 324.937 405.845 325.874 405.312C326.164 405.121 326.472 404.956 326.793 404.819C326.793 404.819 326.989 404.776 327.068 404.753C326.8 404.83 325.147 405.167 326.691 404.71C326.917 404.644 327.397 404.816 327.644 404.849C328.262 404.932 328.89 404.998 329.504 405.131C329.504 405.131 329.953 405.256 330.015 405.276L330.729 405.501C332.236 405.992 333.802 406.303 335.388 406.424C336.734 406.517 338.065 406.739 339.41 406.802C340.792 406.861 342.177 406.742 343.527 406.448C344.528 406.257 345.546 406.165 346.567 406.173C347.044 406.173 347.644 406.202 348.176 406.242C348.124 406.242 348.894 406.315 348.801 406.302C349.03 406.328 349.26 406.354 349.487 406.398C349.463 406.398 349.487 406.398 349.617 406.434C349.813 406.481 350.012 406.517 350.211 406.556C350.636 406.642 351.065 406.722 351.494 406.789C352.188 406.899 352.888 406.968 353.591 406.997C354.973 407.021 356.355 406.893 357.708 406.613C358.306 406.497 358.895 406.342 359.472 406.149C359.882 405.993 360.306 405.87 360.737 405.782H362.261C363.218 405.782 364.176 405.782 365.13 405.762C365.438 405.762 365.764 405.762 366.073 405.762C365.949 405.762 366.022 405.71 366.19 405.762C366.481 405.848 366.776 405.931 367.075 405.994C368.883 406.375 370.849 405.994 372.674 405.901C373.025 405.868 373.096 405.706 372.87 405.508Z" fill="#FEC6FF"/>
<path d="M195.528 400.339C193.743 400.14 192.153 399.333 190.34 399.202C188.389 399.065 186.408 399.176 184.451 399.169C180.927 399.169 176.824 398.563 173.428 399.644C172.868 399.822 172.847 400.185 173.428 400.382C176.374 401.365 179.952 400.887 183.005 400.863C186.95 400.837 190.845 400.896 194.787 400.965C195.257 400.975 196.754 400.473 195.528 400.339Z" fill="#FEC6FF"/>
<path d="M913.853 395.878C914.853 394.583 915.786 393.577 913.958 392.031C912.304 390.624 909.431 390.336 907.348 389.881C904.896 389.379 902.369 389.339 899.902 389.763C899.571 389.24 899.195 388.75 898.767 388.302C896.307 385.773 892.209 384.068 888.749 383.623C880.2 382.532 870.842 383.308 863.925 388.651C863.128 388.461 862.359 388.556 861.531 388.444C859.699 388.187 858.03 387.088 856.239 386.604C854.259 386.104 852.204 385.974 850.176 386.221C849.126 386.343 848.176 386.708 847.157 386.899C846.012 387.352 846.214 387.153 847.752 386.295C847.584 385.87 847.39 385.456 847.171 385.054C845.919 383.515 843.505 383.776 841.208 384.573C841.167 384.522 841.126 384.471 841.092 384.424C838.676 381.264 835.849 378.437 832.684 376.013C830.8 374.599 829.265 373.114 827.001 372.331C824.565 371.476 821.98 371.122 819.401 371.29C816.265 371.518 813.38 372.619 810.617 374.043C810.008 374.358 809.407 374.687 808.818 375.06C806.258 372.04 803.293 369.297 799.344 368.304C796.223 367.514 792.708 368.169 789.668 369.005C788.759 369.26 787.843 369.548 786.933 369.887C786.638 369.477 786.375 369.124 786.286 369.019C785.353 368.002 784.604 366.931 783.743 365.863C781.715 363.341 778.06 361.639 774.921 361.012C771.287 360.29 767.314 359.656 763.621 360.226C761.749 360.548 759.911 361.042 758.13 361.7C757.888 361.171 757.654 360.622 757.545 360.445C756.941 359.501 756.186 358.659 755.31 357.954C754.198 356.967 753.056 355.882 751.75 355.141C750.229 354.272 748.451 354.035 746.847 353.371C744.276 352.303 743.848 349.187 743.065 346.682C742.074 343.512 742.108 340.404 740.6 337.332C737.735 331.498 732.931 326.725 728.172 322.385C723.464 318.151 718.196 314.575 712.512 311.754C714.305 309.994 715.93 308.073 717.364 306.015C719.097 303.577 720.933 301.123 721.378 298.102C721.884 294.685 721.166 290.769 720.55 287.396C719.378 281.043 714.834 274.067 710.228 269.575C709.675 269.041 709.081 268.55 708.45 268.107C709.186 264.843 708.878 261.433 707.568 258.351C705.048 252.367 699.523 250.57 693.751 248.713C689.898 247.472 685.795 246.339 681.784 245.851C679.976 245.631 678.191 245.743 676.382 245.448C674.611 245.156 672.82 245.007 671.024 245.001C667.263 244.974 663.704 245.767 659.977 246.048C655.782 246.366 651.843 247.53 647.976 249.15C641.106 251.96 634.912 256.175 629.797 261.52C627.133 264.33 625.242 267.683 623.085 270.86C622.686 271.457 622.342 272.089 622.059 272.748C612.643 272.172 604.769 279.433 597.178 283.871C593.632 285.946 590.083 288.166 587.745 291.569C582.575 290.834 577.829 290.864 572.892 292.827C567.701 294.885 556.802 300.733 560.494 307.805C563.469 313.51 570.868 315.697 577.316 316.737C577.658 317.629 578.07 318.493 578.547 319.321C575.564 320.121 572.628 321.087 569.753 322.212C564.174 324.365 558.883 326.86 554.733 331.288C550.582 335.715 549.119 341.377 548.791 347.201L548.497 347.316C545.17 348.716 541.563 348.98 538.338 350.788C537.18 351.439 536.065 352.165 535.001 352.961C533.245 352.331 531.422 351.906 529.568 351.693C525.076 351.18 520.73 350.52 516.196 351.14C509.775 352.011 500.092 353.265 496.05 358.958C494.31 361.411 493.592 365.564 494.122 369.378C491.728 370.056 489.308 370.789 486.993 371.66C483.574 372.945 480.055 374.684 477.252 377.145C474.025 377.03 470.571 377.647 467.644 378.22C465.231 378.695 462.355 379.291 459.801 380.362C454.969 379.386 450.084 379.708 445.215 379.054C442.475 378.72 439.699 378.817 436.988 379.339C435.467 377.396 433.07 375.999 430.889 375.128C426.548 373.428 421.972 372.389 417.318 372.047C416.573 371.986 415.834 371.89 415.102 371.795C415.006 371.522 414.892 371.255 414.761 370.995C413.957 369.409 412.525 368.073 411.513 366.619C410.391 365.019 409.348 363.758 407.44 363.09C405.731 362.494 403.949 361.666 402.134 361.422C399.819 361.11 397.439 361.466 395.115 361.51C392.998 361.551 391.302 361.127 389.278 360.706C386.861 360.208 384.422 360.876 382.071 361.384C377.903 362.287 373.779 363.534 370.38 366.199C366.082 369.568 364.835 374.179 365.416 378.902L365.327 378.983C363.99 380.224 361.771 381.603 361.005 383.308C360.704 384.007 360.611 384.776 360.738 385.525C358.632 384.227 356.577 382.956 354.023 382.519C351.757 382.167 349.448 382.176 347.185 382.546C344.662 382.911 342.183 382.807 339.663 383.081C337.001 383.328 334.356 383.719 331.738 384.251C331.676 381.321 330.209 378.64 326.81 377.701C324.656 377.105 322.995 376.511 320.7 376.756C319.445 376.9 318.203 377.139 316.984 377.47C316.854 377.508 316.741 377.535 316.642 377.565C316.642 377.497 316.457 377.433 315.749 377.42C311.127 377.315 306.053 379.244 301.523 380.132C299.341 380.549 297.125 380.471 294.94 380.898L294.411 381.01L294.127 380.945C292.958 380.701 291.734 380.752 290.54 380.555C285.607 379.745 281.138 379.494 276.228 380.82C274.146 381.382 271.893 381.932 269.954 382.908C268.015 383.884 267.636 384.875 266.535 386.563C266.312 386.82 266.37 386.946 266.709 386.942C266.345 387.045 265.987 387.168 265.635 387.309H265.543C265.062 387.308 264.582 387.34 264.107 387.407C261.96 387.522 259.526 388.214 259.296 389.376C259.272 389.509 259.245 389.641 259.221 389.77C257.957 389.717 256.699 389.56 255.46 389.302C254.434 389.095 253.839 389.058 252.947 388.553C252.055 388.048 251.402 387.505 250.386 387.224C247.938 386.546 245.096 386.993 242.69 387.6C241.247 387.966 238.276 388.386 236.094 389.428C234.706 389.16 233.28 389.058 231.882 388.851C228.631 388.326 225.352 387.986 222.062 387.834C214.882 387.586 207.455 388.173 200.313 388.96C198.556 389.153 198.569 390.072 200.313 390.268C210.714 391.434 220.981 390.987 231.256 393.363C234.009 393.997 237.288 393.641 239.927 392.685C240.375 392.525 242.515 391.729 243.004 391.142L243.237 391.095L243.486 391.261C244.019 391.909 245.103 392.363 245.88 392.597C247.669 393.116 249.499 393.491 251.351 393.716C256.855 394.394 262.739 393.349 268.001 391.793C268.141 391.75 269.492 391.407 270.546 391.065C270.511 391.203 270.71 391.329 271.168 391.437C271.678 391.659 272.213 391.82 272.76 391.919C274.86 392.39 277.038 392.353 279.155 392.716C282.995 393.394 286.786 393.77 290.636 392.933C292.865 392.468 295.001 391.644 296.961 390.495C297.136 390.39 297.303 390.275 297.478 390.156C297.87 390.255 298.267 390.332 298.668 390.387C300.602 390.623 302.556 390.659 304.497 390.492C306.156 390.395 307.796 390.089 309.376 389.58C309.53 389.726 309.718 389.919 309.954 390.142C310.638 390.82 311.342 391.482 312.074 392.095C309.151 392.854 306.234 393.926 303.335 394.781C301.253 395.394 299.249 395.164 297.074 395.197C291.413 395.285 285.726 395.336 280.068 395.536C277.633 395.631 275.195 395.696 272.764 395.838C271.858 395.838 270.954 395.93 270.067 396.112C269.609 396.238 268.76 396.933 268.419 396.96C267.622 397.028 265.823 397.838 267.629 398.042C268.623 398.151 269.629 398.115 270.613 397.936C271.681 397.787 272.763 397.772 273.834 397.889C277.879 398.153 281.948 398.13 286 398.177C290.184 398.228 294.37 398.455 298.555 398.516C302.524 398.577 305.93 397.574 309.711 396.57C311.404 396.119 313.223 395.817 314.823 395.079L315.165 394.939C315.722 395.092 316.358 395.096 316.908 395.279C318.478 395.781 319.685 396.38 321.391 396.38C323.409 396.38 325.186 395.804 327.05 395.153C330.024 394.112 332.845 394.37 335.939 393.984C337.383 393.8 338.781 393.356 340.217 393.197C341.718 393.088 343.224 393.079 344.727 393.167H344.795C345.052 393.268 345.328 393.315 345.605 393.306C345.841 393.34 346.071 393.374 346.289 393.397C348.046 393.577 349.804 393.543 351.568 393.608C355.75 393.757 359.774 395.252 363.949 395.058C366.367 394.943 368.442 394.13 370.825 393.668C372.893 393.29 374.992 393.103 377.096 393.112C377.715 393.112 378.34 393.082 378.973 393.054C380.515 393.235 382.075 393.213 383.612 392.991L383.896 393.007C384.734 393.075 386.912 393.746 388.108 393.97C391.669 394.658 395.333 394.614 398.876 393.842C399.358 393.736 400.8 393.533 401.921 393.214C403.659 394.085 405.83 394.431 407.694 394.675C411.044 395.536 414.559 396.126 417.951 395.963C421.486 395.797 424.789 394.489 428.208 393.93C430.745 394.349 433.32 394.483 435.887 394.329C439.129 394.099 442.1 393.651 445.359 393.678C448.494 393.712 450.429 393.34 452.696 393.468C455.13 393.601 456.601 394.146 459.243 394.631C462.003 395.136 464.844 395.079 467.641 395.034C470.08 394.994 472.512 395.302 474.862 395.95C476.035 396.245 477.553 396.319 478.582 396.76C478.708 396.814 478.863 396.855 479.013 396.906H478.671C476.582 396.906 472.684 397.085 471.34 399.157C470.363 400.666 471.501 402.384 472.626 403.438C474.516 405.208 477.01 405.625 479.539 405.618C481.053 405.623 482.563 405.45 484.035 405.1C484.654 404.951 485.266 404.76 485.875 404.564C486.176 404.466 486.482 404.385 486.792 404.32C489.718 404.398 492.604 404.696 495.517 404.154C498.252 403.649 500.543 402.198 503.23 401.544C504.149 401.333 505.046 401.042 505.912 400.672C506.253 400.944 506.616 401.188 506.998 401.401C509.348 402.669 512.322 402.862 514.938 402.689C517.362 402.53 519.823 401.909 522.207 401.421C523.509 401.154 524.908 400.794 526.053 400.092C526.368 399.918 526.657 399.702 526.915 399.452C526.98 399.38 527.035 399.316 527.086 399.255C528.265 399.347 529.439 399.506 530.6 399.729C531.626 400.069 532.471 400.747 533.534 401.055C534.731 401.414 535.928 401.333 537.111 401.462C536.7 401.462 539.2 402.008 539.566 402.062C541.314 402.289 543.076 402.384 544.838 402.347C547.741 402.347 550.832 401.927 553.707 402.255C556.309 402.553 558.494 402.984 561.165 402.703C563.946 402.404 566.703 401.909 569.415 401.222C570.519 400.947 571.77 400.716 572.803 400.204H573.227C576.157 400.306 579.139 400.387 581.997 399.618C582.874 399.407 583.724 399.098 584.531 398.699L585.081 398.675C586.172 398.648 587.573 398.269 588.763 398.191C588.35 398.371 590.473 399.208 591.064 399.441C595.199 401.137 598.983 403.906 603.277 405.204C608.864 406.879 614.998 405.544 620.537 404.235C622.452 403.791 624.453 403.364 626.288 402.625C626.518 402.812 626.73 402.994 626.914 403.157C628.699 404.737 630.06 406.235 632.385 407.089C634.71 407.944 637.284 408.134 639.699 408.815C642.271 409.568 644.935 409.966 647.617 409.998C653.358 410.056 659.355 408.7 663.704 404.791C664.518 404.062 665.458 403.096 665.851 402.079C667.602 402.157 669.369 402.1 671.127 402.103C673.512 402.161 675.899 402.017 678.259 401.672C680.013 401.38 681.678 400.787 683.354 400.258C684.441 401.134 685.72 403.116 686.431 403.794C687.891 405.208 689.262 406.116 691.348 406.266C694.001 406.452 696.845 405.649 699.25 404.602C699.489 404.499 699.721 404.388 699.957 404.262C701.185 405.042 702.392 405.927 703.861 406.228C706.402 406.754 709.076 406.178 711.469 405.31C713.862 404.442 715.842 403.388 717.388 401.92C719.073 402.391 720.653 403.231 722.393 403.584C724.573 404.063 726.79 404.356 729.019 404.462C730.989 404.517 732.593 404.307 734.49 404.848C738.644 406.039 743.38 405.059 747.596 404.547C750.044 404.252 751.148 403.978 753.572 404.69C755.255 405.181 756.55 406.435 758.215 406.781C760.489 407.259 763.002 406.388 765.03 405.456C765.371 405.293 765.714 405.116 766.056 404.927C766.657 405.12 767.266 405.293 767.881 405.435C772.644 406.571 777.599 405.9 782.437 406.046C784.557 406.107 786.598 406.791 788.717 406.496C791.094 406.157 793.371 405.11 795.614 404.32C797.665 403.591 799.796 403.021 801.747 401.997C802.573 401.576 803.364 401.092 804.113 400.55C804.37 400.55 804.572 400.581 804.647 400.594C805.772 400.812 806.804 401.211 807.964 401.272C809.037 401.319 810.015 401.116 811.078 401.306C811.763 401.429 812.347 401.74 813.059 401.794C815.349 401.964 817.411 400.581 819.654 400.533C822.081 400.486 824.407 401.889 826.663 402.611C831.077 404.028 835.987 405.544 840.62 404.496C842.822 403.998 845.013 402.333 847.167 402.024C848.35 401.855 849.848 402.459 851.045 402.598C852.095 402.72 853.137 402.73 854.198 402.764C856.727 402.845 859.257 403.103 861.791 402.798C864.184 402.503 865.641 402.008 868.093 402.425C870.479 402.787 872.893 402.944 875.307 402.893C877.584 402.893 879.731 402.215 881.988 402.089C884.38 401.95 886.771 402.367 889.17 402.164C891.434 401.926 893.637 401.278 895.668 400.252C896.172 400.073 896.661 399.862 897.142 399.618C897.578 400.109 898.443 400.215 899.022 400.33C901.812 400.886 904.836 400.042 907.573 399.489C907.852 399.432 908.122 399.362 908.393 399.276C909.694 399.516 911.507 398.638 912.544 397.963C912.845 397.763 914.951 396.221 913.853 395.878Z" fill="#FFCCF5"/>
<path opacity="0.5" d="M904.643 395.35C899.349 394.228 894.168 396.156 888.866 396.24C884.708 396.313 879.326 394.071 875.634 396.42C874.784 396.53 874.051 396.776 874.002 397.31C873.906 398.429 877.26 398.68 877.928 398.737C879.601 398.877 882.337 399.686 884.473 399.873C886.889 400.137 889.351 399.989 891.699 399.437C892.843 399.185 893.895 398.743 895.024 398.461C896.296 398.144 897.63 398.183 898.94 398.075C901.061 397.873 903.144 397.444 905.136 396.797C906.704 396.329 905.893 395.614 904.643 395.35Z" fill="white"/>
<path opacity="0.2" d="M913.852 395.415C914.853 394.124 915.787 393.12 913.957 391.579C912.3 390.177 909.423 389.889 907.345 389.436C904.882 388.935 902.36 388.895 899.882 389.318C899.558 388.796 899.174 388.308 898.745 387.862C896.282 385.34 892.178 383.641 888.714 383.197C880.154 382.11 870.783 382.883 863.857 388.21C863.059 388.021 862.289 388.115 861.46 388.003C859.625 387.747 857.954 386.652 856.16 386.169C854.179 385.671 852.12 385.541 850.09 385.787C849.039 385.908 848.087 386.273 847.067 386.463C845.92 386.915 846.122 386.716 847.662 385.861C847.494 385.437 847.299 385.025 847.08 384.624C845.827 383.089 843.41 383.35 841.11 384.144C841.068 384.093 841.028 384.043 840.993 383.995C838.574 380.846 835.743 378.027 832.574 375.61C830.688 374.201 829.15 372.721 826.884 371.94C824.445 371.088 821.855 370.734 819.273 370.902C816.133 371.129 813.244 372.227 810.477 373.646C809.868 373.961 809.266 374.289 808.677 374.661C806.112 371.65 803.144 368.915 799.189 367.925C796.063 367.137 792.544 367.79 789.5 368.624C788.59 368.878 787.672 369.165 786.761 369.503C786.467 369.095 786.203 368.743 786.114 368.638C785.179 367.624 784.43 366.556 783.567 365.492C781.536 362.977 777.876 361.28 774.734 360.656C771.094 359.935 767.116 359.304 763.418 359.872C761.544 360.193 759.703 360.686 757.92 361.341C757.677 360.815 757.444 360.267 757.334 360.091C756.728 359.149 755.972 358.31 755.095 357.607C753.983 356.623 752.839 355.542 751.531 354.802C750.007 353.936 748.227 353.7 746.621 353.038C744.046 351.973 743.619 348.867 742.835 346.37C741.841 343.209 741.876 340.111 740.366 337.048C737.497 331.232 732.687 326.474 727.921 322.148C723.207 317.927 717.931 314.361 712.24 311.549C714.035 309.794 715.662 307.879 717.098 305.828C718.834 303.397 720.673 300.95 721.118 297.939C721.624 294.533 720.906 290.629 720.289 287.266C719.115 280.933 714.565 273.977 709.953 269.5C709.399 268.967 708.804 268.477 708.173 268.036C708.909 264.782 708.6 261.382 707.289 258.31C704.766 252.345 699.234 250.553 693.454 248.701C689.596 247.464 685.487 246.335 681.471 245.848C679.659 245.629 677.872 245.74 676.061 245.446C674.288 245.156 672.494 245.007 670.696 245.001C666.93 244.974 663.367 245.764 659.634 246.045C655.434 246.362 651.49 247.522 647.617 249.137C640.739 251.939 634.535 256.141 629.413 261.469C626.746 264.271 624.852 267.614 622.692 270.78C622.293 271.376 621.948 272.006 621.665 272.663C612.236 272.088 604.351 279.327 596.75 283.752C593.2 285.82 589.647 288.033 587.304 291.426C582.128 290.693 577.376 290.723 572.432 292.681C567.235 294.732 556.32 300.562 560.017 307.612C562.996 313.3 570.405 315.48 576.862 316.517C577.205 317.406 577.617 318.267 578.095 319.092C575.107 319.89 572.167 320.853 569.289 321.975C563.701 324.121 558.405 326.609 554.249 331.023C550.092 335.436 548.627 341.081 548.298 346.887L548.003 347.001C544.672 348.397 541.06 348.661 537.831 350.463C536.672 351.112 535.555 351.836 534.49 352.629C532.732 352.001 530.906 351.577 529.05 351.365C524.551 350.854 520.199 350.196 515.659 350.814C509.229 351.682 499.533 352.933 495.486 358.608C493.744 361.054 493.025 365.195 493.555 368.993C491.159 369.669 488.735 370.402 486.417 371.271C482.993 372.552 479.471 374.286 476.663 376.739C473.431 376.625 469.973 377.24 467.042 377.811C464.625 378.284 461.746 378.879 459.188 379.946C454.351 378.973 449.458 379.294 444.582 378.642C441.839 378.309 439.059 378.405 436.345 378.926C434.822 376.989 432.422 375.597 430.237 374.728C425.89 373.034 421.309 371.998 416.648 371.656C415.902 371.596 415.163 371.5 414.43 371.406C414.333 371.133 414.218 370.867 414.087 370.608C413.283 369.027 411.848 367.695 410.835 366.246C409.712 364.65 408.668 363.393 406.757 362.727C405.046 362.133 403.262 361.307 401.444 361.064C399.126 360.754 396.743 361.109 394.414 361.152C392.295 361.193 390.597 360.77 388.57 360.351C386.149 359.854 383.709 360.52 381.353 361.027C377.179 361.926 373.05 363.17 369.647 365.826C365.344 369.185 364.094 373.782 364.676 378.49L364.587 378.571C363.248 379.808 361.026 381.183 360.259 382.883C359.958 383.58 359.865 384.347 359.992 385.094C357.883 383.799 355.826 382.532 353.268 382.096C350.998 381.746 348.687 381.755 346.42 382.123C343.894 382.488 341.412 382.383 338.888 382.657C336.224 382.903 333.574 383.293 330.952 383.823C330.89 380.903 329.422 378.23 326.019 377.294C323.862 376.699 322.197 376.107 319.901 376.351C318.643 376.495 317.399 376.733 316.179 377.063C316.049 377.101 315.936 377.128 315.836 377.158C315.836 377.09 315.652 377.027 314.943 377.009C310.314 376.908 305.233 378.831 300.696 379.713C298.512 380.129 296.294 380.051 294.106 380.477L293.575 380.588L293.291 380.525C292.12 380.281 290.894 380.332 289.7 380.136C286.348 379.588 283.195 379.297 280 379.582C282.076 380.135 284.183 380.571 286.31 380.886C291.6 381.667 328.569 376.85 323.173 390.251C331.205 391.329 339.166 386.463 347.393 387.368C351.481 387.821 357.356 391.268 361.208 390.846C365.059 390.423 367.268 385.499 371.157 384.229C374.581 383.107 381.216 382.941 384.654 384.063C383.733 380.933 379.59 379.933 376.543 379.717C377.001 379.078 377.497 378.468 378.029 377.889C379.261 373.721 383.578 370.314 387.242 368.314C392.72 365.323 400.047 365.272 405.686 367.668C408.01 368.651 410.301 370.122 411.91 372.061C410.225 372.22 408.547 373.87 407.459 375.083C408.733 375.256 410.023 375.256 411.297 375.083C413.624 374.879 415.968 374.949 418.278 375.292C421.36 375.712 424.416 376.195 427.33 377.3C429.607 378.162 431.747 379.382 433.911 380.471C434.993 381.062 436.003 381.775 436.921 382.596C436.78 382.148 436.735 381.676 436.79 381.21C447.257 377.757 456.733 385.401 466.659 387.581C471.849 386.655 476.396 384.202 481.758 386.432C485.825 388.122 489.608 393.766 494.33 392.729C494.562 390.913 493.843 389.058 492.984 387.568C496.223 385.678 504.176 392.363 508.476 392.299C516.314 392.164 523.74 383.823 531.248 381.244C539.18 378.52 555.159 376.652 561.965 383.518C566.331 377.773 574.428 373.238 579.769 372.704C582.265 372.45 586.374 372.734 589.543 374.12C590.276 372.474 591.322 370.983 592.625 369.726C598.065 364.762 606.844 363.61 613.9 364.221C621.607 364.897 630.83 370.602 635.062 378.098C636.298 374.454 638.828 370.622 641.516 368.81C637.431 363.937 635.247 356.965 641.77 353.463C650.514 348.769 667.105 358.996 670.186 368.04C671.717 366.822 673.398 365.799 675.188 364.998C680.906 362.42 685.823 364.015 690.167 368.134C690.63 367.797 691.099 367.489 691.557 367.151C696.149 363.772 700.702 359.154 705.998 356.833C715.661 352.598 725.244 356.255 733.762 361.348C740.814 365.604 747.438 370.513 753.547 376.009C756.03 378.23 756.629 379.693 759.967 379.862C763.829 380.055 769.077 377.462 772.854 376.611C777.989 375.448 783.498 374.897 788.785 375.884C797.292 377.469 799.504 382.238 808.248 379.939C814.911 378.196 824.803 377.452 829.534 383.542C827.963 384.029 826.11 384.296 824.453 384.611C827.679 386.699 832.297 387.182 836.011 388.328C839.778 389.497 843.685 391.299 847.56 391.813C861.782 393.705 876.275 385.033 889.768 389.278C895.642 391.126 901.569 391.532 907.345 393.134C909.423 393.708 912.037 394.628 914.085 396C914.123 395.95 914.153 395.89 914.16 395.827C914.168 395.764 914.16 395.7 914.138 395.641C914.115 395.581 914.077 395.529 914.025 395.49C913.972 395.45 913.912 395.424 913.852 395.415Z" fill="white"/>
<path opacity="0.1" d="M582 359.225C573.26 349.893 556.623 355.363 556.623 355.363C556.623 355.363 555.139 351.18 542.87 352.144C530.602 353.108 520.827 361.156 521.152 367.909C517.915 367.266 503.679 366.302 493.606 369.401C491.208 370.083 488.782 370.818 486.463 371.693C483.036 372.984 479.511 374.732 476.701 377.203C473.468 377.088 470.007 377.708 467.074 378.284C465.02 378.656 462.992 379.155 461 379.775C465.303 380.115 470.333 379.149 473.858 380.514C473.474 381.25 473.55 382.217 473.313 383C476.301 381.314 479.093 379.346 482.303 377.891C488.471 375.072 494.799 373.672 501.729 374.38C507.896 375.007 518.247 374.292 523.095 378.222C523.708 375.992 533.346 370.764 536.203 369.885C539.797 368.775 544.515 369.067 548.29 369.262C548.575 371.056 548.143 372.511 548.325 374.248C550.552 371.986 552.2 369.275 554.458 367.096C560.306 361.401 574.555 354.94 582 359.225Z" fill="white"/>
<g opacity="0.1">
<path d="M585.194 338.818L585.156 338.801C585.165 338.809 585.172 338.82 585.177 338.832C585.28 338.923 585.286 338.92 585.194 338.818Z" fill="white"/>
<path d="M705.354 265.297C705.091 259.334 702.016 254.876 697.828 250.719C697.462 250.356 697.072 250.014 696.672 249.681C695.673 249.343 694.657 249.003 693.634 248.665C689.778 247.424 685.673 246.291 681.66 245.803C679.85 245.582 678.064 245.695 676.255 245.4C674.483 245.108 672.69 244.959 670.894 244.952C667.13 244.925 663.57 245.719 659.84 246C655.643 246.318 651.702 247.481 647.833 249.102C640.959 251.912 634.761 256.128 629.643 261.473C626.977 264.284 625.085 267.637 622.927 270.813C622.77 271.05 622.622 271.295 622.483 271.538C625.835 272.457 630.008 271.736 633.122 272.572C636.433 273.461 640.846 278.065 644.275 277.617C641.37 278.576 637.001 277.136 632.643 275.214C628.284 273.292 621.884 272.702 621.884 272.702C612.462 272.125 604.583 279.387 596.989 283.825C594.053 285.54 591.124 287.368 588.874 289.873C589.969 290.028 591.051 290.267 592.11 290.589C595.165 291.528 599.917 298.515 599.917 298.515C599.917 298.515 592.39 292.27 587.549 291.524C582.377 290.789 577.628 290.819 572.688 292.782C569.89 293.891 565.446 296.098 562.507 299.003C561.823 301.528 561.867 304.201 562.849 306.532C563.77 308.699 565.141 310.377 567.297 311.489C569.452 312.601 572.685 312.507 574.447 313.795C575.035 312.631 576.195 311.327 577.598 311.245C576.814 313.018 576.883 315.188 577.365 317.32C577.655 317.995 577.986 318.651 578.354 319.287C578.23 319.317 578.108 319.358 577.981 319.389C578.447 320.732 579.027 322.034 579.715 323.281C573.064 324.427 564.385 329.99 562.35 336.957C568.85 334.668 579.226 335.601 585.182 338.812C583.492 336.099 580.465 335.306 578.08 333.601C584.734 323.125 603.55 321.178 613.498 327.837C612.304 325.698 610.019 324.603 608.196 322.847C609.348 322.263 613.419 323.04 613.721 321.45C614.039 319.782 609.547 318.11 608.408 317.7C602.979 315.754 597.118 316.005 591.425 316.545C588.549 316.819 586.599 316.924 584.21 315.304C584.385 311.953 587.149 310.489 590.006 308.98C596.032 305.785 602.631 303.787 609.43 303.098C614.679 302.536 620.379 302.42 625.377 300.634C629.14 299.278 632.54 297.169 636.276 295.769C643.837 292.934 654.11 291.097 661.935 293.453C656.957 288.568 648.068 287.141 641.387 288.398C643.44 285.289 650.111 284.469 653.241 282.679C657.282 280.367 660.063 276.217 664.09 273.844C667.832 271.637 672.413 269.775 676.823 269.989C680.298 270.145 682.67 271.878 685.69 273.04C685.389 269.898 682.016 267.124 679.245 266.094C686.504 264.636 697.199 268.294 702.932 272.851C705.197 271.342 705.46 267.755 705.354 265.297Z" fill="white"/>
</g>
<path opacity="0.2" d="M547.526 285.998C545.112 286.034 542.771 284.565 540.307 284.435C539.948 284.435 539.02 284.642 538.738 284.498C538.456 284.354 538.306 283.844 538.165 283.691C537.42 282.907 536.347 282.524 535.306 282.227C533.01 281.532 530.644 281.091 528.25 280.911C527.229 280.899 526.21 281.005 525.213 281.227C524.171 281.373 523.114 281.392 522.067 281.285C519.553 281.008 517.021 280.909 514.493 280.988C511.61 281.141 508.724 281.394 505.855 281.61C504.732 281.695 503.582 281.659 502.481 281.813C501.796 281.966 501.088 281.988 500.395 281.876C499.786 281.767 499.144 281.529 498.54 281.389C495.967 280.799 493.366 279.974 490.757 279.654C487.842 279.294 484.919 279.159 482.005 278.753C479.091 278.348 476.145 277.767 473.208 277.249C470.377 276.702 467.484 276.55 464.611 276.798L464.029 276.14C462.006 273.888 460.392 271.91 457.619 270.45C456.435 269.886 455.299 269.228 454.223 268.481C453.397 267.789 452.479 267.213 451.495 266.769C450.641 266.443 449.74 266.258 448.826 266.22C448.633 264.828 448.289 263.461 447.799 262.142C447.194 260.574 446.657 258.885 445.826 257.421C445.098 256.132 444.007 255.024 443.098 253.861C441.142 251.487 438.844 249.41 436.278 247.698C433.137 245.513 429.7 245.135 425.954 245.346C424.462 245.432 423.567 245.891 422.353 246.698C421.139 247.504 419.962 248.261 419.025 249.505C418.181 250.619 417.637 251.927 417.443 253.307C417.384 253.686 417.311 254.064 417.234 254.438C415.975 254.587 414.765 254.934 413.501 255.154C412.883 255.263 412.269 255.357 411.646 255.456C410.405 254.037 408.746 252.911 407.25 251.775C405.963 250.701 404.517 249.827 402.963 249.185C401.308 248.59 399.649 248.572 397.962 248.284C396.144 248 394.407 247.833 392.62 248.342C391.152 248.711 389.765 249.345 388.529 250.212C385.983 252.154 383.882 254.992 382.064 257.592C381.159 258.818 380.475 260.19 380.041 261.647C379.95 261.98 379.886 262.318 379.822 262.66C377.422 261.462 374.649 260.597 372.094 260.673C371.371 260.657 370.657 260.838 370.032 261.198C369.406 261.557 368.893 262.08 368.548 262.71C367.825 263.944 367.916 265.413 368.202 266.765C368.48 268.115 369.06 269.386 369.898 270.486C370.331 271.068 370.821 271.605 371.362 272.09C371.816 272.496 372.494 272.743 372.894 273.198C372.995 273.308 373.059 273.446 373.076 273.593C373.093 273.74 373.063 273.889 372.989 274.018L372.803 273.964C371.852 273.713 370.884 273.526 369.907 273.406C369.59 273.37 369.271 273.355 368.952 273.361C368.919 273.356 368.885 273.356 368.852 273.361L368.939 273.324C368.86 273.321 368.782 273.308 368.707 273.284C368.353 273.171 367.991 273.085 367.625 273.027C365.806 272.689 364.083 273.054 362.301 273.433C361.67 273.542 361.058 273.739 360.482 274.018C359.914 274.388 359.385 274.816 358.905 275.293C357.804 276.265 356.452 276.914 355 277.168C353.763 277.334 352.522 277.33 351.29 277.582C350.116 277.784 349 278.237 348.021 278.911C347.971 278.952 347.93 278.997 347.885 279.037C347.524 278.723 347.144 278.432 346.748 278.163C344.864 276.933 342.761 276.071 340.551 275.622C338.424 275.161 336.216 275.214 334.114 275.775C333.214 275.962 332.391 276.411 331.75 277.064C331.518 277.338 331.35 277.66 331.259 278.006C329.767 277.525 328.228 277.2 326.667 277.037C323.939 276.803 321.484 277.487 318.938 278.348C317.915 278.695 316.87 278.893 315.833 279.177C314.892 279.434 314.301 280.078 313.415 280.384C312.892 280.556 312.337 280.758 311.783 281.002C310.964 280.447 310.08 279.993 309.15 279.65C308.896 278.046 308.241 276.42 307.823 275C307.452 273.855 306.719 272.858 305.731 272.158C305.245 271.851 304.304 271.59 303.913 271.383C303.913 271.356 303.699 271.175 303.686 271.157C303.326 270.835 302.927 270.558 302.499 270.333C299.521 268.616 295.889 268.17 292.497 268.324C289.428 268.463 286.041 268.972 283.3 270.387C282.227 270.937 280.89 271.392 280.063 272.293C279.112 273.293 278.419 274.506 278.044 275.829C277.876 276.627 278.013 277.451 277.876 278.258C277.817 278.614 277.753 278.956 277.703 279.299C277.512 279.299 277.322 279.326 277.126 279.348C276.843 278.689 276.453 278.08 275.971 277.546C274.712 276.149 272.898 275.717 271.125 275.293C269.215 274.801 267.236 274.632 265.269 274.793C263.551 274.982 261.769 275.073 259.773 275.433C258.1 275.73 256.545 276.032 255.045 276.87C254.386 277.249 253.752 277.671 253.149 278.132C252.49 277.294 251.935 276.33 251.103 275.64C250.042 274.777 248.799 274.161 247.466 273.838C246.456 273.624 245.414 273.606 244.397 273.784C243.943 273.874 243.274 274.135 243.088 274.162C242.206 274.28 241.269 274.086 240.36 274.199C239.728 274.291 239.101 274.417 238.483 274.577C236.85 274.126 234.973 274.523 233.168 274.816C231.931 275.018 230.731 275.433 229.531 275.717C228.195 275.947 226.899 276.362 225.68 276.951C225.236 277.198 224.812 277.478 224.412 277.789L224.13 277.339C223.271 276.068 222.166 275.172 221.007 274.185C219.597 272.982 217.992 272.45 216.215 271.995C214.471 271.539 212.699 271.199 210.909 270.977C209.068 270.77 207.213 270.617 205.422 271.198C203.121 271.946 201.185 274.212 201.38 276.694C201.452 277.414 201.694 278.107 202.085 278.717C202.517 279.465 202.68 280.308 203.126 281.042C203.59 281.829 204.19 282.529 204.899 283.11C205.158 283.317 205.463 283.461 205.695 283.651C204.958 283.475 204.222 283.331 203.485 283.169C202.047 282.836 200.564 282.736 199.093 282.871C197.73 283.015 196.366 283.191 194.97 283.259C193.555 283.298 192.163 283.621 190.878 284.209C189.833 284.694 188.904 285.393 188.15 286.259C187.865 286.659 187.549 287.035 187.205 287.386C187.038 287.481 186.877 287.587 186.723 287.701L186.505 287.638C186.176 287.54 185.84 287.467 185.5 287.417H185.391L185.086 287.323C184.357 287.054 183.59 286.902 182.813 286.872C182.631 286.768 182.431 286.674 182.263 286.588C181.367 286.125 180.422 285.764 179.444 285.511C178.096 285.149 176.715 284.916 175.321 284.818C174.616 284.777 173.898 284.818 173.193 284.718C172.488 284.619 171.788 284.453 171.07 284.385C169.679 284.254 168.342 283.903 166.951 283.777C165.568 283.663 164.176 283.701 162.8 283.89C161.436 284.07 160.136 284.34 158.709 284.313C158.044 284.266 157.377 284.266 156.713 284.313C156.013 284.385 155.349 284.583 154.635 284.651C153.195 284.73 151.752 284.73 150.312 284.651C148.925 284.651 147.466 284.804 146.097 284.534C144.506 284.223 142.947 284.286 141.337 284.151C140.523 284.079 139.732 283.908 138.914 283.912H138.409C138.359 283.912 138.155 283.912 138.146 283.912C137.755 283.835 137.377 283.673 136.986 283.61C136.605 283.55 136.217 283.531 135.832 283.556C135.679 283.548 135.526 283.56 135.377 283.592C135.344 283.588 135.31 283.588 135.277 283.592H135.245C134.61 283.308 133.902 283.225 133.218 283.353C132.731 283.532 132.235 283.683 131.731 283.804C131.457 283.836 131.192 283.923 130.953 284.059C130.714 284.195 130.506 284.378 130.34 284.597C129.885 285.155 132.222 286.039 132.499 286.088C132.993 286.209 133.503 286.242 134.009 286.187C134.463 286.102 134.036 286.048 134.627 286.259C134.874 286.351 135.126 286.429 135.382 286.494C136.455 286.737 137.5 286.322 138.564 286.494C139.628 286.665 140.483 287.246 141.555 287.255C141.71 287.255 142.042 287.142 142.133 287.142C142.359 287.199 142.577 287.282 142.783 287.39C143.23 287.548 143.707 287.605 144.179 287.557H144.242C146.415 287.935 148.598 288.219 150.703 288.53C151.957 288.715 153.171 288.589 154.426 288.67C155.954 288.769 157.449 289.12 158.972 289.188C162.609 289.391 166.278 289.188 169.883 289.472C173.311 289.728 176.476 291.143 179.799 291.814C182.768 292.414 185.359 291.558 188.223 290.913C189.773 290.58 191.21 290.499 192.715 289.976C194.22 289.454 195.775 288.967 197.293 288.39C197.759 288.215 198.234 288.064 198.716 287.94C200.029 288.531 201.411 288.956 202.83 289.206C204.63 289.583 206.471 289.734 208.309 289.656C210.264 289.562 212.023 288.809 213.942 288.571C215.796 288.334 217.623 287.92 219.397 287.336C219.806 287.566 220.229 287.76 220.547 287.94C222.252 288.922 223.73 289.143 225.639 289.508C229.931 290.319 233.877 290.886 238.251 290.476C239.896 290.39 241.505 289.968 242.979 289.237C243.396 289.042 243.763 288.755 244.054 288.4C244.344 288.044 244.55 287.628 244.656 287.183C244.847 287.308 245.05 287.415 245.261 287.503C246.734 288.084 248.325 288.242 249.866 288.566C252.672 289.156 255.504 289.71 258.382 289.661C261.682 289.602 264.969 289.309 268.27 289.251C269.938 289.219 271.602 288.863 273.271 288.89C275.048 288.922 276.826 289.503 278.563 289.837C281.714 290.44 284.952 290.457 288.11 289.886C291.129 289.377 294.088 290.017 297.034 288.922C298.23 288.471 299.471 288.282 300.671 287.845L300.903 287.791L301.231 287.845C302.076 288.138 303.258 288.039 304.136 288.066C305.709 288.081 307.27 288.344 308.759 288.845C309.814 289.18 310.94 289.236 312.023 289.008C313.205 288.778 313.46 288.3 314.297 287.656C315.46 286.755 317.424 287.025 318.843 286.845C322.275 286.394 325.753 286.48 329.213 286.503C332.823 286.525 336.578 286.331 340.16 286.75C343.434 287.138 346.753 286.683 349.967 287.39C351.374 287.7 352.812 287.851 354.254 287.841C356.013 287.841 357.482 288.35 359.15 288.818C362.069 289.647 364.72 288.899 367.675 288.994C370.63 289.089 373.648 289.823 376.604 289.638C377.777 289.566 379.259 288.863 380.295 289.071C381.691 289.35 383.132 290.22 384.564 290.589C387.887 291.428 391.337 291.656 394.743 291.26C396.53 291.053 398.221 290.431 399.99 290.161C401.858 289.882 403.772 289.764 405.654 289.503C407.018 289.309 408.428 289.143 409.814 288.967C410.314 289.206 410.81 289.463 411.328 289.692C413.456 290.62 415.556 291.643 417.766 292.396C419.46 292.991 421.234 293.336 423.03 293.418C424.064 293.446 425.099 293.359 426.113 293.157C427.022 292.968 428.095 292.31 428.991 292.256L429.573 292.058C429.604 292.255 429.692 292.44 429.828 292.588C429.964 292.736 430.141 292.842 430.336 292.891C430.681 293.128 431.046 293.334 431.427 293.508C432.201 293.929 433.037 294.224 433.905 294.382C436.046 294.752 437.86 294.085 439.92 293.743C441.875 293.418 444.043 294.234 446.08 294.139C448.585 294.027 450.917 293.198 453.354 292.688C458.282 291.666 463.197 291.076 468.052 289.643C470.207 289.008 472.681 287.773 474.94 287.868C477.268 287.967 479.55 288.715 481.887 288.868C486.792 289.188 491.734 289.801 496.653 289.318C499.004 289.08 501.313 288.575 503.664 288.296C506.388 287.974 509.131 287.833 511.874 287.872C517.393 287.917 522.785 288.548 528.3 288.967C531.126 289.173 533.965 289.112 536.779 288.787C539.552 288.476 542.48 287.908 545.267 287.859C546.149 287.859 547.994 287.827 548.586 287.021C549.177 286.214 548.29 285.984 547.526 285.998Z" fill="white"/>
<path d="M525.307 283.443C523.67 282.047 517.224 283.953 515.305 283.962C510.468 283.993 505.758 284.025 500.934 284.214C497.179 284.363 495.574 283.313 492.296 281.961C487.254 279.907 481.84 281.583 476.839 282.889C471.315 284.345 466.837 283.511 461.563 281.885C455.03 279.875 449.629 281.078 443.105 282.633H443.055C442.418 282.029 441.744 281.465 441.037 280.943C424.384 268.549 399.247 276.104 381.876 282.646C375.252 285.137 371.215 285.133 364.332 284.182C359.503 283.516 355.584 285.025 351.02 285.66C348.256 286.039 345.564 285.466 342.787 285.354C338.018 285.151 333.385 285.719 328.63 286.034C322.806 286.417 317.073 285.237 311.299 285.583C309.34 285.705 307.466 286.394 305.534 286.318C305.262 286.922 305.712 286.624 307.521 288.26C313.681 290.729 322.142 288.935 328.67 288.926C336.131 288.926 343.141 290.481 350.415 291.603C362.463 293.468 375.875 293.459 387.536 289.882C390.155 289.08 396.242 287.827 399.484 286.003C402.284 287.25 405.885 287.751 408.49 288.498C415.088 290.453 421.875 291.717 428.739 292.269C436.581 292.882 442.987 292.522 449.379 288.26C454.885 284.592 462.063 287.057 468.314 287.566C476.561 288.237 483.931 283.853 491.919 285.421C496.065 286.228 500.189 287.413 504.408 287.764C509.34 288.17 514.309 286.453 519.197 285.962C520.424 285.836 528.221 285.93 525.307 283.443Z" fill="#FEC6FF"/>
</g>
</g>
<defs>
<linearGradient id="paint0_linear_2874_33427" x1="667.502" y1="-114" x2="667.502" y2="816" gradientUnits="userSpaceOnUse">
<stop stop-color="#944FA4"/>
<stop offset="1" stop-color="#E17FF4"/>
</linearGradient>
<clipPath id="clip0_2874_33427">
<rect width="1336" height="768" fill="white"/>
</clipPath>
</defs>
</svg>
