<svg width="1336" height="840" viewBox="0 0 1336 840" fill="none" xmlns="http://www.w3.org/2000/svg">
<g clip-path="url(#clip0_2874_41006)">
<mask id="mask0_2874_41006" style="mask-type:luminance" maskUnits="userSpaceOnUse" x="0" y="0" width="1336" height="840">
<path d="M1336 0H0V840H1336V0Z" fill="white"/>
</mask>
<g mask="url(#mask0_2874_41006)">
<path d="M1336 599.686H0V839.986H1336V599.686Z" fill="url(#paint0_radial_2874_41006)"/>
<g opacity="0.3">
<path d="M991.917 823.407C977.434 819.401 962.617 816.285 947.969 813.217C928.478 809.136 906.514 810.511 886.571 810.244C882.499 810.191 878.437 810.777 874.361 810.319C872.138 810.047 863.99 807.98 866.354 803.591C867.048 802.302 868.719 801.806 869.833 801.178C871.28 800.357 872.571 799.047 874.078 798.275C875.584 797.502 877.538 797.113 878.875 796.043C880.066 795.094 880.212 793.848 879.332 792.495C877.743 790.092 874.201 789.986 871.891 789.698C867.984 789.213 864.163 787.999 860.265 787.487C859.421 787.376 857.216 787.072 856.792 785.98C856.367 784.888 857.654 785.01 857.54 783.998C857.385 782.539 852.318 781.42 851.332 780.898C850.524 780.482 849.201 779.833 849.05 778.661C848.835 776.572 851.666 775.315 851.451 773.11C850.995 768.683 848.256 768.044 844.773 766.59C815.783 754.583 784.74 749.203 754.554 743.082C747.456 741.649 705.608 739.587 716.668 726.275C719.078 723.388 726.778 721.939 727.404 717.262C728.166 711.482 721.21 710.305 717.782 709.948C705.119 708.627 681.379 711.221 672.638 697.318C677.202 693.19 684.816 691.794 688.929 687.325C698.058 677.416 680.01 679.1 674.833 678.801C666.001 678.327 657.351 675.392 648.582 674.13C638.34 672.649 628.74 673.991 618.534 673.597C610.578 673.299 586.737 664.205 581.004 672.846C586.81 679.771 598.44 677.033 606.022 677.821C613.326 678.578 644.716 678.578 648.044 686.93C650.153 692.225 645.643 692.002 641.306 693.078C633.779 694.942 625.705 695.928 618.082 697.169C607.999 698.815 576.293 700.365 571.742 712.958C575.723 717.656 584.135 714.668 589.206 714.38C598.048 713.847 607.086 714.945 615.832 716.271C625.312 717.715 654.215 718.791 658.593 730.606C654.439 735.193 645.04 732.934 641.53 738.133C637.422 744.227 646.223 748.393 643.676 754.151C641.224 759.702 623.135 756.192 619.214 755.92C611.614 755.387 599.362 752.367 592.538 757.475C596.523 767.682 618.616 767.485 627.279 769.93C642.037 774.106 656.858 776.493 671.839 779.374C677.367 780.44 710.866 787.748 698.149 797.88C695.31 800.139 684.145 801.508 688.011 808.311C691.124 813.787 702.458 806.462 705.11 813.771C698.209 824.339 679.941 813.44 672.081 826.774C669.269 831.568 671.031 831.936 665.668 833.251C661.655 834.232 648.126 833.875 645.191 839.963H1010.81C1011.13 838.083 1013.43 836.677 1015.51 833.992C1012.31 828.228 997.627 824.995 991.917 823.407Z" fill="white"/>
</g>
<g style="mix-blend-mode:lighten">
<path d="M1336 599.686H0V839.986H1336V599.686Z" fill="url(#paint1_linear_2874_41006)"/>
</g>
<g style="mix-blend-mode:screen" opacity="0.3">
<path d="M696.016 645.93C693.204 647.15 690.433 648.45 687.74 649.856C683.824 651.891 656.117 668.5 654.282 666.135C659.476 672.751 665.556 673.492 672.727 675.042C667.067 683.304 659.841 682.452 652.109 685.131C642.98 688.295 632.572 693.249 624.822 700.047C617.313 706.631 614.976 714.291 606.636 718.43C599.42 722.02 591.573 724.092 584.074 728.274C574.853 733.404 565.783 735.7 573.876 747.483C567.837 760.758 535.465 747.707 526.747 745.017C515.733 741.607 497.013 741.128 488.012 732.727C491.253 724.06 505.951 724.204 511.821 717.407C506.133 702.46 494.101 706.023 484.191 698.23C485.661 677.785 532.234 675.042 543.714 672.82C551.095 671.398 556.298 668.751 563.214 666.098C566.098 664.99 579.906 665.608 581.504 662.902C589.09 650.08 557.672 650.98 554.751 647.405C562.67 647.011 570.846 643.432 578.555 640.954C589.757 637.359 604.801 640.182 614.556 633.896C609.535 625.57 598.356 628.122 592.285 621.474C599.685 624.931 608.435 620.824 616.231 619.908C635.539 617.628 655.656 617.889 675.032 618.709C705.537 620.004 737.197 612.247 767.575 615.049C761.563 629.885 741.89 629.597 730.414 633.566C719.149 637.476 707.222 641.072 696.016 645.93Z" fill="#A715DC"/>
</g>
<path opacity="0.5" d="M391.276 359.935C390.559 359.221 387.752 360.196 386.921 360.201C384.812 360.201 382.763 360.233 380.658 360.329C379.024 360.403 378.326 359.86 376.902 359.173C374.706 358.108 372.337 358.976 370.174 359.652C367.768 360.398 365.819 359.967 363.518 359.12C360.675 358.086 358.324 358.704 355.48 359.503C355.205 359.191 354.912 358.901 354.604 358.635C347.351 352.28 336.4 356.153 328.832 359.508C325.947 360.787 324.19 360.782 321.186 360.297C319.087 359.956 317.38 360.728 315.389 361.053C314.184 361.25 313.016 360.957 311.806 360.899C309.745 360.881 307.685 360.997 305.635 361.245C303.101 361.442 300.614 360.835 298.09 361.021C297.236 361.085 296.419 361.437 295.574 361.4C295.456 361.709 295.657 361.554 296.442 362.396C299.126 363.664 302.832 362.742 305.658 362.737C308.903 362.737 311.961 363.536 315.125 364.111C320.378 365.07 326.212 365.059 331.297 363.227C332.438 362.817 335.09 362.161 336.501 361.234C337.719 361.879 339.29 362.135 340.426 362.518C343.3 363.521 346.255 364.169 349.245 364.452C352.664 364.766 355.453 364.58 358.237 362.396C360.634 360.515 363.765 361.778 366.485 362.039C370.078 362.38 373.287 360.137 376.769 360.936C378.595 361.357 380.371 361.959 382.206 362.14C384.36 362.348 386.519 361.469 388.646 361.202C389.149 361.16 392.554 361.213 391.276 359.935Z" fill="white"/>
<g opacity="0.3">
<path d="M970.72 683.239C967.566 682.125 964.179 682.301 961.02 681.566C956.209 680.449 951.453 679.026 946.774 677.304C934.354 672.739 923.819 664.568 911.892 658.75C903.949 654.878 895.308 653.013 886.859 651.122C875.042 648.459 862.996 646.072 851.041 644.512C819.139 640.346 787.032 643.691 755.057 641.736C736.096 640.575 715.235 642.69 696.84 642.397C696.316 643.593 695.571 644.639 694.658 645.46C694.325 647.116 695.165 647.532 695.63 649.007C695.731 649.332 696.621 649.253 696.845 650.19C697.068 651.128 696.338 651.666 696.438 652.321C696.772 654.5 695.375 653.919 697.808 655.389C699.131 656.172 700.163 655.767 701.61 655.762C705.198 655.762 708.361 656.945 711.853 656.87C715.14 656.811 722.808 654.436 724.798 658.718C721.105 661.382 715.363 660.721 710.89 661.02C709.936 663.3 712.323 663.891 713.419 665.058C712.2 667.545 706.334 668.408 712.41 669.852C718.933 671.418 724.734 667.359 731.367 668.073C735.068 668.478 738.501 670.006 742.23 670.203C745.334 670.385 753.254 671.008 755.869 669.138C760.133 666.054 752.218 665.175 749.972 665.026C746.033 664.77 741.345 664.541 737.99 661.776C739.387 660.839 741.359 661.409 743.011 661.595C746.16 661.952 748.452 661.595 751.542 661.116C755.066 660.583 758.535 661.409 762.041 661.345C765.774 661.275 769.531 660.088 773.288 660.652C774.753 660.865 785.749 664.557 784.654 658.718C784.316 656.961 775.949 656.801 773.826 655.373C775.369 653.136 782.257 655.533 784.444 655.842C787.182 656.22 803.4 655.522 801.789 662.234C800.534 667.439 782.161 664.546 778.583 664.301C773.562 663.971 764.432 663.337 760.607 667.977C764.487 672.084 771.348 670.582 776.15 670.582C780.062 670.582 787.26 669.245 790.4 672.063C789.09 674.428 786.388 673.661 784.302 673.916C781.18 674.316 781.883 675.557 779.916 676.899C775.625 679.813 768.664 677.065 763.999 676.899C755.025 676.543 746.019 676.841 737.04 676.367C735.119 676.266 724.524 675.115 726.542 679.728C727.82 682.637 736.652 683.239 738.948 683.409C742.993 683.713 756.796 684.778 747.722 689.924C751.15 692.699 756.285 688.326 760.183 688.859C763.994 689.338 767.409 692.055 771.252 692.507C774.794 692.944 778.701 692.023 782.257 691.794C784.028 691.676 797.407 691.618 797.663 689.13C798.042 685.444 785.311 687.484 783.417 686.227C784.53 683.777 788.223 684.187 790.446 684.272C796.435 684.517 803.227 684.805 809.097 686.254C813.073 687.244 816.268 688.917 811.306 691.804C807.253 694.185 800.013 692.396 797.763 698.101C799.023 700.258 801.415 701.185 803.368 702.266C803.368 710.854 787.032 698.724 784.973 705.5C782.408 713.927 800.036 712.35 803.688 713.325C816.893 716.873 828.83 713.432 842.104 711.349C840.985 706.022 832.554 709.809 829.377 706.256C833.244 702.528 846.915 703.417 851.744 704.046C858.618 704.946 868.263 707.679 875.156 705.409C875.019 701.574 872.189 701.814 870.098 701.079C876.671 691.442 892.045 700.093 901.238 695.688C900.963 695.082 900.745 694.442 900.59 693.781C898.024 693.914 895.327 694.18 893.624 692.145C898.289 687.074 907.318 694.1 909.363 699.773C905.455 702.256 900.065 701.547 895.532 703.023C891.552 704.312 888.594 706.651 884.367 706.427C889.936 711.903 905.451 708.078 912.521 708.51C921.244 709.042 935.856 702.698 943.41 708.51C941.383 711.072 937.079 713.112 934.089 714.098C931.017 715.11 924.184 713.719 921.669 716.149C912.951 724.539 937.261 721.188 940.146 721.156C945.746 721.123 951.328 720.439 956.812 719.116C964.571 717.32 971.692 720.463 979.315 718.492C995.665 714.284 1003.97 699.209 1021.55 701.771C1035.94 703.865 1050.28 701.59 1064.59 704.435C1076.91 706.864 1091.86 711.083 1104.19 705.67C1101.61 697.834 1088.55 693.834 1082.38 691.49C1063.66 684.335 1044.15 680.337 1024.47 679.616C1006.95 678.918 987.344 689.119 970.72 683.239Z" fill="#746B7D"/>
</g>
<g opacity="0.3">
<path d="M436.062 756.704C436.814 756.305 437.49 755.733 438.047 755.022C438.605 754.31 439.034 753.474 439.307 752.565C436.112 748.223 428.284 750.897 423.787 749.043C421.701 748.186 418.575 747.168 419.296 743.642C419.752 741.287 422.304 741.879 422.619 739.279C421.492 739.146 420.848 738.134 419.908 737.724C421.327 734.171 430.863 736.429 434.149 736.253C438.513 736.019 443.278 734.4 447.222 732.674C447.222 732.514 447.222 731.512 447.222 731.347C443.114 731.816 439.49 730.069 435.235 730.815C431.483 731.475 427.667 731.832 423.746 730.729C420.588 729.834 415.252 726.862 420.131 723.852C423.112 722.014 428.083 724.534 431.543 722.366C428.895 713.268 408.811 718.104 402.968 717.209C401.143 716.943 395.994 717.241 398.687 714.221C400.207 712.516 404.434 712.532 406.374 712.623C408.898 712.756 411.449 713.246 413.996 713.214C417.306 713.182 420.346 711.52 423.637 711.233C428.48 710.822 433.528 711.265 438.403 711.131C441.831 711.036 451.23 713.054 453.206 708.713C451.052 706.524 445.209 706.928 442.594 706.737C438.942 706.481 435.29 706.172 431.675 706.028C429.731 705.948 427.768 706.369 425.851 706.268C422.514 706.087 419.15 704.169 415.809 703.652C414.12 703.397 406.803 703.972 406.762 700.541C406.73 697.537 416.416 698.629 417.434 698.565C420.213 698.395 434.606 691.901 436.08 696.871C435.464 697.739 433.022 698.032 433.054 699.535C433.104 701.633 435.715 701.133 436.988 701.255C443.192 701.831 448.966 701.319 455.123 700.962C459.976 700.685 464.933 701.958 469.757 701.404C471.816 701.17 479.288 701.079 480.206 699.151C479.119 697.553 476.746 697.83 475.135 697.878C470.77 697.945 466.407 697.687 462.071 697.106C459.332 696.791 443.881 698.038 443.858 692.62C443.858 689.477 456.452 690.457 458.323 690.41C464.23 690.287 470.282 691.214 476.152 689.877C477.211 689.637 479.685 689.104 478.165 687.506C477.348 686.638 474.655 688.375 475.509 685.418C475.938 683.932 478.298 683.586 479.334 682.755C478.065 681.087 473.473 682.478 471.478 681.215C473.793 675.851 483.912 679.084 487.81 678.621C489.942 678.365 491.622 677.316 493.658 676.783C496.04 676.16 498.555 676.25 500.961 675.569C508.949 673.299 497.095 670.726 494.361 670.306C490.161 669.661 485.642 668.532 481.397 668.857C479.028 669.038 471.469 671.035 469.954 667.972C468.671 665.383 474.733 663.913 475.509 662.113C473.341 659.449 467.836 659.449 464.905 659.257C462.545 659.103 459.396 658.469 462.262 655.481C463.664 654.021 473.573 650.095 474.404 652.471C472.519 653.131 470.858 653.696 469.191 654.815C471.282 655.481 473.756 654.527 475.901 654.314C478.85 654.01 481.808 654.682 484.775 654.314C484.851 654.435 484.905 654.573 484.935 654.719C482.397 656.317 479.083 656.264 476.595 658.48C479.334 662.102 488.326 661.676 492.521 661.404C495.511 661.234 498.455 661.591 501.408 661.484C502.892 661.436 505.799 660.626 506.201 658.821C503.17 657.361 499.258 660.61 497.072 657.015C496.533 656.125 497.369 655.603 495.611 654.602C494.548 654.005 493.411 654.239 492.658 653.121C493.895 652.125 496.538 652.268 498.136 652.103C501.039 651.805 503.974 652.412 506.895 652.322C508.342 652.284 510.045 652.322 511.46 651.789C512.756 651.294 513.838 650.026 515.161 649.584C516.732 649.051 519.041 649.935 520.228 648.609C517.946 646.382 515.727 648.263 513.208 648.358C510.049 648.476 506.895 647.698 503.622 647.618C502.312 647.586 491.85 648.034 493.188 645.322C493.827 644.028 497.674 644.944 498.697 644.896C501.125 644.784 503.49 644.187 505.895 643.894C508.858 643.543 511.519 643.559 514.226 642.355C513.313 641.625 512.327 640.757 511.09 640.645C511.957 637.145 517.384 637.88 519.676 637.449C521.967 637.017 524.45 636.261 526.39 634.823C527.395 634.072 530.722 628.755 531.201 628.782C531.16 628.782 394.2 621.473 335.522 628.782C315.762 631.238 308.682 652.785 307.445 673.246C306.66 686.18 307.678 699.236 309.362 712.021C310.138 717.881 309.755 723 313.562 727.325C316.675 730.862 320.979 732.881 324.649 735.486C329.177 738.683 331.432 742.204 332.628 748.505C333.696 754.12 333.304 754.898 338.316 757.519C351.042 764.145 368.442 763.527 382.268 764.417C389.042 764.849 394.825 762.457 401.225 760.267C406.93 758.302 412.029 758.099 417.972 757.764C422.313 757.524 431.095 759.548 436.062 756.704Z" fill="#746B7D"/>
</g>
<path opacity="0.2" d="M910.562 734.042C896.339 733.594 882.051 733.12 867.833 732.316C855.002 731.586 842.431 732.635 829.632 733.429C818.946 734.09 808.425 733.056 797.753 732.982C788.354 732.918 779.038 732.593 769.685 732.167C767.403 732.06 765.093 731.847 762.838 731.9C761.364 731.938 759.451 732.604 756.484 732.433C754.727 732.055 753.791 733.115 754.836 734.564C755.457 735.432 757.79 735.826 758.725 736.407C759.661 736.988 761.464 737.968 762.144 738.953C762.92 740.088 762.783 741.212 763.541 742.448C765.326 745.351 770.009 747.04 772.711 747.865C778.189 749.538 783.666 751.147 789.144 752.66C791.198 753.235 799.962 753.879 800.204 756.511C799.145 756.9 793.886 757.39 794.388 759.579C794.845 761.561 803.061 760.789 804.463 760.954C808.822 761.449 813.135 762.131 817.458 762.807C820.087 763.223 827.043 765.423 828.961 762.594C826.268 759.973 819.795 761.577 817.85 758.471C819.147 756.602 827.765 757.134 824.364 754.082C823.278 753.107 820.493 753.208 819.147 753.054C815.769 752.66 812.35 752.782 808.977 752.175C806.297 751.701 800.975 749.698 806.348 748.627C812.661 747.381 818.8 749.122 824.98 750.225C828.536 750.87 832.119 751.546 835.693 751.946C838.058 752.196 842.344 751.946 844.261 753.917C847.863 757.582 840.185 757.779 838.09 759.473C833.868 762.898 841.527 763.047 843.713 763.67C849.647 765.359 855.869 765.327 861.657 767.724C864.049 768.72 866.856 770.857 868.198 767.511C866.372 765.716 861.059 764.001 864.834 761.652C868.367 759.462 873.333 760.757 877.099 758.498C874.693 757.736 875.62 755.834 877.24 754.849C881.157 752.415 886.534 752.91 890.77 751.855C895.006 750.8 899.041 749.724 903.313 749.085C906.084 748.68 910.192 748.776 912.493 747.178C909.936 744.195 905.436 747.013 902.61 745.479C905.947 740.956 914.355 743.279 918.728 741.137C921.923 739.539 924.183 737.792 926.291 734.607C921.384 733.237 915.546 734.202 910.562 734.042Z" fill="#564361"/>
<path opacity="0.6" d="M962.537 769.899C980.795 763.139 984.118 755.623 976.107 750.642C970.173 746.956 966.216 746.546 959.41 744.889C953.019 743.334 946.492 742.487 940.147 740.569C937.915 739.898 935.788 737.905 933.355 737.81C930.922 737.714 928.69 739.866 926.38 740.569C920.273 742.423 913.878 742.742 907.479 742.769C900.198 742.801 892.813 744.57 885.527 743.643C876.933 742.574 868.282 742.245 859.646 742.657C849.508 743.19 839.297 744.708 828.99 745.134C821.751 745.432 814.384 747.265 807.281 747.196C803.89 747.153 788.498 745.278 788.11 740.271C779.816 737.905 771.194 739.818 762.681 737.272C758.066 735.892 753.46 734.661 748.704 733.745C745.595 733.149 738.37 733.958 736.43 730.858C742.743 730.325 749.484 730.085 755.811 730.261C774.777 730.762 793.738 729.808 812.75 729.787C836.814 729.787 860.609 733.713 884.564 734.272C893.693 734.486 903.124 736.041 912.139 734.379C920.688 732.781 930.365 734.645 938.449 731.183C943.247 729.127 948.309 719.464 950.025 714.137C952.631 706.072 949.701 705.858 943.489 704.5C937.276 703.142 931.237 700.808 924.975 699.312C918.402 697.714 909.624 698.779 903.59 695.966C904.959 694.949 906.839 693.686 907.319 691.769C904.388 687.843 899.595 686.548 895.392 685.707C890.676 684.769 885.756 683.72 880.986 683.459C880.625 683.459 880.269 683.416 879.918 683.4C877.059 683.365 874.207 683.094 871.382 682.59C870.121 682.349 868.899 681.886 867.758 681.216C867.981 681.37 868.867 680.412 868.839 680.081C868.794 679.421 867.575 679.016 867.15 678.893C865.462 678.361 863.745 677.503 861.979 677.237C860.445 676.997 858.925 676.96 857.387 676.768C853.762 676.32 850.125 675.703 846.532 675.095C844.382 674.76 842.342 673.854 840.201 673.529C839.475 673.417 838.457 673.46 837.882 672.964C838.654 672.368 839.781 672.56 840.621 672.613C841.582 672.627 842.543 672.545 843.492 672.368C848.02 671.777 852.516 670.562 857.076 670.392C863.216 670.162 868.944 671.835 874.96 672.56C881.196 673.311 887.545 673.977 893.821 674.808C907.278 676.587 920.798 678.004 934.355 677.62C969.863 676.683 1010.21 662.859 1043.6 682.787C1061.38 693.393 1072.28 720.358 1081.63 739.722C1086.79 750.376 1093.5 759.549 1100.08 769.02C1102.97 773.191 1259.74 834.739 1260.87 839.997C1259.8 840.029 1235.19 839.997 1235.1 839.997C1230.88 839.997 1224.57 835.458 1220.68 833.775C1211.09 829.652 1201.81 827.532 1191.62 826.317C1183.73 825.369 1176.05 822.791 1168.45 819.983C1162.65 817.853 1157.24 817.123 1151.35 815.85C1142.74 813.991 1134.42 810.262 1125.84 808.03C1118.21 806.043 1110.78 805.015 1103.83 800.492C1104.86 798.116 1106.53 795.794 1107.99 793.78C1095.63 792.832 1083.12 787.579 1071.33 782.54C1059.27 777.389 1047.98 771.929 1035.05 770.4C1027.13 769.42 959.36 771.082 962.537 769.899Z" fill="white"/>
<path opacity="0.6" d="M427.896 684.19C414.757 683.242 401.809 686.348 388.626 684.555C369.376 681.93 350.372 676.524 331.02 675.487C319.142 674.845 307.148 675.643 295.258 675.822C288.054 675.924 280.943 676.847 273.711 676.829C268.209 676.829 260.95 673.581 255.027 674.57H254.992C206.059 671.957 0 679.179 0 679.179V880H75.7584C75.7584 880 85.9165 863.536 107.355 850.074C128.793 836.612 168.067 833.357 190.005 824.996C209.904 817.421 229.522 785.307 271.8 778.205C282.298 777.054 292.809 776.256 303.315 775.375C320.897 773.896 338.518 769.982 356.083 768.783C363.163 768.286 369.965 769.982 376.744 771.918C382.55 773.584 388.337 775.429 394.264 776.263C403.879 777.605 393.193 769.994 390.263 767.632C386.324 764.462 382.449 760.77 378.643 757.593C374.412 754.069 362.483 747.08 363.015 737.484C363.636 726.642 377.784 722.213 383.192 719.714C387.098 717.916 395.694 718.096 398.198 712.701C395.522 710.975 392.302 712.527 389.81 710.189C394.283 708.728 399.144 705.941 403.614 703.734C410.74 700.198 418.937 699.018 426.341 697.567C437.351 695.397 453.389 699.03 464.888 688.805C467.385 686.598 472.933 687.432 477 686.407C470.057 681.583 444.236 685.382 427.896 684.19Z" fill="white"/>
</g>
</g>
<defs>
<radialGradient id="paint0_radial_2874_41006" cx="0" cy="0" r="1" gradientUnits="userSpaceOnUse" gradientTransform="translate(839.834 760.298) scale(392.637 142.047)">
<stop stop-color="#942F9D"/>
<stop offset="0.18" stop-color="#BD4BFF"/>
<stop offset="0.53" stop-color="#852ED6"/>
<stop offset="0.81" stop-color="#C72EED"/>
<stop offset="1" stop-color="#AC2EF5"/>
</radialGradient>
<linearGradient id="paint1_linear_2874_41006" x1="668" y1="599.686" x2="668" y2="839.986" gradientUnits="userSpaceOnUse">
<stop stop-color="#F9CBFF"/>
<stop offset="0.11" stop-color="#EEBDEB"/>
<stop offset="0.33" stop-color="#BD9AC0"/>
<stop offset="0.63" stop-color="#776174"/>
<stop offset="1" stop-color="#151515"/>
</linearGradient>
<clipPath id="clip0_2874_41006">
<rect width="1336" height="840" fill="white"/>
</clipPath>
</defs>
</svg>
