<svg width="1336" height="768" viewBox="0 0 1336 768" fill="none" xmlns="http://www.w3.org/2000/svg">
<g clip-path="url(#clip0_2874_33427)">
<rect width="1336" height="768" fill="#AB5DBC"/>
<mask id="mask0_2874_33427" style="mask-type:luminance" maskUnits="userSpaceOnUse" x="0" y="0" width="1336" height="768">
<path d="M1336 0H0V768H1336V0Z" fill="white"/>
</mask>
<g mask="url(#mask0_2874_33427)">
<path d="M1335 -114H0V816H1335V-114Z" fill="url(#paint0_linear_2874_33427)"/>
<g opacity="0.3">
<path d="M-1 837.65H1334.12V108.758C1333.67 109.628 1333.24 110.502 1332.81 111.389C1332.62 111.781 1333 112.948 1332.27 112.25C1331.53 111.551 1332.85 112.362 1330.65 109.546C1328.46 106.731 1327.22 101.261 1321.66 96.3554C1316.1 91.4484 1301.55 87.6374 1292.62 92.3414C1290.6 93.4084 1288.48 94.2194 1286.41 94.2464C1284.34 94.2734 1282.59 93.5574 1280.72 92.8954C1270.4 89.1604 1259.9 98.5084 1255.56 104.009C1251.23 109.51 1253.2 113.367 1250.75 115.84C1249.26 117.354 1248.07 111.335 1244.36 111.641C1240.66 111.948 1235.43 112.687 1233.6 117.53C1227.4 107.672 1218.73 103.153 1207.05 105.046C1205.37 105.316 1204.34 107.235 1202.91 106.722C1201.48 106.208 1200.74 103.451 1198.73 102.158C1185.16 93.4584 1170.96 95.2104 1159.34 106.212C1157.39 108.055 1157.88 111.092 1155.45 112.178C1153.01 113.263 1146.65 111.538 1143.86 114.079C1144.16 106.942 1146.42 102.608 1138.75 97.0404C1131.07 91.4714 1117.17 95.2694 1110.06 100.428C1102.94 105.586 1103.59 111.24 1099.11 116.124C1096.83 118.607 1093.97 113.498 1088.9 116.814C1083.82 120.129 1076.98 127.252 1078.73 135.506C1064.87 128.487 1051.09 127.023 1038.22 136.141C1030.79 141.404 1028.9 148.941 1027.11 157.046C1020.98 155.032 1015.09 154.911 1009.2 157.366C1001.42 146.869 996.798 138.7 981.197 136.763C965.597 134.826 948.605 142.386 938.857 155.726C934.865 161.182 935.02 169.319 932.731 174.045C931.421 176.748 924.734 177.293 922.654 178.911C920.574 180.528 920.131 185.033 918.211 184.029C908.741 179.073 900.877 171.725 887.379 173.054C873.881 174.383 862.29 183.416 856.639 196.076C852.378 195.905 848.163 196.581 844.756 198.676C841.348 200.771 840.194 203.203 838.689 206.515C829.415 200.325 820.082 198.581 809.54 202.397C807.446 203.149 806.01 205.33 804.468 205.645C802.926 205.961 802.091 204.397 800.549 204.001C783.484 199.622 769.366 203.668 758.359 217.454C758.282 215.287 752.041 214.652 752.885 212.548C755.166 207.001 760.375 201.419 759.171 194.004C755.882 173.657 740.099 163.304 719.567 161.889C710.23 161.245 702.689 168.021 695.227 169.039C691.185 169.589 688.553 163.034 683.987 161.263C670.439 156.01 657.685 153.64 643.845 160.101C643.115 160.434 642.609 161.79 642.089 161.173C637.149 155.366 635.246 151.712 627.428 146.634C619.609 141.557 607.357 137.106 596.71 139.25C594.885 139.611 592.801 141.669 591.51 140.998C590.219 140.327 589.945 136.705 588.016 135.011C578.436 126.622 567.301 123.964 554.305 123.337C530.786 122.197 510.126 124.973 491.866 140.007C490.247 141.359 490.498 144.738 488.422 144.436C480.107 143.242 475.91 139.597 465.113 140.543C454.315 141.489 440.261 147.941 434.372 158.65C433.952 159.425 432.661 158.2 431.74 157.983C416.13 154.609 399.48 165.417 397.729 178.911C395.977 192.404 404.799 194.869 413.266 200.577C409.233 204.992 407.085 210.061 409.115 216.071C400.557 219.995 393.965 225.009 388.441 232.475C376.663 217.819 362.618 208.317 343.108 210.732C339.555 211.182 337.064 215.129 335.098 215.107C333.132 215.084 332.607 213.034 330.874 210.872C329.141 208.709 321.245 206.817 320.588 203.312C318.982 194.688 318.343 185.673 311.921 177.406C305.498 169.139 293.702 162.358 284.287 160.286C274.871 158.213 265.073 162.326 261.109 165.823C257.145 169.319 259.184 169.522 257.414 170.616C256.598 171.121 256.447 171.342 256.429 171.418C256.406 171.387 256.338 171.333 256.137 171.274C255.32 171.035 255.225 169.337 254.709 168.192C250.093 158.24 244.058 149.675 233.064 145.706C231.723 145.224 230.843 145.58 229.643 145.472C228.444 145.364 227.819 144.94 226.596 144.963C225.374 144.985 224.671 145.954 223.366 146.274C222.062 146.594 221.195 146.585 219.489 146.95C217.783 147.315 214.626 149.311 212.706 149.329C210.786 149.347 210.147 152.775 208.053 151.009C205.959 149.243 202.447 143.345 198.364 141.048C187.836 135.101 177.463 130.758 164.86 129.852C162.246 129.667 160.056 129.266 156.954 129.694C153.852 130.122 152.748 130.87 148.424 131.798C144.1 132.726 139.118 135.276 133.179 137.205C127.24 139.133 120.48 146.355 116.26 150.446C114.089 152.554 107.091 149.144 104.688 150.189C102.284 151.234 99.5421 151.333 98.4336 151.784C97.3251 152.235 98.0276 151.451 97.8999 151.248C94.392 145.841 93.0646 140.971 88.3205 135.844C83.5765 130.717 76.6064 125.856 68.9885 124.067C54.5374 120.675 38.9139 123.166 30.0644 134.952C21.215 146.738 22.3918 159.186 25.5576 171.999C26.0138 173.887 28.4086 174.964 27.9707 176.383C27.5328 177.802 27.405 176.28 25.0695 178.091C22.734 179.902 18.5464 179.893 15.2028 184.808C11.8591 189.723 13.3371 199.27 19.1394 203.879C19.5956 204.235 18.4689 203.519 17.1232 203.582C15.7775 203.645 11.1566 203.992 8.67514 204.582C6.19363 205.172 5.84239 205.226 2.83174 207.321C1.66397 208.132 0.300054 209.975 -1 212.097V837.65Z" fill="white"/>
</g>
<path d="M533.977 439.857C533.083 439.627 532.27 439.062 531.374 438.762C530.068 438.344 528.71 438.141 527.347 438.16C526.101 438.142 524.846 438.044 523.634 438.408H523.579C523.137 438.219 522.68 438.066 522.215 437.952C520.85 437.639 519.587 437.821 518.222 437.993C517.758 438.057 517.291 438.095 516.823 438.109C516.635 438.109 516.444 438.109 516.257 438.087C516.222 438.087 515.953 438.061 515.875 438.047C515.132 437.879 514.383 437.751 513.629 437.664C513.468 437.664 513.287 437.639 513.134 437.631C512.889 437.416 511.568 436.985 511.428 436.934C510.709 436.665 509.968 436.471 509.213 436.357C507.876 436.153 506.593 436.43 505.33 436.591L505.02 436.616L504.859 436.591L504.539 436.497C504.248 436.398 503.965 436.281 503.672 436.186C502.194 435.708 500.6 435.518 499.092 435.996C498.598 436.153 498.123 436.361 497.652 436.562C497.448 436.356 497.226 436.17 496.99 436.007C495.716 435.204 494.232 434.867 492.762 435.048C491.578 435.176 490.483 435.777 489.374 436.219C488.391 436.606 487.282 437.029 486.459 437.751C486.413 437.797 486.371 437.846 486.33 437.898C486.178 437.81 486.02 437.726 485.859 437.646C483.548 436.522 480.556 436.128 478.161 437.161C477.72 437.36 477.308 437.624 476.936 437.945C476.684 438.111 476.44 438.29 476.205 438.481C475.833 438.361 475.387 438.299 475.059 438.219C474.054 438.001 473.068 437.688 472.114 437.285C471.115 436.839 470.089 436.467 469.043 436.172C467.855 435.853 466.636 435.687 465.412 435.675C464.327 435.593 463.239 435.756 462.218 436.157C461.338 436.562 460.652 437.332 459.802 437.799C459.628 437.901 459.446 437.988 459.259 438.058L459.007 438.12C458.922 438.123 458.838 438.133 458.754 438.149C458.492 438.149 458.225 438.149 457.966 438.149C456.751 438.149 455.533 438.149 454.318 438.149C453.134 438.219 451.947 438.164 450.773 437.985C449.37 437.64 447.914 437.611 446.5 437.901C446.111 437.993 445.719 438.08 445.333 438.182C445.058 438.09 444.776 438.02 444.491 437.974C442.972 437.653 441.409 437.653 439.891 437.974C439.43 438.094 438.959 438.168 438.485 438.193C438.143 438.193 437.662 438.051 437.243 437.985C435.928 437.784 434.6 437.69 433.27 437.704C432.08 437.704 430.882 437.631 429.691 437.898C429.448 437.952 429.21 438.014 428.964 438.061C428.27 437.827 427.546 437.711 426.818 437.719C426.363 437.748 425.907 437.742 425.453 437.7C424.897 437.62 424.334 437.496 423.774 437.412C423.174 437.316 422.566 437.275 421.958 437.288C421.422 437.349 420.881 437.366 420.341 437.343C419.266 437.204 418.266 436.872 417.164 436.894C416.692 436.874 416.219 436.928 415.762 437.055C415.606 437.098 415.463 437.179 415.342 437.292C415.236 437.405 415.199 437.46 415.209 437.486C414.987 437.486 414.762 437.533 414.711 437.707C414.66 437.883 414.997 438.112 415.243 438.215C414.585 438.27 413.919 438.215 413.257 438.313C412.224 438.483 411.18 438.568 410.134 438.565C409.231 438.565 408.343 438.201 407.439 438.116C406.231 438.031 405.021 438.015 403.811 438.069C403.149 438.069 402.487 438.069 401.829 438.138L401.522 438.168C400.498 437.588 399.208 437.544 398.072 437.609C396.158 437.722 393.817 437.292 391.729 437.554C390.766 437.675 389.827 438.134 388.862 438.182C388.688 438.182 388.52 438.182 388.343 438.16C387.674 437.912 386.965 437.811 386.258 437.861C385.886 437.916 385.523 438.023 385.177 438.179C385.093 438.21 385.005 438.229 384.917 438.237L384.446 438.124C383.023 437.795 381.737 437.912 380.3 437.967C379.959 437.967 379.911 438.146 380.143 438.412C380.487 438.723 380.919 438.901 381.368 438.916C382.18 438.916 383.201 438.635 383.965 438.89C384.879 439.197 385.716 439.554 386.695 439.561C387.154 439.556 387.611 439.503 388.06 439.404C388.93 439.621 389.823 439.711 390.714 439.675C391.5 439.622 392.279 439.478 393.035 439.244C393.817 439.043 394.621 438.958 395.424 438.992C396.4 439.025 397.372 439.145 398.349 439.208C398.771 439.233 399.195 439.255 399.621 439.248C400.219 439.521 400.852 439.701 401.498 439.78C402.463 439.863 403.432 439.855 404.395 439.755C405.204 439.711 406.02 439.726 406.832 439.711C407.258 439.711 407.695 439.682 408.121 439.711C408.581 439.772 409.036 439.86 409.487 439.974C411.478 440.346 413.517 440.328 415.503 439.919C416.291 439.755 417.107 439.857 417.891 439.733C418.614 439.617 419.283 439.226 420.014 439.193C421.741 439.111 423.473 439.252 425.169 439.613C427.139 440.029 429.09 440.422 431.09 440.657C433.09 440.89 435.093 440.981 437.099 441.021C439.015 441.108 440.933 441.084 442.846 440.948C446.476 440.616 450.066 440.427 453.69 440.97C455.709 441.307 457.767 441.272 459.774 440.868L460.771 440.664C460.897 440.708 461.023 440.762 461.071 440.776C462.21 441.154 463.412 441.261 464.593 441.091C465.11 440.972 465.6 440.742 466.033 440.415C466.872 440.856 467.788 441.104 468.722 441.145C469.404 441.181 470.466 441.047 470.964 441.094C471.988 441.181 472.957 441.535 473.987 441.587C474.95 441.688 475.923 441.563 476.837 441.222C477.147 441.08 477.451 440.92 477.744 440.74C478.052 440.899 478.37 441.032 478.697 441.138C479.655 441.452 480.826 441.404 481.655 441.503C482.819 441.66 483.89 442.046 485.088 441.995C486.017 441.949 486.936 441.765 487.818 441.448C488.705 441.149 489.616 440.89 490.493 440.55C490.978 440.361 491.415 440.083 491.885 439.86C492.025 439.795 492.165 439.726 492.309 439.675C492.36 439.659 492.412 439.65 492.465 439.649L492.52 439.675C492.745 439.784 492.964 439.915 493.202 440.039C493.564 440.244 493.941 440.419 494.328 440.562C495.26 440.886 496.513 441.113 497.458 440.729C497.63 440.668 497.785 440.559 497.905 440.412C498.37 440.472 498.839 440.472 499.304 440.412C500.612 440.186 501.874 439.719 503.034 439.033C503.194 438.941 503.429 438.868 503.61 438.762C504.214 438.998 504.834 439.177 505.466 439.299C506.876 439.603 508.331 439.564 509.725 439.186C509.95 439.116 510.172 439.025 510.407 438.945C510.49 438.919 510.575 438.883 510.667 438.861C510.697 438.863 510.727 438.87 510.756 438.879C511.326 439.098 511.924 439.221 512.53 439.244C512.661 439.238 512.792 439.218 512.919 439.182C513.131 439.208 513.342 439.233 513.554 439.244C513.78 439.277 514.008 439.293 514.236 439.292L514.349 439.317C514.732 439.404 515.12 439.481 515.516 439.547C516.782 439.749 518.066 439.79 519.342 439.668C520.496 439.878 521.671 439.937 522.839 439.843C523.546 440.033 524.274 440.114 525.003 440.083C525.553 440.013 526.099 439.898 526.634 439.736C526.972 439.678 527.315 439.659 527.657 439.678C527.818 439.719 527.981 439.751 528.145 439.773C528.903 439.883 529.667 439.945 530.418 440.094H530.465C531.54 440.504 532.656 440.781 533.79 440.919C534.031 440.945 534.943 440.977 534.997 440.554C535.052 440.131 534.233 439.919 533.977 439.857Z" fill="#FEC6FF"/>
<path d="M282.963 439.152C282.06 438.955 281.246 438.47 280.343 438.213C279.027 437.854 277.66 437.68 276.287 437.696C275.034 437.681 273.77 437.596 272.551 437.909H272.495C272.055 437.747 271.602 437.617 271.139 437.518C269.765 437.249 268.495 437.405 267.121 437.553C266.654 437.608 266.183 437.641 265.713 437.653C265.524 437.653 265.331 437.653 265.142 437.653C265.108 437.653 264.84 437.628 264.758 437.612C263.999 437.499 263.274 437.337 262.501 437.299C262.337 437.299 262.159 437.277 262.001 437.271C261.757 437.083 260.427 436.717 260.283 436.673C259.56 436.441 258.814 436.276 258.054 436.178C256.708 436.003 255.417 436.238 254.146 436.378L253.837 436.401L253.675 436.378L253.353 436.297C253.057 436.213 252.773 436.112 252.477 436.031C250.99 435.621 249.386 435.458 247.868 435.868C247.37 436.003 246.896 436.181 246.419 436.351C246.212 436.176 245.989 436.018 245.753 435.877C244.476 435.187 242.988 434.891 241.511 435.036C240.316 435.145 239.214 435.662 238.101 436.041C237.109 436.376 235.996 436.736 235.168 437.355C235.121 437.394 235.077 437.436 235.038 437.48C234.879 437.405 234.725 437.333 234.564 437.264C232.236 436.303 229.227 435.959 226.813 436.848C226.371 437.022 225.956 437.248 225.58 437.521C225.404 437.64 225.04 437.834 224.845 437.981C224.471 437.875 224.021 437.825 223.694 437.756C222.682 437.568 221.689 437.3 220.727 436.954C219.722 436.572 218.69 436.251 217.636 435.997C216.442 435.727 215.216 435.584 213.986 435.574C212.894 435.503 211.798 435.644 210.771 435.987C209.882 436.335 209.191 436.995 208.34 437.396C208.164 437.484 207.98 437.558 207.79 437.618C207.705 437.631 207.622 437.649 207.539 437.671C207.454 437.674 207.369 437.683 207.285 437.7C207.021 437.7 206.753 437.7 206.488 437.7C205.266 437.7 204.04 437.7 202.817 437.7C201.626 437.757 200.431 437.708 199.249 437.555C197.838 437.259 196.375 437.235 194.953 437.484C194.561 437.562 194.163 437.637 193.775 437.725C193.498 437.644 193.214 437.585 192.927 437.546C191.398 437.271 189.826 437.271 188.297 437.546C187.833 437.65 187.359 437.712 186.882 437.731C186.464 437.692 186.048 437.634 185.636 437.555C184.312 437.383 182.975 437.303 181.638 437.314C180.436 437.314 179.217 437.255 178.036 437.48C177.792 437.528 177.551 437.58 177.304 437.618C176.604 437.421 175.874 437.322 175.14 437.327C174.677 437.357 174.213 437.357 173.75 437.327C173.19 437.255 172.627 437.149 172.06 437.077C171.455 436.995 170.844 436.959 170.233 436.967C169.692 437.021 169.148 437.038 168.605 437.017C167.523 436.898 166.517 436.613 165.408 436.632C164.932 436.616 164.457 436.664 163.996 436.773C163.841 436.808 163.697 436.877 163.577 436.973C163.471 437.07 163.433 437.114 163.44 437.139C163.217 437.139 162.99 437.177 162.942 437.33C162.894 437.484 163.227 437.678 163.474 437.765C162.815 437.812 162.145 437.765 161.475 437.85C160.437 437.995 159.387 438.067 158.337 438.066C157.423 438.066 156.534 437.753 155.623 437.681C154.408 437.608 153.19 437.594 151.973 437.64C151.286 437.64 150.64 437.64 149.974 437.7L149.668 437.725C148.638 437.227 147.337 437.189 146.193 437.246C144.27 437.343 141.91 436.973 139.812 437.199C138.844 437.302 137.896 437.696 136.927 437.734C136.752 437.734 136.584 437.734 136.405 437.719C135.73 437.506 135.016 437.419 134.303 437.462C133.929 437.51 133.563 437.601 133.215 437.734C133.131 437.761 133.043 437.778 132.954 437.784L132.48 437.687C131.048 437.405 129.756 437.505 128.311 437.553C127.947 437.553 127.916 437.706 128.149 437.934C128.495 438.202 128.929 438.355 129.382 438.37C130.199 438.37 131.226 438.125 131.996 438.345C132.919 438.607 133.761 438.917 134.743 438.921C135.205 438.916 135.665 438.871 136.117 438.786C136.992 438.971 137.891 439.049 138.789 439.017C139.58 438.973 140.363 438.849 141.124 438.648C141.91 438.474 142.72 438.402 143.528 438.435C144.507 438.46 145.489 438.564 146.468 438.617C146.893 438.639 147.323 438.661 147.749 438.655C148.353 438.887 148.99 439.039 149.641 439.108C150.611 439.179 151.585 439.172 152.553 439.086C153.367 439.049 154.191 439.058 155.009 439.052C155.438 439.052 155.874 439.024 156.303 439.052C156.766 439.103 157.224 439.178 157.677 439.277C159.682 439.597 161.733 439.581 163.732 439.231C164.525 439.09 165.342 439.177 166.136 439.067C166.867 438.971 167.537 438.636 168.275 438.611C170.014 438.539 171.757 438.657 173.465 438.964C175.443 439.324 177.41 439.662 179.42 439.863C181.429 440.063 183.451 440.141 185.471 440.175C187.397 440.251 189.327 440.23 191.251 440.113C194.908 439.828 198.518 439.668 202.168 440.132C204.199 440.42 206.268 440.392 208.288 440.048C208.388 440.025 209.067 439.909 209.294 439.869L209.593 439.966C210.741 440.287 211.951 440.38 213.141 440.235C213.661 440.133 214.153 439.936 214.586 439.656C215.431 440.034 216.352 440.248 217.293 440.282C217.98 440.314 219.048 440.198 219.549 440.235C220.58 440.317 221.555 440.617 222.592 440.661C223.564 440.742 224.543 440.631 225.463 440.333C225.775 440.21 226.081 440.072 226.377 439.919C226.684 440.056 227.004 440.17 227.331 440.26C228.3 440.526 229.478 440.489 230.309 440.573C231.483 440.708 232.562 441.04 233.767 440.996C234.702 440.955 235.627 440.797 236.514 440.526C237.407 440.269 238.324 440.048 239.203 439.757C239.691 439.593 240.134 439.358 240.605 439.165C240.745 439.108 240.886 439.049 241.031 439.005C241.082 438.992 241.135 438.984 241.189 438.983L241.244 439.005C241.473 439.099 241.693 439.212 241.93 439.318C242.296 439.493 242.676 439.643 243.067 439.766C244.001 440.044 245.265 440.235 246.213 439.909C246.387 439.858 246.543 439.764 246.663 439.637C247.131 439.689 247.606 439.689 248.074 439.637C249.39 439.444 250.659 439.043 251.825 438.454C251.986 438.379 252.226 438.313 252.405 438.225C253.011 438.425 253.635 438.577 254.27 438.682C255.689 438.944 257.155 438.91 258.559 438.586C258.789 438.526 259.012 438.448 259.246 438.382C259.331 438.352 259.419 438.327 259.507 438.307C259.537 438.309 259.567 438.313 259.596 438.322C260.171 438.513 260.775 438.618 261.386 438.636C261.515 438.63 261.644 438.614 261.77 438.586C261.986 438.605 262.199 438.623 262.412 438.636C262.64 438.664 262.869 438.678 263.099 438.676L263.216 438.698C263.601 438.773 263.992 438.836 264.387 438.896C265.661 439.069 266.954 439.103 268.237 438.996C269.401 439.177 270.583 439.227 271.76 439.146C272.469 439.31 273.2 439.379 273.931 439.352C274.488 439.293 275.04 439.194 275.58 439.055C275.92 439.004 276.266 438.987 276.609 439.005C276.772 439.04 276.936 439.067 277.101 439.086C277.863 439.181 278.632 439.233 279.391 439.362H279.436C280.518 439.711 281.64 439.947 282.781 440.063C283.025 440.088 283.938 440.116 283.997 439.75C284.055 439.383 283.203 439.206 282.963 439.152Z" fill="#FEC6FF"/>
<path d="M372.87 437.508C372.519 437.283 372.105 437.167 371.683 437.177C370.742 437.131 369.803 437.084 368.866 437.011C368.444 436.958 368.019 436.935 367.593 436.942H367.566L367.174 436.833C365.352 436.329 363.551 436.448 361.684 436.445C360.041 436.445 358.36 436.323 356.727 436.445C356.341 436.434 355.959 436.523 355.622 436.703C355.347 436.909 355.505 436.925 355.172 436.949C354.297 437.008 353.395 436.949 352.517 436.949C351.415 436.949 350.297 437.008 349.182 437.028L349.078 437.004C348.811 436.942 348.537 436.889 348.262 436.836C347.537 436.703 346.805 436.614 346.069 436.571C345.383 436.528 344.697 436.515 344.011 436.525C343.706 436.435 343.4 436.34 343.098 436.221C341.629 435.635 340.192 435.039 338.6 434.854C337.571 434.731 336.5 434.669 335.457 434.619C334.688 434.564 333.915 434.608 333.158 434.751C332.74 434.416 332.294 434.113 331.827 433.845C330.58 433.12 329.227 432.583 327.812 432.253C326.44 431.961 323.959 431.673 322.964 432.915C322.699 433.333 322.48 433.776 322.309 434.238C322.204 434.387 322.089 434.53 321.965 434.665L321.623 434.589C321.118 434.493 320.593 434.423 320.099 434.37C319.176 434.289 318.25 434.254 317.323 434.265H316.981H316.953C316.63 434.188 316.304 434.116 315.978 434.053C314.78 433.79 313.539 433.766 312.331 433.98C310.959 434.248 309.404 434.824 308.021 434.741C307.606 434.718 306.752 434.493 306.151 434.41L306.011 434.39C305.757 434.282 305.493 434.197 305.221 434.139C304.542 433.963 303.843 433.868 303.139 433.858C302.163 433.849 301.196 434.049 300.308 434.443C299.965 434.606 299.66 434.837 299.317 434.999C299.023 435.109 298.705 435.145 298.394 435.102C296.534 435.039 294.619 435.036 292.76 435.138L291.947 435.201L291.827 435.158C290.865 434.844 289.853 434.702 288.838 434.738C287.157 434.738 285.685 433.944 284.117 434.896C283.657 435.178 284.693 435.687 284.834 435.747C285.452 436.043 286.146 436.158 286.831 436.078C287.425 435.946 288.034 435.899 288.643 435.939C288.766 435.959 288.886 435.986 289.01 436.002C289.662 436.158 290.269 436.478 290.951 436.551C291.634 436.624 292.194 436.502 292.825 436.604C293.456 436.707 294.057 436.823 294.681 436.879C295.306 436.935 295.875 436.879 296.452 436.971C297.107 437.084 297.735 437.303 298.4 437.389C299.773 437.557 301.194 437.441 302.58 437.538C303.295 437.599 304.005 437.71 304.704 437.868C305.457 438.005 306.222 438.069 306.989 438.061C308.341 438.083 309.552 438.587 310.886 438.775C312.314 438.977 313.631 438.676 315.024 438.484C316.287 438.308 317.639 438.415 318.916 438.415C320.271 438.41 321.625 438.313 322.968 438.127C324.028 437.984 324.937 437.845 325.874 437.312C326.164 437.121 326.472 436.956 326.793 436.819C326.793 436.819 326.989 436.776 327.068 436.753C326.8 436.83 325.147 437.167 326.691 436.71C326.917 436.644 327.397 436.816 327.644 436.849C328.262 436.932 328.89 436.998 329.504 437.131C329.504 437.131 329.953 437.256 330.015 437.276L330.729 437.501C332.236 437.992 333.802 438.303 335.388 438.424C336.734 438.517 338.065 438.739 339.41 438.802C340.792 438.861 342.177 438.742 343.527 438.448C344.528 438.257 345.546 438.165 346.567 438.173C347.044 438.173 347.644 438.202 348.176 438.242C348.124 438.242 348.894 438.315 348.801 438.302C349.03 438.328 349.26 438.354 349.487 438.398C349.463 438.398 349.487 438.398 349.617 438.434C349.813 438.481 350.012 438.517 350.211 438.556C350.636 438.642 351.065 438.722 351.494 438.789C352.188 438.899 352.888 438.968 353.591 438.997C354.973 439.021 356.355 438.893 357.708 438.613C358.306 438.497 358.895 438.342 359.472 438.149C359.882 437.993 360.306 437.87 360.737 437.782H362.261C363.218 437.782 364.176 437.782 365.13 437.762C365.438 437.762 365.764 437.762 366.073 437.762C365.949 437.762 366.022 437.71 366.19 437.762C366.481 437.848 366.776 437.931 367.075 437.994C368.883 438.375 370.849 437.994 372.674 437.901C373.025 437.868 373.096 437.706 372.87 437.508Z" fill="#FEC6FF"/>
<path d="M195.528 432.339C193.743 432.14 192.153 431.333 190.34 431.202C188.389 431.065 186.408 431.176 184.451 431.169C180.927 431.169 176.824 430.563 173.428 431.644C172.868 431.822 172.847 432.185 173.428 432.382C176.374 433.365 179.952 432.887 183.005 432.863C186.95 432.837 190.845 432.896 194.787 432.965C195.257 432.975 196.754 432.473 195.528 432.339Z" fill="#FEC6FF"/>
<path d="M913.853 427.878C914.853 426.583 915.786 425.577 913.958 424.031C912.304 422.624 909.431 422.336 907.348 421.881C904.896 421.379 902.369 421.339 899.902 421.763C899.571 421.24 899.195 420.75 898.767 420.302C896.307 417.773 892.209 416.068 888.749 415.623C880.2 414.532 870.842 415.308 863.925 420.651C863.128 420.461 862.359 420.556 861.531 420.444C859.699 420.187 858.03 419.088 856.239 418.604C854.259 418.104 852.204 417.974 850.176 418.221C849.126 418.343 848.176 418.708 847.157 418.899C846.012 419.352 846.214 419.153 847.752 418.295C847.584 417.87 847.39 417.456 847.171 417.054C845.92 415.515 843.505 415.776 841.208 416.573C841.167 416.522 841.126 416.471 841.092 416.424C838.676 413.264 835.849 410.437 832.684 408.013C830.8 406.599 829.265 405.114 827.001 404.331C824.565 403.476 821.98 403.122 819.401 403.29C816.265 403.518 813.38 404.619 810.617 406.043C810.008 406.358 809.407 406.687 808.818 407.06C806.258 404.04 803.293 401.297 799.344 400.304C796.223 399.514 792.708 400.169 789.668 401.005C788.759 401.26 787.842 401.548 786.932 401.887C786.638 401.477 786.375 401.124 786.286 401.019C785.353 400.002 784.604 398.931 783.743 397.863C781.715 395.341 778.06 393.639 774.921 393.012C771.287 392.29 767.314 391.656 763.621 392.226C761.749 392.548 759.911 393.042 758.13 393.7C757.888 393.171 757.654 392.622 757.545 392.445C756.941 391.501 756.186 390.659 755.31 389.954C754.198 388.967 753.056 387.882 751.75 387.141C750.229 386.272 748.451 386.035 746.847 385.371C744.276 384.303 743.848 381.187 743.065 378.682C742.074 375.512 742.108 372.404 740.6 369.332C737.735 363.498 732.931 358.725 728.172 354.385C723.464 350.151 718.196 346.575 712.512 343.754C714.305 341.994 715.93 340.073 717.364 338.015C719.097 335.577 720.933 333.123 721.378 330.102C721.884 326.685 721.166 322.769 720.55 319.396C719.378 313.043 714.834 306.067 710.228 301.575C709.675 301.041 709.081 300.55 708.45 300.107C709.186 296.843 708.878 293.433 707.568 290.351C705.048 284.367 699.523 282.57 693.751 280.713C689.898 279.472 685.795 278.339 681.784 277.851C679.976 277.631 678.191 277.743 676.382 277.448C674.611 277.156 672.82 277.007 671.024 277.001C667.263 276.974 663.704 277.767 659.977 278.048C655.782 278.366 651.843 279.53 647.976 281.15C641.106 283.96 634.912 288.175 629.797 293.52C627.133 296.33 625.242 299.683 623.085 302.86C622.686 303.457 622.342 304.089 622.059 304.748C612.643 304.172 604.769 311.433 597.178 315.871C593.632 317.946 590.083 320.166 587.745 323.569C582.575 322.834 577.829 322.864 572.892 324.827C567.701 326.885 556.802 332.733 560.494 339.805C563.469 345.51 570.868 347.697 577.316 348.737C577.658 349.629 578.07 350.493 578.547 351.321C575.564 352.121 572.628 353.087 569.753 354.212C564.174 356.365 558.883 358.86 554.733 363.288C550.582 367.715 549.119 373.377 548.791 379.201L548.497 379.316C545.17 380.716 541.563 380.98 538.338 382.788C537.18 383.439 536.065 384.165 535.001 384.961C533.245 384.331 531.422 383.906 529.568 383.693C525.076 383.18 520.73 382.52 516.196 383.14C509.775 384.011 500.092 385.265 496.05 390.958C494.31 393.411 493.592 397.564 494.122 401.378C491.728 402.056 489.308 402.789 486.993 403.66C483.574 404.945 480.055 406.684 477.252 409.145C474.025 409.03 470.571 409.647 467.644 410.22C465.231 410.695 462.355 411.291 459.801 412.362C454.969 411.386 450.084 411.708 445.215 411.054C442.475 410.72 439.699 410.816 436.988 411.339C435.467 409.396 433.07 407.999 430.889 407.128C426.548 405.428 421.972 404.389 417.318 404.047C416.573 403.986 415.834 403.89 415.102 403.795C415.006 403.522 414.892 403.255 414.761 402.995C413.957 401.409 412.525 400.073 411.513 398.619C410.391 397.019 409.348 395.758 407.44 395.09C405.731 394.494 403.949 393.666 402.134 393.422C399.819 393.11 397.439 393.466 395.115 393.51C392.998 393.551 391.302 393.127 389.278 392.706C386.861 392.208 384.422 392.876 382.071 393.384C377.903 394.287 373.779 395.534 370.38 398.199C366.082 401.568 364.835 406.179 365.416 410.902L365.327 410.983C363.99 412.224 361.771 413.603 361.005 415.308C360.704 416.007 360.611 416.776 360.738 417.525C358.632 416.227 356.577 414.956 354.023 414.519C351.757 414.167 349.448 414.176 347.185 414.546C344.662 414.911 342.183 414.807 339.663 415.081C337.001 415.328 334.356 415.719 331.738 416.251C331.676 413.321 330.209 410.64 326.81 409.701C324.656 409.105 322.995 408.511 320.7 408.756C319.445 408.9 318.203 409.139 316.984 409.47C316.854 409.508 316.741 409.535 316.642 409.565C316.642 409.497 316.457 409.433 315.749 409.42C311.127 409.315 306.053 411.244 301.523 412.132C299.341 412.549 297.125 412.471 294.94 412.898L294.411 413.01L294.127 412.945C292.958 412.701 291.734 412.752 290.54 412.555C285.607 411.745 281.138 411.494 276.228 412.82C274.146 413.382 271.893 413.932 269.954 414.908C268.015 415.884 267.636 416.875 266.535 418.563C266.312 418.82 266.37 418.946 266.709 418.942C266.345 419.045 265.987 419.168 265.635 419.309H265.543C265.062 419.308 264.582 419.34 264.107 419.407C261.96 419.522 259.526 420.214 259.296 421.376C259.272 421.509 259.245 421.641 259.221 421.77C257.957 421.717 256.699 421.56 255.46 421.302C254.434 421.095 253.839 421.058 252.947 420.553C252.055 420.048 251.402 419.505 250.386 419.224C247.938 418.546 245.096 418.993 242.69 419.6C241.247 419.966 238.276 420.386 236.094 421.428C234.706 421.16 233.28 421.058 231.882 420.851C228.631 420.326 225.352 419.986 222.062 419.834C214.882 419.586 207.455 420.173 200.313 420.96C198.556 421.153 198.569 422.072 200.313 422.268C210.714 423.434 220.981 422.987 231.256 425.363C234.009 425.997 237.288 425.641 239.927 424.685C240.375 424.525 242.515 423.729 243.004 423.142L243.237 423.095L243.486 423.261C244.019 423.909 245.103 424.363 245.88 424.597C247.669 425.116 249.499 425.491 251.351 425.716C256.855 426.394 262.739 425.349 268.001 423.793C268.141 423.75 269.492 423.407 270.546 423.065C270.511 423.203 270.71 423.329 271.168 423.437C271.678 423.659 272.213 423.82 272.76 423.919C274.86 424.39 277.038 424.353 279.155 424.716C282.995 425.394 286.786 425.77 290.636 424.933C292.865 424.468 295.001 423.644 296.961 422.495C297.136 422.39 297.303 422.275 297.478 422.156C297.87 422.255 298.267 422.332 298.668 422.387C300.602 422.623 302.556 422.659 304.497 422.492C306.156 422.395 307.796 422.089 309.376 421.58C309.53 421.726 309.718 421.919 309.954 422.142C310.638 422.82 311.342 423.482 312.074 424.095C309.151 424.854 306.234 425.926 303.335 426.781C301.253 427.394 299.249 427.164 297.074 427.197C291.413 427.286 285.726 427.336 280.068 427.536C277.633 427.631 275.195 427.696 272.764 427.838C271.858 427.838 270.954 427.93 270.067 428.112C269.609 428.238 268.76 428.933 268.419 428.96C267.622 429.028 265.823 429.838 267.629 430.042C268.623 430.151 269.629 430.115 270.613 429.936C271.681 429.787 272.763 429.772 273.834 429.889C277.879 430.153 281.948 430.13 286 430.177C290.184 430.228 294.37 430.455 298.555 430.516C302.524 430.577 305.93 429.574 309.711 428.57C311.404 428.119 313.223 427.817 314.823 427.079L315.165 426.939C315.722 427.092 316.358 427.096 316.908 427.279C318.478 427.781 319.685 428.38 321.391 428.38C323.409 428.38 325.186 427.804 327.05 427.153C330.024 426.112 332.845 426.37 335.939 425.984C337.383 425.8 338.781 425.356 340.217 425.197C341.718 425.088 343.224 425.079 344.727 425.167H344.795C345.052 425.268 345.328 425.315 345.605 425.306C345.841 425.34 346.071 425.374 346.289 425.397C348.046 425.577 349.804 425.543 351.568 425.608C355.75 425.756 359.774 427.252 363.949 427.058C366.367 426.943 368.442 426.13 370.825 425.668C372.893 425.29 374.992 425.103 377.096 425.112C377.715 425.112 378.34 425.082 378.973 425.054C380.515 425.235 382.075 425.213 383.612 424.99L383.896 425.007C384.734 425.075 386.912 425.746 388.108 425.97C391.669 426.658 395.333 426.614 398.876 425.842C399.358 425.736 400.8 425.533 401.921 425.214C403.659 426.085 405.83 426.431 407.694 426.675C411.044 427.536 414.559 428.126 417.951 427.963C421.486 427.797 424.789 426.489 428.208 425.93C430.745 426.349 433.32 426.483 435.887 426.329C439.129 426.099 442.1 425.651 445.359 425.678C448.494 425.712 450.429 425.34 452.696 425.468C455.13 425.601 456.601 426.146 459.243 426.631C462.003 427.136 464.844 427.079 467.641 427.034C470.08 426.994 472.512 427.302 474.862 427.95C476.035 428.245 477.553 428.319 478.582 428.76C478.708 428.814 478.863 428.855 479.013 428.906H478.671C476.582 428.906 472.684 429.085 471.34 431.157C470.363 432.666 471.501 434.384 472.626 435.438C474.516 437.208 477.01 437.625 479.539 437.618C481.053 437.623 482.563 437.45 484.035 437.1C484.654 436.951 485.266 436.76 485.875 436.564C486.176 436.466 486.482 436.385 486.792 436.32C489.718 436.398 492.604 436.696 495.517 436.154C498.252 435.649 500.543 434.198 503.23 433.544C504.149 433.333 505.046 433.042 505.912 432.672C506.253 432.944 506.616 433.188 506.998 433.401C509.348 434.669 512.322 434.862 514.938 434.689C517.362 434.53 519.823 433.909 522.207 433.421C523.509 433.154 524.908 432.794 526.053 432.092C526.368 431.918 526.657 431.702 526.915 431.452C526.98 431.38 527.035 431.316 527.086 431.255C528.265 431.347 529.439 431.506 530.6 431.729C531.626 432.069 532.471 432.747 533.534 433.055C534.731 433.414 535.928 433.333 537.111 433.462C536.7 433.462 539.2 434.008 539.566 434.062C541.314 434.289 543.076 434.384 544.838 434.347C547.741 434.347 550.832 433.927 553.707 434.255C556.309 434.553 558.494 434.984 561.165 434.703C563.946 434.404 566.703 433.909 569.415 433.222C570.519 432.947 571.77 432.716 572.803 432.204H573.227C576.157 432.306 579.139 432.387 581.997 431.618C582.874 431.407 583.724 431.098 584.531 430.699L585.081 430.675C586.172 430.648 587.573 430.269 588.763 430.191C588.35 430.371 590.473 431.208 591.064 431.441C595.199 433.137 598.983 435.906 603.277 437.204C608.864 438.879 614.998 437.544 620.537 436.235C622.452 435.791 624.453 435.364 626.288 434.625C626.518 434.812 626.73 434.994 626.914 435.157C628.699 436.737 630.06 438.235 632.385 439.089C634.71 439.944 637.284 440.134 639.699 440.815C642.271 441.568 644.935 441.966 647.617 441.998C653.358 442.056 659.355 440.7 663.704 436.791C664.518 436.062 665.458 435.096 665.851 434.079C667.602 434.157 669.369 434.1 671.127 434.103C673.512 434.161 675.899 434.017 678.259 433.672C680.013 433.38 681.678 432.787 683.354 432.258C684.441 433.134 685.72 435.116 686.431 435.794C687.891 437.208 689.262 438.116 691.348 438.266C694.001 438.452 696.845 437.649 699.25 436.602C699.489 436.499 699.721 436.388 699.957 436.262C701.185 437.042 702.392 437.927 703.861 438.228C706.402 438.754 709.076 438.178 711.469 437.31C713.862 436.442 715.842 435.388 717.388 433.92C719.073 434.391 720.653 435.231 722.393 435.584C724.573 436.063 726.79 436.356 729.019 436.462C730.989 436.517 732.593 436.307 734.49 436.848C738.644 438.039 743.38 437.059 747.596 436.547C750.044 436.252 751.148 435.978 753.572 436.69C755.255 437.181 756.55 438.435 758.216 438.781C760.489 439.259 763.002 438.388 765.03 437.456C765.371 437.293 765.714 437.116 766.056 436.927C766.657 437.12 767.266 437.293 767.881 437.435C772.644 438.571 777.599 437.9 782.437 438.046C784.557 438.107 786.598 438.791 788.717 438.496C791.094 438.157 793.371 437.11 795.614 436.32C797.665 435.591 799.796 435.021 801.747 433.997C802.573 433.576 803.364 433.092 804.113 432.55C804.37 432.55 804.572 432.581 804.647 432.594C805.772 432.812 806.804 433.211 807.964 433.272C809.037 433.319 810.015 433.116 811.078 433.306C811.763 433.429 812.347 433.74 813.059 433.794C815.349 433.964 817.411 432.581 819.654 432.533C822.081 432.486 824.407 433.889 826.663 434.611C831.077 436.028 835.987 437.544 840.62 436.496C842.822 435.998 845.013 434.333 847.167 434.024C848.35 433.855 849.848 434.459 851.045 434.598C852.095 434.72 853.137 434.73 854.198 434.764C856.727 434.845 859.257 435.103 861.791 434.798C864.184 434.503 865.641 434.008 868.093 434.425C870.479 434.787 872.893 434.944 875.307 434.893C877.584 434.893 879.731 434.215 881.988 434.089C884.379 433.95 886.771 434.367 889.17 434.164C891.434 433.926 893.638 433.278 895.668 432.252C896.172 432.073 896.661 431.862 897.142 431.618C897.578 432.109 898.443 432.215 899.022 432.33C901.813 432.886 904.836 432.042 907.573 431.489C907.852 431.432 908.122 431.362 908.393 431.276C909.694 431.516 911.507 430.638 912.544 429.963C912.845 429.763 914.951 428.221 913.853 427.878Z" fill="#FFCCF5"/>
<path opacity="0.5" d="M904.643 427.35C899.349 426.228 894.168 428.156 888.866 428.24C884.708 428.313 879.326 426.071 875.634 428.42C874.784 428.53 874.051 428.776 874.002 429.31C873.906 430.429 877.26 430.68 877.928 430.737C879.601 430.877 882.337 431.686 884.473 431.873C886.889 432.137 889.351 431.989 891.699 431.437C892.843 431.185 893.895 430.743 895.024 430.461C896.296 430.144 897.63 430.183 898.94 430.075C901.061 429.873 903.144 429.444 905.136 428.797C906.704 428.329 905.893 427.614 904.643 427.35Z" fill="white"/>
<path opacity="0.2" d="M913.852 427.415C914.853 426.124 915.787 425.12 913.957 423.579C912.3 422.177 909.423 421.889 907.345 421.436C904.882 420.935 902.36 420.895 899.882 421.318C899.558 420.796 899.174 420.308 898.745 419.862C896.282 417.34 892.178 415.641 888.714 415.197C880.154 414.11 870.783 414.883 863.857 420.21C863.059 420.021 862.289 420.115 861.46 420.003C859.625 419.747 857.954 418.652 856.16 418.169C854.179 417.671 852.12 417.541 850.09 417.787C849.039 417.908 848.087 418.273 847.067 418.463C845.92 418.915 846.122 418.716 847.662 417.861C847.494 417.437 847.299 417.025 847.08 416.624C845.827 415.089 843.41 415.35 841.11 416.144C841.068 416.093 841.028 416.043 840.993 415.995C838.574 412.846 835.743 410.027 832.574 407.61C830.688 406.201 829.15 404.721 826.884 403.94C824.445 403.088 821.855 402.734 819.273 402.902C816.133 403.129 813.244 404.227 810.477 405.646C809.868 405.961 809.266 406.289 808.677 406.661C806.112 403.65 803.144 400.915 799.189 399.925C796.063 399.137 792.544 399.79 789.5 400.624C788.59 400.878 787.672 401.165 786.761 401.503C786.467 401.095 786.203 400.743 786.114 400.638C785.179 399.624 784.43 398.556 783.567 397.492C781.536 394.977 777.876 393.28 774.734 392.656C771.094 391.935 767.116 391.304 763.418 391.872C761.544 392.193 759.703 392.686 757.92 393.341C757.677 392.815 757.444 392.267 757.334 392.091C756.728 391.149 755.972 390.31 755.095 389.607C753.983 388.623 752.839 387.542 751.531 386.802C750.007 385.936 748.227 385.7 746.621 385.038C744.047 383.973 743.619 380.867 742.835 378.37C741.841 375.209 741.876 372.111 740.366 369.048C737.497 363.232 732.687 358.474 727.921 354.148C723.207 349.927 717.931 346.361 712.24 343.549C714.035 341.794 715.662 339.879 717.098 337.828C718.834 335.397 720.673 332.95 721.118 329.939C721.624 326.533 720.906 322.629 720.289 319.266C719.115 312.933 714.565 305.977 709.953 301.5C709.399 300.967 708.804 300.477 708.173 300.036C708.909 296.782 708.6 293.382 707.289 290.31C704.766 284.345 699.234 282.553 693.454 280.701C689.596 279.464 685.487 278.335 681.471 277.848C679.659 277.629 677.872 277.74 676.061 277.446C674.288 277.156 672.494 277.007 670.696 277.001C666.93 276.974 663.366 277.764 659.634 278.045C655.434 278.362 651.49 279.522 647.617 281.137C640.739 283.939 634.535 288.141 629.413 293.469C626.746 296.271 624.852 299.614 622.693 302.78C622.293 303.376 621.948 304.006 621.665 304.663C612.236 304.088 604.351 311.327 596.75 315.752C593.2 317.82 589.647 320.033 587.304 323.426C582.128 322.693 577.376 322.723 572.432 324.681C567.235 326.732 556.32 332.562 560.017 339.612C562.996 345.3 570.405 347.48 576.862 348.517C577.205 349.406 577.617 350.267 578.095 351.092C575.107 351.89 572.167 352.853 569.289 353.975C563.701 356.121 558.405 358.609 554.249 363.023C550.092 367.436 548.627 373.081 548.298 378.887L548.003 379.001C544.672 380.397 541.06 380.661 537.831 382.463C536.672 383.112 535.555 383.836 534.49 384.629C532.732 384.001 530.906 383.577 529.05 383.365C524.551 382.854 520.199 382.196 515.659 382.814C509.229 383.682 499.533 384.933 495.486 390.608C493.744 393.054 493.025 397.195 493.555 400.993C491.159 401.669 488.735 402.402 486.417 403.271C482.993 404.552 479.471 406.286 476.663 408.739C473.431 408.625 469.973 409.24 467.042 409.811C464.625 410.284 461.746 410.879 459.188 411.946C454.351 410.973 449.458 411.294 444.582 410.642C441.839 410.309 439.059 410.405 436.345 410.926C434.822 408.989 432.422 407.597 430.237 406.728C425.89 405.034 421.309 403.998 416.648 403.656C415.902 403.596 415.163 403.5 414.43 403.406C414.333 403.133 414.218 402.867 414.087 402.608C413.283 401.027 411.848 399.695 410.835 398.246C409.712 396.65 408.668 395.393 406.757 394.727C405.046 394.133 403.262 393.307 401.444 393.064C399.126 392.754 396.743 393.109 394.414 393.152C392.295 393.193 390.597 392.77 388.57 392.351C386.149 391.854 383.709 392.52 381.353 393.027C377.179 393.926 373.05 395.17 369.647 397.826C365.344 401.185 364.094 405.782 364.676 410.49L364.587 410.571C363.248 411.808 361.026 413.183 360.259 414.883C359.958 415.58 359.865 416.347 359.992 417.094C357.883 415.799 355.826 414.532 353.268 414.096C350.998 413.746 348.687 413.755 346.42 414.123C343.894 414.488 341.412 414.383 338.888 414.657C336.224 414.903 333.574 415.293 330.952 415.823C330.89 412.903 329.422 410.23 326.019 409.294C323.862 408.699 322.197 408.107 319.901 408.351C318.643 408.495 317.399 408.733 316.179 409.063C316.049 409.101 315.936 409.128 315.836 409.158C315.836 409.09 315.652 409.027 314.943 409.009C310.314 408.908 305.233 410.831 300.696 411.713C298.512 412.129 296.294 412.051 294.106 412.477L293.575 412.588L293.291 412.525C292.12 412.281 290.894 412.332 289.7 412.136C286.348 411.588 283.195 411.297 280 411.582C282.076 412.135 284.183 412.571 286.31 412.886C291.6 413.667 328.569 408.85 323.173 422.251C331.205 423.329 339.166 418.463 347.393 419.368C351.481 419.821 357.356 423.268 361.208 422.846C365.059 422.423 367.268 417.499 371.157 416.229C374.581 415.107 381.216 414.941 384.654 416.063C383.733 412.933 379.59 411.933 376.543 411.717C377.001 411.078 377.497 410.468 378.029 409.889C379.261 405.721 383.578 402.314 387.242 400.314C392.72 397.323 400.047 397.272 405.686 399.668C408.01 400.651 410.301 402.122 411.91 404.061C410.225 404.22 408.547 405.87 407.459 407.083C408.733 407.256 410.023 407.256 411.297 407.083C413.624 406.879 415.968 406.949 418.278 407.292C421.36 407.712 424.416 408.195 427.33 409.3C429.607 410.162 431.747 411.382 433.911 412.471C434.993 413.062 436.003 413.775 436.921 414.596C436.78 414.148 436.735 413.676 436.79 413.21C447.257 409.757 456.733 417.401 466.659 419.581C471.849 418.655 476.396 416.202 481.758 418.432C485.825 420.122 489.609 425.766 494.33 424.729C494.562 422.913 493.843 421.058 492.984 419.568C496.223 417.678 504.176 424.363 508.476 424.299C516.314 424.164 523.74 415.823 531.248 413.244C539.18 410.52 555.159 408.652 561.965 415.518C566.331 409.773 574.428 405.238 579.769 404.704C582.265 404.45 586.374 404.734 589.543 406.12C590.276 404.474 591.322 402.983 592.625 401.726C598.065 396.762 606.844 395.61 613.9 396.221C621.607 396.897 630.83 402.602 635.062 410.098C636.298 406.454 638.828 402.622 641.516 400.81C637.431 395.937 635.247 388.965 641.77 385.463C650.514 380.769 667.105 390.996 670.186 400.04C671.717 398.822 673.398 397.799 675.188 396.998C680.906 394.42 685.823 396.015 690.167 400.134C690.63 399.797 691.099 399.489 691.557 399.151C696.149 395.772 700.702 391.154 705.999 388.833C715.661 384.598 725.244 388.255 733.762 393.348C740.814 397.604 747.438 402.513 753.547 408.009C756.03 410.23 756.629 411.693 759.967 411.862C763.829 412.055 769.077 409.462 772.854 408.611C777.989 407.448 783.498 406.897 788.785 407.884C797.292 409.469 799.504 414.238 808.248 411.939C814.911 410.196 824.803 409.452 829.534 415.542C827.963 416.029 826.11 416.296 824.453 416.611C827.679 418.699 832.297 419.182 836.011 420.328C839.778 421.497 843.685 423.299 847.56 423.813C861.782 425.705 876.275 417.033 889.768 421.278C895.642 423.126 901.569 423.532 907.345 425.134C909.423 425.708 912.037 426.628 914.085 428C914.123 427.95 914.153 427.89 914.16 427.827C914.168 427.764 914.16 427.7 914.138 427.641C914.115 427.581 914.077 427.529 914.025 427.49C913.972 427.45 913.912 427.424 913.852 427.415Z" fill="white"/>
<path opacity="0.1" d="M582 391.225C573.26 381.893 556.623 387.363 556.623 387.363C556.623 387.363 555.139 383.18 542.87 384.144C530.602 385.108 520.827 393.156 521.152 399.909C517.915 399.266 503.679 398.302 493.606 401.401C491.208 402.083 488.782 402.818 486.463 403.693C483.036 404.984 479.511 406.732 476.701 409.203C473.468 409.088 470.007 409.708 467.074 410.284C465.02 410.656 462.992 411.155 461 411.775C465.303 412.115 470.333 411.149 473.858 412.514C473.474 413.25 473.55 414.217 473.313 415C476.301 413.314 479.093 411.346 482.303 409.891C488.471 407.072 494.799 405.672 501.729 406.38C507.896 407.007 518.247 406.292 523.095 410.222C523.708 407.992 533.346 402.764 536.203 401.885C539.797 400.775 544.515 401.067 548.29 401.262C548.575 403.056 548.143 404.511 548.325 406.248C550.552 403.986 552.2 401.275 554.458 399.096C560.306 393.401 574.555 386.94 582 391.225Z" fill="white"/>
<g opacity="0.1">
<path d="M585.194 370.818L585.156 370.801C585.165 370.809 585.172 370.82 585.177 370.832C585.28 370.923 585.286 370.92 585.194 370.818Z" fill="white"/>
<path d="M705.354 297.297C705.091 291.334 702.016 286.876 697.828 282.719C697.462 282.356 697.072 282.014 696.672 281.681C695.673 281.343 694.657 281.003 693.634 280.665C689.778 279.424 685.673 278.291 681.66 277.803C679.85 277.582 678.064 277.695 676.255 277.4C674.483 277.108 672.69 276.959 670.894 276.952C667.13 276.925 663.57 277.719 659.84 278C655.643 278.318 651.702 279.481 647.833 281.102C640.959 283.912 634.761 288.128 629.643 293.473C626.977 296.284 625.085 299.637 622.927 302.813C622.77 303.05 622.622 303.295 622.483 303.538C625.835 304.457 630.008 303.736 633.122 304.572C636.433 305.461 640.846 310.065 644.275 309.617C641.37 310.576 637.001 309.136 632.643 307.214C628.284 305.292 621.884 304.702 621.884 304.702C612.462 304.125 604.583 311.387 596.989 315.825C594.053 317.54 591.124 319.368 588.874 321.873C589.969 322.028 591.051 322.267 592.11 322.589C595.165 323.528 599.917 330.515 599.917 330.515C599.917 330.515 592.39 324.27 587.549 323.524C582.377 322.789 577.628 322.819 572.688 324.782C569.89 325.891 565.446 328.098 562.507 331.003C561.823 333.528 561.867 336.201 562.849 338.533C563.77 340.699 565.141 342.377 567.297 343.489C569.452 344.601 572.685 344.507 574.447 345.795C575.035 344.631 576.195 343.327 577.598 343.245C576.814 345.018 576.883 347.188 577.365 349.32C577.655 349.995 577.986 350.651 578.354 351.287C578.23 351.317 578.108 351.358 577.981 351.389C578.447 352.732 579.027 354.034 579.715 355.281C573.064 356.427 564.385 361.99 562.35 368.957C568.85 366.668 579.226 367.601 585.182 370.812C583.492 368.099 580.465 367.306 578.08 365.601C584.734 355.125 603.55 353.178 613.498 359.837C612.304 357.698 610.019 356.603 608.196 354.847C609.348 354.263 613.419 355.04 613.721 353.45C614.039 351.782 609.547 350.11 608.408 349.7C602.979 347.754 597.118 348.005 591.425 348.545C588.549 348.819 586.599 348.924 584.21 347.304C584.385 343.953 587.149 342.489 590.006 340.98C596.032 337.785 602.631 335.787 609.43 335.098C614.679 334.536 620.379 334.42 625.377 332.634C629.14 331.278 632.54 329.169 636.276 327.769C643.837 324.934 654.11 323.097 661.935 325.453C656.957 320.568 648.068 319.141 641.387 320.398C643.44 317.289 650.111 316.469 653.241 314.679C657.282 312.367 660.063 308.217 664.09 305.844C667.832 303.637 672.413 301.775 676.823 301.989C680.298 302.145 682.67 303.878 685.69 305.04C685.389 301.898 682.016 299.124 679.245 298.094C686.504 296.636 697.199 300.294 702.932 304.851C705.197 303.342 705.46 299.755 705.354 297.297Z" fill="white"/>
</g>
<path opacity="0.2" d="M547.526 285.998C545.112 286.034 542.771 284.565 540.307 284.435C539.948 284.435 539.02 284.642 538.738 284.498C538.456 284.354 538.306 283.844 538.165 283.691C537.42 282.907 536.347 282.524 535.306 282.227C533.01 281.532 530.644 281.091 528.25 280.911C527.229 280.899 526.21 281.005 525.213 281.227C524.171 281.373 523.114 281.392 522.067 281.285C519.553 281.008 517.021 280.909 514.493 280.988C511.61 281.141 508.724 281.394 505.855 281.61C504.732 281.695 503.582 281.659 502.481 281.813C501.796 281.966 501.088 281.988 500.395 281.876C499.786 281.767 499.144 281.529 498.54 281.389C495.967 280.799 493.366 279.974 490.757 279.654C487.842 279.294 484.919 279.159 482.005 278.753C479.091 278.348 476.145 277.767 473.208 277.249C470.377 276.702 467.484 276.55 464.611 276.798L464.029 276.14C462.006 273.888 460.392 271.91 457.619 270.45C456.435 269.886 455.299 269.228 454.223 268.481C453.397 267.789 452.479 267.213 451.495 266.769C450.641 266.443 449.74 266.258 448.826 266.22C448.633 264.828 448.289 263.461 447.799 262.142C447.194 260.574 446.657 258.885 445.826 257.421C445.098 256.132 444.007 255.024 443.098 253.861C441.142 251.487 438.844 249.41 436.278 247.698C433.137 245.513 429.7 245.135 425.954 245.346C424.462 245.432 423.567 245.891 422.353 246.698C421.139 247.504 419.962 248.261 419.025 249.505C418.181 250.619 417.637 251.927 417.443 253.307C417.384 253.686 417.311 254.064 417.234 254.438C415.975 254.587 414.765 254.934 413.501 255.154C412.883 255.263 412.269 255.357 411.646 255.456C410.405 254.037 408.746 252.911 407.25 251.775C405.963 250.701 404.517 249.827 402.963 249.185C401.308 248.59 399.649 248.572 397.962 248.284C396.144 248 394.407 247.833 392.62 248.342C391.152 248.711 389.765 249.345 388.529 250.212C385.983 252.154 383.882 254.992 382.064 257.592C381.159 258.818 380.475 260.19 380.041 261.647C379.95 261.98 379.886 262.318 379.822 262.66C377.422 261.462 374.649 260.597 372.094 260.673C371.371 260.657 370.657 260.838 370.032 261.198C369.406 261.557 368.893 262.08 368.548 262.71C367.825 263.944 367.916 265.413 368.202 266.765C368.48 268.115 369.06 269.386 369.898 270.486C370.331 271.068 370.821 271.605 371.362 272.09C371.816 272.496 372.494 272.743 372.894 273.198C372.995 273.308 373.059 273.446 373.076 273.593C373.093 273.74 373.063 273.889 372.989 274.018L372.803 273.964C371.852 273.713 370.884 273.526 369.907 273.406C369.59 273.37 369.271 273.355 368.952 273.361C368.919 273.356 368.885 273.356 368.852 273.361L368.939 273.324C368.86 273.321 368.782 273.308 368.707 273.284C368.353 273.171 367.991 273.085 367.625 273.027C365.806 272.689 364.083 273.054 362.301 273.433C361.67 273.542 361.058 273.739 360.482 274.018C359.914 274.388 359.385 274.816 358.905 275.293C357.804 276.265 356.452 276.914 355 277.168C353.763 277.334 352.522 277.33 351.29 277.582C350.116 277.784 349 278.237 348.021 278.911C347.971 278.952 347.93 278.997 347.885 279.037C347.524 278.723 347.144 278.432 346.748 278.163C344.864 276.933 342.761 276.071 340.551 275.622C338.424 275.161 336.216 275.214 334.114 275.775C333.214 275.962 332.391 276.411 331.75 277.064C331.518 277.338 331.35 277.66 331.259 278.006C329.767 277.525 328.228 277.2 326.667 277.037C323.939 276.803 321.484 277.487 318.938 278.348C317.915 278.695 316.87 278.893 315.833 279.177C314.892 279.434 314.301 280.078 313.415 280.384C312.892 280.556 312.337 280.758 311.783 281.002C310.964 280.447 310.08 279.993 309.15 279.65C308.896 278.046 308.241 276.42 307.823 275C307.452 273.855 306.719 272.858 305.731 272.158C305.245 271.851 304.304 271.59 303.913 271.383C303.913 271.356 303.699 271.175 303.686 271.157C303.326 270.835 302.927 270.558 302.499 270.333C299.521 268.616 295.889 268.17 292.497 268.324C289.428 268.463 286.041 268.972 283.3 270.387C282.227 270.937 280.89 271.392 280.063 272.293C279.112 273.293 278.419 274.506 278.044 275.829C277.876 276.627 278.013 277.451 277.876 278.258C277.817 278.614 277.753 278.956 277.703 279.299C277.512 279.299 277.322 279.326 277.126 279.348C276.843 278.689 276.453 278.08 275.971 277.546C274.712 276.149 272.898 275.717 271.125 275.293C269.215 274.801 267.236 274.632 265.269 274.793C263.551 274.982 261.769 275.073 259.773 275.433C258.1 275.73 256.545 276.032 255.045 276.87C254.386 277.249 253.752 277.671 253.149 278.132C252.49 277.294 251.935 276.33 251.103 275.64C250.042 274.777 248.799 274.161 247.466 273.838C246.456 273.624 245.414 273.606 244.397 273.784C243.943 273.874 243.274 274.135 243.088 274.162C242.206 274.28 241.269 274.086 240.36 274.199C239.728 274.291 239.101 274.417 238.483 274.577C236.85 274.126 234.973 274.523 233.168 274.816C231.931 275.018 230.731 275.433 229.531 275.717C228.195 275.947 226.899 276.362 225.68 276.951C225.236 277.198 224.812 277.478 224.412 277.789L224.13 277.339C223.271 276.068 222.166 275.172 221.007 274.185C219.597 272.982 217.992 272.45 216.215 271.995C214.471 271.539 212.699 271.199 210.909 270.977C209.068 270.77 207.213 270.617 205.422 271.198C203.121 271.946 201.185 274.212 201.38 276.694C201.452 277.414 201.694 278.107 202.085 278.717C202.517 279.465 202.68 280.308 203.126 281.042C203.59 281.829 204.19 282.529 204.899 283.11C205.158 283.317 205.463 283.461 205.695 283.651C204.958 283.475 204.222 283.331 203.485 283.169C202.047 282.836 200.564 282.736 199.093 282.871C197.73 283.015 196.366 283.191 194.97 283.259C193.555 283.298 192.163 283.621 190.878 284.209C189.833 284.694 188.904 285.393 188.15 286.259C187.865 286.659 187.549 287.035 187.205 287.386C187.038 287.481 186.877 287.587 186.723 287.701L186.505 287.638C186.176 287.54 185.84 287.467 185.5 287.417H185.391L185.086 287.323C184.357 287.054 183.59 286.902 182.813 286.872C182.631 286.768 182.431 286.674 182.263 286.588C181.367 286.125 180.422 285.764 179.444 285.511C178.096 285.149 176.715 284.916 175.321 284.818C174.616 284.777 173.898 284.818 173.193 284.718C172.488 284.619 171.788 284.453 171.07 284.385C169.679 284.254 168.342 283.903 166.951 283.777C165.568 283.663 164.176 283.701 162.8 283.89C161.436 284.07 160.136 284.34 158.709 284.313C158.044 284.266 157.377 284.266 156.713 284.313C156.013 284.385 155.349 284.583 154.635 284.651C153.195 284.73 151.752 284.73 150.312 284.651C148.925 284.651 147.466 284.804 146.097 284.534C144.506 284.223 142.947 284.286 141.337 284.151C140.523 284.079 139.732 283.908 138.914 283.912H138.409C138.359 283.912 138.155 283.912 138.146 283.912C137.755 283.835 137.377 283.673 136.986 283.61C136.605 283.55 136.217 283.531 135.832 283.556C135.679 283.548 135.526 283.56 135.377 283.592C135.344 283.588 135.31 283.588 135.277 283.592H135.245C134.61 283.308 133.902 283.225 133.218 283.353C132.731 283.532 132.235 283.683 131.731 283.804C131.457 283.836 131.192 283.923 130.953 284.059C130.714 284.195 130.506 284.378 130.34 284.597C129.885 285.155 132.222 286.039 132.499 286.088C132.993 286.209 133.503 286.242 134.009 286.187C134.463 286.102 134.036 286.048 134.627 286.259C134.874 286.351 135.126 286.429 135.382 286.494C136.455 286.737 137.5 286.322 138.564 286.494C139.628 286.665 140.483 287.246 141.555 287.255C141.71 287.255 142.042 287.142 142.133 287.142C142.359 287.199 142.577 287.282 142.783 287.39C143.23 287.548 143.707 287.605 144.179 287.557H144.242C146.415 287.935 148.598 288.219 150.703 288.53C151.957 288.715 153.171 288.589 154.426 288.67C155.954 288.769 157.449 289.12 158.972 289.188C162.609 289.391 166.278 289.188 169.883 289.472C173.311 289.728 176.476 291.143 179.799 291.814C182.768 292.414 185.359 291.558 188.223 290.913C189.773 290.58 191.21 290.499 192.715 289.976C194.22 289.454 195.775 288.967 197.293 288.39C197.759 288.215 198.234 288.064 198.716 287.94C200.029 288.531 201.411 288.956 202.83 289.206C204.63 289.583 206.471 289.734 208.309 289.656C210.264 289.562 212.023 288.809 213.942 288.571C215.796 288.334 217.623 287.92 219.397 287.336C219.806 287.566 220.229 287.76 220.547 287.94C222.252 288.922 223.73 289.143 225.639 289.508C229.931 290.319 233.877 290.886 238.251 290.476C239.896 290.39 241.505 289.968 242.979 289.237C243.396 289.042 243.763 288.755 244.054 288.4C244.344 288.044 244.55 287.628 244.656 287.183C244.847 287.308 245.05 287.415 245.261 287.503C246.734 288.084 248.325 288.242 249.866 288.566C252.672 289.156 255.504 289.71 258.382 289.661C261.682 289.602 264.969 289.309 268.27 289.251C269.938 289.219 271.602 288.863 273.271 288.89C275.048 288.922 276.826 289.503 278.563 289.837C281.714 290.44 284.952 290.457 288.11 289.886C291.129 289.377 294.088 290.017 297.034 288.922C298.23 288.471 299.471 288.282 300.671 287.845L300.903 287.791L301.231 287.845C302.076 288.138 303.258 288.039 304.136 288.066C305.709 288.081 307.27 288.344 308.759 288.845C309.814 289.18 310.94 289.236 312.023 289.008C313.205 288.778 313.46 288.3 314.297 287.656C315.46 286.755 317.424 287.025 318.843 286.845C322.275 286.394 325.753 286.48 329.213 286.503C332.823 286.525 336.578 286.331 340.16 286.75C343.434 287.138 346.753 286.683 349.967 287.39C351.374 287.7 352.812 287.851 354.254 287.841C356.013 287.841 357.482 288.35 359.15 288.818C362.069 289.647 364.72 288.899 367.675 288.994C370.63 289.089 373.648 289.823 376.604 289.638C377.777 289.566 379.259 288.863 380.295 289.071C381.691 289.35 383.132 290.22 384.564 290.589C387.887 291.428 391.337 291.656 394.743 291.26C396.53 291.053 398.221 290.431 399.99 290.161C401.858 289.882 403.772 289.764 405.654 289.503C407.018 289.309 408.428 289.143 409.814 288.967C410.314 289.206 410.81 289.463 411.328 289.692C413.456 290.62 415.556 291.643 417.766 292.396C419.46 292.991 421.234 293.336 423.03 293.418C424.064 293.446 425.099 293.359 426.113 293.157C427.022 292.968 428.095 292.31 428.991 292.256L429.573 292.058C429.604 292.255 429.692 292.44 429.828 292.588C429.964 292.736 430.141 292.842 430.336 292.891C430.681 293.128 431.046 293.334 431.427 293.508C432.201 293.929 433.037 294.224 433.905 294.382C436.046 294.752 437.86 294.085 439.92 293.743C441.875 293.418 444.043 294.234 446.08 294.139C448.585 294.027 450.917 293.198 453.354 292.688C458.282 291.666 463.197 291.076 468.052 289.643C470.207 289.008 472.681 287.773 474.94 287.868C477.268 287.967 479.55 288.715 481.887 288.868C486.792 289.188 491.734 289.801 496.653 289.318C499.004 289.08 501.313 288.575 503.664 288.296C506.388 287.974 509.131 287.833 511.874 287.872C517.393 287.917 522.785 288.548 528.3 288.967C531.126 289.173 533.965 289.112 536.779 288.787C539.552 288.476 542.48 287.908 545.267 287.859C546.149 287.859 547.994 287.827 548.586 287.021C549.177 286.214 548.29 285.984 547.526 285.998Z" fill="white"/>
<path d="M525.307 283.443C523.67 282.047 517.224 283.953 515.305 283.962C510.468 283.993 505.758 284.025 500.934 284.214C497.179 284.363 495.574 283.313 492.296 281.961C487.254 279.907 481.84 281.583 476.839 282.889C471.315 284.345 466.837 283.511 461.563 281.885C455.03 279.875 449.629 281.078 443.105 282.633H443.055C442.418 282.029 441.744 281.465 441.037 280.943C424.384 268.549 399.247 276.104 381.876 282.646C375.252 285.137 371.215 285.133 364.332 284.182C359.503 283.516 355.584 285.025 351.02 285.66C348.256 286.039 345.564 285.466 342.787 285.354C338.018 285.151 333.385 285.719 328.63 286.034C322.806 286.417 317.073 285.237 311.299 285.583C309.34 285.705 307.466 286.394 305.534 286.318C305.262 286.922 305.712 286.624 307.521 288.26C313.681 290.729 322.142 288.935 328.67 288.926C336.131 288.926 343.141 290.481 350.415 291.603C362.463 293.468 375.875 293.459 387.536 289.882C390.155 289.08 396.242 287.827 399.484 286.003C402.284 287.25 405.885 287.751 408.49 288.498C415.088 290.453 421.875 291.717 428.739 292.269C436.581 292.882 442.987 292.522 449.379 288.26C454.885 284.592 462.063 287.057 468.314 287.566C476.561 288.237 483.931 283.853 491.919 285.421C496.065 286.228 500.189 287.413 504.408 287.764C509.34 288.17 514.309 286.453 519.197 285.962C520.424 285.836 528.221 285.93 525.307 283.443Z" fill="#FEC6FF"/>
</g>
</g>
<defs>
<linearGradient id="paint0_linear_2874_33427" x1="667.502" y1="-114" x2="667.502" y2="816" gradientUnits="userSpaceOnUse">
<stop stop-color="#944FA4"/>
<stop offset="1" stop-color="#E17FF4"/>
</linearGradient>
<clipPath id="clip0_2874_33427">
<rect width="1336" height="768" fill="white"/>
</clipPath>
</defs>
</svg>
