<svg width="402" height="95" viewBox="0 0 402 95" fill="none" xmlns="http://www.w3.org/2000/svg">
<g clip-path="url(#clip0_3001_1062)">
<mask id="mask0_3001_1062" style="mask-type:luminance" maskUnits="userSpaceOnUse" x="0" y="0" width="402" height="95">
<path d="M402 0H0V95H402V0Z" fill="white"/>
</mask>
<g mask="url(#mask0_3001_1062)">
<mask id="mask1_3001_1062" style="mask-type:luminance" maskUnits="userSpaceOnUse" x="-98" y="0" width="500" height="95">
<path d="M402 0H-98V95H402V0Z" fill="white"/>
</mask>
<g mask="url(#mask1_3001_1062)">
<path d="M215.698 77.6228L214.528 80.1747L213.78 80.5022V81.5799H213.519V80.8902H213.217L212.845 78.7694H212.465V82.3127V85.8473H212.845L213.217 83.7266H213.519V83.0368H213.78V84.1145L214.528 84.4507L215.698 86.9939H216.285V82.3127V77.6228H215.698Z" fill="#263041"/>
<path d="M215.699 87.0044V44.6662C215.7 43.5238 215.808 42.3929 216.018 41.338C216.228 40.283 216.536 39.3247 216.924 38.5178C217.312 37.7108 217.772 37.071 218.278 36.6349C218.785 36.1988 219.327 35.9749 219.875 35.9761H350.939C366.874 35.9761 402.389 65.5723 402.389 77.297C402.389 83.7456 397.465 89.9011 395.774 89.9011H217.097C216.914 89.9022 216.732 89.8282 216.563 89.6832C216.394 89.5383 216.24 89.3252 216.11 89.0562C215.98 88.7872 215.877 88.4676 215.807 88.1156C215.736 87.7635 215.7 87.3859 215.699 87.0044Z" fill="#F0F0F1"/>
<path opacity="0.3" d="M350.924 35.9761H219.86C219.603 35.9756 219.347 36.0276 219.095 36.1313C218.138 36.5012 217.273 37.5568 216.651 39.1153C216.028 40.6739 215.686 42.6374 215.684 44.6662C215.684 42.7954 217.234 39.7521 218.503 39.7521H304.088C320.725 39.7521 343.779 41.4764 355.77 51.8907C367.76 62.305 375.64 67.2362 387.915 70.1674C400.191 73.0985 401.41 76.0297 401.737 81.3748C402.113 80.161 402.324 78.758 402.349 77.3143C402.374 65.5723 366.858 35.9761 350.924 35.9761Z" fill="#C1B9C3"/>
<path d="M382.141 51.6148C379.704 48.1323 377.133 45.073 374.455 42.4677C373.329 41.3752 372.164 40.4673 370.97 39.7521C368.973 38.571 365.182 36.7778 359.187 36.3899C356.826 36.114 354.101 35.9761 350.918 35.9761C347.61 35.9761 353.812 47.4853 362.817 52.9683C371.627 58.3392 379.615 55.7787 382.613 53.9942C383.08 53.9942 383.82 53.9942 383.82 53.9942L384.296 53.5976C383.527 52.951 382.807 52.2958 382.141 51.6148Z" fill="url(#paint0_linear_3001_1062)"/>
<path d="M385.975 89.9013C361.234 57.4687 347.553 50.0374 329.564 50.0374H215.699V69.9693H329.845C344.729 69.9693 350.026 89.9013 350.026 89.9013H385.975Z" fill="url(#paint1_linear_3001_1062)"/>
<path opacity="0.4" d="M215.699 87.0022C215.7 87.3837 215.736 87.7613 215.807 88.1134C215.877 88.4654 215.98 88.7851 216.11 89.054C216.24 89.323 216.394 89.5361 216.563 89.681C216.732 89.826 216.914 89.9 217.097 89.8989H395.766C396.456 89.7519 397.124 89.3118 397.73 88.6057C394.922 89.7351 392.723 87.2867 394.786 86.3815C396.429 85.6255 397.985 84.1986 399.363 82.183C400.293 80.7777 399.809 78.4673 386.546 82.183C373.282 85.8987 349.12 86.0625 309.057 86.0625H215.699V87.0022Z" fill="#263041"/>
<path d="M320.503 32.0433C320.503 32.0433 318.758 30.9829 318.493 30.1725C317.974 29.8319 317.441 29.5838 316.901 29.4311L316.331 28.25C316.331 28.25 314.838 28 313.809 28C312.779 28 311.295 28.25 311.295 28.25L310.724 29.4311C310.183 29.584 309.649 29.8321 309.128 30.1725C308.872 30.9829 307.123 32.0433 307.123 32.0433H305.883L306.764 34.1899H320.866L321.743 32.0433H320.503Z" fill="#F0F0F1"/>
<path d="M297.561 32.0432H330.067C330.258 32.0421 330.448 32.1198 330.625 32.2717C330.802 32.4237 330.963 32.6471 331.099 32.929C331.234 33.2109 331.342 33.5458 331.415 33.9146C331.488 34.2833 331.526 34.6786 331.526 35.0779C331.526 35.885 331.372 36.659 331.099 37.2297C330.825 37.8004 330.454 38.1211 330.067 38.1211H297.561C297.174 38.1188 296.804 37.7975 296.53 37.2273C296.257 36.657 296.103 35.8843 296.102 35.0779C296.103 34.2722 296.257 33.5004 296.531 32.9315C296.804 32.3627 297.175 32.0432 297.561 32.0432Z" fill="#F0F0F1"/>
<path d="M264.142 32.0433C264.142 32.0433 262.393 30.9829 262.133 30.1725C261.612 29.8311 261.078 29.583 260.537 29.4311L259.975 28.25C259.975 28.25 258.478 28 257.453 28C256.427 28 254.931 28.25 254.931 28.25L254.36 29.4311C253.82 29.5838 253.288 29.8319 252.768 30.1725C252.512 30.9829 250.763 32.0433 250.763 32.0433H249.523L250.399 34.1899H264.502L265.378 32.0433H264.142Z" fill="#F0F0F1"/>
<path d="M241.202 32.0433H273.708C274.093 32.0455 274.463 32.366 274.735 32.9346C275.008 33.5032 275.162 34.2738 275.163 35.0779C275.163 35.8835 275.01 36.6563 274.737 37.2268C274.464 37.7972 274.094 38.1188 273.708 38.1211H241.202C241.01 38.1223 240.82 38.0444 240.642 37.892C240.465 37.7395 240.303 37.5155 240.167 37.2328C240.031 36.9501 239.923 36.6143 239.85 36.2445C239.776 35.8747 239.738 35.4783 239.738 35.0779C239.738 34.6779 239.776 34.2819 239.85 33.9126C239.924 33.5433 240.031 33.208 240.167 32.9259C240.303 32.6439 240.465 32.4207 240.642 32.2693C240.82 32.1178 241.01 32.041 241.202 32.0433Z" fill="#F0F0F1"/>
<path opacity="0.4" d="M374.452 42.4678C373.325 41.3753 372.16 40.4673 370.966 39.7522C367.746 41.4764 364.98 50.0372 364.98 50.0372C367.721 53.5546 378.21 53.8477 382.142 51.6234C379.703 48.1362 377.131 45.074 374.452 42.4678Z" fill="#151515"/>
<path opacity="0.4" d="M370.965 39.7607L371.035 40.2778C370.996 39.9762 370.969 39.7694 370.965 39.7607Z" fill="#151515"/>
<path opacity="0.4" d="M369.145 38.8028C365.868 37.337 362.532 36.5287 359.181 36.3889C358.9 36.5897 358.648 36.9369 358.449 37.3976C358.449 37.3976 358.73 41.2685 363.46 47.9757C364.49 45.5704 366.594 41.1478 369.145 38.8028Z" fill="#151515"/>
<path d="M235.953 49.0894H225.294C225.205 49.0894 225.133 49.2398 225.133 49.4255V83.6341C225.133 83.8198 225.205 83.9703 225.294 83.9703H235.953C236.042 83.9703 236.114 83.8198 236.114 83.6341V49.4255C236.114 49.2398 236.042 49.0894 235.953 49.0894Z" fill="#AC20CF"/>
<path opacity="0.4" d="M230.397 51.2871H225.746V81.3661H230.397V51.2871Z" fill="#151515"/>
<path opacity="0.4" d="M235.503 51.2871H230.852V81.3661H235.503V51.2871Z" fill="#151515"/>
<path opacity="0.4" d="M222.016 52.8723H217.973V66.8385H222.016V52.8723Z" fill="#151515"/>
<path opacity="0.4" d="M251.829 52.8723H239.223V66.8385H251.829V52.8723Z" fill="#151515"/>
<path opacity="0.4" d="M266.723 52.8723H254.121V66.8385H266.723V52.8723Z" fill="#151515"/>
<path opacity="0.4" d="M281.622 52.8723H269.02V66.8385H281.622V52.8723Z" fill="#151515"/>
<path opacity="0.4" d="M296.532 52.8723H283.926V66.8385H296.532V52.8723Z" fill="#151515"/>
<path opacity="0.4" d="M311.43 52.8723H298.828V66.8385H311.43V52.8723Z" fill="#151515"/>
<path opacity="0.4" d="M326.332 52.8723H313.73V66.8385H326.332V52.8723Z" fill="#151515"/>
<path opacity="0.4" d="M328.617 52.8738V66.8486H341.223V53.9169C337.033 53.1113 332.825 52.7631 328.617 52.8738Z" fill="#151515"/>
<path opacity="0.4" d="M343.523 54.4844V66.8471H359.036L362.236 65.0194C356.24 59.8574 349.951 56.317 343.523 54.4844Z" fill="#151515"/>
<path opacity="0.3" d="M346.557 82.2352C345.284 79.7265 344.965 80.2179 341.633 80.2179H332.839C329.531 80.2179 329.188 79.7265 327.914 82.2352C326.641 84.7439 325.434 89.8994 325.434 89.8994H349.071C349.071 89.8994 347.83 84.7439 346.557 82.2352Z" fill="#C1B9C3"/>
<path d="M344.114 82.2012H330.35C327.911 82.2012 325.852 89.8998 325.852 89.8998H348.62C348.62 89.8998 346.557 82.2012 344.114 82.2012Z" fill="#2E353F"/>
<path d="M337.25 90.8481C334.295 90.6877 331.375 89.4717 328.617 87.2531L329.217 84.1667C329.262 84.1667 333.223 87.5204 337.25 87.5204C339.894 87.3883 342.505 86.261 344.957 84.1926L345.594 87.2359C342.944 89.51 340.115 90.735 337.25 90.8481Z" fill="#414B5A"/>
<path d="M344.738 89.1926C344.738 90.2859 344.582 91.3547 344.291 92.2637C344 93.1726 343.585 93.8809 343.101 94.2989C342.616 94.7169 342.083 94.8259 341.569 94.612C341.055 94.398 340.583 93.8708 340.212 93.0971C339.842 92.3234 339.59 91.3379 339.488 90.2654C339.386 89.1929 339.439 88.0815 339.64 87.0719C339.842 86.0623 340.182 85.1998 340.618 84.5936C341.055 83.9874 341.567 83.6648 342.092 83.6665C342.44 83.6665 342.784 83.8095 343.105 84.0873C343.427 84.3651 343.719 84.7723 343.964 85.2856C344.21 85.7989 344.405 86.4081 344.538 87.0785C344.67 87.749 344.738 88.4673 344.738 89.1926Z" fill="#5C5C72"/>
<path d="M344.245 89.1927C344.244 90.079 344.118 90.9449 343.881 91.681C343.644 92.4171 343.308 92.9903 342.915 93.3283C342.522 93.6663 342.09 93.7538 341.673 93.5799C341.257 93.406 340.874 92.9783 340.574 92.351C340.273 91.7237 340.069 90.9249 339.986 90.0555C339.904 89.1862 339.947 88.2852 340.109 87.4666C340.272 86.6479 340.548 85.9483 340.901 85.4561C341.255 84.9639 341.67 84.7012 342.095 84.7012C342.378 84.7012 342.658 84.8174 342.919 85.0432C343.18 85.269 343.417 85.6 343.617 86.0172C343.817 86.4344 343.975 86.9296 344.083 87.4745C344.191 88.0194 344.246 88.6033 344.245 89.1927Z" fill="#414B5A"/>
<path d="M343.325 89.1947C343.325 89.7063 343.252 90.2063 343.116 90.6317C342.979 91.057 342.785 91.3885 342.559 91.5842C342.332 91.78 342.083 91.8312 341.842 91.7314C341.602 91.6316 341.381 91.3853 341.207 91.0236C341.034 90.6619 340.916 90.201 340.868 89.6993C340.82 89.1976 340.844 88.6776 340.938 88.205C341.032 87.7324 341.191 87.3285 341.395 87.0443C341.599 86.7601 341.839 86.6084 342.084 86.6084C342.413 86.6084 342.729 86.8809 342.961 87.3659C343.194 87.8509 343.325 88.5088 343.325 89.1947Z" fill="#78788B"/>
<path d="M335.062 89.1926C335.062 90.2856 334.907 91.354 334.616 92.2628C334.324 93.1715 333.91 93.8798 333.426 94.2981C332.942 94.7163 332.409 94.8258 331.895 94.6126C331.381 94.3994 330.909 93.873 330.538 93.1002C330.167 92.3274 329.915 91.3427 329.813 90.2707C329.71 89.1988 329.763 88.0876 329.963 87.0778C330.164 86.0681 330.504 85.205 330.94 84.5978C331.375 83.9906 331.888 83.6665 332.412 83.6665C333.115 83.6665 333.789 84.2487 334.286 85.2851C334.783 86.3214 335.062 87.727 335.062 89.1926Z" fill="#5C5C72"/>
<path d="M334.554 89.1927C334.553 90.0794 334.426 90.9456 334.189 91.6819C333.952 92.4182 333.616 92.9914 333.223 93.3291C332.83 93.6669 332.397 93.7539 331.98 93.5793C331.564 93.4046 331.181 92.9761 330.881 92.3479C330.581 91.7198 330.377 90.9202 330.295 90.0503C330.212 89.1803 330.256 88.2791 330.419 87.4606C330.583 86.6421 330.859 85.9431 331.213 85.4519C331.567 84.9607 331.983 84.6995 332.408 84.7012C332.691 84.7012 332.97 84.8175 333.231 85.0434C333.492 85.2693 333.729 85.6005 333.928 86.0178C334.128 86.4351 334.286 86.9304 334.393 87.4752C334.5 88.02 334.555 88.6037 334.554 89.1927Z" fill="#414B5A"/>
<path d="M333.641 89.1947C333.641 89.7063 333.568 90.2063 333.432 90.6317C333.296 91.057 333.102 91.3885 332.875 91.5842C332.649 91.78 332.399 91.8312 332.159 91.7314C331.918 91.6316 331.697 91.3853 331.523 91.0236C331.35 90.6619 331.232 90.201 331.184 89.6993C331.136 89.1976 331.161 88.6776 331.255 88.205C331.349 87.7324 331.507 87.3285 331.711 87.0443C331.915 86.7601 332.155 86.6084 332.401 86.6084C332.73 86.6084 333.045 86.8809 333.278 87.3659C333.51 87.8509 333.641 88.5088 333.641 89.1947Z" fill="#78788B"/>
<path opacity="0.6" d="M344.711 88.5027C344.639 87.3383 344.39 86.2528 344 85.4056C343.61 84.5584 343.1 83.9941 342.545 83.7955C341.99 83.5968 341.419 83.7743 340.916 84.3018C340.413 84.8294 340.004 85.6793 339.75 86.7267C342.772 86.7785 344.286 87.2009 344.711 88.5027Z" fill="#263041"/>
<path opacity="0.6" d="M329.789 88.5044C329.859 87.3362 330.107 86.2458 330.497 85.3944C330.886 84.543 331.397 83.9757 331.954 83.7766C332.51 83.5774 333.082 83.7569 333.586 84.2885C334.09 84.8201 334.498 85.6756 334.75 86.7284C331.732 86.7802 330.219 87.2026 329.789 88.5044Z" fill="#263041"/>
<path opacity="0.3" d="M257.97 82.2352C256.697 79.7265 256.379 80.2179 253.054 80.2179H244.252C240.944 80.2179 240.61 79.7265 239.336 82.2352C238.063 84.7439 236.855 89.8994 236.855 89.8994H260.451C260.451 89.8994 259.211 84.7439 257.97 82.2352Z" fill="#C1B9C3"/>
<path d="M255.52 82.2012H241.748C239.313 82.2012 237.25 89.8998 237.25 89.8998H260.039C260.039 89.8998 257.972 82.2012 255.52 82.2012Z" fill="#2E353F"/>
<path d="M248.649 90.8481C245.694 90.6877 242.774 89.4717 240.016 87.2531L240.623 84.1667C240.657 84.1667 244.622 87.5204 248.649 87.5204C251.293 87.3883 253.904 86.261 256.355 84.1926L256.996 87.2359C254.345 89.5093 251.514 90.7342 248.649 90.8481Z" fill="#414B5A"/>
<path d="M256.14 89.1926C256.14 90.2856 255.985 91.354 255.694 92.2628C255.403 93.1715 254.989 93.8798 254.504 94.2981C254.02 94.7163 253.487 94.8258 252.973 94.6126C252.459 94.3994 251.987 93.873 251.616 93.1002C251.245 92.3274 250.993 91.3427 250.891 90.2707C250.789 89.1988 250.841 88.0876 251.042 87.0778C251.242 86.0681 251.582 85.205 252.018 84.5978C252.454 83.9906 252.966 83.6665 253.49 83.6665C253.838 83.6665 254.183 83.8094 254.504 84.0871C254.826 84.3649 255.118 84.7719 255.364 85.2851C255.61 85.7982 255.805 86.4074 255.939 87.0778C256.072 87.7483 256.14 88.4669 256.14 89.1926Z" fill="#5C5C72"/>
<path d="M255.648 89.1927C255.648 90.0811 255.522 90.9495 255.285 91.6881C255.048 92.4268 254.712 93.0025 254.318 93.3424C253.925 93.6824 253.492 93.7714 253.074 93.5981C252.656 93.4247 252.272 92.9969 251.971 92.3688C251.67 91.7406 251.464 90.9403 251.381 90.069C251.298 89.1977 251.341 88.2946 251.504 87.4739C251.667 86.6531 251.943 85.9516 252.297 85.4581C252.651 84.9646 253.068 84.7012 253.494 84.7012C254.065 84.7012 254.613 85.1744 255.017 86.0167C255.421 86.859 255.648 88.0015 255.648 89.1927Z" fill="#414B5A"/>
<path d="M254.719 89.1947C254.719 89.7063 254.646 90.2063 254.51 90.6317C254.374 91.057 254.18 91.3885 253.953 91.5842C253.727 91.78 253.477 91.8312 253.237 91.7314C252.996 91.6316 252.775 91.3853 252.602 91.0236C252.428 90.6619 252.31 90.201 252.262 89.6993C252.214 89.1976 252.239 88.6776 252.333 88.205C252.427 87.7324 252.586 87.3285 252.79 87.0443C252.993 86.7601 253.233 86.6084 253.479 86.6084C253.808 86.6084 254.123 86.8809 254.356 87.3659C254.588 87.8509 254.719 88.5088 254.719 89.1947Z" fill="#78788B"/>
<path d="M246.461 89.1926C246.461 90.2856 246.305 91.354 246.014 92.2628C245.723 93.1715 245.309 93.8798 244.825 94.2981C244.34 94.7163 243.807 94.8258 243.293 94.6126C242.779 94.3994 242.307 93.873 241.936 93.1002C241.566 92.3274 241.313 91.3427 241.211 90.2707C241.109 89.1988 241.161 88.0876 241.362 87.0778C241.562 86.0681 241.902 85.205 242.338 84.5978C242.774 83.9906 243.286 83.6665 243.81 83.6665C244.513 83.6665 245.187 84.2487 245.684 85.2851C246.181 86.3214 246.461 87.727 246.461 89.1926Z" fill="#5C5C72"/>
<path d="M245.956 89.1927C245.955 90.0794 245.829 90.9456 245.592 91.6819C245.355 92.4182 245.018 92.9914 244.625 93.3291C244.232 93.6669 243.8 93.7539 243.383 93.5793C242.966 93.4046 242.583 92.9761 242.283 92.3479C241.983 91.7198 241.779 90.9202 241.697 90.0503C241.615 89.1803 241.658 88.2791 241.822 87.4606C241.985 86.6421 242.261 85.9431 242.615 85.4519C242.969 84.9607 243.385 84.6995 243.81 84.7012C244.093 84.7012 244.373 84.8175 244.633 85.0434C244.894 85.2693 245.131 85.6005 245.331 86.0178C245.53 86.4351 245.688 86.9304 245.795 87.4752C245.903 88.02 245.957 88.6037 245.956 89.1927Z" fill="#414B5A"/>
<path d="M245.047 89.1947C245.047 89.7063 244.974 90.2063 244.838 90.6317C244.702 91.057 244.508 91.3885 244.281 91.5842C244.055 91.78 243.805 91.8312 243.565 91.7314C243.324 91.6316 243.103 91.3853 242.93 91.0236C242.756 90.6619 242.638 90.201 242.59 89.6993C242.542 89.1976 242.567 88.6776 242.661 88.205C242.755 87.7324 242.914 87.3285 243.118 87.0443C243.322 86.7601 243.561 86.6084 243.807 86.6084C244.136 86.6084 244.451 86.8809 244.684 87.3659C244.916 87.8509 245.047 88.5088 245.047 89.1947Z" fill="#78788B"/>
<path opacity="0.6" d="M256.11 88.5027C256.038 87.3383 255.788 86.2528 255.398 85.4056C255.008 84.5584 254.499 83.9941 253.944 83.7955C253.389 83.5968 252.818 83.7743 252.315 84.3018C251.812 84.8294 251.403 85.6793 251.148 86.7267C254.167 86.7785 255.676 87.2009 256.11 88.5027Z" fill="#263041"/>
<path opacity="0.6" d="M241.199 88.5005C241.264 87.3188 241.511 86.2127 241.903 85.3486C242.294 84.4845 242.81 83.909 243.373 83.7088C243.935 83.5085 244.513 83.6943 245.02 84.2381C245.528 84.782 245.936 85.6546 246.185 86.7246C243.147 86.7763 241.629 87.1988 241.199 88.5005Z" fill="#263041"/>
<path d="M87.3809 78L86.1602 80.4508L85.3723 80.7654V81.8004H85.1039V81.138H84.7835L84.3939 79.1012H84V82.5042V85.8988H84.3939L84.7835 83.8621H85.1039V83.1996H85.3723V84.2346L86.1602 84.5575L87.3809 87H88V82.5042V78H87.3809Z" fill="#263041"/>
<path d="M209.228 86.9939L210.398 84.4507L211.15 84.1145V83.0368H211.407V83.7266H211.713L212.089 85.8473H212.461V82.3127V78.7694H212.089L211.713 80.8902H211.407V81.5799H211.15V80.5022L210.398 80.1747L209.228 77.6228H208.641V82.3127V86.9939H209.228Z" fill="#263041"/>
<path d="M69.9767 36H209.026C209.416 36 209.803 36.225 210.164 36.6623C210.525 37.0997 210.853 37.7407 211.129 38.5487C211.405 39.3569 211.624 40.3162 211.774 41.372C211.923 42.4277 212 43.5594 212 44.7022V87.0993C212 87.4805 211.975 87.8582 211.925 88.2106C211.876 88.5631 211.802 88.8833 211.71 89.1529C211.618 89.4225 211.509 89.6362 211.388 89.7815C211.268 89.9269 211.139 90.0011 211.009 90H67.9942C67.8638 90.0011 67.7346 89.9269 67.614 89.7817C67.4934 89.6364 67.3837 89.4229 67.2914 89.1534C67.199 88.8839 67.1257 88.5638 67.0757 88.2113C67.0257 87.8588 67 87.4809 67 87.0993V44.7022C67.0008 42.3934 67.3148 40.1799 67.8729 38.5482C68.431 36.9165 69.1877 36 69.9767 36Z" fill="#F0F0F1"/>
<path opacity="0.3" d="M69.9151 39.6323H206.088C206.47 39.6323 206.849 39.8488 207.203 40.2694C207.556 40.6901 207.878 41.3066 208.148 42.0836C208.419 42.8608 208.633 43.7833 208.779 44.7984C208.925 45.8137 209 46.9016 209 48V44.3594C209 43.2616 208.925 42.1745 208.778 41.1604C208.632 40.1462 208.417 39.2246 208.147 38.4483C207.876 37.6722 207.556 37.0564 207.202 36.6362C206.849 36.2161 206.47 36 206.088 36H69.9151C69.1425 36 68.4014 36.8804 67.8548 38.4479C67.3082 40.0153 67.0008 42.1415 67 44.3594V48C67.0008 45.7815 67.3081 43.6543 67.8547 42.0856C68.4012 40.5168 69.1422 39.6345 69.9151 39.6323Z" fill="#C1B9C3"/>
<path opacity="0.4" d="M209 86V86.9593C209.001 87.359 208.976 87.7548 208.927 88.1243C208.878 88.4938 208.807 88.8294 208.717 89.112C208.626 89.3946 208.519 89.6186 208.401 89.771C208.284 89.9234 208.157 90.0012 208.029 90H67.9736C67.8458 90.0012 67.7193 89.9235 67.6012 89.7711C67.4831 89.6189 67.3758 89.3951 67.2853 89.1127C67.1949 88.8302 67.1231 88.4946 67.0742 88.1251C67.0252 87.7556 67 87.3594 67 86.9593V86H209Z" fill="#263041"/>
<path d="M67 70H209V50H67V70Z" fill="#AC20CF"/>
<path opacity="0.3" d="M70.3435 82.1154C71.5288 79.5345 71.8251 80.0401 74.9229 80.0401H83.108C86.1866 80.0401 86.5059 79.5345 87.6911 82.1154C88.8764 84.6962 90 90 90 90H68C68 90 69.1583 84.6962 70.3435 82.1154Z" fill="#C1B9C3"/>
<path d="M73.1527 82H85.8474C88.0972 82 90 90 90 90H69C69 90 70.9067 82 73.1527 82Z" fill="#2E353F"/>
<path d="M79.3758 91C76.8434 90.8809 74.3421 89.5926 72 87.2008L72.5665 84C74.7329 86.1731 77.0396 87.3588 79.3758 87.4999C81.8019 87.3337 84.1993 86.1502 86.4663 84L87 87.2462C84.5638 89.5696 81.985 90.8393 79.3758 91Z" fill="#414B5A"/>
<path d="M72 89.5C72 90.5881 72.1467 91.6518 72.4216 92.5565C72.6965 93.4611 73.0872 94.1661 73.5442 94.5821C74.0013 94.9981 74.504 95.1066 74.9892 94.8937C75.4743 94.6807 75.9197 94.156 76.2691 93.386C76.6186 92.616 76.8564 91.6351 76.9524 90.5677C77.0485 89.5003 76.9984 88.3941 76.8086 87.3893C76.6188 86.3845 76.2978 85.5261 75.8861 84.9227C75.4744 84.3194 74.9907 83.9983 74.4961 84C73.8337 84.0023 73.1989 84.5827 72.7308 85.6139C72.2628 86.6451 72 88.0428 72 89.5Z" fill="#5C5C72"/>
<path d="M73 89.5086C73.0007 90.3987 73.1188 91.2681 73.3392 92.0072C73.5596 92.7463 73.8725 93.3217 74.2382 93.6607C74.604 93.9998 75.0062 94.0871 75.394 93.9119C75.7819 93.7365 76.1378 93.3064 76.4169 92.6758C76.6961 92.0453 76.8859 91.2427 76.9623 90.3694C77.0387 89.4961 76.9983 88.5915 76.8463 87.7699C76.6942 86.9483 76.4373 86.2466 76.108 85.7536C75.7787 85.2605 75.3918 84.9983 74.9962 85C74.7335 85.0011 74.4735 85.1186 74.2311 85.3458C73.9886 85.573 73.7684 85.9054 73.5831 86.3241C73.3977 86.7428 73.2508 87.2395 73.1508 87.7859C73.0508 88.3323 72.9994 88.9176 73 89.5086Z" fill="#414B5A"/>
<path d="M74 89.5C74 89.9945 74.0586 90.4778 74.1685 90.889C74.2784 91.3001 74.4346 91.6205 74.6173 91.8097C74.8 91.9989 75.0011 92.0484 75.1951 91.952C75.3891 91.8555 75.5673 91.6174 75.7071 91.2678C75.847 90.9182 75.9422 90.4727 75.9807 89.9877C76.0194 89.5028 75.9996 89.0001 75.9239 88.5433C75.8482 88.0865 75.72 87.6961 75.5555 87.4213C75.3912 87.1466 75.1978 87 75.0001 87C74.7348 87 74.4804 87.2634 74.2929 87.7322C74.1054 88.201 74 88.837 74 89.5Z" fill="#78788B"/>
<path d="M81 89.5086C81.0008 90.5964 81.1481 91.6592 81.4235 92.5627C81.6989 93.4662 82.0897 94.1699 82.5469 94.5846C83.004 94.9994 83.5067 95.1065 83.9915 94.8926C84.4764 94.6787 84.9215 94.1534 85.2706 93.383C85.6196 92.6126 85.857 91.6318 85.9527 90.5645C86.0484 89.4973 85.9982 88.3916 85.8083 87.3873C85.6183 86.383 85.2972 85.525 84.8857 84.9222C84.4741 84.3192 83.9906 83.9983 83.4961 84C83.1677 84.0011 82.8428 84.1445 82.5396 84.422C82.2366 84.6994 81.9612 85.1055 81.7295 85.6171C81.4977 86.1285 81.314 86.7354 81.1888 87.4032C81.0636 88.0708 80.9995 88.7863 81 89.5086Z" fill="#5C5C72"/>
<path d="M82 89.5086C82.0007 90.3987 82.1189 91.2681 82.3393 92.0072C82.5596 92.7463 82.8725 93.3217 83.2382 93.6607C83.6039 93.9998 84.0062 94.0871 84.394 93.9119C84.7817 93.7365 85.1378 93.3064 85.4169 92.6758C85.696 92.0453 85.8859 91.2427 85.9623 90.3694C86.0388 89.4961 85.9984 88.5915 85.8463 87.7699C85.6942 86.9483 85.4373 86.2466 85.1079 85.7536C84.7786 85.2605 84.3917 84.9983 83.9961 85C83.7335 85.0011 83.4735 85.1186 83.2311 85.3458C82.9887 85.573 82.7685 85.9054 82.5831 86.3241C82.3978 86.7428 82.2508 87.2395 82.1508 87.7859C82.0507 88.3323 81.9995 88.9176 82 89.5086Z" fill="#414B5A"/>
<path d="M83 89.5C83 89.9945 83.0586 90.4778 83.1685 90.889C83.2784 91.3001 83.4346 91.6205 83.6173 91.8097C83.8 91.9989 84.0011 92.0484 84.1951 91.952C84.389 91.8555 84.5672 91.6174 84.7071 91.2678C84.847 90.9182 84.9422 90.4727 84.9808 89.9877C85.0193 89.5028 84.9996 89.0001 84.9239 88.5433C84.8482 88.0865 84.72 87.6961 84.5556 87.4213C84.3911 87.1466 84.1978 87 84 87C83.7348 87 83.4804 87.2634 83.2929 87.7322C83.1054 88.201 83 88.837 83 89.5Z" fill="#78788B"/>
<path opacity="0.6" d="M72 89C72.0729 87.7836 72.3242 86.6497 72.7171 85.7647C73.11 84.8797 73.6238 84.2902 74.1831 84.0827C74.7424 83.8752 75.3177 84.0606 75.8247 84.6116C76.3317 85.1628 76.7435 86.0506 77 87.1447C73.9375 87.1989 72.4167 87.6401 72 89Z" fill="#263041"/>
<path opacity="0.6" d="M86 89C85.9439 87.7849 85.7439 86.6507 85.4296 85.7651C85.1153 84.8794 84.7034 84.2894 84.2549 84.0823C83.8063 83.8751 83.3449 84.0618 82.9388 84.6147C82.5327 85.1677 82.2036 86.0575 82 87.1526C84.44 87.2065 85.6667 87.6459 86 89Z" fill="#263041"/>
<path opacity="0.3" d="M173.325 82.1154C174.51 79.5345 174.811 80.0401 177.905 80.0401H186.111C189.19 80.0401 189.505 79.5345 190.691 82.1154C191.876 84.6962 193 90 193 90H171C171 90 172.139 84.6962 173.325 82.1154Z" fill="#C1B9C3"/>
<path d="M175.338 82H188.653C191.006 82 193 90 193 90H171C171 90 172.986 82 175.338 82Z" fill="#2E353F"/>
<path d="M181.87 91C179.168 90.8793 176.5 89.5961 174 87.2156L174.612 84.0271C176.921 86.1932 179.38 87.3744 181.87 87.5136C184.459 87.3392 187.017 86.1512 189.436 84L190 87.2336C187.403 89.56 184.653 90.8339 181.87 91Z" fill="#414B5A"/>
<path d="M175 89.5C175 90.5881 175.147 91.6518 175.422 92.5565C175.696 93.4611 176.088 94.1661 176.544 94.5821C177.002 94.9981 177.504 95.1066 177.989 94.8937C178.474 94.6807 178.919 94.156 179.269 93.386C179.618 92.616 179.856 91.6351 179.952 90.5677C180.048 89.5003 179.998 88.3941 179.809 87.3893C179.618 86.3845 179.298 85.5261 178.886 84.9227C178.474 84.3194 177.991 83.9983 177.496 84C177.168 84 176.843 84.1423 176.54 84.4188C176.237 84.6953 175.961 85.1006 175.73 85.6114C175.498 86.1223 175.314 86.7286 175.189 87.3959C175.064 88.0632 175 88.7781 175 89.5Z" fill="#5C5C72"/>
<path d="M175 89.5086C175.001 90.3983 175.119 91.2675 175.34 92.0064C175.559 92.7453 175.872 93.3207 176.237 93.6599C176.603 93.9992 177.005 94.0871 177.392 93.9125C177.78 93.7379 178.137 93.3086 178.416 92.6789C178.695 92.0492 178.884 91.2474 178.962 90.3747C179.039 89.5021 178.999 88.5976 178.847 87.7759C178.696 86.9541 178.44 86.2518 178.111 85.7578C177.782 85.2637 177.395 85 177 85C176.738 85 176.477 85.1166 176.233 85.3433C175.991 85.57 175.77 85.9022 175.584 86.321C175.399 86.7398 175.251 87.2369 175.152 87.7839C175.051 88.3308 175 88.917 175 89.5086Z" fill="#414B5A"/>
<path d="M176 89.5C176 89.9945 176.088 90.4778 176.253 90.889C176.417 91.3001 176.652 91.6205 176.926 91.8097C177.201 91.9989 177.502 92.0484 177.793 91.952C178.084 91.8555 178.351 91.6174 178.561 91.2678C178.77 90.9182 178.913 90.4727 178.971 89.9877C179.029 89.5028 178.999 89.0001 178.885 88.5433C178.773 88.0865 178.581 87.6961 178.334 87.4213C178.087 87.1466 177.797 87 177.499 87C177.103 87 176.721 87.2634 176.439 87.7322C176.158 88.201 176 88.837 176 89.5Z" fill="#78788B"/>
<path d="M184 89.5C184 90.5881 184.146 91.6518 184.422 92.5565C184.696 93.4611 185.087 94.1661 185.544 94.5821C186.001 94.9981 186.504 95.1066 186.989 94.8937C187.474 94.6807 187.92 94.156 188.269 93.386C188.619 92.616 188.856 91.6351 188.953 90.5677C189.049 89.5003 188.998 88.3941 188.808 87.3893C188.619 86.3845 188.298 85.5261 187.886 84.9227C187.474 84.3194 186.99 83.9983 186.496 84C186.168 84 185.843 84.1423 185.54 84.4188C185.237 84.6953 184.961 85.1006 184.729 85.6114C184.498 86.1223 184.314 86.7286 184.189 87.3959C184.063 88.0632 183.999 88.7781 184 89.5Z" fill="#5C5C72"/>
<path d="M184 89.5086C184.001 90.3983 184.118 91.2675 184.339 92.0064C184.559 92.7453 184.872 93.3207 185.237 93.6599C185.603 93.9992 186.005 94.0871 186.393 93.9125C186.78 93.7379 187.136 93.3086 187.415 92.6789C187.695 92.0492 187.885 91.2474 187.962 90.3747C188.039 89.5021 187.999 88.5976 187.848 87.7759C187.696 86.9541 187.439 86.2518 187.111 85.7578C186.782 85.2637 186.396 85 186 85C185.737 85 185.476 85.1166 185.234 85.3433C184.991 85.57 184.77 85.9022 184.584 86.321C184.398 86.7398 184.251 87.2369 184.151 87.7839C184.05 88.3308 183.999 88.917 184 89.5086Z" fill="#414B5A"/>
<path d="M185 89.5C185 89.9945 185.088 90.4778 185.253 90.889C185.417 91.3001 185.652 91.6205 185.926 91.8097C186.2 91.9989 186.502 92.0484 186.792 91.952C187.084 91.8555 187.351 91.6174 187.56 91.2678C187.77 90.9182 187.913 90.4727 187.971 89.9877C188.029 89.5028 187.999 89.0001 187.885 88.5433C187.772 88.0865 187.579 87.6961 187.333 87.4213C187.086 87.1466 186.797 87 186.5 87C186.102 87 185.721 87.2634 185.439 87.7322C185.158 88.201 185 88.837 185 89.5Z" fill="#78788B"/>
<path opacity="0.6" d="M175 89C175.064 87.7868 175.312 86.6512 175.705 85.7641C176.098 84.8769 176.616 84.2861 177.179 84.0805C177.743 83.8749 178.322 84.0656 178.832 84.6239C179.34 85.1823 179.75 86.0782 180 87.1767C176.948 87.2298 175.431 87.6636 175 89Z" fill="#263041"/>
<path opacity="0.6" d="M189 89C188.929 87.7849 188.679 86.6507 188.287 85.7651C187.894 84.8794 187.379 84.2894 186.818 84.0823C186.258 83.8751 185.681 84.0618 185.173 84.6147C184.665 85.1677 184.254 86.0575 184 87.1526C187.046 87.2065 188.571 87.6459 189 89Z" fill="#263041"/>
<path opacity="0.4" d="M95 53H70V67H95V53Z" fill="#151515"/>
<path d="M195.162 84H205.838C205.928 84 206 83.849 206 83.6627V49.3373C206 49.151 205.928 49 205.838 49H195.162C195.073 49 195 49.151 195 49.3373V83.6627C195 83.849 195.073 84 195.162 84Z" fill="#AC20CF"/>
<path opacity="0.4" d="M205 51H201V81H205V51Z" fill="#151515"/>
<path opacity="0.4" d="M200 51H196V81H200V51Z" fill="#151515"/>
<path opacity="0.4" d="M181 67H192V53H181V67Z" fill="#151515"/>
<path opacity="0.4" d="M153 67H179V53H153V67Z" fill="#151515"/>
<path opacity="0.4" d="M125 67H151V53H125V67Z" fill="#151515"/>
<path opacity="0.4" d="M97 67H123V53H97V67Z" fill="#151515"/>
<path d="M166.838 31.9193C166.838 31.9193 165.179 30.8914 164.937 30.1059C164.445 29.7757 163.942 29.5352 163.431 29.3872L162.89 28.2423C162.89 28.2423 161.478 28 160.508 28C159.538 28 158.121 28.2423 158.121 28.2423L157.586 29.3872C157.074 29.5354 156.568 29.7759 156.075 30.1059C155.833 30.8914 154.174 31.9193 154.174 31.9193H153L153.826 34H167.17L168 31.9193H166.838Z" fill="#F0F0F1"/>
<path d="M145.359 32H175.637C175.815 31.9978 175.993 32.0736 176.158 32.2232C176.324 32.3726 176.474 32.593 176.6 32.8713C176.727 33.1498 176.828 33.4808 176.897 33.8454C176.965 34.21 177 34.6009 177 34.9958C177 35.391 176.965 35.7824 176.897 36.1474C176.828 36.5125 176.727 36.844 176.6 37.1231C176.474 37.4021 176.324 37.6233 176.158 37.7738C175.993 37.9243 175.816 38.0012 175.637 38H145.359C144.999 37.9978 144.654 37.6805 144.399 37.1176C144.144 36.5547 144.001 35.7918 144 34.9958C144.001 34.2005 144.144 33.4385 144.4 32.877C144.654 32.3154 145 32 145.359 32Z" fill="#F0F0F1"/>
<path d="M118.911 31.9193C118.911 31.9193 117.37 30.8914 117.143 30.1059C116.682 29.7751 116.209 29.5347 115.73 29.3872L115.233 28.2423C115.233 28.2423 113.914 28 113.005 28C112.095 28 110.777 28.2423 110.777 28.2423L110.277 29.3872C109.799 29.5344 109.327 29.7749 108.867 30.1059C108.637 30.8914 107.096 31.9193 107.096 31.9193H106L106.771 34H119.225L120 31.9193H118.911Z" fill="#F0F0F1"/>
<path d="M98.3558 32H128.644C129.003 32 129.348 32.3156 129.602 32.8774C129.857 33.4392 130 34.2012 130 34.9958C130 35.7911 129.857 36.5539 129.603 37.1171C129.349 37.6802 129.004 37.9977 128.644 38H98.3558C97.9959 37.9977 97.651 37.6802 97.3969 37.1171C97.1427 36.5539 97 35.7911 97 34.9958C97 34.2012 97.1428 33.4392 97.3972 32.8774C97.6514 32.3156 97.9963 32 98.3558 32Z" fill="#F0F0F1"/>
<path d="M64.5402 86.9939L65.7103 84.4507L66.4586 84.1145V83.0368H66.7191V83.7266H67.0209L67.3972 85.8473H67.7734V82.3127V78.7694H67.3972L67.0209 80.8902H66.7191V81.5799H66.4586V80.5022L65.7103 80.1747L64.5402 77.6228H63.9531V82.3127V86.9939H64.5402Z" fill="#263041"/>
</g>
</g>
</g>
<defs>
<linearGradient id="paint0_linear_3001_1062" x1="350.033" y1="46.08" x2="384.308" y2="46.08" gradientUnits="userSpaceOnUse">
<stop stop-color="#9634B9"/>
<stop offset="0.48" stop-color="#8336AF"/>
<stop offset="0.77" stop-color="#BB44D3"/>
<stop offset="1" stop-color="#BC88D6"/>
</linearGradient>
<linearGradient id="paint1_linear_3001_1062" x1="300.837" y1="50.0374" x2="300.837" y2="89.9013" gradientUnits="userSpaceOnUse">
<stop stop-color="#CF4DE0"/>
<stop offset="0.17" stop-color="#C63DF8"/>
<stop offset="0.28" stop-color="#BE2BDC"/>
<stop offset="0.37" stop-color="#B838D8"/>
<stop offset="0.46" stop-color="#BD3DDD"/>
<stop offset="0.58" stop-color="#A82DCD"/>
<stop offset="0.7" stop-color="#A630C4"/>
<stop offset="0.84" stop-color="#A131B8"/>
<stop offset="0.97" stop-color="#7F567C"/>
<stop offset="1" stop-color="#75557D"/>
</linearGradient>
<clipPath id="clip0_3001_1062">
<rect width="402" height="95" fill="white"/>
</clipPath>
</defs>
</svg>
