<svg width="1274" height="768" viewBox="0 0 1274 768" fill="none" xmlns="http://www.w3.org/2000/svg">
<path d="M156.912 380.996L156.497 344.319H158.154L158.984 380.996H156.912Z" fill="black"/>
<path d="M143.857 380.996L144.064 344.319H142.406L141.578 380.996H143.857Z" fill="black"/>
<path d="M156.912 380.996L156.497 344.319H158.154L158.984 380.996H156.912Z" stroke="black"/>
<path d="M143.857 380.996L144.064 344.319H142.406L141.578 380.996H143.857Z" stroke="black"/>
<path d="M150.314 344.319V226C122.133 237.19 146.377 329.814 147.413 331.264C147.413 331.264 148.311 340.451 148.241 344.319H150.314Z" fill="#6F1B84"/>
<path d="M148.241 344.319C148.311 340.451 147.413 331.264 147.413 331.264C146.377 329.814 122.133 237.19 150.314 226C137.704 228.141 113.502 241.209 117.574 276.353C123.044 302.213 138.779 327.742 145.962 337.274V344.319H148.241Z" fill="#C24DDF"/>
<path d="M150.314 226C148.839 226.217 147.401 226.441 146 226.672C127.717 230.188 99.486 243.745 105.763 276.353C108.581 299.727 132.079 327.397 143.476 338.31V344.319H145.962V337.274C138.779 327.742 123.044 302.213 117.574 276.353C113.502 241.209 137.704 228.141 150.314 226Z" fill="#AF16D5"/>
<path d="M140.989 337.274V344.319H143.476V338.31C132.079 327.397 108.581 299.727 105.763 276.353C99.486 243.745 127.717 230.188 146 226.672C108.609 232.84 95.6098 254.595 95.6094 271.38C95.6087 300.39 125.379 324.703 140.989 337.274Z" fill="#C38BD1"/>
<path d="M143.89 350.121C143.338 350.259 142.191 350.867 142.025 352.193C141.86 353.519 141.956 358.271 142.025 360.482L143.89 361.725H150.314V355.923H147.413C146.239 355.232 143.89 353.105 143.89 350.121Z" fill="#B3C0A4"/>
<path d="M147.413 355.923H150.314V350.121H145.962H143.89C143.89 353.105 146.239 355.232 147.413 355.923Z" fill="#002134"/>
<path d="M150.282 344.319V226C178.463 237.19 154.219 329.814 153.183 331.264C153.183 331.264 152.285 340.451 152.354 344.319H150.282Z" fill="#6F1B84"/>
<path d="M152.354 344.319C152.285 340.451 153.183 331.264 153.183 331.264C154.219 329.814 178.463 237.19 150.282 226C162.892 228.141 187.093 241.209 183.022 276.353C177.551 302.213 161.817 327.742 154.633 337.274V344.319H152.354Z" fill="#C24DDF"/>
<path d="M150.282 226C151.757 226.217 153.194 226.441 154.596 226.672C172.879 230.188 201.11 243.745 194.833 276.353C192.015 299.727 168.517 327.397 157.12 338.31V344.319H154.633V337.274C161.817 327.742 177.551 302.213 183.022 276.353C187.093 241.209 162.892 228.141 150.282 226Z" fill="#AF16D5"/>
<path d="M159.607 337.274V344.319H157.12V338.31C168.517 327.397 192.015 299.727 194.833 276.353C201.11 243.745 172.879 230.188 154.596 226.672C191.987 232.84 204.986 255.424 204.986 271.38C204.986 299.768 175.217 324.703 159.607 337.274Z" fill="#C38BD1"/>
<path d="M156.705 350.121C157.258 350.259 158.405 350.867 158.57 352.193C158.736 353.519 158.639 358.271 158.57 360.482L156.705 361.725H150.282V355.923H153.183C154.357 355.232 156.705 353.105 156.705 350.121Z" fill="#B3C0A4"/>
<path d="M153.183 355.923H150.282V350.121H154.633H156.705C156.705 353.105 154.357 355.232 153.183 355.923Z" fill="#002134"/>
<path d="M129.146 380.996H149.867H169.553C173.531 380.996 174.664 383.559 174.733 384.841V519L149.66 492.652L125.416 519V384.841C125.416 382.22 127.903 381.185 129.146 380.996Z" fill="#FEF1CD"/>
<path d="M136.638 413V405.98L135.009 406.16V404.243C135.345 404.195 135.627 404.141 135.855 404.081C136.083 404.021 136.323 403.928 136.575 403.802C136.827 403.676 137.043 403.502 137.223 403.28C137.403 403.058 137.55 402.785 137.664 402.461H139.653V413H136.638ZM144.056 413.18C143.114 413.18 142.193 412.895 141.293 412.325V410.687C141.479 410.837 141.776 410.972 142.184 411.092C142.592 411.206 142.931 411.263 143.201 411.263C144.005 411.263 144.599 411.128 144.983 410.858C145.373 410.588 145.568 410.138 145.568 409.508C145.568 409.034 145.415 408.659 145.109 408.383C144.809 408.107 144.332 407.969 143.678 407.969C143.012 407.969 142.268 408.134 141.446 408.464L142.04 402.452H148.367L147.746 404.675H143.993L143.615 406.556C143.777 406.454 144.017 406.37 144.335 406.304C144.653 406.232 144.947 406.196 145.217 406.196C145.667 406.196 146.081 406.256 146.459 406.376C146.843 406.49 147.194 406.67 147.512 406.916C147.83 407.156 148.079 407.489 148.259 407.915C148.445 408.335 148.538 408.83 148.538 409.4C148.538 410.588 148.166 411.515 147.422 412.181C146.684 412.847 145.562 413.18 144.056 413.18ZM162.329 412.28C162.755 412.28 162.968 411.935 162.968 411.245V408.833C162.968 408.329 162.92 407.957 162.824 407.717C162.728 407.477 162.563 407.357 162.329 407.357C161.903 407.357 161.69 407.693 161.69 408.365V410.849C161.69 411.341 161.741 411.704 161.843 411.938C161.945 412.166 162.107 412.28 162.329 412.28ZM162.275 413.198C161.093 413.198 160.259 412.94 159.773 412.424C159.287 411.902 159.044 411.053 159.044 409.877C159.044 409.301 159.095 408.809 159.197 408.401C159.305 407.993 159.482 407.636 159.728 407.33C159.98 407.018 160.322 406.787 160.754 406.637C161.192 406.487 161.732 406.412 162.374 406.412C162.998 406.412 163.52 406.484 163.94 406.628C164.366 406.766 164.702 406.982 164.948 407.276C165.194 407.564 165.368 407.909 165.47 408.311C165.578 408.713 165.632 409.199 165.632 409.769C165.632 410.963 165.377 411.833 164.867 412.379C164.363 412.925 163.499 413.198 162.275 413.198ZM153.059 408.347C153.485 408.347 153.698 408.002 153.698 407.312V404.9C153.698 404.396 153.65 404.024 153.554 403.784C153.458 403.544 153.293 403.424 153.059 403.424C152.633 403.424 152.42 403.76 152.42 404.432V406.916C152.42 407.408 152.471 407.771 152.573 408.005C152.675 408.233 152.837 408.347 153.059 408.347ZM153.005 409.265C151.823 409.265 150.989 409.007 150.503 408.491C150.017 407.969 149.774 407.12 149.774 405.944C149.774 405.368 149.825 404.876 149.927 404.468C150.035 404.06 150.212 403.703 150.458 403.397C150.71 403.085 151.052 402.854 151.484 402.704C151.922 402.554 152.462 402.479 153.104 402.479C153.728 402.479 154.25 402.551 154.67 402.695C155.096 402.833 155.432 403.049 155.678 403.343C155.924 403.631 156.098 403.976 156.2 404.378C156.308 404.78 156.362 405.266 156.362 405.836C156.362 407.03 156.107 407.9 155.597 408.446C155.093 408.992 154.229 409.265 153.005 409.265ZM153.005 413L160.277 402.47H162.473L155.21 413H153.005ZM140.952 434H134.571V423.452H140.817L140.637 425.576L137.55 425.486V427.52H139.98V429.626L137.55 429.446V431.84L140.952 431.75V434ZM145.756 433.199L145.666 433.298C145.606 433.37 145.513 433.454 145.387 433.55C145.267 433.646 145.126 433.742 144.964 433.838C144.808 433.934 144.616 434.015 144.388 434.081C144.16 434.153 143.926 434.189 143.686 434.189C142.066 434.189 141.256 433.388 141.256 431.786C141.256 431.474 141.313 431.189 141.427 430.931C141.541 430.667 141.688 430.445 141.868 430.265C142.048 430.085 142.264 429.926 142.516 429.788C142.768 429.644 143.02 429.533 143.272 429.455C143.53 429.371 143.8 429.302 144.082 429.248C144.364 429.194 144.616 429.158 144.838 429.14C145.06 429.122 145.273 429.113 145.477 429.113V428.951C145.477 428.585 145.378 428.327 145.18 428.177C144.988 428.027 144.676 427.952 144.244 427.952C143.872 427.952 143.485 427.997 143.083 428.087C142.681 428.171 142.366 428.273 142.138 428.393L141.562 427.169C141.97 426.905 142.501 426.674 143.155 426.476C143.809 426.272 144.475 426.17 145.153 426.17C145.753 426.17 146.248 426.23 146.638 426.35C147.028 426.464 147.343 426.662 147.583 426.944C147.829 427.22 148.003 427.574 148.105 428.006C148.207 428.432 148.258 428.975 148.258 429.635V433.298L148.51 434H146.044L145.756 433.199ZM145.045 432.605C145.123 432.605 145.195 432.59 145.261 432.56C145.333 432.524 145.387 432.491 145.423 432.461C145.459 432.425 145.477 432.407 145.477 432.407V430.247C145.111 430.247 144.82 430.349 144.604 430.553C144.388 430.751 144.28 431.06 144.28 431.48C144.28 432.23 144.535 432.605 145.045 432.605ZM152.316 434H149.409V428.177L148.869 427.844V426.827L150.804 426.35H151.533L151.794 428.492C152.04 427.022 152.829 426.287 154.161 426.287C154.311 426.287 154.467 426.314 154.629 426.368L154.323 429.572C154.197 429.458 153.921 429.401 153.495 429.401C152.883 429.401 152.49 429.563 152.316 429.887V434ZM155.243 434V423.821L154.703 423.497V422.66L157.592 422.21H158.177V434H155.243ZM163.066 437.096C162.448 437.096 161.866 437.006 161.32 436.826C160.774 436.646 160.375 436.403 160.123 436.097L160.591 435.125C160.939 435.323 161.491 435.422 162.247 435.422C162.487 435.422 162.694 435.395 162.868 435.341C163.042 435.287 163.198 435.191 163.336 435.053C163.474 434.921 163.579 434.732 163.651 434.486C163.723 434.24 163.762 433.937 163.768 433.577V432.803L163.678 432.947C163.618 433.043 163.525 433.16 163.399 433.298C163.279 433.43 163.141 433.565 162.985 433.703C162.829 433.835 162.637 433.949 162.409 434.045C162.187 434.141 161.959 434.189 161.725 434.189C160.831 434.189 160.201 433.94 159.835 433.442C159.469 432.938 159.286 432.092 159.286 430.904V427.709L158.962 427.385V426.35H162.238V431.471C162.238 431.747 162.28 431.951 162.364 432.083C162.454 432.209 162.631 432.272 162.895 432.272C162.973 432.272 163.051 432.26 163.129 432.236C163.207 432.206 163.282 432.167 163.354 432.119C163.432 432.071 163.513 432.011 163.597 431.939V427.709L163.102 427.385V426.35H166.531V432.947C166.531 434.273 166.249 435.296 165.685 436.016C165.121 436.736 164.248 437.096 163.066 437.096ZM141.051 453.236C141.477 453.236 141.789 453.116 141.987 452.876C142.185 452.636 142.284 452.351 142.284 452.021V451.391C142.284 451.001 142.158 450.725 141.906 450.563C141.654 450.395 141.369 450.311 141.051 450.311H140.349V453.236H141.051ZM142.158 447.152C142.158 446.792 142.059 446.543 141.861 446.405C141.663 446.261 141.378 446.189 141.006 446.189H140.349V448.79H141.078C141.426 448.79 141.693 448.655 141.879 448.385C142.065 448.109 142.158 447.773 142.158 447.377V447.152ZM141.663 455.081C141.195 455.081 140.589 455.069 139.845 455.045C139.101 455.021 138.567 455.006 138.243 455H137.379V444.452H138.936C139.314 444.452 139.746 444.44 140.232 444.416C140.718 444.386 141.069 444.371 141.285 444.371C141.987 444.371 142.578 444.428 143.058 444.542C143.544 444.656 143.925 444.827 144.201 445.055C144.477 445.283 144.672 445.547 144.786 445.847C144.906 446.147 144.966 446.504 144.966 446.918C144.966 447.554 144.819 448.1 144.525 448.556C144.231 449.012 143.805 449.297 143.247 449.411C144.663 449.537 145.371 450.368 145.371 451.904C145.371 452.366 145.302 452.786 145.164 453.164C145.026 453.536 144.813 453.869 144.525 454.163C144.243 454.451 143.859 454.676 143.373 454.838C142.887 455 142.317 455.081 141.663 455.081ZM146.311 455V449.177L145.771 448.844V447.881L147.706 447.35H149.209V455H146.311ZM147.616 446.522L146.14 445.037V444.722L147.616 443.246H147.958L149.497 444.722V445.037L147.958 446.522H147.616ZM153.358 455H150.451V449.177L149.911 448.844V447.827L151.846 447.35H152.575L152.836 449.492C153.082 448.022 153.871 447.287 155.203 447.287C155.353 447.287 155.509 447.314 155.671 447.368L155.365 450.572C155.239 450.458 154.963 450.401 154.537 450.401C153.925 450.401 153.532 450.563 153.358 450.887V455ZM161.414 455L161.063 453.839C161.015 453.923 160.958 454.007 160.892 454.091C160.832 454.175 160.733 454.283 160.595 454.415C160.457 454.541 160.31 454.652 160.154 454.748C159.998 454.844 159.803 454.928 159.569 455C159.335 455.072 159.089 455.108 158.831 455.108C157.841 455.108 157.115 454.769 156.653 454.091C156.191 453.413 155.96 452.471 155.96 451.265C155.96 450.509 156.068 449.837 156.284 449.249C156.5 448.655 156.839 448.178 157.301 447.818C157.763 447.458 158.321 447.278 158.975 447.278C159.365 447.278 159.713 447.32 160.019 447.404C160.325 447.488 160.589 447.59 160.811 447.71V444.983L159.821 444.65V443.66L163.007 443.21H163.709V455H161.414ZM160.145 453.344C160.253 453.344 160.364 453.326 160.478 453.29C160.592 453.248 160.703 453.191 160.811 453.119V448.592C160.625 448.55 160.454 448.529 160.298 448.529C159.5 448.535 159.098 449.15 159.092 450.374V451.634C159.092 452.198 159.191 452.624 159.389 452.912C159.587 453.2 159.839 453.344 160.145 453.344ZM137.675 471.923C137.675 472.919 137.75 473.612 137.9 474.002C138.056 474.392 138.326 474.587 138.71 474.587C138.992 474.587 139.205 474.518 139.349 474.38C139.493 474.236 139.601 473.945 139.673 473.507C139.751 473.063 139.79 472.4 139.79 471.518V469.349C139.79 468.491 139.706 467.852 139.538 467.432C139.37 467.012 139.094 466.802 138.71 466.802C138.326 466.802 138.056 467.009 137.9 467.423C137.75 467.831 137.675 468.578 137.675 469.664V471.923ZM138.521 476.189C138.023 476.189 137.573 476.144 137.171 476.054C136.775 475.964 136.433 475.838 136.145 475.676C135.857 475.514 135.605 475.307 135.389 475.055C135.179 474.803 135.008 474.533 134.876 474.245C134.75 473.957 134.648 473.621 134.57 473.237C134.492 472.847 134.438 472.46 134.408 472.076C134.378 471.686 134.363 471.248 134.363 470.762C134.363 470.042 134.399 469.415 134.471 468.881C134.549 468.347 134.69 467.846 134.894 467.378C135.098 466.904 135.368 466.52 135.704 466.226C136.046 465.932 136.484 465.701 137.018 465.533C137.558 465.365 138.194 465.281 138.926 465.281C139.43 465.281 139.883 465.329 140.285 465.425C140.687 465.515 141.032 465.641 141.32 465.803C141.608 465.965 141.857 466.175 142.067 466.433C142.283 466.691 142.454 466.967 142.58 467.261C142.712 467.549 142.817 467.888 142.895 468.278C142.973 468.668 143.027 469.055 143.057 469.439C143.087 469.823 143.102 470.258 143.102 470.744C143.102 471.464 143.063 472.091 142.985 472.625C142.907 473.159 142.766 473.66 142.562 474.128C142.358 474.59 142.085 474.968 141.743 475.262C141.401 475.55 140.96 475.778 140.42 475.946C139.886 476.108 139.253 476.189 138.521 476.189ZM152.2 476H149.275V469.934H148.402V468.737L149.311 468.35V467.567C149.311 466.961 149.395 466.436 149.563 465.992C149.731 465.548 149.965 465.203 150.265 464.957C150.571 464.711 150.907 464.534 151.273 464.426C151.645 464.312 152.059 464.255 152.515 464.255C152.923 464.255 153.307 464.309 153.667 464.417C154.027 464.525 154.252 464.624 154.342 464.714L154 466.082C153.712 465.938 153.415 465.866 153.109 465.866C153.031 465.866 152.959 465.872 152.893 465.884C152.431 465.956 152.2 466.349 152.2 467.063V468.35H153.361V469.934H152.2V476ZM147.268 476H144.343V469.934H143.47V468.737L144.379 468.35V467.567C144.379 466.961 144.463 466.436 144.631 465.992C144.799 465.548 145.033 465.203 145.333 464.957C145.639 464.711 145.975 464.534 146.341 464.426C146.713 464.312 147.127 464.255 147.583 464.255C147.991 464.255 148.375 464.309 148.735 464.417C149.095 464.525 149.32 464.624 149.41 464.714L149.068 466.082C148.78 465.938 148.483 465.866 148.177 465.866C148.099 465.866 148.027 465.872 147.961 465.884C147.499 465.956 147.268 466.349 147.268 467.063V468.35H148.429V469.934H147.268V476ZM158.038 471.347C158.038 470.585 157.999 470.045 157.921 469.727C157.843 469.409 157.699 469.25 157.489 469.25C157.309 469.25 157.162 469.283 157.048 469.349C156.934 469.409 156.85 469.508 156.796 469.646C156.742 469.778 156.706 469.916 156.688 470.06C156.676 470.198 156.67 470.375 156.67 470.591V471.347H158.038ZM157.318 476.189C156.646 476.189 156.061 476.087 155.563 475.883C155.071 475.679 154.681 475.394 154.393 475.028C154.111 474.662 153.904 474.251 153.772 473.795C153.64 473.333 153.574 472.82 153.574 472.256C153.574 470.912 153.916 469.895 154.6 469.205C155.284 468.515 156.241 468.17 157.471 468.17C158.653 468.17 159.499 468.449 160.009 469.007C160.519 469.559 160.774 470.45 160.774 471.68V472.679H156.661V472.85C156.661 473.204 156.697 473.495 156.769 473.723C156.847 473.951 156.958 474.119 157.102 474.227C157.246 474.335 157.393 474.407 157.543 474.443C157.693 474.479 157.876 474.497 158.092 474.497C158.302 474.497 158.527 474.47 158.767 474.416C159.013 474.362 159.259 474.278 159.505 474.164C159.757 474.05 159.967 473.915 160.135 473.759L160.666 474.668C160.444 475.028 160.117 475.331 159.685 475.577C159.259 475.817 158.848 475.979 158.452 476.063C158.056 476.147 157.678 476.189 157.318 476.189ZM164.656 476H161.749V470.177L161.209 469.844V468.827L163.144 468.35H163.873L164.134 470.492C164.38 469.022 165.169 468.287 166.501 468.287C166.651 468.287 166.807 468.314 166.969 468.368L166.663 471.572C166.537 471.458 166.261 471.401 165.835 471.401C165.223 471.401 164.83 471.563 164.656 471.887V476Z" fill="black"/>
</svg>
