<svg width="1274" height="768" viewBox="0 0 1274 768" fill="none" xmlns="http://www.w3.org/2000/svg">
<circle cx="204" cy="289" r="4" fill="#F1EEEF" stroke="black" stroke-width="2"/>
<circle cx="140" cy="293" r="4" fill="#F1EEEF" stroke="black" stroke-width="2"/>
<path d="M334.136 209.965C336.303 210.965 340.136 213.965 338.136 217.965C336.136 221.965 331.636 236.965 329.636 243.965L341.136 216.965C341.47 215.298 341.736 211.765 340.136 210.965C338.536 210.165 335.47 209.965 334.136 209.965Z" fill="#D9D9D9"/>
<path d="M334.136 257.465L301.827 257.465L117.746 257.465C117.784 257.789 117.828 258.122 117.875 258.465C118.006 259.405 118.172 260.412 118.373 261.465H332.99C333.444 260.24 333.833 258.908 334.136 257.465Z" fill="#D9D9D9"/>
<path d="M332.99 261.465H118.373C118.436 261.794 118.503 262.128 118.573 262.465C118.842 263.756 119.165 265.102 119.545 266.465L331.5 265L395.357 264.5L394.72 264L332.99 261.465Z" fill="#510A60"/>
<path d="M331.5 265L119.545 266.465C119.935 267.861 120.385 269.273 120.9 270.663H166.136H169.136H188.636H190.136H192.136H194.636H300.948H326.636L331.5 265Z" fill="#FEFFFF"/>
<path d="M166.136 270.663V278.965H190.136V270.663H188.636V276.465H169.136V270.663H166.136Z" fill="#AA46C1"/>
<path d="M202.636 281.393L203.5 289.965H206L206.636 281.177C205.294 281.25 203.96 281.322 202.636 281.393Z" fill="#C1C7C5"/>
<path d="M192.136 270.663V278.465H194.636V270.663H192.136Z" fill="#CCD1D7"/>
<path d="M116.136 258.465C116.803 249.965 117.936 232.865 117.136 232.465C116.336 232.065 115.47 249.632 115.136 258.465C114.47 258.965 113.436 260.465 114.636 262.465C114.304 268.798 113.738 282.365 114.137 285.965C114.636 290.465 115.884 272.465 115.637 262.465H118.573C118.503 262.128 118.436 261.794 118.373 261.465C118.172 260.412 118.006 259.405 117.875 258.465H116.136Z" fill="#000107"/>
<path d="M301.827 257.465L334.136 257.465L337.137 247.864L302.637 245.31L301.827 257.465Z" fill="#551368"/>
<path d="M322.636 272.965C323.845 272.545 325.236 271.793 326.636 270.663H300.948L300.637 275.337C308.039 274.628 315.393 273.842 322.636 272.965Z" fill="#65147B"/>
<path d="M120.9 270.663C123.348 277.265 127.264 283.336 133.136 284.465C134.54 284.421 136.042 284.372 137.636 284.318C138.603 284.285 139.603 284.25 140.636 284.213C155.548 283.683 177.319 282.75 202.636 281.393C203.96 281.322 205.294 281.25 206.636 281.177C235.452 280.015 268.495 278.412 300.637 275.337L300.948 270.663H194.636V278.465H192.136V270.663H190.136V278.965H166.136V270.663H120.9Z" fill="#571C65"/>
<path fill-rule="evenodd" clip-rule="evenodd" d="M155.136 251.965L117.636 256.465C117.668 256.786 117.704 257.12 117.746 257.465L301.827 257.465L302.637 245.31C301.391 246.205 300.214 246.786 299.136 246.965C291.936 248.165 254.803 250.798 237.136 251.965C235.136 255.965 217.636 256.298 209.136 255.965V245.965H215.636C216.47 245.132 217.636 242.865 215.636 240.465C194.548 240.465 182.725 240.465 161.636 240.465C161.303 241.132 160.836 242.765 161.636 243.965H168.136V255.965H159.636L155.136 251.965ZM173.136 255.965V243.965H188.636V255.965H173.136ZM197.136 243.965V255.965H206.136V249.965C206.136 245.565 200.136 244.132 197.136 243.965Z" fill="#471056"/>
<path d="M161.636 243.965C159.636 245.465 155.536 249.165 155.136 251.965L159.636 255.965H168.136V243.965H161.636Z" fill="#7F2F96"/>
<path d="M173.136 243.965V255.965H188.636V243.965H173.136Z" fill="#6F1B84"/>
<path d="M197.136 255.965V243.965C200.136 244.132 206.136 245.565 206.136 249.965V255.965H197.136Z" fill="#6E2182"/>
<path d="M237.136 251.965C228.136 251.465 209.936 249.565 209.136 245.965V255.965C217.636 256.298 235.136 255.965 237.136 251.965Z" fill="#8B2AA1"/>
<path fill-rule="evenodd" clip-rule="evenodd" d="M349.136 209.465C343.803 206.965 332.236 203.365 328.636 208.965C324.675 215.127 311.801 238.727 302.637 245.31L337.137 247.864L349.136 209.465ZM338.136 217.965C340.136 213.965 336.303 210.965 334.136 209.965C335.47 209.965 338.536 210.165 340.136 210.965C341.736 211.765 341.47 215.298 341.136 216.965L329.636 243.965C331.636 236.965 336.136 221.965 338.136 217.965Z" fill="#641476"/>
<path d="M188.636 276.465V270.663H169.136V276.465H188.636Z" fill="#4C095D"/>
<path d="M137.636 284.318L138.5 293.5H141L140.636 284.213C139.603 284.25 138.603 284.285 137.636 284.318Z" fill="#D9D9D9"/>
<path d="M549.5 266.465L560 243.965H424V286.965H561L549.5 266.465Z" fill="#D9D9D9"/>
<path d="M424 243.965L394.72 264L395.357 264.5L424 286.965V243.965Z" fill="#D9D9D9"/>
<path d="M450.564 274.249C449.522 274.249 448.584 274.041 447.75 273.627C446.915 273.213 446.246 272.645 445.743 271.923C445.24 271.201 444.965 270.378 444.918 269.455H447.048C447.131 270.277 447.504 270.958 448.167 271.496C448.836 272.029 449.635 272.295 450.564 272.295C451.31 272.295 451.973 272.121 452.553 271.772C453.138 271.422 453.597 270.943 453.929 270.333C454.266 269.718 454.435 269.022 454.435 268.247C454.435 267.454 454.26 266.747 453.911 266.125C453.568 265.498 453.094 265.004 452.49 264.643C451.887 264.282 451.197 264.098 450.422 264.092C449.866 264.086 449.294 264.172 448.708 264.35C448.123 264.521 447.64 264.743 447.261 265.016L445.202 264.767L446.303 255.818H455.749V257.771H448.149L447.51 263.134H447.616C447.989 262.838 448.457 262.592 449.019 262.397C449.581 262.201 450.167 262.104 450.777 262.104C451.89 262.104 452.881 262.37 453.751 262.903C454.627 263.429 455.314 264.152 455.811 265.069C456.314 265.986 456.565 267.034 456.565 268.212C456.565 269.372 456.305 270.407 455.784 271.319C455.269 272.224 454.559 272.941 453.653 273.467C452.748 273.988 451.718 274.249 450.564 274.249ZM469.361 270.591V269.632C469.361 268.969 469.497 268.363 469.769 267.812C470.047 267.256 470.45 266.812 470.976 266.48C471.509 266.143 472.154 265.974 472.912 265.974C473.681 265.974 474.326 266.143 474.847 266.48C475.368 266.812 475.761 267.256 476.028 267.812C476.294 268.363 476.427 268.969 476.427 269.632V270.591C476.427 271.254 476.291 271.863 476.019 272.42C475.753 272.97 475.356 273.414 474.829 273.751C474.308 274.083 473.669 274.249 472.912 274.249C472.142 274.249 471.494 274.083 470.967 273.751C470.441 273.414 470.041 272.97 469.769 272.42C469.497 271.863 469.361 271.254 469.361 270.591ZM471.172 269.632V270.591C471.172 271.141 471.302 271.636 471.562 272.074C471.823 272.506 472.272 272.722 472.912 272.722C473.533 272.722 473.971 272.506 474.226 272.074C474.486 271.636 474.616 271.141 474.616 270.591V269.632C474.616 269.082 474.492 268.59 474.243 268.158C473.995 267.72 473.551 267.501 472.912 267.501C472.29 267.501 471.843 267.72 471.571 268.158C471.305 268.59 471.172 269.082 471.172 269.632ZM460.305 260.186V259.227C460.305 258.564 460.441 257.958 460.714 257.407C460.992 256.851 461.394 256.407 461.921 256.076C462.454 255.738 463.099 255.57 463.856 255.57C464.626 255.57 465.271 255.738 465.792 256.076C466.312 256.407 466.706 256.851 466.972 257.407C467.239 257.958 467.372 258.564 467.372 259.227V260.186C467.372 260.849 467.236 261.459 466.964 262.015C466.697 262.565 466.301 263.009 465.774 263.347C465.253 263.678 464.614 263.844 463.856 263.844C463.087 263.844 462.439 263.678 461.912 263.347C461.385 263.009 460.986 262.565 460.714 262.015C460.441 261.459 460.305 260.849 460.305 260.186ZM462.116 259.227V260.186C462.116 260.737 462.246 261.231 462.507 261.669C462.767 262.101 463.217 262.317 463.856 262.317C464.478 262.317 464.916 262.101 465.17 261.669C465.431 261.231 465.561 260.737 465.561 260.186V259.227C465.561 258.677 465.437 258.186 465.188 257.754C464.939 257.316 464.495 257.097 463.856 257.097C463.235 257.097 462.788 257.316 462.516 257.754C462.249 258.186 462.116 258.677 462.116 259.227ZM460.98 274L473.48 255.818H475.504L463.004 274H460.98ZM493.011 274.284C491.78 274.284 490.7 273.991 489.771 273.405C488.847 272.819 488.125 272 487.604 270.946C487.09 269.893 486.832 268.661 486.832 267.253C486.832 265.832 487.09 264.592 487.604 263.533C488.125 262.474 488.847 261.651 489.771 261.065C490.7 260.479 491.78 260.186 493.011 260.186C494.242 260.186 495.319 260.479 496.243 261.065C497.172 261.651 497.894 262.474 498.409 263.533C498.93 264.592 499.19 265.832 499.19 267.253C499.19 268.661 498.93 269.893 498.409 270.946C497.894 272 497.172 272.819 496.243 273.405C495.319 273.991 494.242 274.284 493.011 274.284ZM493.011 272.402C493.946 272.402 494.716 272.162 495.319 271.683C495.923 271.203 496.37 270.573 496.66 269.792C496.95 269.011 497.095 268.164 497.095 267.253C497.095 266.341 496.95 265.492 496.66 264.705C496.37 263.918 495.923 263.281 495.319 262.796C494.716 262.311 493.946 262.068 493.011 262.068C492.076 262.068 491.307 262.311 490.703 262.796C490.099 263.281 489.652 263.918 489.362 264.705C489.072 265.492 488.927 266.341 488.927 267.253C488.927 268.164 489.072 269.011 489.362 269.792C489.652 270.573 490.099 271.203 490.703 271.683C491.307 272.162 492.076 272.402 493.011 272.402ZM508.461 260.364V262.139H501.11V260.364H508.461ZM503.312 274V258.482C503.312 257.7 503.495 257.049 503.862 256.528C504.229 256.008 504.705 255.617 505.291 255.357C505.877 255.096 506.496 254.966 507.147 254.966C507.662 254.966 508.082 255.007 508.407 255.09C508.733 255.173 508.976 255.25 509.135 255.321L508.532 257.132C508.425 257.097 508.277 257.052 508.088 256.999C507.904 256.946 507.662 256.919 507.36 256.919C506.667 256.919 506.167 257.094 505.86 257.443C505.558 257.792 505.407 258.304 505.407 258.979V274H503.312ZM517.47 260.364V262.139H510.119V260.364H517.47ZM512.32 274V258.482C512.32 257.7 512.504 257.049 512.871 256.528C513.238 256.008 513.714 255.617 514.3 255.357C514.886 255.096 515.505 254.966 516.156 254.966C516.671 254.966 517.091 255.007 517.416 255.09C517.742 255.173 517.984 255.25 518.144 255.321L517.541 257.132C517.434 257.097 517.286 257.052 517.097 256.999C516.913 256.946 516.671 256.919 516.369 256.919C515.676 256.919 515.176 257.094 514.868 257.443C514.566 257.792 514.416 258.304 514.416 258.979V274H512.32Z" fill="#641476"/>
</svg>
