<svg width="1274" height="768" viewBox="0 0 1274 768" fill="none" xmlns="http://www.w3.org/2000/svg">
<path d="M156.912 380.996L156.497 344.319H158.154L158.984 380.996H156.912Z" fill="black"/>
<path d="M143.857 380.996L144.064 344.319H142.406L141.578 380.996H143.857Z" fill="black"/>
<path d="M156.912 380.996L156.497 344.319H158.154L158.984 380.996H156.912Z" stroke="black"/>
<path d="M143.857 380.996L144.064 344.319H142.406L141.578 380.996H143.857Z" stroke="black"/>
<path d="M150.314 344.319V226C122.133 237.19 146.377 329.814 147.413 331.264C147.413 331.264 148.311 340.451 148.241 344.319H150.314Z" fill="#6F1B84"/>
<path d="M148.241 344.319C148.311 340.451 147.413 331.264 147.413 331.264C146.377 329.814 122.133 237.19 150.314 226C137.704 228.141 113.502 241.209 117.574 276.353C123.044 302.213 138.779 327.742 145.962 337.274V344.319H148.241Z" fill="#C24DDF"/>
<path d="M150.314 226C148.839 226.217 147.401 226.441 146 226.672C127.717 230.188 99.486 243.745 105.763 276.353C108.581 299.727 132.079 327.397 143.476 338.31L143.476 344.319H145.962V337.274C138.779 327.742 123.044 302.213 117.574 276.353C113.502 241.209 137.704 228.141 150.314 226Z" fill="#AF16D5"/>
<path d="M140.989 337.274V344.319H143.476L143.476 338.31C132.079 327.397 108.581 299.727 105.763 276.353C99.486 243.745 127.717 230.188 146 226.672C108.609 232.84 95.6098 254.595 95.6094 271.38C95.6087 300.39 125.379 324.703 140.989 337.274Z" fill="#C38BD1"/>
<path d="M143.89 350.121C143.338 350.259 142.191 350.867 142.025 352.193C141.86 353.519 141.956 358.271 142.025 360.482L143.89 361.725H150.314V355.923H147.413C146.239 355.232 143.89 353.105 143.89 350.121Z" fill="#B3C0A4"/>
<path d="M147.413 355.923H150.314V350.121H145.962H143.89C143.89 353.105 146.239 355.232 147.413 355.923Z" fill="#002134"/>
<path d="M150.282 344.319V226C178.463 237.19 154.219 329.814 153.183 331.264C153.183 331.264 152.285 340.451 152.354 344.319H150.282Z" fill="#6F1B84"/>
<path d="M152.354 344.319C152.285 340.451 153.183 331.264 153.183 331.264C154.219 329.814 178.463 237.19 150.282 226C162.892 228.141 187.093 241.209 183.022 276.353C177.551 302.213 161.817 327.742 154.633 337.274V344.319H152.354Z" fill="#C24DDF"/>
<path d="M150.282 226C151.757 226.217 153.194 226.441 154.596 226.672C172.879 230.188 201.11 243.745 194.833 276.353C192.015 299.727 168.517 327.397 157.12 338.31L157.12 344.319H154.633V337.274C161.817 327.742 177.551 302.213 183.022 276.353C187.093 241.209 162.892 228.141 150.282 226Z" fill="#AF16D5"/>
<path d="M159.607 337.274V344.319H157.12L157.12 338.31C168.517 327.397 192.015 299.727 194.833 276.353C201.11 243.745 172.879 230.188 154.596 226.672C191.987 232.84 204.986 255.424 204.986 271.38C204.986 299.768 175.217 324.703 159.607 337.274Z" fill="#C38BD1"/>
<path d="M156.705 350.121C157.258 350.259 158.405 350.867 158.57 352.193C158.736 353.519 158.639 358.271 158.57 360.482L156.705 361.725H150.282V355.923H153.183C154.357 355.232 156.705 353.105 156.705 350.121Z" fill="#B3C0A4"/>
<path d="M153.183 355.923H150.282V350.121H154.633H156.705C156.705 353.105 154.357 355.232 153.183 355.923Z" fill="#002134"/>
<path d="M129.146 380.996H149.867H169.553C173.531 380.996 174.664 383.559 174.733 384.841V519L149.66 492.652L125.416 519V384.841C125.416 382.22 127.903 381.185 129.146 380.996Z" fill="#FEF1CD"/>
</svg>
