<svg width="238" height="81" viewBox="0 0 238 81" fill="none" xmlns="http://www.w3.org/2000/svg">
<g clip-path="url(#clip0_313_26335)">
<path d="M6.40299 81C5.66402 80.9968 4.93609 80.821 4.27773 80.4865C3.61936 80.1521 3.04891 79.6684 2.61223 79.0743C2.17556 78.4802 1.88483 77.7924 1.76342 77.066C1.642 76.3396 1.69329 75.595 1.91316 74.8919L24.8699 3.26801C25.168 2.3233 25.7599 1.49754 26.5599 0.910078C27.36 0.322619 28.3268 0.0039035 29.3206 0L141.879 0C143.121 0 144.313 0.491868 145.192 1.3674C146.07 2.24293 146.564 3.4304 146.564 4.66859C146.564 5.90677 146.07 7.09425 145.192 7.96978C144.313 8.84531 143.121 9.33718 141.879 9.33718H32.7563L10.8538 77.8098C10.5421 78.74 9.94448 79.5488 9.14558 80.1214C8.34667 80.694 7.3871 81.0014 6.40299 81Z" fill="#8D49A1"/>
<path d="M231.479 81C230.491 80.9979 229.528 80.6898 228.724 80.1182C227.919 79.5466 227.313 78.7399 226.989 77.8098L205.126 9.33718H96.0034C94.7609 9.33718 93.5692 8.84531 92.6906 7.96978C91.812 7.09425 91.3184 5.90677 91.3184 4.66859C91.3184 3.4304 91.812 2.24293 92.6906 1.3674C93.5692 0.491868 94.7609 0 96.0034 0L208.561 0C209.555 0.0039035 210.522 0.322619 211.322 0.910078C212.122 1.49754 212.714 2.3233 213.012 3.26801L235.93 74.8919C236.123 75.4767 236.198 76.094 236.149 76.7078C236.1 77.3216 235.929 77.9195 235.645 78.4666C235.362 79.0136 234.972 79.4988 234.498 79.8938C234.024 80.2887 233.475 80.5854 232.885 80.7666C232.432 80.9198 231.957 80.9986 231.479 81Z" fill="#8D49A1"/>
<path d="M65.7857 81.0003C65.4422 81.0003 65.1021 80.9329 64.7847 80.8019C64.4673 80.6709 64.179 80.4789 63.9361 80.2369C63.6932 79.9948 63.5005 79.7075 63.369 79.3912C63.2376 79.075 63.1699 78.736 63.1699 78.3937V3.65741C63.1699 2.96609 63.4455 2.30308 63.9361 1.81424C64.4266 1.32541 65.092 1.05078 65.7857 1.05078C66.4795 1.05078 67.1448 1.32541 67.6354 1.81424C68.126 2.30308 68.4016 2.96609 68.4016 3.65741V78.3937C68.4016 79.085 68.126 79.748 67.6354 80.2369C67.1448 80.7257 66.4795 81.0003 65.7857 81.0003Z" fill="#8D49A1"/>
<path d="M118.923 81.0003C118.581 81.0004 118.243 80.9327 117.928 80.8012C117.612 80.6698 117.327 80.4771 117.087 80.2346C116.847 79.992 116.658 79.7043 116.531 79.3883C116.404 79.0723 116.341 78.7342 116.346 78.3937V3.65741C116.341 3.31695 116.404 2.97887 116.531 2.66283C116.658 2.3468 116.847 2.05912 117.087 1.81655C117.327 1.57398 117.612 1.38136 117.928 1.24989C118.243 1.11843 118.581 1.05074 118.923 1.05078C119.617 1.05078 120.282 1.32541 120.772 1.81424C121.263 2.30308 121.539 2.96609 121.539 3.65741V78.3937C121.539 78.736 121.471 79.075 121.339 79.3912C121.208 79.7075 121.015 79.9948 120.772 80.2369C120.53 80.4789 120.241 80.6709 119.924 80.8019C119.606 80.9329 119.266 81.0003 118.923 81.0003Z" fill="#8D49A1"/>
<path d="M172.057 80.9998C171.37 80.9896 170.715 80.7105 170.233 80.2228C169.751 79.735 169.48 79.0779 169.48 78.3932V3.65691C169.435 3.29052 169.469 2.91875 169.579 2.56621C169.688 2.21367 169.872 1.88839 170.118 1.61192C170.363 1.33544 170.665 1.11406 171.002 0.962445C171.34 0.810826 171.706 0.732422 172.077 0.732422C172.447 0.732422 172.813 0.810826 173.151 0.962445C173.489 1.11406 173.79 1.33544 174.036 1.61192C174.281 1.88839 174.465 2.21367 174.575 2.56621C174.685 2.91875 174.718 3.29052 174.673 3.65691V78.3932C174.673 78.7355 174.605 79.0745 174.474 79.3907C174.342 79.707 174.15 79.9943 173.907 80.2364C173.664 80.4784 173.376 80.6704 173.058 80.8014C172.741 80.9324 172.401 80.9998 172.057 80.9998Z" fill="#8D49A1"/>
<path d="M66.3714 75.3584C65.9282 75.373 65.4959 75.2201 65.1611 74.9304C64.8041 74.6092 64.5847 74.1634 64.5483 73.6854C64.512 73.2075 64.6615 72.7339 64.9659 72.3627L118.258 10.4261C118.406 10.2189 118.596 10.0447 118.815 9.91464C119.034 9.78457 119.278 9.70149 119.531 9.67069C119.785 9.6399 120.042 9.66206 120.286 9.73578C120.53 9.80949 120.756 9.93314 120.949 10.0988C121.143 10.2645 121.3 10.4686 121.41 10.698C121.52 10.9274 121.58 11.1772 121.588 11.4313C121.595 11.6854 121.55 11.9383 121.454 12.1739C121.358 12.4094 121.213 12.6224 121.03 12.7993L67.5427 74.7359C67.3986 74.9119 67.2209 75.0575 67.0198 75.1644C66.8187 75.2713 66.5983 75.3372 66.3714 75.3584Z" fill="#8D49A1"/>
<path d="M171.785 75.3584C171.525 75.3646 171.267 75.3118 171.03 75.2039C170.793 75.0961 170.584 74.9361 170.419 74.7359L116.892 12.7993C116.627 12.4277 116.511 11.9708 116.566 11.5182C116.622 11.0655 116.845 10.6499 117.192 10.3527C117.539 10.0556 117.985 9.89836 118.442 9.91194C118.9 9.92553 119.336 10.1089 119.664 10.4261L173.152 72.3627C173.466 72.7299 173.621 73.2057 173.585 73.6866C173.548 74.1676 173.322 74.6146 172.957 74.9305C172.632 75.2111 172.215 75.3633 171.785 75.3584Z" fill="#8D49A1"/>
<path d="M66.3718 73.919C66.0458 73.9191 65.7256 73.8326 65.4443 73.6685C65.163 73.5044 64.9306 73.2686 64.771 72.9853L27.9935 7.9752C27.8709 7.77007 27.7917 7.54212 27.7608 7.30536C27.7299 7.0686 27.7479 6.82804 27.8137 6.59847C27.8795 6.3689 27.9918 6.15518 28.1435 5.97043C28.2953 5.78569 28.4834 5.63383 28.6962 5.5242C28.9042 5.39341 29.1369 5.30659 29.38 5.26911C29.623 5.23162 29.8712 5.24428 30.1091 5.30628C30.347 5.36829 30.5696 5.47833 30.7631 5.62958C30.9566 5.78084 31.1169 5.97008 31.234 6.18558L68.0506 71.2735C68.2921 71.6918 68.3578 72.1883 68.2335 72.6547C68.1092 73.1211 67.8048 73.5196 67.3869 73.7634C67.0691 73.9065 66.718 73.9603 66.3718 73.919Z" fill="#8D49A1"/>
<path d="M172.175 74.8527C171.83 74.8594 171.491 74.7647 171.199 74.5804C170.792 74.3167 170.503 73.9057 170.394 73.4339C170.284 72.9621 170.363 72.4665 170.614 72.0515L210.398 8.90889C210.523 8.70708 210.687 8.5319 210.881 8.39336C211.075 8.25481 211.294 8.15561 211.526 8.10142C211.758 8.04723 211.998 8.03911 212.233 8.07753C212.468 8.11594 212.694 8.20014 212.896 8.32531C213.099 8.45049 213.275 8.61418 213.414 8.80705C213.553 8.99993 213.652 9.2182 213.707 9.44941C213.761 9.68062 213.769 9.92024 213.731 10.1546C213.692 10.3889 213.607 10.6134 213.482 10.8152L173.698 73.919C173.545 74.1911 173.325 74.4197 173.059 74.5831C172.792 74.7465 172.488 74.8393 172.175 74.8527Z" fill="#8D49A1"/>
<g style="mix-blend-mode:screen">
<path d="M2.49805 75.0082L25.0253 6.88574L26.1965 9.49237L4.84057 75.0082H2.49805Z" fill="#8D49A1"/>
</g>
<g style="mix-blend-mode:screen">
<path d="M235.111 75.0082L212.583 6.88574L211.412 9.49237L232.768 75.0082H235.111Z" fill="#8D49A1"/>
</g>
<g style="mix-blend-mode:screen">
<path d="M64.498 9.33742V75.3979H65.6693V9.2207L64.498 9.33742Z" fill="#8D49A1"/>
</g>
<g style="mix-blend-mode:screen">
<path d="M170.223 9.33742V75.3979H171.433V9.2207L170.223 9.33742Z" fill="#8D49A1"/>
</g>
<path d="M237.999 70.1064H222.109V79.716H237.999V70.1064Z" fill="#553C58"/>
<g style="mix-blend-mode:screen">
<path d="M237.999 70.1064H222.109V71.6626H237.999V70.1064Z" fill="#8D49A1"/>
</g>
<path d="M15.8901 70.1064H0V79.716H15.8901V70.1064Z" fill="#553C58"/>
<g style="mix-blend-mode:screen">
<path d="M15.8901 70.1064H0V71.6626H15.8901V70.1064Z" fill="#8D49A1"/>
</g>
<path d="M66.5 73.5L118.5 13.5V80.5L66.5 81V73.5Z" fill="#9850AD"/>
<path d="M171.5 73.5L119.5 13.5V80.5L171.5 81V73.5Z" fill="#9850AD"/>
</g>
<defs>
<clipPath id="clip0_313_26335">
<rect width="238" height="81" fill="white"/>
</clipPath>
</defs>
</svg>
