<svg width="344" height="345" viewBox="0 0 344 345" fill="none" xmlns="http://www.w3.org/2000/svg">
<g filter="url(#filter0_d_3014_167)">
<circle cx="172" cy="169" r="168" fill="white"/>
</g>
<g opacity="0.22">
<g opacity="0.5">
<path d="M226.069 192.92V256.92L206.101 245.4V258.2L257.045 287.64V274.84L237.077 263.32V199.32L257.045 210.84V198.04L206.101 168.6V181.4L226.069 192.92ZM226.069 192.92L206.101 181.4L194.965 187.8L214.933 199.32L226.069 192.92ZM206.101 181.4V168.6L194.965 175V187.8L206.101 181.4ZM257.045 210.84L237.077 199.32L226.069 205.72L246.037 217.24L257.045 210.84ZM226.069 256.92V192.92L214.933 199.32V263.32L226.069 256.92ZM257.045 287.64L206.101 258.2L194.965 264.6L246.037 294.04L257.045 287.64ZM206.101 258.2V245.4L194.965 251.8V264.6L206.101 258.2Z" fill="black"/>
<path d="M226.069 192.92V256.92L206.101 245.4V258.2L257.045 287.64V274.84L237.077 263.32V199.32L257.045 210.84V198.04L206.101 168.6V181.4L226.069 192.92ZM226.069 192.92L206.101 181.4L194.965 187.8L214.933 199.32L226.069 192.92ZM206.101 181.4V168.6L194.965 175V187.8L206.101 181.4ZM257.045 210.84L237.077 199.32L226.069 205.72L246.037 217.24L257.045 210.84ZM226.069 256.92V192.92L214.933 199.32V263.32L226.069 256.92ZM257.045 287.64L206.101 258.2L194.965 264.6L246.037 294.04L257.045 287.64ZM206.101 258.2V245.4L194.965 251.8V264.6L206.101 258.2Z" fill="url(#paint0_linear_3014_167)"/>
</g>
<g opacity="0.5">
<path d="M109.272 269.72L136.92 285.72C139.821 287.427 142.381 287.64 144.6 286.36C146.904 285.08 148.056 282.733 148.056 279.32V197.4L136.92 191V216.6L109.272 200.6V175L98.136 168.6V250.52C98.136 252.824 98.648 255.213 99.672 257.688C100.696 260.248 102.061 262.595 103.768 264.728C105.475 266.947 107.309 268.611 109.272 269.72ZM136.92 229.4V272.92L109.272 256.92V213.4L136.92 229.4ZM136.92 216.6V191L125.784 197.4V223L136.92 216.6ZM136.92 272.92V229.4L125.784 235.8V279.32L136.92 272.92ZM136.92 229.4L109.272 213.4L98.136 219.8L125.784 235.8L136.92 229.4ZM144.728 286.36C142.424 287.64 139.821 287.427 136.92 285.72L109.272 269.72C107.309 268.611 105.475 266.947 103.768 264.728C102.061 262.595 100.696 260.248 99.672 257.688C98.648 255.213 98.136 252.824 98.136 250.52V168.6L87 175V256.92C87 259.224 87.512 261.613 88.536 264.088C89.56 266.648 90.9253 268.995 92.632 271.128C94.3387 273.347 96.1733 275.011 98.136 276.12L125.784 292.12C128.771 293.827 131.373 294.04 133.592 292.76L144.728 286.36Z" fill="black"/>
<path d="M109.272 269.72L136.92 285.72C139.821 287.427 142.381 287.64 144.6 286.36C146.904 285.08 148.056 282.733 148.056 279.32V197.4L136.92 191V216.6L109.272 200.6V175L98.136 168.6V250.52C98.136 252.824 98.648 255.213 99.672 257.688C100.696 260.248 102.061 262.595 103.768 264.728C105.475 266.947 107.309 268.611 109.272 269.72ZM136.92 229.4V272.92L109.272 256.92V213.4L136.92 229.4ZM136.92 216.6V191L125.784 197.4V223L136.92 216.6ZM136.92 272.92V229.4L125.784 235.8V279.32L136.92 272.92ZM136.92 229.4L109.272 213.4L98.136 219.8L125.784 235.8L136.92 229.4ZM144.728 286.36C142.424 287.64 139.821 287.427 136.92 285.72L109.272 269.72C107.309 268.611 105.475 266.947 103.768 264.728C102.061 262.595 100.696 260.248 99.672 257.688C98.648 255.213 98.136 252.824 98.136 250.52V168.6L87 175V256.92C87 259.224 87.512 261.613 88.536 264.088C89.56 266.648 90.9253 268.995 92.632 271.128C94.3387 273.347 96.1733 275.011 98.136 276.12L125.784 292.12C128.771 293.827 131.373 294.04 133.592 292.76L144.728 286.36Z" fill="url(#paint1_linear_3014_167)"/>
</g>
</g>
<path d="M169.406 186.808H162.71L161.054 190H157.526L166.526 173.224H170.438L173.486 190H169.934L169.406 186.808ZM168.974 184.192L167.774 177.088L164.078 184.192H168.974ZM185.914 173.248L182.962 190H179.578L182.554 173.248H185.914ZM174.189 217.672L178.077 226H174.213L171.597 220.384L167.301 226H163.509L170.277 217.576L166.413 209.248H170.277L172.893 214.864L177.141 209.248H180.957L174.189 217.672ZM53.4128 245.248C54.9648 245.248 56.3008 245.52 57.4208 246.064C58.5568 246.592 59.4208 247.352 60.0128 248.344C60.6208 249.336 60.9248 250.512 60.9248 251.872C60.9248 252.48 60.8688 253.072 60.7568 253.648C60.4688 255.328 59.8448 256.8 58.8848 258.064C57.9408 259.312 56.7408 260.28 55.2848 260.968C53.8288 261.656 52.2128 262 50.4368 262H44.5808L47.5568 245.248H53.4128ZM50.8208 259.264C52.5808 259.264 54.0208 258.768 55.1408 257.776C56.2768 256.784 57.0048 255.408 57.3248 253.648C57.4048 253.12 57.4448 252.664 57.4448 252.28C57.4448 250.936 57.0448 249.896 56.2448 249.16C55.4608 248.424 54.3088 248.056 52.7888 248.056H50.4368L48.4688 259.264H50.8208ZM71.9599 245.248L69.0079 262H65.6239L68.5999 245.248H71.9599ZM76.8396 253.6C77.1276 251.952 77.7596 250.48 78.7356 249.184C79.7116 247.872 80.9116 246.856 82.3356 246.136C83.7596 245.4 85.2716 245.032 86.8716 245.032C88.7596 245.032 90.3116 245.496 91.5276 246.424C92.7596 247.336 93.5036 248.624 93.7596 250.288H89.8956C89.6396 249.584 89.2076 249.048 88.5996 248.68C87.9916 248.312 87.2396 248.128 86.3436 248.128C85.3516 248.128 84.4316 248.352 83.5836 248.8C82.7356 249.248 82.0236 249.888 81.4476 250.72C80.8716 251.552 80.4876 252.512 80.2956 253.6C80.2156 253.984 80.1756 254.424 80.1756 254.92C80.1756 256.232 80.5596 257.264 81.3276 258.016C82.1116 258.752 83.1836 259.12 84.5436 259.12C85.8076 259.12 86.9116 258.776 87.8556 258.088C88.8156 257.4 89.5276 256.448 89.9916 255.232H84.2316L84.6636 252.688H93.7356L93.2076 255.616C92.7756 256.784 92.1036 257.864 91.1916 258.856C90.2796 259.848 89.1916 260.648 87.9276 261.256C86.6636 261.848 85.3116 262.144 83.8716 262.144C82.4476 262.144 81.1916 261.856 80.1036 261.28C79.0316 260.704 78.1916 259.904 77.5836 258.88C76.9916 257.84 76.6956 256.64 76.6956 255.28C76.6956 254.736 76.7436 254.176 76.8396 253.6ZM104.742 245.248L101.79 262H98.4055L101.382 245.248H104.742ZM123.301 245.248L122.821 247.888H118.381L115.885 262H112.501L114.997 247.888H110.533L111.013 245.248H123.301ZM137.465 258.808H130.769L129.113 262H125.585L134.585 245.224H138.497L141.545 262H137.993L137.465 258.808ZM137.033 256.192L135.833 249.088L132.137 256.192H137.033ZM151.476 259.432H156.996L156.54 262H147.636L150.612 245.248H153.972L151.476 259.432ZM173.45 253.6C173.738 251.952 174.37 250.48 175.346 249.184C176.322 247.872 177.522 246.856 178.946 246.136C180.37 245.4 181.882 245.032 183.482 245.032C185.37 245.032 186.922 245.496 188.138 246.424C189.37 247.336 190.114 248.624 190.37 250.288H186.506C186.25 249.584 185.818 249.048 185.21 248.68C184.602 248.312 183.85 248.128 182.954 248.128C181.962 248.128 181.042 248.352 180.194 248.8C179.346 249.248 178.634 249.888 178.058 250.72C177.482 251.552 177.098 252.512 176.906 253.6C176.826 253.984 176.786 254.424 176.786 254.92C176.786 256.232 177.17 257.264 177.938 258.016C178.722 258.752 179.794 259.12 181.154 259.12C182.418 259.12 183.522 258.776 184.466 258.088C185.426 257.4 186.138 256.448 186.602 255.232H180.842L181.274 252.688H190.346L189.818 255.616C189.386 256.784 188.714 257.864 187.802 258.856C186.89 259.848 185.802 260.648 184.538 261.256C183.274 261.848 181.922 262.144 180.482 262.144C179.058 262.144 177.802 261.856 176.714 261.28C175.642 260.704 174.802 259.904 174.194 258.88C173.602 257.84 173.306 256.64 173.306 255.28C173.306 254.736 173.354 254.176 173.45 253.6ZM204.28 245.248C205.992 245.248 207.288 245.64 208.168 246.424C209.048 247.192 209.488 248.2 209.488 249.448C209.488 249.752 209.464 250.064 209.416 250.384C209.224 251.472 208.728 252.464 207.928 253.36C207.144 254.24 206.088 254.856 204.76 255.208L207.568 262H203.656L201.16 255.472H199.552L198.4 262H195.016L197.992 245.248H204.28ZM205.96 250.456C205.992 250.168 206.008 249.976 206.008 249.88C206.008 249.272 205.816 248.8 205.432 248.464C205.048 248.128 204.464 247.96 203.68 247.96H200.872L199.984 252.976H202.792C203.688 252.976 204.4 252.752 204.928 252.304C205.472 251.856 205.816 251.24 205.96 250.456ZM222.079 262.168C220.671 262.168 219.423 261.872 218.335 261.28C217.263 260.672 216.431 259.84 215.839 258.784C215.247 257.712 214.951 256.488 214.951 255.112C214.951 253.192 215.375 251.464 216.223 249.928C217.087 248.392 218.271 247.192 219.775 246.328C221.295 245.448 222.999 245.008 224.887 245.008C226.311 245.008 227.559 245.304 228.631 245.896C229.719 246.488 230.559 247.32 231.151 248.392C231.743 249.448 232.039 250.656 232.039 252.016C232.039 253.968 231.615 255.712 230.767 257.248C229.919 258.784 228.735 259.992 227.215 260.872C225.695 261.736 223.983 262.168 222.079 262.168ZM222.559 259.072C223.759 259.072 224.815 258.768 225.727 258.16C226.655 257.552 227.367 256.736 227.863 255.712C228.375 254.672 228.631 253.544 228.631 252.328C228.631 251.016 228.263 249.984 227.527 249.232C226.791 248.48 225.759 248.104 224.431 248.104C223.247 248.104 222.191 248.408 221.263 249.016C220.351 249.624 219.639 250.44 219.127 251.464C218.631 252.488 218.383 253.608 218.383 254.824C218.383 256.136 218.743 257.176 219.463 257.944C220.199 258.696 221.231 259.072 222.559 259.072ZM262.283 245.248L254.627 262H250.667L249.635 250.072L244.259 262L240.323 262.024L238.763 245.248H242.363L243.035 258.256L248.723 245.248H252.467L253.379 258.184L258.659 245.248H262.283ZM279.716 245.248L279.236 247.888H274.796L272.3 262H268.916L271.412 247.888H266.948L267.428 245.248H279.716ZM299.904 245.248L296.952 262H293.568L294.84 254.824H287.688L286.416 262H283.032L286.008 245.248H289.368L288.144 252.184H295.32L296.544 245.248H299.904Z" fill="black"/>
<path d="M251.622 73.6092C252.386 73.4053 252.842 72.6199 252.611 71.8638C250.578 65.1992 246.863 59.1606 241.814 54.3354C236.42 49.1802 229.711 45.609 222.422 44.0129C215.133 42.4169 207.546 42.8576 200.491 45.2867C193.436 47.7158 187.185 52.0397 182.424 57.7848C177.663 63.5298 174.575 70.4744 173.498 77.8577C172.421 85.2411 173.396 92.7785 176.318 99.6443C179.239 106.51 183.994 112.439 190.061 116.783C195.74 120.848 202.363 123.377 209.289 124.138C210.075 124.224 210.762 123.63 210.821 122.841V122.841C210.879 122.053 210.287 121.369 209.502 121.281C203.099 120.561 196.979 118.214 191.728 114.455C186.088 110.417 181.668 104.906 178.952 98.5234C176.236 92.1411 175.329 85.1344 176.33 78.271C177.332 71.4075 180.203 64.952 184.628 59.6115C189.054 54.271 194.865 50.2516 201.423 47.9935C207.981 45.7354 215.034 45.3257 221.81 46.8094C228.586 48.2931 234.822 51.6128 239.836 56.405C244.506 60.8671 247.947 66.4456 249.844 72.6027C250.076 73.3582 250.858 73.8131 251.622 73.6092V73.6092Z" fill="url(#paint2_angular_3014_167)"/>
<line y1="-0.5" x2="19.5121" y2="-0.5" transform="matrix(0.190159 -0.981753 0.974166 0.225832 220 46)" stroke="black"/>
<ellipse cx="224.179" cy="23.7719" rx="3.68102" ry="3.54086" transform="rotate(67 224.179 23.7719)" fill="black"/>
<line x1="198.258" y1="72.8594" x2="168.195" y2="61.319" stroke="black"/>
<circle cx="163.523" cy="59.2125" r="6" transform="rotate(-14 163.523 59.2125)" fill="black"/>
<path d="M225.965 144.08V131.28V80.08L214.829 86.5046V137.68L225.965 144.08Z" fill="black"/>
<path d="M205.997 155.6L225.965 144.08L214.829 137.68L194.861 149.2L205.997 155.6Z" fill="black"/>
<path d="M236.973 137.68L256.941 126.16L245.933 119.76L236.973 124.929V137.68Z" fill="black"/>
<path d="M205.997 91.6V78.8L194.861 72.4V85.2L205.997 91.6Z" fill="black"/>
<path fill-rule="evenodd" clip-rule="evenodd" d="M214.829 86.5046L225.965 80.08V131.28V144.08L205.997 155.6L194.861 149.2V162L205.997 168.4L256.941 138.96V126.16L236.973 137.68V124.929V73.68L256.941 62.16V49.36L214.843 73.688L214.829 73.68V73.696L205.997 78.8V91.6L214.829 86.5046Z" fill="black"/>
<path fill-rule="evenodd" clip-rule="evenodd" d="M214.829 86.5046L225.965 80.08V131.28V144.08L205.997 155.6L194.861 149.2V162L205.997 168.4L256.941 138.96V126.16L236.973 137.68V124.929V73.68L256.941 62.16V49.36L214.843 73.688L214.829 73.68V73.696L205.997 78.8V91.6L214.829 86.5046Z" fill="url(#paint3_linear_3014_167)"/>
<path d="M194.861 72.4L205.997 78.8L214.829 73.696V73.68L214.843 73.688L256.941 49.36L245.933 42.96L194.861 72.4Z" fill="black"/>
<path d="M136.816 107.6V64.0798L125.68 70.5243V101.2L136.816 107.6Z" fill="black"/>
<path d="M136.816 146V120.4L125.68 126.844V139.6L136.816 146Z" fill="black"/>
<path d="M98.4075 168.4V117.2V86.4799C98.4075 84.1758 97.976 79.4747 99 77C100.024 74.44 101.625 73.5 104 71.5C106.5 69.5 107.5 68.5 109.543 67.2799L126.055 57.7243V57.6798L126.094 57.702L137.191 51.2798C138.857 50.3002 140.41 49.8126 141.85 49.817C142.956 49.8133 144.005 50.0876 144.999 50.6398L133.863 44.2399C131.645 42.9598 129.042 43.1732 126.055 44.8799L98.4075 60.8799C96.4448 61.9892 94.6102 63.6532 92.9035 65.8718C91.1968 68.0052 89.8315 70.3519 88.8075 72.9118C87.7835 75.3865 87.2715 77.7758 87.2715 80.0798V162L98.4075 168.4Z" fill="black"/>
<path fill-rule="evenodd" clip-rule="evenodd" d="M141.85 49.817C142.919 49.8203 143.551 50.0946 144.496 50.6398C146.8 51.9199 147.952 54.2665 147.952 57.6798V139.6L136.816 146V120.4L125.68 126.844L109.168 136.4V162L98.4075 168.4V117.2V86.4799C98.4075 84.1758 97.976 79.4747 99 77C100.024 74.44 101.625 73.5 104 71.5C106.5 69.5 107.5 68.5 109.543 67.2799L126.055 57.7243V57.6798L126.094 57.702L137.191 51.2798C138.857 50.3002 140.41 49.8126 141.85 49.817ZM136.816 64.0798L125.68 70.5243L109.168 80.0798V110.755V123.6L125.68 114.044V114L125.719 114.022L136.816 107.6V64.0798Z" fill="black"/>
<path fill-rule="evenodd" clip-rule="evenodd" d="M141.85 49.817C142.919 49.8203 143.551 50.0946 144.496 50.6398C146.8 51.9199 147.952 54.2665 147.952 57.6798V139.6L136.816 146V120.4L125.68 126.844L109.168 136.4V162L98.4075 168.4V117.2V86.4799C98.4075 84.1758 97.976 79.4747 99 77C100.024 74.44 101.625 73.5 104 71.5C106.5 69.5 107.5 68.5 109.543 67.2799L126.055 57.7243V57.6798L126.094 57.702L137.191 51.2798C138.857 50.3002 140.41 49.8126 141.85 49.817ZM136.816 64.0798L125.68 70.5243L109.168 80.0798V110.755V123.6L125.68 114.044V114L125.719 114.022L136.816 107.6V64.0798Z" fill="url(#paint4_linear_3014_167)"/>
<path d="M136.816 107.6L125.68 101.2L109.168 110.755V123.6L125.68 114.044V114L125.719 114.022L136.816 107.6Z" fill="black"/>
<path d="M184.136 73.1714C183.554 72.9881 182.931 73.3115 182.768 73.9003C181.527 78.3834 181.286 83.089 182.066 87.6837C182.909 92.6424 184.917 97.3299 187.926 101.36C190.935 105.391 194.859 108.648 199.373 110.865C203.888 113.082 208.865 114.194 213.894 114.111C218.923 114.027 223.86 112.75 228.299 110.384C232.737 108.019 236.55 104.633 239.424 100.505C242.297 96.3765 244.149 91.6248 244.826 86.6409C245.453 82.0228 245.056 77.3278 243.667 72.8884C243.485 72.3053 242.851 72.0028 242.275 72.2054V72.2054C241.699 72.408 241.398 73.039 241.579 73.6225C242.852 77.7308 243.214 82.0723 242.634 86.3431C242.004 90.9796 240.281 95.4002 237.608 99.2406C234.935 103.081 231.388 106.231 227.258 108.432C223.129 110.633 218.536 111.821 213.857 111.899C209.179 111.976 204.549 110.941 200.349 108.879C196.148 106.817 192.498 103.786 189.699 100.037C186.9 96.2872 185.031 91.9263 184.248 87.3132C183.526 83.0641 183.743 78.713 184.88 74.5646C185.041 73.9754 184.719 73.3548 184.136 73.1714V73.1714Z" fill="url(#paint5_angular_3014_167)"/>
<line y1="-0.5" x2="28.2727" y2="-0.5" transform="matrix(-0.576022 -0.817434 0.796993 -0.603989 196 48)" stroke="black"/>
<ellipse cx="177.143" cy="21.3333" rx="5.14286" ry="5.33333" fill="black"/>
<circle cx="142" cy="136" r="4" fill="black"/>
<circle cx="143" cy="112" r="2" fill="black"/>
<circle cx="142" cy="56" r="4" fill="black"/>
<line x1="142.5" y1="59" x2="142.5" y2="135" stroke="black"/>
<ellipse cx="104" cy="156.137" rx="4" ry="3.86364" fill="black"/>
<ellipse cx="104" cy="130.932" rx="2" ry="1.93182" fill="black"/>
<ellipse cx="104" cy="78.8636" rx="4" ry="3.86364" fill="black"/>
<line x1="104.5" y1="81.7612" x2="104.5" y2="155.17" stroke="black"/>
<ellipse cx="232" cy="146.864" rx="4" ry="3.86364" fill="black"/>
<ellipse cx="231" cy="106.932" rx="2" ry="1.93182" fill="black"/>
<ellipse cx="231" cy="71.8636" rx="4" ry="3.86364" fill="black"/>
<line x1="231.5" y1="72" x2="231.5" y2="145.409" stroke="black"/>
<defs>
<filter id="filter0_d_3014_167" x="0" y="1" width="344" height="344" filterUnits="userSpaceOnUse" color-interpolation-filters="sRGB">
<feFlood flood-opacity="0" result="BackgroundImageFix"/>
<feColorMatrix in="SourceAlpha" type="matrix" values="0 0 0 0 0 0 0 0 0 0 0 0 0 0 0 0 0 0 127 0" result="hardAlpha"/>
<feOffset dy="4"/>
<feGaussianBlur stdDeviation="2"/>
<feComposite in2="hardAlpha" operator="out"/>
<feColorMatrix type="matrix" values="0 0 0 0 0 0 0 0 0 0 0 0 0 0 0 0 0 0 0.25 0"/>
<feBlend mode="normal" in2="BackgroundImageFix" result="effect1_dropShadow_3014_167"/>
<feBlend mode="normal" in="SourceGraphic" in2="effect1_dropShadow_3014_167" result="shape"/>
</filter>
<linearGradient id="paint0_linear_3014_167" x1="172.103" y1="337" x2="172.103" y2="127" gradientUnits="userSpaceOnUse">
<stop stop-color="#F60074"/>
<stop offset="0.525" stop-color="#F301A7"/>
<stop offset="1" stop-color="#CE54B9"/>
</linearGradient>
<linearGradient id="paint1_linear_3014_167" x1="172.103" y1="337" x2="172.103" y2="127" gradientUnits="userSpaceOnUse">
<stop stop-color="#F60074"/>
<stop offset="0.525" stop-color="#F301A7"/>
<stop offset="1" stop-color="#CE54B9"/>
</linearGradient>
<radialGradient id="paint2_angular_3014_167" cx="0" cy="0" r="1" gradientUnits="userSpaceOnUse" gradientTransform="translate(213.726 83.7262) rotate(87) scale(40.6542)">
<stop stop-color="#6511A5"/>
<stop offset="0.85481" stop-color="#C63DAE"/>
<stop offset="1" stop-color="#D644AF"/>
</radialGradient>
<linearGradient id="paint3_linear_3014_167" x1="172" y1="-2.7198e-05" x2="172" y2="210" gradientUnits="userSpaceOnUse">
<stop stop-color="#F60074"/>
<stop offset="0.525" stop-color="#F301A7"/>
<stop offset="1" stop-color="#CE54B9"/>
</linearGradient>
<linearGradient id="paint4_linear_3014_167" x1="172.002" y1="-0.000148125" x2="172.002" y2="210" gradientUnits="userSpaceOnUse">
<stop stop-color="#F60074"/>
<stop offset="0.525" stop-color="#F301A7"/>
<stop offset="1" stop-color="#CE54B9"/>
</linearGradient>
<radialGradient id="paint5_angular_3014_167" cx="0" cy="0" r="1" gradientUnits="userSpaceOnUse" gradientTransform="translate(213.367 82.3666) rotate(87) scale(31.7485)">
<stop stop-color="#6511A5"/>
<stop offset="0.85481" stop-color="#C63DAE"/>
<stop offset="1" stop-color="#D644AF"/>
</radialGradient>
</defs>
</svg>
