<svg width="344" height="345" viewBox="0 0 344 345" fill="none" xmlns="http://www.w3.org/2000/svg">
<g filter="url(#filter0_d_3018_180)">
<circle cx="172" cy="169" r="168" fill="white"/>
</g>
<g filter="url(#filter1_d_3018_180)">
<circle cx="172" cy="169" r="168" fill="white"/>
</g>
<g opacity="0.22">
<g opacity="0.5">
<path d="M226.069 192.92V256.92L206.101 245.4V258.2L257.045 287.64V274.84L237.077 263.32V199.32L257.045 210.84V198.04L206.101 168.6V181.4L226.069 192.92ZM226.069 192.92L206.101 181.4L194.965 187.8L214.933 199.32L226.069 192.92ZM206.101 181.4V168.6L194.965 175V187.8L206.101 181.4ZM257.045 210.84L237.077 199.32L226.069 205.72L246.037 217.24L257.045 210.84ZM226.069 256.92V192.92L214.933 199.32V263.32L226.069 256.92ZM257.045 287.64L206.101 258.2L194.965 264.6L246.037 294.04L257.045 287.64ZM206.101 258.2V245.4L194.965 251.8V264.6L206.101 258.2Z" fill="black"/>
<path d="M226.069 192.92V256.92L206.101 245.4V258.2L257.045 287.64V274.84L237.077 263.32V199.32L257.045 210.84V198.04L206.101 168.6V181.4L226.069 192.92ZM226.069 192.92L206.101 181.4L194.965 187.8L214.933 199.32L226.069 192.92ZM206.101 181.4V168.6L194.965 175V187.8L206.101 181.4ZM257.045 210.84L237.077 199.32L226.069 205.72L246.037 217.24L257.045 210.84ZM226.069 256.92V192.92L214.933 199.32V263.32L226.069 256.92ZM257.045 287.64L206.101 258.2L194.965 264.6L246.037 294.04L257.045 287.64ZM206.101 258.2V245.4L194.965 251.8V264.6L206.101 258.2Z" fill="url(#paint0_linear_3018_180)"/>
</g>
<g opacity="0.5">
<path d="M109.272 269.72L136.92 285.72C139.821 287.427 142.381 287.64 144.6 286.36C146.904 285.08 148.056 282.733 148.056 279.32V197.4L136.92 191V216.6L109.272 200.6V175L98.136 168.6V250.52C98.136 252.824 98.648 255.213 99.672 257.688C100.696 260.248 102.061 262.595 103.768 264.728C105.475 266.947 107.309 268.611 109.272 269.72ZM136.92 229.4V272.92L109.272 256.92V213.4L136.92 229.4ZM136.92 216.6V191L125.784 197.4V223L136.92 216.6ZM136.92 272.92V229.4L125.784 235.8V279.32L136.92 272.92ZM136.92 229.4L109.272 213.4L98.136 219.8L125.784 235.8L136.92 229.4ZM144.728 286.36C142.424 287.64 139.821 287.427 136.92 285.72L109.272 269.72C107.309 268.611 105.475 266.947 103.768 264.728C102.061 262.595 100.696 260.248 99.672 257.688C98.648 255.213 98.136 252.824 98.136 250.52V168.6L87 175V256.92C87 259.224 87.512 261.613 88.536 264.088C89.56 266.648 90.9253 268.995 92.632 271.128C94.3387 273.347 96.1733 275.011 98.136 276.12L125.784 292.12C128.771 293.827 131.373 294.04 133.592 292.76L144.728 286.36Z" fill="black"/>
<path d="M109.272 269.72L136.92 285.72C139.821 287.427 142.381 287.64 144.6 286.36C146.904 285.08 148.056 282.733 148.056 279.32V197.4L136.92 191V216.6L109.272 200.6V175L98.136 168.6V250.52C98.136 252.824 98.648 255.213 99.672 257.688C100.696 260.248 102.061 262.595 103.768 264.728C105.475 266.947 107.309 268.611 109.272 269.72ZM136.92 229.4V272.92L109.272 256.92V213.4L136.92 229.4ZM136.92 216.6V191L125.784 197.4V223L136.92 216.6ZM136.92 272.92V229.4L125.784 235.8V279.32L136.92 272.92ZM136.92 229.4L109.272 213.4L98.136 219.8L125.784 235.8L136.92 229.4ZM144.728 286.36C142.424 287.64 139.821 287.427 136.92 285.72L109.272 269.72C107.309 268.611 105.475 266.947 103.768 264.728C102.061 262.595 100.696 260.248 99.672 257.688C98.648 255.213 98.136 252.824 98.136 250.52V168.6L87 175V256.92C87 259.224 87.512 261.613 88.536 264.088C89.56 266.648 90.9253 268.995 92.632 271.128C94.3387 273.347 96.1733 275.011 98.136 276.12L125.784 292.12C128.771 293.827 131.373 294.04 133.592 292.76L144.728 286.36Z" fill="url(#paint1_linear_3018_180)"/>
</g>
</g>
<path d="M164.76 173.224H169.536L176.232 190H171.144L169.896 186.808H164.4L163.128 190H158.04L164.76 173.224ZM168.744 183.04L167.136 178.336L165.528 183.04H168.744ZM181.509 173.224H186.477V190H181.509V173.224ZM169.665 217.576L163.665 209.224H169.353L172.497 213.616L175.665 209.224H181.353L175.353 217.576L181.401 226H175.713L172.497 221.536L169.281 226H163.593L169.665 217.576ZM47.2031 245.224H53.4191C55.2751 245.224 56.8911 245.56 58.2671 246.232C59.6591 246.904 60.7311 247.872 61.4831 249.136C62.2511 250.384 62.6351 251.848 62.6351 253.528C62.6351 256.312 61.8111 258.424 60.1631 259.864C58.5151 261.288 56.2511 262 53.3711 262H47.2031V245.224ZM53.7311 257.824C54.9631 257.824 55.9071 257.44 56.5631 256.672C57.2351 255.904 57.5711 254.856 57.5711 253.528C57.5711 252.344 57.2351 251.36 56.5631 250.576C55.8911 249.792 54.9711 249.4 53.8031 249.4H52.1711V257.824H53.7311ZM67.9181 245.224H72.8861V262H67.9181V245.224ZM87.3848 262.36C85.5288 262.36 83.9048 262.008 82.5128 261.304C81.1208 260.6 80.0488 259.592 79.2968 258.28C78.5448 256.968 78.1688 255.416 78.1688 253.624C78.1688 251.832 78.5448 250.28 79.2968 248.968C80.0488 247.64 81.1208 246.624 82.5128 245.92C83.9048 245.216 85.5288 244.864 87.3848 244.864C89.8808 244.864 91.8328 245.328 93.2408 246.256V250.84C92.5368 250.312 91.7448 249.928 90.8648 249.688C89.9848 249.448 88.9688 249.328 87.8168 249.328C86.3128 249.328 85.1688 249.704 84.3848 250.456C83.6168 251.208 83.2328 252.264 83.2328 253.624C83.2328 255.048 83.6008 256.128 84.3368 256.864C85.0888 257.584 86.1688 257.944 87.5768 257.944C88.2648 257.944 88.8248 257.848 89.2568 257.656V255.52H86.9528V252.376H93.7928V260.776C92.0968 261.832 89.9608 262.36 87.3848 262.36ZM99.0825 245.224H104.051V262H99.0825V245.224ZM113.485 249.4H108.973V245.224H122.965V249.4H118.453V262H113.485V249.4ZM131.12 245.224H135.896L142.592 262H137.504L136.256 258.808H130.76L129.488 262H124.4L131.12 245.224ZM135.104 255.04L133.496 250.336L131.888 255.04H135.104ZM147.868 245.224H152.836V257.824H159.604V262H147.868V245.224ZM184.675 262.36C182.819 262.36 181.195 262.008 179.803 261.304C178.411 260.6 177.339 259.592 176.587 258.28C175.835 256.968 175.459 255.416 175.459 253.624C175.459 251.832 175.835 250.28 176.587 248.968C177.339 247.64 178.411 246.624 179.803 245.92C181.195 245.216 182.819 244.864 184.675 244.864C187.171 244.864 189.123 245.328 190.531 246.256V250.84C189.827 250.312 189.035 249.928 188.155 249.688C187.275 249.448 186.259 249.328 185.107 249.328C183.603 249.328 182.459 249.704 181.675 250.456C180.907 251.208 180.523 252.264 180.523 253.624C180.523 255.048 180.891 256.128 181.627 256.864C182.379 257.584 183.459 257.944 184.867 257.944C185.555 257.944 186.115 257.848 186.547 257.656V255.52H184.243V252.376H191.083V260.776C189.387 261.832 187.251 262.36 184.675 262.36ZM196.373 245.224H204.173C206.189 245.224 207.781 245.736 208.949 246.76C210.117 247.768 210.701 249.232 210.701 251.152C210.701 252.4 210.437 253.464 209.909 254.344C209.397 255.224 208.661 255.896 207.701 256.36L210.509 262H205.421L202.973 257.08H201.341V262H196.373V245.224ZM203.189 253.144C203.957 253.144 204.549 253 204.965 252.712C205.397 252.408 205.613 251.888 205.613 251.152C205.613 250.416 205.397 249.904 204.965 249.616C204.549 249.312 203.957 249.16 203.189 249.16H201.341V253.144H203.189ZM224.226 262.36C222.53 262.36 220.986 261.992 219.594 261.256C218.218 260.52 217.13 259.496 216.33 258.184C215.546 256.856 215.154 255.336 215.154 253.624C215.154 251.912 215.546 250.392 216.33 249.064C217.13 247.736 218.218 246.704 219.594 245.968C220.986 245.232 222.53 244.864 224.226 244.864C225.922 244.864 227.45 245.232 228.81 245.968C230.186 246.704 231.266 247.736 232.05 249.064C232.85 250.392 233.25 251.912 233.25 253.624C233.25 255.336 232.85 256.856 232.05 258.184C231.266 259.496 230.186 260.52 228.81 261.256C227.45 261.992 225.922 262.36 224.226 262.36ZM224.226 257.704C224.962 257.704 225.626 257.544 226.218 257.224C226.826 256.888 227.306 256.416 227.658 255.808C228.01 255.184 228.186 254.456 228.186 253.624C228.186 252.392 227.81 251.408 227.058 250.672C226.306 249.936 225.362 249.568 224.226 249.568C223.074 249.568 222.114 249.936 221.346 250.672C220.594 251.408 220.218 252.392 220.218 253.624C220.218 254.456 220.394 255.184 220.746 255.808C221.098 256.416 221.578 256.888 222.186 257.224C222.794 257.544 223.474 257.704 224.226 257.704ZM236.479 245.224H241.615L243.943 254.008L246.175 245.224H249.775L251.815 254.032L254.119 245.224H259.279L254.815 262H250.159L247.879 253.096L245.599 262H240.943L236.479 245.224ZM267.885 249.4H263.373V245.224H277.365V249.4H272.853V262H267.885V249.4ZM282.279 245.224H287.247V251.392H292.839V245.224H297.807V262H292.839V255.568H287.247V262H282.279V245.224Z" fill="black"/>
<path d="M251.622 73.6092C252.386 73.4053 252.842 72.6199 252.611 71.8638C250.578 65.1992 246.863 59.1606 241.814 54.3354C236.42 49.1802 229.711 45.609 222.422 44.0129C215.133 42.4169 207.546 42.8576 200.491 45.2867C193.436 47.7158 187.185 52.0397 182.424 57.7848C177.663 63.5298 174.575 70.4744 173.498 77.8577C172.421 85.2411 173.396 92.7785 176.318 99.6443C179.239 106.51 183.994 112.439 190.061 116.783C195.74 120.848 202.363 123.377 209.289 124.138C210.075 124.224 210.762 123.63 210.821 122.841V122.841C210.879 122.053 210.287 121.369 209.502 121.281C203.099 120.561 196.979 118.214 191.728 114.455C186.088 110.417 181.668 104.906 178.952 98.5234C176.236 92.1411 175.329 85.1344 176.33 78.271C177.332 71.4075 180.203 64.952 184.628 59.6115C189.054 54.271 194.865 50.2516 201.423 47.9935C207.981 45.7354 215.034 45.3257 221.81 46.8094C228.586 48.2931 234.822 51.6128 239.836 56.405C244.506 60.8671 247.947 66.4456 249.844 72.6027C250.076 73.3582 250.858 73.8131 251.622 73.6092V73.6092Z" fill="url(#paint2_angular_3018_180)"/>
<line y1="-0.5" x2="19.5121" y2="-0.5" transform="matrix(0.190159 -0.981753 0.974166 0.225832 220 46)" stroke="black"/>
<ellipse cx="224.179" cy="23.7719" rx="3.68102" ry="3.54086" transform="rotate(67 224.179 23.7719)" fill="black"/>
<line x1="198.258" y1="72.8594" x2="168.195" y2="61.319" stroke="black"/>
<circle cx="163.523" cy="59.2125" r="6" transform="rotate(-14 163.523 59.2125)" fill="black"/>
<path d="M225.965 144.08V131.28V80.08L214.829 86.5046V137.68L225.965 144.08Z" fill="black"/>
<path d="M205.997 155.6L225.965 144.08L214.829 137.68L194.861 149.2L205.997 155.6Z" fill="black"/>
<path d="M236.973 137.68L256.941 126.16L245.933 119.76L236.973 124.929V137.68Z" fill="black"/>
<path d="M205.997 91.6V78.8L194.861 72.4V85.2L205.997 91.6Z" fill="black"/>
<path d="M194.861 72.4L205.997 78.8L214.829 73.696V73.68L214.843 73.688L256.941 49.36L245.933 42.96L194.861 72.4Z" fill="black"/>
<path fill-rule="evenodd" clip-rule="evenodd" d="M225.965 80.08L214.829 86.5046L205.997 91.6V78.8L214.829 73.696V73.68L214.843 73.688L256.941 49.36V62.16L236.973 73.68V124.929V137.68L256.941 126.16V138.96L205.997 168.4V155.6L225.965 144.08V131.28V80.08Z" fill="black"/>
<path fill-rule="evenodd" clip-rule="evenodd" d="M225.965 80.08L214.829 86.5046L205.997 91.6V78.8L214.829 73.696V73.68L214.843 73.688L256.941 49.36V62.16L236.973 73.68V124.929V137.68L256.941 126.16V138.96L205.997 168.4V155.6L225.965 144.08V131.28V80.08Z" fill="url(#paint3_linear_3018_180)"/>
<path d="M205.997 168.4V155.6L194.861 149.2V162L205.997 168.4Z" fill="black"/>
<path d="M136.816 107.6V64.0798L125.68 70.5243V101.2L136.816 107.6Z" fill="black"/>
<path d="M136.816 146V120.4L125.68 126.844V139.6L136.816 146Z" fill="black"/>
<path d="M98.4075 168.4V117.2V86.4799C98.4075 84.1758 97.976 79.4747 99 77C100.024 74.44 101.625 73.5 104 71.5C106.5 69.5 107.5 68.5 109.543 67.2799L126.055 57.7243V57.6798L126.094 57.702L137.191 51.2798C138.857 50.3002 140.41 49.8126 141.85 49.817C142.956 49.8133 144.005 50.0876 144.999 50.6398L133.863 44.2399C131.645 42.9598 129.042 43.1732 126.055 44.8799L98.4075 60.8799C96.4448 61.9892 94.6102 63.6532 92.9035 65.8718C91.1968 68.0052 89.8315 70.3519 88.8075 72.9118C87.7835 75.3865 87.2715 77.7758 87.2715 80.0798V162L98.4075 168.4Z" fill="black"/>
<path fill-rule="evenodd" clip-rule="evenodd" d="M141.85 49.817C142.919 49.8203 143.551 50.0946 144.496 50.6398C146.8 51.9199 147.952 54.2665 147.952 57.6798V139.6L136.816 146V120.4L125.68 126.844L109.168 136.4V162L98.4075 168.4V117.2V86.4799C98.4075 84.1758 97.976 79.4747 99 77C100.024 74.44 101.625 73.5 104 71.5C106.5 69.5 107.5 68.5 109.543 67.2799L126.055 57.7243V57.6798L126.094 57.702L137.191 51.2798C138.857 50.3002 140.41 49.8126 141.85 49.817ZM136.816 64.0798L125.68 70.5243L109.168 80.0798V110.755V123.6L125.68 114.044V114L125.719 114.022L136.816 107.6V64.0798Z" fill="black"/>
<path fill-rule="evenodd" clip-rule="evenodd" d="M141.85 49.817C142.919 49.8203 143.551 50.0946 144.496 50.6398C146.8 51.9199 147.952 54.2665 147.952 57.6798V139.6L136.816 146V120.4L125.68 126.844L109.168 136.4V162L98.4075 168.4V117.2V86.4799C98.4075 84.1758 97.976 79.4747 99 77C100.024 74.44 101.625 73.5 104 71.5C106.5 69.5 107.5 68.5 109.543 67.2799L126.055 57.7243V57.6798L126.094 57.702L137.191 51.2798C138.857 50.3002 140.41 49.8126 141.85 49.817ZM136.816 64.0798L125.68 70.5243L109.168 80.0798V110.755V123.6L125.68 114.044V114L125.719 114.022L136.816 107.6V64.0798Z" fill="url(#paint4_linear_3018_180)"/>
<path d="M136.816 107.6L125.68 101.2L109.168 110.755V123.6L125.68 114.044V114L125.719 114.022L136.816 107.6Z" fill="black"/>
<path d="M184.136 73.1714C183.554 72.9881 182.931 73.3115 182.768 73.9003C181.527 78.3834 181.286 83.089 182.066 87.6837C182.909 92.6424 184.917 97.3299 187.926 101.36C190.935 105.391 194.859 108.648 199.373 110.865C203.888 113.082 208.865 114.194 213.894 114.111C218.923 114.027 223.86 112.75 228.299 110.384C232.737 108.019 236.55 104.633 239.424 100.505C242.297 96.3765 244.149 91.6248 244.826 86.6409C245.453 82.0228 245.056 77.3278 243.667 72.8884C243.485 72.3053 242.851 72.0028 242.275 72.2054V72.2054C241.699 72.408 241.398 73.039 241.579 73.6225C242.852 77.7308 243.214 82.0723 242.634 86.3431C242.004 90.9796 240.281 95.4002 237.608 99.2406C234.935 103.081 231.388 106.231 227.258 108.432C223.129 110.633 218.536 111.821 213.857 111.899C209.179 111.976 204.549 110.941 200.349 108.879C196.148 106.817 192.498 103.786 189.699 100.037C186.9 96.2872 185.031 91.9263 184.248 87.3132C183.526 83.0641 183.743 78.713 184.88 74.5646C185.041 73.9754 184.719 73.3548 184.136 73.1714V73.1714Z" fill="url(#paint5_angular_3018_180)"/>
<line y1="-0.5" x2="28.2727" y2="-0.5" transform="matrix(-0.576022 -0.817434 0.796993 -0.603989 196 48)" stroke="black"/>
<ellipse cx="177.143" cy="21.3333" rx="5.14286" ry="5.33333" fill="black"/>
<circle cx="142" cy="136" r="4" fill="black"/>
<circle cx="143" cy="112" r="2" fill="black"/>
<circle cx="142" cy="56" r="4" fill="black"/>
<line x1="142.5" y1="59" x2="142.5" y2="135" stroke="black"/>
<ellipse cx="104" cy="156.137" rx="4" ry="3.86364" fill="black"/>
<ellipse cx="104" cy="130.932" rx="2" ry="1.93182" fill="black"/>
<ellipse cx="104" cy="78.8636" rx="4" ry="3.86364" fill="black"/>
<line x1="104.5" y1="81.7612" x2="104.5" y2="155.17" stroke="black"/>
<ellipse cx="232" cy="146.864" rx="4" ry="3.86364" fill="black"/>
<ellipse cx="231" cy="106.932" rx="2" ry="1.93182" fill="black"/>
<ellipse cx="231" cy="71.8636" rx="4" ry="3.86364" fill="black"/>
<line x1="231.5" y1="72" x2="231.5" y2="145.409" stroke="black"/>
<defs>
<filter id="filter0_d_3018_180" x="0" y="1" width="344" height="344" filterUnits="userSpaceOnUse" color-interpolation-filters="sRGB">
<feFlood flood-opacity="0" result="BackgroundImageFix"/>
<feColorMatrix in="SourceAlpha" type="matrix" values="0 0 0 0 0 0 0 0 0 0 0 0 0 0 0 0 0 0 127 0" result="hardAlpha"/>
<feOffset dy="4"/>
<feGaussianBlur stdDeviation="2"/>
<feComposite in2="hardAlpha" operator="out"/>
<feColorMatrix type="matrix" values="0 0 0 0 0 0 0 0 0 0 0 0 0 0 0 0 0 0 0.25 0"/>
<feBlend mode="normal" in2="BackgroundImageFix" result="effect1_dropShadow_3018_180"/>
<feBlend mode="normal" in="SourceGraphic" in2="effect1_dropShadow_3018_180" result="shape"/>
</filter>
<filter id="filter1_d_3018_180" x="0" y="1" width="344" height="344" filterUnits="userSpaceOnUse" color-interpolation-filters="sRGB">
<feFlood flood-opacity="0" result="BackgroundImageFix"/>
<feColorMatrix in="SourceAlpha" type="matrix" values="0 0 0 0 0 0 0 0 0 0 0 0 0 0 0 0 0 0 127 0" result="hardAlpha"/>
<feOffset dy="4"/>
<feGaussianBlur stdDeviation="2"/>
<feComposite in2="hardAlpha" operator="out"/>
<feColorMatrix type="matrix" values="0 0 0 0 0 0 0 0 0 0 0 0 0 0 0 0 0 0 0.25 0"/>
<feBlend mode="normal" in2="BackgroundImageFix" result="effect1_dropShadow_3018_180"/>
<feBlend mode="normal" in="SourceGraphic" in2="effect1_dropShadow_3018_180" result="shape"/>
</filter>
<linearGradient id="paint0_linear_3018_180" x1="172.103" y1="337" x2="172.103" y2="127" gradientUnits="userSpaceOnUse">
<stop stop-color="#F60074"/>
<stop offset="0.525" stop-color="#F301A7"/>
<stop offset="1" stop-color="#CE54B9"/>
</linearGradient>
<linearGradient id="paint1_linear_3018_180" x1="172.103" y1="337" x2="172.103" y2="127" gradientUnits="userSpaceOnUse">
<stop stop-color="#F60074"/>
<stop offset="0.525" stop-color="#F301A7"/>
<stop offset="1" stop-color="#CE54B9"/>
</linearGradient>
<radialGradient id="paint2_angular_3018_180" cx="0" cy="0" r="1" gradientUnits="userSpaceOnUse" gradientTransform="translate(213.726 83.7262) rotate(87) scale(40.6542)">
<stop stop-color="#6511A5"/>
<stop offset="0.85481" stop-color="#C63DAE"/>
<stop offset="1" stop-color="#D644AF"/>
</radialGradient>
<linearGradient id="paint3_linear_3018_180" x1="172" y1="-2.7198e-05" x2="172" y2="210" gradientUnits="userSpaceOnUse">
<stop stop-color="#F60074"/>
<stop offset="0.525" stop-color="#F301A7"/>
<stop offset="1" stop-color="#CE54B9"/>
</linearGradient>
<linearGradient id="paint4_linear_3018_180" x1="172.002" y1="-0.000148125" x2="172.002" y2="210" gradientUnits="userSpaceOnUse">
<stop stop-color="#F60074"/>
<stop offset="0.525" stop-color="#F301A7"/>
<stop offset="1" stop-color="#CE54B9"/>
</linearGradient>
<radialGradient id="paint5_angular_3018_180" cx="0" cy="0" r="1" gradientUnits="userSpaceOnUse" gradientTransform="translate(213.367 82.3666) rotate(87) scale(31.7485)">
<stop stop-color="#6511A5"/>
<stop offset="0.85481" stop-color="#C63DAE"/>
<stop offset="1" stop-color="#D644AF"/>
</radialGradient>
</defs>
</svg>
