<svg width="336" height="336" viewBox="0 0 336 336" fill="none" xmlns="http://www.w3.org/2000/svg">
<circle cx="168" cy="168" r="168" fill="white"/>
<path d="M155.93 140H150.328L158.864 115.273H165.601L174.125 140H168.523L162.329 120.923H162.136L155.93 140ZM155.58 130.281H168.813V134.362H155.58V130.281ZM182.329 115.273V140H177.101V115.273H182.329ZM161.899 156.273L166.885 164.7H167.078L172.089 156.273H177.993L170.447 168.636L178.162 181H172.15L167.078 172.56H166.885L161.814 181H155.826L163.565 168.636L155.971 156.273H161.899ZM28.3679 222H19.6023V197.273H28.4403C30.9276 197.273 33.0687 197.768 34.8636 198.758C36.6586 199.74 38.0391 201.152 39.005 202.996C39.9789 204.839 40.4659 207.045 40.4659 209.612C40.4659 212.188 39.9789 214.402 39.005 216.253C38.0391 218.104 36.6506 219.525 34.8395 220.515C33.0365 221.505 30.8793 222 28.3679 222ZM24.8303 217.521H28.1506C29.696 217.521 30.996 217.247 32.0504 216.7C33.1129 216.144 33.9098 215.287 34.4411 214.128C34.9804 212.961 35.25 211.455 35.25 209.612C35.25 207.785 34.9804 206.292 34.4411 205.133C33.9098 203.974 33.117 203.121 32.0625 202.573C31.008 202.026 29.7081 201.752 28.1626 201.752H24.8303V217.521ZM49.5666 197.273V222H44.3386V197.273H49.5666ZM70.2642 205.266C70.0952 204.678 69.8577 204.159 69.5518 203.708C69.246 203.249 68.8717 202.863 68.429 202.549C67.9943 202.227 67.4953 201.982 66.9318 201.812C66.3764 201.643 65.7607 201.559 65.0845 201.559C63.8208 201.559 62.71 201.873 61.7521 202.501C60.8023 203.129 60.0618 204.042 59.5305 205.241C58.9993 206.433 58.7337 207.89 58.7337 209.612C58.7337 211.335 58.9953 212.8 59.5185 214.007C60.0417 215.214 60.7822 216.136 61.7401 216.772C62.6979 217.4 63.8288 217.714 65.1328 217.714C66.3161 217.714 67.3262 217.504 68.1634 217.086C69.0085 216.659 69.6525 216.06 70.0952 215.287C70.5459 214.514 70.7713 213.601 70.7713 212.546L71.8338 212.703H65.4588V208.767H75.8061V211.882C75.8061 214.055 75.3473 215.923 74.4297 217.484C73.5121 219.038 72.2483 220.237 70.6385 221.082C69.0286 221.92 67.1854 222.338 65.1087 222.338C62.7905 222.338 60.754 221.827 58.9993 220.805C57.2446 219.774 55.8762 218.313 54.8942 216.422C53.9202 214.522 53.4332 212.268 53.4332 209.661C53.4332 207.656 53.723 205.869 54.3026 204.3C54.8902 202.722 55.7112 201.386 56.7656 200.291C57.8201 199.196 59.0476 198.363 60.4482 197.792C61.8487 197.22 63.366 196.935 65 196.935C66.4006 196.935 67.7045 197.14 68.9119 197.55C70.1193 197.953 71.1899 198.524 72.1236 199.265C73.0653 200.005 73.834 200.887 74.4297 201.909C75.0253 202.923 75.4077 204.042 75.5767 205.266H70.2642ZM84.9611 197.273V222H79.7331V197.273H84.9611ZM88.3207 201.583V197.273H108.629V201.583H101.059V222H95.891V201.583H88.3207ZM113.214 222H107.612L116.148 197.273H122.885L131.409 222H125.807L119.613 202.923H119.42L113.214 222ZM112.864 212.281H126.097V216.362H112.864V212.281ZM134.385 222V197.273H139.613V217.69H150.214V222H134.385ZM177.942 205.266C177.773 204.678 177.535 204.159 177.23 203.708C176.924 203.249 176.549 202.863 176.107 202.549C175.672 202.227 175.173 201.982 174.61 201.812C174.054 201.643 173.438 201.559 172.762 201.559C171.499 201.559 170.388 201.873 169.43 202.501C168.48 203.129 167.74 204.042 167.208 205.241C166.677 206.433 166.411 207.89 166.411 209.612C166.411 211.335 166.673 212.8 167.196 214.007C167.719 215.214 168.46 216.136 169.418 216.772C170.376 217.4 171.507 217.714 172.811 217.714C173.994 217.714 175.004 217.504 175.841 217.086C176.686 216.659 177.33 216.06 177.773 215.287C178.224 214.514 178.449 213.601 178.449 212.546L179.512 212.703H173.137V208.767H183.484V211.882C183.484 214.055 183.025 215.923 182.107 217.484C181.19 219.038 179.926 220.237 178.316 221.082C176.706 221.92 174.863 222.338 172.786 222.338C170.468 222.338 168.432 221.827 166.677 220.805C164.922 219.774 163.554 218.313 162.572 216.422C161.598 214.522 161.111 212.268 161.111 209.661C161.111 207.656 161.401 205.869 161.98 204.3C162.568 202.722 163.389 201.386 164.443 200.291C165.498 199.196 166.725 198.363 168.126 197.792C169.526 197.22 171.044 196.935 172.678 196.935C174.078 196.935 175.382 197.14 176.59 197.55C177.797 197.953 178.868 198.524 179.801 199.265C180.743 200.005 181.512 200.887 182.107 201.909C182.703 202.923 183.085 204.042 183.254 205.266H177.942ZM187.411 222V197.273H197.167C199.034 197.273 200.628 197.607 201.948 198.275C203.276 198.935 204.286 199.873 204.978 201.088C205.679 202.295 206.029 203.716 206.029 205.35C206.029 206.992 205.675 208.405 204.966 209.588C204.258 210.763 203.232 211.665 201.887 212.293C200.551 212.92 198.933 213.234 197.034 213.234H190.502V209.033H196.189C197.187 209.033 198.016 208.896 198.676 208.622C199.336 208.348 199.827 207.938 200.149 207.391C200.479 206.843 200.644 206.163 200.644 205.35C200.644 204.529 200.479 203.837 200.149 203.273C199.827 202.71 199.332 202.283 198.664 201.994C198.004 201.696 197.171 201.547 196.164 201.547H192.639V222H187.411ZM200.765 210.747L206.91 222H201.139L195.126 210.747H200.765ZM232.446 209.636C232.446 212.333 231.935 214.627 230.913 216.518C229.899 218.41 228.514 219.855 226.76 220.853C225.013 221.843 223.049 222.338 220.868 222.338C218.67 222.338 216.698 221.839 214.951 220.841C213.205 219.843 211.824 218.398 210.81 216.506C209.796 214.615 209.289 212.325 209.289 209.636C209.289 206.94 209.796 204.646 210.81 202.754C211.824 200.863 213.205 199.422 214.951 198.432C216.698 197.434 218.67 196.935 220.868 196.935C223.049 196.935 225.013 197.434 226.76 198.432C228.514 199.422 229.899 200.863 230.913 202.754C231.935 204.646 232.446 206.94 232.446 209.636ZM227.146 209.636C227.146 207.89 226.884 206.417 226.361 205.217C225.846 204.018 225.118 203.108 224.176 202.489C223.234 201.869 222.131 201.559 220.868 201.559C219.604 201.559 218.501 201.869 217.559 202.489C216.618 203.108 215.885 204.018 215.362 205.217C214.847 206.417 214.589 207.89 214.589 209.636C214.589 211.383 214.847 212.856 215.362 214.055C215.885 215.255 216.618 216.164 217.559 216.784C218.501 217.404 219.604 217.714 220.868 217.714C222.131 217.714 223.234 217.404 224.176 216.784C225.118 216.164 225.846 215.255 226.361 214.055C226.884 212.856 227.146 211.383 227.146 209.636ZM240.955 222L233.88 197.273H239.591L243.684 214.454H243.889L248.405 197.273H253.295L257.798 214.49H258.016L262.109 197.273H267.82L260.744 222H255.649L250.941 205.833H250.747L246.051 222H240.955ZM269.676 201.583V197.273H289.984V201.583H282.414V222H277.246V201.583H269.676ZM293.329 222V197.273H298.557V207.475H309.17V197.273H314.386V222H309.17V211.786H298.557V222H293.329Z" fill="black"/>
</svg>
