<svg width="336" height="336" viewBox="0 0 336 336" fill="none" xmlns="http://www.w3.org/2000/svg">
<circle cx="168" cy="168" r="168" fill="white"/>
<circle cx="168" cy="168" r="168" fill="white"/>
<path d="M91.0178 185C89.1618 185 87.5138 184.568 86.0738 183.704C84.6658 182.808 83.5618 181.64 82.7618 180.2C81.9618 178.76 81.5618 177.192 81.5618 175.496C81.5618 173.96 81.9138 172.52 82.6178 171.176C83.3538 169.832 84.4098 168.776 85.7858 168.008C84.4418 167.144 83.4178 166.072 82.7138 164.792C82.0098 163.512 81.6578 162.168 81.6578 160.76C81.6578 159.032 82.0578 157.464 82.8578 156.056C83.6898 154.648 84.8098 153.528 86.2178 152.696C87.6258 151.832 89.1778 151.4 90.8738 151.4H104.17V155.48H91.4018C90.4098 155.48 89.5298 155.72 88.7618 156.2C87.9938 156.68 87.3858 157.32 86.9378 158.12C86.4898 158.888 86.2658 159.768 86.2658 160.76C86.2658 161.688 86.4898 162.536 86.9378 163.304C87.4178 164.072 88.0578 164.696 88.8578 165.176C89.6578 165.624 90.5378 165.848 91.4978 165.848H102.394V169.928H91.8338C90.6498 169.928 89.6258 170.2 88.7618 170.744C87.9298 171.256 87.2738 171.944 86.7938 172.808C86.3458 173.64 86.1218 174.536 86.1218 175.496C86.1218 176.456 86.3458 177.352 86.7938 178.184C87.2418 179.016 87.8818 179.688 88.7138 180.2C89.5458 180.68 90.5218 180.92 91.6418 180.92H104.17V185H91.0178ZM132.465 185.576C130.673 185.576 129.089 185.176 127.713 184.376C126.369 183.544 125.313 182.424 124.545 181.016C123.777 179.608 123.393 178.024 123.393 176.264V159.512C123.393 158.648 123.185 157.864 122.769 157.16C122.353 156.456 121.793 155.896 121.089 155.48C120.385 155.064 119.617 154.856 118.785 154.856C117.953 154.856 117.185 155.064 116.481 155.48C115.809 155.896 115.265 156.456 114.849 157.16C114.465 157.864 114.273 158.648 114.273 159.512V185H109.665V160.136C109.665 158.376 110.049 156.792 110.817 155.384C111.585 153.976 112.657 152.872 114.033 152.072C115.409 151.24 116.993 150.824 118.785 150.824C120.609 150.824 122.209 151.24 123.585 152.072C124.961 152.872 126.033 153.976 126.801 155.384C127.569 156.792 127.953 158.376 127.953 160.136V176.888C127.953 177.752 128.161 178.536 128.577 179.24C128.993 179.944 129.537 180.504 130.209 180.92C130.913 181.336 131.665 181.544 132.465 181.544C133.265 181.544 134.001 181.336 134.673 180.92C135.345 180.504 135.873 179.944 136.257 179.24C136.673 178.536 136.881 177.752 136.881 176.888V151.4H141.489V176.264C141.489 178.024 141.105 179.608 140.337 181.016C139.569 182.424 138.513 183.544 137.169 184.376C135.825 185.176 134.257 185.576 132.465 185.576ZM165.044 185C163.22 185 161.636 184.616 160.292 183.848C158.98 183.048 157.956 181.976 157.22 180.632C156.516 179.256 156.164 177.72 156.164 176.024V155.48H145.94V151.4H170.996V155.48H160.772V176.6C160.772 177.848 161.156 178.888 161.924 179.72C162.724 180.52 163.78 180.92 165.092 180.92H167.3V185H165.044ZM170.291 185L181.715 154.616C182.227 153.304 182.931 152.344 183.827 151.736C184.723 151.128 185.763 150.824 186.947 150.824C188.131 150.824 189.171 151.128 190.067 151.736C190.995 152.312 191.699 153.256 192.179 154.568L203.651 185H198.611L195.683 176.888H178.115L175.139 185H170.291ZM179.555 172.808H194.291L188.291 156.152C188.131 155.736 187.955 155.416 187.763 155.192C187.571 154.968 187.299 154.856 186.947 154.856C186.627 154.856 186.371 154.968 186.179 155.192C185.987 155.416 185.827 155.736 185.699 156.152L179.555 172.808ZM229.215 185.576C227.423 185.576 225.839 185.176 224.463 184.376C223.119 183.544 222.063 182.424 221.295 181.016C220.527 179.608 220.143 178.024 220.143 176.264V159.512C220.143 158.648 219.935 157.864 219.519 157.16C219.103 156.456 218.543 155.896 217.839 155.48C217.135 155.064 216.367 154.856 215.535 154.856C214.703 154.856 213.935 155.064 213.231 155.48C212.559 155.896 212.015 156.456 211.599 157.16C211.215 157.864 211.023 158.648 211.023 159.512V185H206.415V160.136C206.415 158.376 206.799 156.792 207.567 155.384C208.335 153.976 209.407 152.872 210.783 152.072C212.159 151.24 213.743 150.824 215.535 150.824C217.359 150.824 218.959 151.24 220.335 152.072C221.711 152.872 222.783 153.976 223.551 155.384C224.319 156.792 224.703 158.376 224.703 160.136V176.888C224.703 177.752 224.911 178.536 225.327 179.24C225.743 179.944 226.287 180.504 226.959 180.92C227.663 181.336 228.415 181.544 229.215 181.544C230.015 181.544 230.751 181.336 231.423 180.92C232.095 180.504 232.623 179.944 233.007 179.24C233.423 178.536 233.631 177.752 233.631 176.888V151.4H238.239V176.264C238.239 178.024 237.855 179.608 237.087 181.016C236.319 182.424 235.263 183.544 233.919 184.376C232.575 185.176 231.007 185.576 229.215 185.576ZM270.05 195.56C268.45 195.56 267.026 195.24 265.778 194.6C264.562 193.992 263.602 193.08 262.898 191.864C262.194 190.648 261.842 189.192 261.842 187.496C261.842 187.08 261.858 186.648 261.89 186.2C261.922 185.784 261.97 185.352 262.034 184.904C259.41 185.064 256.978 184.76 254.738 183.992C252.498 183.224 250.546 182.088 248.882 180.584C247.218 179.048 245.922 177.208 244.994 175.064C244.066 172.888 243.602 170.504 243.602 167.912C243.602 165.544 244.002 163.336 244.802 161.288C245.602 159.208 246.754 157.384 248.258 155.816C249.762 154.248 251.57 153.032 253.682 152.168C255.826 151.272 258.194 150.824 260.786 150.824C263.378 150.824 265.73 151.256 267.842 152.12C269.954 152.984 271.762 154.2 273.266 155.768C274.77 157.304 275.922 159.08 276.722 161.096C277.554 163.112 277.97 165.288 277.97 167.624V186.968C277.97 188.696 277.65 190.2 277.01 191.48C276.37 192.792 275.458 193.8 274.274 194.504C273.122 195.208 271.714 195.56 270.05 195.56ZM269.762 191.432C270.818 191.432 271.682 191.048 272.354 190.28C273.026 189.544 273.362 188.472 273.362 187.064V175.64C271.954 176.472 270.786 177.368 269.858 178.328C268.93 179.256 268.194 180.216 267.65 181.208C267.138 182.168 266.77 183.144 266.546 184.136C266.322 185.096 266.21 186.056 266.21 187.016C266.21 187.944 266.37 188.728 266.69 189.368C267.042 190.04 267.49 190.552 268.034 190.904C268.578 191.256 269.154 191.432 269.762 191.432ZM260.786 180.968C261.298 180.968 261.778 180.952 262.226 180.92C262.674 180.856 263.154 180.76 263.666 180.632C264.114 179.544 264.738 178.44 265.538 177.32C266.37 176.2 267.41 175.096 268.658 174.008C269.938 172.888 271.506 171.848 273.362 170.888V167.624C273.362 165.8 273.042 164.12 272.402 162.584C271.794 161.016 270.914 159.672 269.762 158.552C268.642 157.4 267.314 156.504 265.778 155.864C264.242 155.192 262.578 154.856 260.786 154.856C258.962 154.856 257.282 155.192 255.746 155.864C254.242 156.504 252.914 157.416 251.762 158.6C250.642 159.784 249.762 161.176 249.122 162.776C248.514 164.344 248.21 166.056 248.21 167.912C248.21 169.768 248.514 171.496 249.122 173.096C249.762 174.664 250.642 176.04 251.762 177.224C252.914 178.408 254.242 179.336 255.746 180.008C257.282 180.648 258.962 180.968 260.786 180.968ZM293.247 185C291.423 185 289.839 184.616 288.495 183.848C287.183 183.048 286.159 181.976 285.423 180.632C284.719 179.256 284.367 177.72 284.367 176.024V151.4H288.975V176.6C288.975 177.848 289.359 178.888 290.127 179.72C290.927 180.52 291.967 180.92 293.247 180.92H302.271V185H293.247ZM315.455 185C313.599 185 311.951 184.568 310.511 183.704C309.103 182.808 307.999 181.64 307.199 180.2C306.399 178.76 305.999 177.192 305.999 175.496C305.999 173.96 306.351 172.52 307.055 171.176C307.791 169.832 308.847 168.776 310.223 168.008C308.879 167.144 307.855 166.072 307.151 164.792C306.447 163.512 306.095 162.168 306.095 160.76C306.095 159.032 306.495 157.464 307.295 156.056C308.127 154.648 309.247 153.528 310.655 152.696C312.063 151.832 313.615 151.4 315.311 151.4H328.607V155.48H315.839C314.847 155.48 313.967 155.72 313.199 156.2C312.431 156.68 311.823 157.32 311.375 158.12C310.927 158.888 310.703 159.768 310.703 160.76C310.703 161.688 310.927 162.536 311.375 163.304C311.855 164.072 312.495 164.696 313.295 165.176C314.095 165.624 314.975 165.848 315.935 165.848H326.831V169.928H316.271C315.087 169.928 314.063 170.2 313.199 170.744C312.367 171.256 311.711 171.944 311.231 172.808C310.783 173.64 310.559 174.536 310.559 175.496C310.559 176.456 310.783 177.352 311.231 178.184C311.679 179.016 312.319 179.688 313.151 180.2C313.983 180.68 314.959 180.92 316.079 180.92H328.607V185H315.455Z" fill="black"/>
<circle cx="32" cy="32" r="31" transform="matrix(-1 0 0 1 68 136)" stroke="black" stroke-width="2"/>
<circle cx="27" cy="27" r="24.5" transform="matrix(-1 0 0 1 63 141)" stroke="black" stroke-width="5"/>
<path d="M28.3177 153.936C49.817 145.436 58.8153 167.437 42.8146 171.436C36.3153 171.936 35.3133 163.937 29.317 163.937C23.8133 164.437 23.3133 171.436 29.317 171.936C35.411 172.444 36.1071 162.436 42.8159 162.936C49.5236 163.436 57.773 178.5 42.317 184.936C37.8485 186.797 30.1172 187.136 25.3172 181.936" stroke="black" stroke-width="4" stroke-linecap="round"/>
</svg>
