<svg width="344" height="344" viewBox="0 0 344 344" fill="none" xmlns="http://www.w3.org/2000/svg">
<g filter="url(#filter0_d_3013_267)">
<circle cx="172" cy="168" r="168" fill="white"/>
</g>
<path d="M87.0343 233.44C88.2343 233.44 89.1863 232.952 89.8903 231.976C90.5943 231 91.0503 229.816 91.2583 228.424H92.7463C92.5223 230.152 91.9543 231.624 91.0423 232.84C90.5303 233.512 89.9463 234.016 89.2903 234.352C88.6503 234.672 87.9383 234.88 87.1543 234.976C86.3863 235.072 85.3783 235.12 84.1303 235.12C82.3703 235.12 80.9383 234.952 79.8343 234.616C78.7463 234.264 77.8103 233.696 77.0263 232.912C75.4903 231.376 74.7223 229.264 74.7223 226.576C74.7223 223.744 75.4103 221.64 76.7863 220.264C77.6823 219.368 78.6823 218.776 79.7863 218.488C80.8903 218.2 82.3383 218.056 84.1303 218.056C85.7783 218.056 87.1143 218.176 88.1383 218.416C89.1783 218.64 90.0263 219.128 90.6823 219.88C91.2263 220.504 91.6503 221.256 91.9543 222.136C92.2583 223.016 92.4343 223.888 92.4823 224.752H91.1143C91.0503 224.032 90.8743 223.296 90.5863 222.544C90.3143 221.776 89.8823 221.12 89.2903 220.576C88.6983 220.016 87.9463 219.736 87.0343 219.736C86.1703 219.736 85.4743 220.112 84.9463 220.864C84.4823 221.456 84.1303 222.328 83.8903 223.48C83.7143 224.36 83.6263 225.392 83.6263 226.576C83.6263 228.448 83.8503 229.96 84.2983 231.112C84.8743 232.664 85.7863 233.44 87.0343 233.44ZM100.638 218.2H116.694C117.478 218.2 118.198 218.4 118.854 218.8C119.526 219.184 120.054 219.712 120.438 220.384C120.838 221.04 121.038 221.76 121.038 222.544C121.038 223.584 120.718 224.528 120.078 225.376C119.438 226.224 118.63 226.768 117.654 227.008C118.518 227.248 119.222 227.704 119.766 228.376C120.326 229.048 120.606 229.808 120.606 230.656V235H112.566V229.792C112.566 229.28 112.47 228.88 112.278 228.592C112.054 228.256 111.798 228.008 111.51 227.848C111.19 227.672 110.83 227.544 110.43 227.464C110.014 227.384 109.622 227.336 109.254 227.32L108.606 227.296V235H100.638V218.2ZM109.446 225.904C110.022 225.904 110.55 225.768 111.03 225.496C111.526 225.208 111.91 224.824 112.182 224.344C112.47 223.848 112.614 223.32 112.614 222.76C112.614 222.184 112.47 221.656 112.182 221.176C111.91 220.68 111.526 220.288 111.03 220C110.55 219.712 110.022 219.568 109.446 219.568H108.606V225.928L109.446 225.904ZM134.711 218.2H141.719L149.159 235H140.087L137.567 229.432H132.287L130.127 235H128.375L134.711 218.2ZM136.895 227.968L134.711 223.096L132.815 227.968H136.895ZM156.828 218.2H174.252V219.616H165.252V225.832H169.668V227.272H165.252V235H156.828V218.2ZM188.489 219.616H182.177V218.2H203.225V219.616H196.889V235H188.489V219.616ZM211.119 218.2H218.943V235H211.119V218.2ZM227.027 218.2H234.083L241.091 226.6V218.2H242.531V235H236.891L228.491 223.816V235H227.027V218.2ZM250.598 226.576C250.598 223.744 251.294 221.64 252.686 220.264C253.582 219.368 254.582 218.776 255.686 218.488C256.79 218.2 258.238 218.056 260.03 218.056C261.694 218.056 263.03 218.176 264.038 218.416C265.062 218.64 265.902 219.128 266.558 219.88C267.102 220.504 267.526 221.264 267.83 222.16C268.15 223.04 268.334 223.904 268.382 224.752H267.014C266.95 224.032 266.774 223.296 266.486 222.544C266.214 221.776 265.782 221.12 265.19 220.576C264.598 220.016 263.846 219.736 262.934 219.736C262.086 219.736 261.382 220.112 260.822 220.864C260.342 221.52 259.998 222.392 259.79 223.48C259.598 224.44 259.502 225.472 259.502 226.576C259.502 228.384 259.726 229.896 260.174 231.112C260.766 232.664 261.686 233.44 262.934 233.44V226.792H270.278V235C267.974 235 265.366 235.032 262.454 235.096L260.03 235.12C258.27 235.12 256.838 234.952 255.734 234.616C254.646 234.264 253.71 233.696 252.926 232.912C251.374 231.36 250.598 229.248 250.598 226.576ZM136.676 258.296L131.468 249.2H140.876L144.332 256.064L147.692 249.2H149.54L145.076 258.296V266H136.676V258.296ZM166.299 266.12C164.155 266.12 162.219 265.792 160.491 265.136C158.763 264.48 157.395 263.512 156.387 262.232C155.395 260.936 154.899 259.384 154.899 257.576C154.899 255.784 155.403 254.248 156.411 252.968C157.419 251.688 158.779 250.72 160.491 250.064C162.219 249.392 164.155 249.056 166.299 249.056C168.427 249.056 170.347 249.392 172.059 250.064C173.787 250.72 175.147 251.688 176.139 252.968C177.147 254.248 177.651 255.784 177.651 257.576C177.651 259.384 177.147 260.936 176.139 262.232C175.147 263.512 173.787 264.48 172.059 265.136C170.347 265.792 168.427 266.12 166.299 266.12ZM166.299 264.704C166.971 264.704 167.467 264.4 167.787 263.792C168.059 263.328 168.243 262.504 168.339 261.32C168.387 260.696 168.411 259.448 168.411 257.576C168.411 255.688 168.371 254.352 168.291 253.568C168.243 252.608 168.067 251.88 167.763 251.384C167.443 250.776 166.955 250.472 166.299 250.472C165.627 250.472 165.123 250.776 164.787 251.384C164.515 251.864 164.339 252.592 164.259 253.568C164.195 254.4 164.163 255.736 164.163 257.576C164.163 259.656 164.187 260.904 164.235 261.32C164.299 262.424 164.475 263.248 164.763 263.792C165.099 264.4 165.611 264.704 166.299 264.704ZM193.78 266.12C190.884 266.12 188.812 265.696 187.564 264.848C186.332 264 185.716 262.704 185.716 260.96V249.2H194.884V260.96C194.884 262.096 195.132 262.928 195.628 263.456C196.14 263.968 196.812 264.224 197.644 264.224C199.5 264.224 200.428 263.136 200.428 260.96V249.2H201.844V260.96C201.844 262.32 201.556 263.376 200.98 264.128C200.404 264.864 199.54 265.384 198.388 265.688C197.236 265.976 195.7 266.12 193.78 266.12ZM209.897 249.2H225.953C226.737 249.2 227.457 249.4 228.113 249.8C228.785 250.184 229.313 250.712 229.697 251.384C230.097 252.04 230.297 252.76 230.297 253.544C230.297 254.584 229.977 255.528 229.337 256.376C228.697 257.224 227.889 257.768 226.913 258.008C227.777 258.248 228.481 258.704 229.025 259.376C229.585 260.048 229.865 260.808 229.865 261.656V266H221.825V260.792C221.825 260.28 221.729 259.88 221.537 259.592C221.313 259.256 221.057 259.008 220.769 258.848C220.449 258.672 220.089 258.544 219.689 258.464C219.273 258.384 218.881 258.336 218.513 258.32L217.865 258.296V266H209.897V249.2ZM218.705 256.904C219.281 256.904 219.809 256.768 220.289 256.496C220.785 256.208 221.169 255.824 221.441 255.344C221.729 254.848 221.873 254.32 221.873 253.76C221.873 253.184 221.729 252.656 221.441 252.176C221.169 251.68 220.785 251.288 220.289 251C219.809 250.712 219.281 250.568 218.705 250.568H217.865V256.928L218.705 256.904ZM116.456 280.2H132.464C133.28 280.2 134.024 280.4 134.696 280.8C135.384 281.184 135.928 281.72 136.328 282.408C136.728 283.08 136.928 283.824 136.928 284.64C136.928 285.424 136.736 286.168 136.352 286.872C135.968 287.576 135.456 288.144 134.816 288.576C135.456 289.024 135.968 289.608 136.352 290.328C136.736 291.032 136.928 291.776 136.928 292.56C136.928 293.36 136.728 294.104 136.328 294.792C135.928 295.464 135.384 296 134.696 296.4C134.024 296.8 133.28 297 132.464 297H116.456V280.2ZM125.24 287.904C125.816 287.904 126.344 287.768 126.824 287.496C127.32 287.208 127.704 286.824 127.976 286.344C128.264 285.848 128.408 285.32 128.408 284.76C128.408 284.184 128.264 283.656 127.976 283.176C127.704 282.68 127.32 282.288 126.824 282C126.344 281.712 125.816 281.568 125.24 281.568H124.88V287.88C124.96 287.896 125.08 287.904 125.24 287.904ZM125.24 295.608C125.816 295.608 126.344 295.472 126.824 295.2C127.32 294.912 127.704 294.528 127.976 294.048C128.264 293.552 128.408 293.016 128.408 292.44C128.408 291.88 128.264 291.36 127.976 290.88C127.704 290.384 127.32 290 126.824 289.728C126.344 289.44 125.816 289.296 125.24 289.296H124.88V295.584C124.96 295.6 125.08 295.608 125.24 295.608ZM145.085 280.2H161.141C161.925 280.2 162.645 280.4 163.301 280.8C163.973 281.184 164.501 281.712 164.885 282.384C165.285 283.04 165.485 283.76 165.485 284.544C165.485 285.584 165.165 286.528 164.525 287.376C163.885 288.224 163.077 288.768 162.101 289.008C162.965 289.248 163.669 289.704 164.213 290.376C164.773 291.048 165.053 291.808 165.053 292.656V297H157.013V291.792C157.013 291.28 156.917 290.88 156.725 290.592C156.501 290.256 156.245 290.008 155.957 289.848C155.637 289.672 155.277 289.544 154.877 289.464C154.461 289.384 154.069 289.336 153.701 289.32L153.053 289.296V297H145.085V280.2ZM153.893 287.904C154.469 287.904 154.997 287.768 155.477 287.496C155.973 287.208 156.357 286.824 156.629 286.344C156.917 285.848 157.061 285.32 157.061 284.76C157.061 284.184 156.917 283.656 156.629 283.176C156.357 282.68 155.973 282.288 155.477 282C154.997 281.712 154.469 281.568 153.893 281.568H153.053V287.928L153.893 287.904ZM179.159 280.2H186.167L193.607 297H184.535L182.015 291.432H176.735L174.575 297H172.823L179.159 280.2ZM181.343 289.968L179.159 285.096L177.263 289.968H181.343ZM201.275 280.2H208.331L215.339 288.6V280.2H216.779V297H211.139L202.739 285.816V297H201.275V280.2ZM224.847 280.2H237.471C239.759 280.2 241.735 281.016 243.399 282.648C245.047 284.296 245.871 286.272 245.871 288.576C245.871 290.912 245.047 292.904 243.399 294.552C241.751 296.184 239.775 297 237.471 297H224.847V280.2ZM234.687 295.608C235.599 295.608 236.255 295.312 236.655 294.72C237.039 294.144 237.279 293.328 237.375 292.272C237.455 291.584 237.495 290.352 237.495 288.576C237.495 287.2 237.447 285.888 237.351 284.64C237.255 283.696 237.015 282.976 236.631 282.48C236.231 281.888 235.583 281.592 234.687 281.592H233.247V295.608H234.687Z" fill="#021F6C"/>
<path d="M148.364 49L102 95.4852L103.364 179.341C164.273 129.666 151.545 100.954 148.364 81.8131C166.909 89.4695 196.697 85.0033 209.273 81.8131C199.818 103.324 205.333 129.969 209.273 140.603C162.455 126.931 124.727 170.226 111.091 188H197L242 140.603V49H148.364Z" fill="url(#paint0_linear_3013_267)"/>
<defs>
<filter id="filter0_d_3013_267" x="0" y="0" width="344" height="344" filterUnits="userSpaceOnUse" color-interpolation-filters="sRGB">
<feFlood flood-opacity="0" result="BackgroundImageFix"/>
<feColorMatrix in="SourceAlpha" type="matrix" values="0 0 0 0 0 0 0 0 0 0 0 0 0 0 0 0 0 0 127 0" result="hardAlpha"/>
<feOffset dy="4"/>
<feGaussianBlur stdDeviation="2"/>
<feComposite in2="hardAlpha" operator="out"/>
<feColorMatrix type="matrix" values="0 0 0 0 0 0 0 0 0 0 0 0 0 0 0 0 0 0 0.25 0"/>
<feBlend mode="normal" in2="BackgroundImageFix" result="effect1_dropShadow_3013_267"/>
<feBlend mode="normal" in="SourceGraphic" in2="effect1_dropShadow_3013_267" result="shape"/>
</filter>
<linearGradient id="paint0_linear_3013_267" x1="172" y1="49" x2="172" y2="185.721" gradientUnits="userSpaceOnUse">
<stop stop-color="#01FFFC"/>
<stop offset="1" stop-color="#0143F9"/>
</linearGradient>
</defs>
</svg>
