<svg width="336" height="336" viewBox="0 0 336 336" fill="none" xmlns="http://www.w3.org/2000/svg">
<circle cx="168" cy="168" r="168" fill="#EEDCC4"/>
<line x1="62.5613" y1="126.2" x2="143.961" y2="169.119" stroke="url(#paint0_linear_2906_202)"/>
<line x1="50.4032" y1="161.079" x2="141.027" y2="177.059" stroke="url(#paint1_linear_2906_202)"/>
<line x1="49.4907" y1="198.006" x2="140.66" y2="185.515" stroke="url(#paint2_linear_2906_202)"/>
<line x1="59.9109" y1="233.444" x2="142.897" y2="193.678" stroke="url(#paint3_linear_2906_202)"/>
<line x1="80.6642" y1="263.999" x2="147.52" y2="200.767" stroke="url(#paint4_linear_2906_202)"/>
<line x1="109.769" y1="286.746" x2="154.092" y2="206.103" stroke="url(#paint5_linear_2906_202)"/>
<line x1="144.433" y1="299.507" x2="161.98" y2="209.174" stroke="url(#paint6_linear_2906_202)"/>
<line x1="181.339" y1="301.059" x2="170.43" y2="209.687" stroke="url(#paint7_linear_2906_202)"/>
<line x1="216.952" y1="291.254" x2="178.63" y2="207.592" stroke="url(#paint8_linear_2906_202)"/>
<line x1="247.863" y1="271.031" x2="185.799" y2="203.09" stroke="url(#paint9_linear_2906_202)"/>
<line x1="271.111" y1="242.327" x2="191.247" y2="196.613" stroke="url(#paint10_linear_2906_202)"/>
<line x1="284.47" y1="207.889" x2="194.455" y2="188.78" stroke="url(#paint11_linear_2906_202)"/>
<line x1="286.66" y1="171.016" x2="195.112" y2="180.341" stroke="url(#paint12_linear_2906_202)"/>
<line x1="277.474" y1="135.239" x2="193.16" y2="172.105" stroke="url(#paint13_linear_2906_202)"/>
<line x1="257.79" y1="103.983" x2="188.784" y2="164.861" stroke="url(#paint14_linear_2906_202)"/>
<line x1="229.49" y1="80.2415" x2="182.399" y2="159.301" stroke="url(#paint15_linear_2906_202)"/>
<line x1="195.29" y1="66.2877" x2="174.624" y2="155.959" stroke="url(#paint16_linear_2906_202)"/>
<line x1="158.461" y1="63.4578" x2="166.199" y2="155.154" stroke="url(#paint17_linear_2906_202)"/>
<line x1="122.53" y1="72.023" x2="157.93" y2="156.963" stroke="url(#paint18_linear_2906_202)"/>
<line x1="90.9373" y1="91.1627" x2="150.61" y2="161.213" stroke="url(#paint19_linear_2906_202)"/>
<circle cx="167.5" cy="180.5" r="86.5" fill="#F1F5F6"/>
<path d="M110.697 230.803L208.12 208.311C218.176 190.313 230.607 193.028 236.803 197.385C237.454 197.843 237.232 198.807 236.463 199.012L221.486 203.012C220.965 203.151 220.648 203.678 220.77 204.203L224.551 220.583C224.677 221.129 225.227 221.465 225.771 221.328L241.941 217.246C242.708 217.053 243.374 217.787 243.061 218.513C236.965 232.656 219.953 227.437 211.929 222.858L114.393 245.376C113.339 245.619 112.282 244.98 112.008 243.934L109.213 233.258C108.927 232.168 109.599 231.057 110.697 230.803Z" fill="#107FC9"/>
<path d="M286.099 94.695C300.881 118.509 308.118 146.236 306.86 174.237C305.602 202.238 295.909 229.204 279.052 251.597L270.342 245.041C285.877 224.404 294.81 199.552 295.969 173.748C297.128 147.943 290.459 122.391 276.836 100.444L286.099 94.695Z" fill="#0D2657"/>
<path d="M56.8354 251.447C40.0085 229.031 30.3515 202.052 29.1317 174.049C27.9119 146.047 35.1863 118.33 50.0002 94.5354L59.2552 100.297C45.6032 122.226 38.8994 147.769 40.0235 173.575C41.1476 199.381 50.0472 224.244 65.5543 244.902L56.8354 251.447Z" fill="#FF4F2A"/>
<rect x="135.5" y="89.5" width="66" height="56" rx="5.5" fill="white" stroke="black" stroke-width="3"/>
<path d="M109.069 137.776C104.156 147.344 104.88 175.788 147.082 213.025H168.028V150.188C147.34 150.188 106.586 147.706 109.069 137.776Z" fill="#F6B43C"/>
<path d="M147.082 213.025V244.832C149.409 248.969 156.857 257.089 168.028 256.468V213.025H147.082Z" fill="#5B5A58"/>
<path d="M227.763 137C232.676 146.568 231.952 175.788 189.75 213.025H168.028L167.252 150.188C187.94 150.188 230.246 146.93 227.763 137Z" fill="#F6B43C"/>
<path d="M189.75 213.025V244.056C187.423 248.193 179.199 257.089 168.028 256.468V213.025H189.75Z" fill="#5B5A58"/>
<rect x="143.979" y="221.612" width="49.6492" height="3.10307" rx="1.55154" transform="rotate(-7 143.979 221.612)" fill="#D9D9D9"/>
<rect x="143.979" y="229.37" width="49.6492" height="3.10307" rx="1.55154" transform="rotate(-7 143.979 229.37)" fill="#D9D9D9"/>
<rect x="143.979" y="237.127" width="49.6492" height="3.10307" rx="1.55154" transform="rotate(-7 143.979 237.127)" fill="#D9D9D9"/>
<rect x="143.979" y="244.885" width="49.6492" height="3.10307" rx="1.55154" transform="rotate(-7 143.979 244.885)" fill="#D9D9D9"/>
<path d="M150.96 213.025L148.632 168.031C145.529 166.738 139.478 165.548 140.099 171.134C140.72 176.719 154.322 177.599 161.046 177.34C156.391 171.392 151.116 159.808 167.252 161.049" stroke="white"/>
<path d="M179.62 213.025L181.948 168.031C185.051 166.738 191.102 165.548 190.481 171.134C189.86 176.719 176.258 177.599 169.534 177.34C174.189 171.392 179.464 159.808 163.328 161.049" stroke="white"/>
<path d="M143.4 101L157.5 113.7" stroke="black" stroke-width="2" stroke-linecap="round"/>
<line x1="1" y1="-1" x2="19" y2="-1" transform="matrix(0.8 -0.6 -0.6 -0.8 142 124.2)" stroke="black" stroke-width="2" stroke-linecap="round"/>
<line x1="143" y1="128.2" x2="157" y2="128.2" stroke="black" stroke-width="2" stroke-linecap="round"/>
<path d="M120.718 37.396C119.134 36.868 117.934 36.376 117.118 35.92C116.302 35.464 115.894 35.092 115.894 34.804C115.894 34.54 115.918 34.264 115.966 33.976C116.014 33.688 116.062 33.268 116.11 32.716C116.158 32.164 116.182 31.372 116.182 30.34V23.14C116.182 21.556 116.242 20.272 116.362 19.288C116.506 18.28 116.65 17.5 116.794 16.948H115.57L113.77 14.536L114.058 13.96H117.298C118.234 13.96 119.098 13.948 119.89 13.924C120.682 13.876 121.27 13.852 121.654 13.852C122.206 13.852 122.854 14.056 123.598 14.464C124.342 14.848 125.062 15.34 125.758 15.94C126.478 16.54 127.078 17.164 127.558 17.812C128.038 18.436 128.278 19 128.278 19.504V23.32C128.278 25.192 127.942 26.596 127.27 27.532C126.598 28.444 125.494 28.9 123.958 28.9C123.31 28.9 122.626 28.84 121.906 28.72C121.186 28.6 120.49 28.432 119.818 28.216V31.132C119.818 32.164 119.782 32.992 119.71 33.616C119.662 34.216 119.638 34.684 119.638 35.02C119.638 35.428 120.154 35.872 121.186 36.352L120.718 37.396ZM122.878 16.948C122.518 16.948 122.134 16.96 121.726 16.984C121.342 17.008 120.934 17.056 120.502 17.128C120.31 17.776 120.142 18.58 119.998 19.54C119.878 20.5 119.818 21.616 119.818 22.888V25.84C120.274 25.936 120.802 25.984 121.402 25.984C122.65 25.984 123.502 25.66 123.958 25.012C124.414 24.364 124.642 23.344 124.642 21.952V18.748C124.642 18.1 124.522 17.644 124.282 17.38C124.042 17.092 123.574 16.948 122.878 16.948ZM135.906 37.072C134.322 36.544 133.122 36.052 132.306 35.596C131.49 35.14 131.082 34.768 131.082 34.48C131.082 34.216 131.106 33.94 131.154 33.652C131.202 33.364 131.25 32.944 131.298 32.392C131.346 31.84 131.37 31.048 131.37 30.016V23.176C131.37 21.592 131.43 20.308 131.55 19.324C131.694 18.316 131.838 17.536 131.982 16.984H130.758L128.958 14.572L129.246 13.996H132.63C133.374 13.972 134.118 13.948 134.862 13.924C135.63 13.876 136.23 13.852 136.662 13.852C137.31 13.852 138.018 14.044 138.786 14.428C139.578 14.812 140.322 15.304 141.018 15.904C141.738 16.504 142.326 17.128 142.782 17.776C143.238 18.4 143.466 18.952 143.466 19.432V22.636C143.466 24.7 142.566 26.176 140.766 27.064C142.662 28.096 143.61 29.176 143.61 30.304C143.61 30.832 143.598 31.48 143.574 32.248C143.55 33.016 143.538 33.676 143.538 34.228C143.538 34.612 143.67 34.936 143.934 35.2C144.198 35.44 144.642 35.728 145.266 36.064L144.726 37.144C143.118 36.448 141.882 35.848 141.018 35.344C140.154 34.84 139.722 34.288 139.722 33.688C139.722 33.088 139.746 32.452 139.794 31.78C139.842 31.084 139.866 30.508 139.866 30.052C139.866 29.236 139.53 28.612 138.858 28.18C138.186 27.724 137.118 27.496 135.654 27.496H135.006V30.808C135.006 31.84 134.97 32.668 134.898 33.292C134.85 33.892 134.826 34.36 134.826 34.696C134.826 35.104 135.342 35.548 136.374 36.028L135.906 37.072ZM138.462 16.984C138.006 16.984 137.538 17.008 137.058 17.056C136.602 17.08 136.134 17.128 135.654 17.2C135.486 17.848 135.33 18.652 135.186 19.612C135.066 20.548 135.006 21.652 135.006 22.924V24.472H137.238C138.078 24.472 138.726 24.184 139.182 23.608C139.662 23.008 139.902 22.156 139.902 21.052V19.072C139.902 18.304 139.794 17.764 139.578 17.452C139.362 17.14 138.99 16.984 138.462 16.984ZM154.599 36.712C153.975 36.712 153.219 36.556 152.331 36.244C151.467 35.908 150.603 35.488 149.739 34.984C148.899 34.48 148.191 33.964 147.615 33.436C147.063 32.884 146.787 32.38 146.787 31.924C146.787 31.3 146.823 30.508 146.895 29.548C146.967 28.564 147.003 27.532 147.003 26.452V18.964C147.003 17.02 147.459 15.652 148.371 14.86C149.307 14.068 150.759 13.672 152.727 13.672C153.399 13.672 154.143 13.876 154.959 14.284C155.775 14.692 156.555 15.208 157.299 15.832C158.067 16.432 158.691 17.068 159.171 17.74C159.675 18.412 159.927 19.012 159.927 19.54C159.927 19.996 159.915 20.68 159.891 21.592C159.891 22.48 159.879 23.488 159.855 24.616C159.831 25.72 159.807 26.824 159.783 27.928C159.783 29.032 159.783 30.016 159.783 30.88C159.783 32.776 159.339 34.228 158.451 35.236C157.587 36.22 156.303 36.712 154.599 36.712ZM151.827 33.436C153.483 33.436 154.611 33.04 155.211 32.248C155.811 31.456 156.111 30.148 156.111 28.324C156.111 27.988 156.111 27.484 156.111 26.812C156.135 26.14 156.159 25.396 156.183 24.58C156.231 23.74 156.267 22.912 156.291 22.096C156.315 21.256 156.327 20.512 156.327 19.864C156.351 19.216 156.363 18.736 156.363 18.424C156.363 17.92 156.243 17.56 156.003 17.344C155.763 17.128 155.355 17.02 154.779 17.02C153.651 17.02 152.787 17.14 152.187 17.38C151.587 17.62 151.179 17.98 150.963 18.46C150.771 18.94 150.675 19.564 150.675 20.332V28C150.675 29.152 150.639 30.1 150.567 30.844C150.519 31.588 150.495 32.104 150.495 32.392C150.495 33.088 150.939 33.436 151.827 33.436ZM169.686 36.496C168.654 36.496 167.658 36.412 166.698 36.244C165.762 36.052 164.982 35.824 164.358 35.56C163.758 35.272 163.458 34.996 163.458 34.732C163.458 34.108 163.518 33.172 163.638 31.924C163.782 30.676 163.854 29.116 163.854 27.244V23.176C163.854 21.592 163.914 20.308 164.034 19.324C164.178 18.316 164.322 17.536 164.466 16.984H163.242L161.442 14.572L161.73 13.996H164.754C165.81 13.996 166.806 13.984 167.742 13.96C168.678 13.936 169.458 13.924 170.082 13.924C170.73 13.924 171.426 14.14 172.17 14.572C172.938 14.98 173.646 15.508 174.294 16.156C174.966 16.78 175.506 17.44 175.914 18.136C176.346 18.832 176.562 19.468 176.562 20.044C176.562 21.508 176.526 23.008 176.454 24.544C176.406 26.08 176.382 27.736 176.382 29.512C176.382 31.456 176.106 32.932 175.554 33.94C175.002 34.948 174.222 35.632 173.214 35.992C172.23 36.328 171.054 36.496 169.686 36.496ZM171.27 17.128C170.694 17.128 170.154 17.152 169.65 17.2C169.17 17.224 168.654 17.296 168.102 17.416C167.934 18.04 167.79 18.82 167.67 19.756C167.55 20.668 167.49 21.724 167.49 22.924V28.144C167.49 29.512 167.466 30.616 167.418 31.456C167.394 32.296 167.334 33.004 167.238 33.58C167.526 33.652 167.874 33.688 168.282 33.688C169.722 33.688 170.814 33.268 171.558 32.428C172.302 31.564 172.674 30.076 172.674 27.964C172.674 26.74 172.698 25.54 172.746 24.364C172.794 23.164 172.83 22.084 172.854 21.124C172.902 20.164 172.926 19.432 172.926 18.928C172.926 18.304 172.794 17.848 172.53 17.56C172.29 17.272 171.87 17.128 171.27 17.128ZM187.436 36.712C186.812 36.712 186.08 36.556 185.24 36.244C184.4 35.908 183.572 35.488 182.756 34.984C181.964 34.48 181.304 33.964 180.776 33.436C180.248 32.884 179.984 32.38 179.984 31.924C179.984 31.3 180.02 30.424 180.092 29.296C180.164 28.168 180.2 26.62 180.2 24.652V22.996C180.2 21.844 180.248 20.716 180.344 19.612C180.44 18.508 180.62 17.632 180.884 16.984H179.588L177.824 14.572L178.076 13.996H182.684L184.7 16.804C184.436 17.548 184.22 18.46 184.052 19.54C183.908 20.62 183.836 21.832 183.836 23.176V24.904C183.836 26.728 183.824 28.144 183.8 29.152C183.776 30.16 183.752 30.904 183.728 31.384C183.704 31.864 183.692 32.2 183.692 32.392C183.692 33.088 184.136 33.436 185.024 33.436C186.512 33.436 187.532 33.04 188.084 32.248C188.66 31.456 188.948 30.148 188.948 28.324V22.996C188.948 21.844 188.996 20.716 189.092 19.612C189.188 18.508 189.368 17.632 189.632 16.984H188.336L186.572 14.572L186.824 13.996H191.432L193.448 16.804C193.184 17.548 192.968 18.46 192.8 19.54C192.656 20.62 192.584 21.832 192.584 23.176V30.88C192.584 34.768 190.868 36.712 187.436 36.712ZM204.455 36.712C203.783 36.712 202.991 36.556 202.079 36.244C201.167 35.908 200.267 35.488 199.379 34.984C198.515 34.48 197.795 33.952 197.219 33.4C196.667 32.848 196.391 32.344 196.391 31.888C196.391 31.264 196.427 30.472 196.499 29.512C196.595 28.528 196.643 27.496 196.643 26.416V20.188C196.643 17.836 197.123 16.168 198.083 15.184C199.067 14.176 200.423 13.672 202.151 13.672C202.871 13.672 203.603 13.864 204.347 14.248C205.115 14.632 205.823 15.112 206.471 15.688C207.143 16.264 207.683 16.864 208.091 17.488C208.499 18.112 208.703 18.664 208.703 19.144C208.703 19.696 208.667 20.32 208.595 21.016C208.523 21.688 208.403 22.312 208.235 22.888L204.671 22.06C204.767 21.484 204.851 20.872 204.923 20.224C205.019 19.576 205.067 18.904 205.067 18.208C205.067 17.416 204.647 17.02 203.807 17.02C202.751 17.02 201.911 17.32 201.287 17.92C200.663 18.496 200.351 19.492 200.351 20.908V27.856C200.351 29.056 200.315 30.016 200.243 30.736C200.195 31.456 200.171 31.96 200.171 32.248C200.171 33.088 200.603 33.508 201.467 33.508C202.595 33.508 203.519 33.244 204.239 32.716C204.959 32.188 205.583 31.348 206.111 30.196H206.543L209.531 31.924C209.027 33.46 208.331 34.648 207.443 35.488C206.579 36.304 205.583 36.712 204.455 36.712ZM219.286 36.928C217.702 36.4 216.502 35.908 215.686 35.452C214.87 34.996 214.462 34.624 214.462 34.336C214.462 34.072 214.486 33.796 214.534 33.508C214.582 33.22 214.63 32.8 214.678 32.248C214.726 31.696 214.75 30.904 214.75 29.872V21.304C214.75 19.456 214.882 18.016 215.146 16.984H214.642C214.114 16.984 213.598 17.092 213.094 17.308C212.614 17.524 212.266 17.764 212.05 18.028H211.294L208.954 14.572L209.206 13.996H222.418L224.146 16.516L222.346 18.028H221.734C221.278 17.596 220.87 17.32 220.51 17.2C220.174 17.056 219.718 16.984 219.142 16.984H218.962C218.578 17.968 218.386 19.348 218.386 21.124V30.664C218.386 31.696 218.35 32.524 218.278 33.148C218.23 33.748 218.206 34.216 218.206 34.552C218.206 34.96 218.722 35.404 219.754 35.884L219.286 36.928ZM90.655 83.496C89.623 83.496 88.627 83.412 87.667 83.244C86.731 83.052 85.951 82.824 85.327 82.56C84.727 82.272 84.427 81.996 84.427 81.732C84.427 81.108 84.487 80.172 84.607 78.924C84.751 77.676 84.823 76.116 84.823 74.244V70.176C84.823 68.592 84.883 67.308 85.003 66.324C85.147 65.316 85.291 64.536 85.435 63.984H84.211L82.411 61.572L82.699 60.996H85.723C86.779 60.996 87.775 60.984 88.711 60.96C89.647 60.936 90.427 60.924 91.051 60.924C91.699 60.924 92.395 61.14 93.139 61.572C93.907 61.98 94.615 62.508 95.263 63.156C95.935 63.78 96.475 64.44 96.883 65.136C97.315 65.832 97.531 66.468 97.531 67.044C97.531 68.508 97.495 70.008 97.423 71.544C97.375 73.08 97.351 74.736 97.351 76.512C97.351 78.456 97.075 79.932 96.523 80.94C95.971 81.948 95.191 82.632 94.183 82.992C93.199 83.328 92.023 83.496 90.655 83.496ZM92.239 64.128C91.663 64.128 91.123 64.152 90.619 64.2C90.139 64.224 89.623 64.296 89.071 64.416C88.903 65.04 88.759 65.82 88.639 66.756C88.519 67.668 88.459 68.724 88.459 69.924V75.144C88.459 76.512 88.435 77.616 88.387 78.456C88.363 79.296 88.303 80.004 88.207 80.58C88.495 80.652 88.843 80.688 89.251 80.688C90.691 80.688 91.783 80.268 92.527 79.428C93.271 78.564 93.643 77.076 93.643 74.964C93.643 73.74 93.667 72.54 93.715 71.364C93.763 70.164 93.799 69.084 93.823 68.124C93.871 67.164 93.895 66.432 93.895 65.928C93.895 65.304 93.763 64.848 93.499 64.56C93.259 64.272 92.839 64.128 92.239 64.128ZM109.017 83.28C106.161 83.28 104.061 83.088 102.717 82.704C101.373 82.296 100.701 81.984 100.701 81.768C100.701 81.288 100.785 80.388 100.953 79.068C101.145 77.748 101.241 76.092 101.241 74.1V69.528C101.265 68.136 101.337 66.996 101.457 66.108C101.577 65.196 101.709 64.488 101.853 63.984H100.629L98.829 61.572L99.117 60.996H110.781L112.797 63.588L111.033 65.136H110.277C110.013 64.704 109.701 64.404 109.341 64.236C109.005 64.068 108.513 63.984 107.865 63.984H105.597C105.429 64.632 105.261 65.448 105.093 66.432C104.949 67.416 104.877 68.58 104.877 69.924V70.428H109.701L111.321 73.02L110.853 73.56H104.877V75C104.877 76.032 104.853 76.92 104.805 77.664C104.781 78.384 104.721 79.116 104.625 79.86C105.009 79.932 105.477 79.992 106.029 80.04C106.581 80.064 107.193 80.076 107.865 80.076C108.513 80.076 109.137 80.052 109.737 80.004C110.361 79.956 110.937 79.896 111.465 79.824L113.121 82.668L112.689 83.28H109.017ZM123.458 83.748C123.194 83.748 122.786 83.592 122.234 83.28C121.706 82.944 121.142 82.548 120.542 82.092C119.966 81.612 119.462 81.156 119.03 80.724C118.622 80.292 118.394 79.98 118.346 79.788C117.77 77.052 117.29 74.832 116.906 73.128C116.546 71.4 116.258 70.044 116.042 69.06C115.85 68.052 115.718 67.284 115.646 66.756C115.574 66.204 115.538 65.736 115.538 65.352C115.538 64.824 115.598 64.368 115.718 63.984H114.71L113.054 61.572L113.306 60.996H118.202L119.894 63.516V63.984C119.366 64.248 118.994 64.56 118.778 64.92C118.586 65.28 118.49 65.784 118.49 66.432C118.49 66.648 118.514 66.96 118.562 67.368C118.634 67.752 118.754 68.376 118.922 69.24C119.09 70.104 119.342 71.352 119.678 72.984C120.014 74.616 120.458 76.788 121.01 79.5C121.586 77.556 122.222 75.216 122.918 72.48C123.614 69.744 124.334 66.912 125.078 63.984H123.566L121.946 61.572L122.198 60.996H127.022L129.038 63.984C128.798 64.8 128.51 65.844 128.174 67.116C127.838 68.388 127.478 69.768 127.094 71.256C126.734 72.744 126.362 74.22 125.978 75.684C125.618 77.148 125.27 78.492 124.934 79.716C124.598 80.94 124.298 81.924 124.034 82.668C123.77 83.388 123.578 83.748 123.458 83.748ZM139.814 83.28C136.958 83.28 134.858 83.088 133.514 82.704C132.17 82.296 131.498 81.984 131.498 81.768C131.498 81.288 131.582 80.388 131.75 79.068C131.942 77.748 132.038 76.092 132.038 74.1V69.528C132.062 68.136 132.134 66.996 132.254 66.108C132.374 65.196 132.506 64.488 132.65 63.984H131.426L129.626 61.572L129.914 60.996H141.578L143.594 63.588L141.83 65.136H141.074C140.81 64.704 140.498 64.404 140.138 64.236C139.802 64.068 139.31 63.984 138.662 63.984H136.394C136.226 64.632 136.058 65.448 135.89 66.432C135.746 67.416 135.674 68.58 135.674 69.924V70.428H140.498L142.118 73.02L141.65 73.56H135.674V75C135.674 76.032 135.65 76.92 135.602 77.664C135.578 78.384 135.518 79.116 135.422 79.86C135.806 79.932 136.274 79.992 136.826 80.04C137.378 80.064 137.99 80.076 138.662 80.076C139.31 80.076 139.934 80.052 140.534 80.004C141.158 79.956 141.734 79.896 142.262 79.824L143.918 82.668L143.486 83.28H139.814ZM153.043 83.28C152.275 83.28 151.471 83.244 150.631 83.172C149.791 83.076 148.999 82.956 148.255 82.812C147.511 82.644 146.911 82.476 146.455 82.308C145.999 82.116 145.771 81.936 145.771 81.768C145.771 81.456 145.819 81 145.915 80.4C146.035 79.8 146.143 78.984 146.239 77.952C146.335 76.896 146.383 75.564 146.383 73.956V72.156C146.383 70.5 146.431 68.916 146.527 67.404C146.647 65.868 146.815 64.728 147.031 63.984H145.699L143.899 61.572L144.187 60.996H148.759L150.811 63.768C150.547 64.512 150.343 65.592 150.199 67.008C150.079 68.4 150.019 70.056 150.019 71.976V74.28C150.019 75.648 149.983 76.812 149.911 77.772C149.863 78.708 149.803 79.476 149.731 80.076C150.163 80.124 150.667 80.148 151.243 80.148C151.891 80.148 152.527 80.136 153.151 80.112C153.799 80.064 154.495 79.992 155.239 79.896L156.787 82.668L156.355 83.28H153.043ZM165.357 83.712C164.733 83.712 163.977 83.556 163.089 83.244C162.225 82.908 161.361 82.488 160.497 81.984C159.657 81.48 158.949 80.964 158.373 80.436C157.821 79.884 157.545 79.38 157.545 78.924C157.545 78.3 157.581 77.508 157.653 76.548C157.725 75.564 157.761 74.532 157.761 73.452V65.964C157.761 64.02 158.217 62.652 159.129 61.86C160.065 61.068 161.517 60.672 163.485 60.672C164.157 60.672 164.901 60.876 165.717 61.284C166.533 61.692 167.313 62.208 168.057 62.832C168.825 63.432 169.449 64.068 169.929 64.74C170.433 65.412 170.685 66.012 170.685 66.54C170.685 66.996 170.673 67.68 170.649 68.592C170.649 69.48 170.637 70.488 170.613 71.616C170.589 72.72 170.565 73.824 170.541 74.928C170.541 76.032 170.541 77.016 170.541 77.88C170.541 79.776 170.097 81.228 169.209 82.236C168.345 83.22 167.061 83.712 165.357 83.712ZM162.585 80.436C164.241 80.436 165.369 80.04 165.969 79.248C166.569 78.456 166.869 77.148 166.869 75.324C166.869 74.988 166.869 74.484 166.869 73.812C166.893 73.14 166.917 72.396 166.941 71.58C166.989 70.74 167.025 69.912 167.049 69.096C167.073 68.256 167.085 67.512 167.085 66.864C167.109 66.216 167.121 65.736 167.121 65.424C167.121 64.92 167.001 64.56 166.761 64.344C166.521 64.128 166.113 64.02 165.537 64.02C164.409 64.02 163.545 64.14 162.945 64.38C162.345 64.62 161.937 64.98 161.721 65.46C161.529 65.94 161.433 66.564 161.433 67.332V75C161.433 76.152 161.397 77.1 161.325 77.844C161.277 78.588 161.253 79.104 161.253 79.392C161.253 80.088 161.697 80.436 162.585 80.436ZM179.148 84.396C177.564 83.868 176.364 83.376 175.548 82.92C174.732 82.464 174.324 82.092 174.324 81.804C174.324 81.54 174.348 81.264 174.396 80.976C174.444 80.688 174.492 80.268 174.54 79.716C174.588 79.164 174.612 78.372 174.612 77.34V70.14C174.612 68.556 174.672 67.272 174.792 66.288C174.936 65.28 175.08 64.5 175.224 63.948H174L172.2 61.536L172.488 60.96H175.728C176.664 60.96 177.528 60.948 178.32 60.924C179.112 60.876 179.7 60.852 180.084 60.852C180.636 60.852 181.284 61.056 182.028 61.464C182.772 61.848 183.492 62.34 184.188 62.94C184.908 63.54 185.508 64.164 185.988 64.812C186.468 65.436 186.708 66 186.708 66.504V70.32C186.708 72.192 186.372 73.596 185.7 74.532C185.028 75.444 183.924 75.9 182.388 75.9C181.74 75.9 181.056 75.84 180.336 75.72C179.616 75.6 178.92 75.432 178.248 75.216V78.132C178.248 79.164 178.212 79.992 178.14 80.616C178.092 81.216 178.068 81.684 178.068 82.02C178.068 82.428 178.584 82.872 179.616 83.352L179.148 84.396ZM181.308 63.948C180.948 63.948 180.564 63.96 180.156 63.984C179.772 64.008 179.364 64.056 178.932 64.128C178.74 64.776 178.572 65.58 178.428 66.54C178.308 67.5 178.248 68.616 178.248 69.888V72.84C178.704 72.936 179.232 72.984 179.832 72.984C181.08 72.984 181.932 72.66 182.388 72.012C182.844 71.364 183.072 70.344 183.072 68.952V65.748C183.072 65.1 182.952 64.644 182.712 64.38C182.472 64.092 182.004 63.948 181.308 63.948ZM194.084 83.892C193.484 83.652 192.8 83.352 192.032 82.992C191.288 82.608 190.64 82.248 190.088 81.912C189.536 81.552 189.26 81.288 189.26 81.12C189.26 80.856 189.332 80.268 189.476 79.356C189.644 78.444 189.728 77.316 189.728 75.972V72.048C189.728 70.056 189.788 68.436 189.908 67.188C190.028 65.916 190.208 64.848 190.448 63.984H189.008L187.388 61.644L187.712 60.996H194.552C194.96 61.836 195.368 62.868 195.776 64.092C196.208 65.292 196.616 66.588 197 67.98C197.384 69.348 197.72 70.668 198.008 71.94C198.44 69.9 199.016 67.944 199.736 66.072C200.456 64.176 201.284 62.484 202.22 60.996H205.532L207.584 63.876C207.416 64.428 207.284 65.1 207.188 65.892C207.092 66.66 207.044 67.68 207.044 68.952V76.476C207.044 77.556 207.008 78.42 206.936 79.068C206.888 79.692 206.828 80.184 206.756 80.544C206.684 80.904 206.648 81.216 206.648 81.48C206.648 81.648 206.792 81.852 207.08 82.092C207.368 82.332 207.752 82.596 208.232 82.884L207.764 83.892C207.164 83.652 206.48 83.352 205.712 82.992C204.968 82.608 204.32 82.248 203.768 81.912C203.216 81.552 202.94 81.288 202.94 81.12C202.94 80.784 203.012 80.232 203.156 79.464C203.324 78.672 203.408 77.508 203.408 75.972V70.5C203.408 69.348 203.432 68.28 203.48 67.296C203.552 66.288 203.66 65.4 203.804 64.632C203.276 65.832 202.772 67.224 202.292 68.808C201.812 70.392 201.368 72.024 200.96 73.704C200.576 75.384 200.276 76.992 200.06 78.528L199.448 78.888L196.568 77.304C196.4 75.936 196.16 74.496 195.848 72.984C195.536 71.448 195.188 69.972 194.804 68.556C194.42 67.14 194.036 65.868 193.652 64.74C193.58 65.484 193.52 66.336 193.472 67.296C193.424 68.256 193.388 69.216 193.364 70.176C193.364 71.112 193.364 71.94 193.364 72.66V76.476C193.364 77.556 193.328 78.42 193.256 79.068C193.208 79.692 193.148 80.184 193.076 80.544C193.004 80.904 192.968 81.216 192.968 81.48C192.968 81.648 193.112 81.852 193.4 82.092C193.688 82.332 194.072 82.596 194.552 82.884L194.084 83.892ZM219.267 83.28C216.411 83.28 214.311 83.088 212.967 82.704C211.623 82.296 210.951 81.984 210.951 81.768C210.951 81.288 211.035 80.388 211.203 79.068C211.395 77.748 211.491 76.092 211.491 74.1V69.528C211.515 68.136 211.587 66.996 211.707 66.108C211.827 65.196 211.959 64.488 212.103 63.984H210.879L209.079 61.572L209.367 60.996H221.031L223.047 63.588L221.283 65.136H220.527C220.263 64.704 219.951 64.404 219.591 64.236C219.255 64.068 218.763 63.984 218.115 63.984H215.847C215.679 64.632 215.511 65.448 215.343 66.432C215.199 67.416 215.127 68.58 215.127 69.924V70.428H219.951L221.571 73.02L221.103 73.56H215.127V75C215.127 76.032 215.103 76.92 215.055 77.664C215.031 78.384 214.971 79.116 214.875 79.86C215.259 79.932 215.727 79.992 216.279 80.04C216.831 80.064 217.443 80.076 218.115 80.076C218.763 80.076 219.387 80.052 219.987 80.004C220.611 79.956 221.187 79.896 221.715 79.824L223.371 82.668L222.939 83.28H219.267ZM230.372 84C228.788 83.472 227.588 82.98 226.772 82.524C225.956 82.068 225.548 81.696 225.548 81.408C225.548 81.144 225.572 80.868 225.62 80.58C225.668 80.292 225.716 79.872 225.764 79.32C225.812 78.768 225.836 77.976 225.836 76.944V70.608C225.836 68.904 225.872 67.524 225.944 66.468C226.04 65.412 226.16 64.584 226.304 63.984H225.044L223.28 61.572L223.532 60.996H228.284C228.428 60.996 228.704 61.296 229.112 61.896C229.52 62.496 230 63.468 230.552 64.812L235.592 76.98C235.472 75.588 235.4 74.232 235.376 72.912V69.312C235.376 67.992 235.412 66.924 235.484 66.108C235.58 65.268 235.7 64.56 235.844 63.984H234.476L232.928 61.572L233.18 60.996H237.896L239.696 63.696C239.528 64.152 239.372 64.764 239.228 65.532C239.084 66.276 239.012 67.356 239.012 68.772V75.612C239.012 77.364 238.964 78.792 238.868 79.896C238.796 81 238.724 81.72 238.652 82.056C238.868 82.2 239.096 82.344 239.336 82.488C239.576 82.608 239.816 82.728 240.056 82.848L239.516 83.964C238.172 83.412 237.044 82.836 236.132 82.236C235.244 81.636 234.74 81.192 234.62 80.904L229.4 68.196C229.448 68.94 229.472 69.696 229.472 70.464C229.472 71.232 229.472 71.988 229.472 72.732V77.736C229.472 78.768 229.436 79.596 229.364 80.22C229.316 80.82 229.292 81.288 229.292 81.624C229.292 82.032 229.808 82.476 230.84 82.956L230.372 84ZM250.645 83.928C249.061 83.4 247.861 82.908 247.045 82.452C246.229 81.996 245.821 81.624 245.821 81.336C245.821 81.072 245.845 80.796 245.893 80.508C245.941 80.22 245.989 79.8 246.037 79.248C246.085 78.696 246.109 77.904 246.109 76.872V68.304C246.109 66.456 246.241 65.016 246.505 63.984H246.001C245.473 63.984 244.957 64.092 244.453 64.308C243.973 64.524 243.625 64.764 243.409 65.028H242.653L240.313 61.572L240.565 60.996H253.777L255.505 63.516L253.705 65.028H253.093C252.637 64.596 252.229 64.32 251.869 64.2C251.533 64.056 251.077 63.984 250.501 63.984H250.321C249.937 64.968 249.745 66.348 249.745 68.124V77.664C249.745 78.696 249.709 79.524 249.637 80.148C249.589 80.748 249.565 81.216 249.565 81.552C249.565 81.96 250.081 82.404 251.113 82.884L250.645 83.928Z" fill="black"/>
<path d="M104.609 307C103.025 306.472 101.825 305.98 101.009 305.524C100.193 305.068 99.7845 304.696 99.7845 304.408C99.7845 304.144 99.8085 303.868 99.8565 303.58C99.9045 303.292 99.9525 302.872 100.001 302.32C100.049 301.768 100.073 300.976 100.073 299.944V292.996C100.073 291.844 100.121 290.716 100.217 289.612C100.313 288.508 100.493 287.632 100.757 286.984H99.4605L97.6965 284.572L97.9485 283.996H102.557L104.573 286.804C104.309 287.548 104.093 288.46 103.925 289.54C103.781 290.62 103.709 291.832 103.709 293.176V300.736C103.709 301.768 103.673 302.596 103.601 303.22C103.553 303.82 103.529 304.288 103.529 304.624C103.529 305.032 104.045 305.476 105.077 305.956L104.609 307ZM113.32 307C111.736 306.472 110.536 305.98 109.72 305.524C108.904 305.068 108.496 304.696 108.496 304.408C108.496 304.144 108.52 303.868 108.568 303.58C108.616 303.292 108.664 302.872 108.712 302.32C108.76 301.768 108.784 300.976 108.784 299.944V293.608C108.784 291.904 108.82 290.524 108.892 289.468C108.988 288.412 109.108 287.584 109.252 286.984H107.992L106.228 284.572L106.48 283.996H111.232C111.376 283.996 111.652 284.296 112.06 284.896C112.468 285.496 112.948 286.468 113.5 287.812L118.54 299.98C118.42 298.588 118.348 297.232 118.324 295.912V292.312C118.324 290.992 118.36 289.924 118.432 289.108C118.528 288.268 118.648 287.56 118.792 286.984H117.424L115.876 284.572L116.128 283.996H120.844L122.644 286.696C122.476 287.152 122.32 287.764 122.176 288.532C122.032 289.276 121.96 290.356 121.96 291.772V298.612C121.96 300.364 121.912 301.792 121.816 302.896C121.744 304 121.672 304.72 121.6 305.056C121.816 305.2 122.044 305.344 122.284 305.488C122.524 305.608 122.764 305.728 123.004 305.848L122.464 306.964C121.12 306.412 119.992 305.836 119.08 305.236C118.192 304.636 117.688 304.192 117.568 303.904L112.348 291.196C112.396 291.94 112.42 292.696 112.42 293.464C112.42 294.232 112.42 294.988 112.42 295.732V300.736C112.42 301.768 112.384 302.596 112.312 303.22C112.264 303.82 112.24 304.288 112.24 304.624C112.24 305.032 112.756 305.476 113.788 305.956L113.32 307ZM138.953 306.28C136.097 306.28 133.997 306.088 132.653 305.704C131.309 305.296 130.637 304.984 130.637 304.768C130.637 304.288 130.721 303.388 130.889 302.068C131.081 300.748 131.177 299.092 131.177 297.1V292.528C131.201 291.136 131.273 289.996 131.393 289.108C131.513 288.196 131.645 287.488 131.789 286.984H130.565L128.765 284.572L129.053 283.996H140.717L142.733 286.588L140.969 288.136H140.213C139.949 287.704 139.637 287.404 139.277 287.236C138.941 287.068 138.449 286.984 137.801 286.984H135.533C135.365 287.632 135.197 288.448 135.029 289.432C134.885 290.416 134.813 291.58 134.813 292.924V293.428H139.637L141.257 296.02L140.789 296.56H134.813V298C134.813 299.032 134.789 299.92 134.741 300.664C134.717 301.384 134.657 302.116 134.561 302.86C134.945 302.932 135.413 302.992 135.965 303.04C136.517 303.064 137.129 303.076 137.801 303.076C138.449 303.076 139.073 303.052 139.673 303.004C140.297 302.956 140.873 302.896 141.401 302.824L143.057 305.668L142.625 306.28H138.953ZM149.986 307.072C148.402 306.544 147.202 306.052 146.386 305.596C145.57 305.14 145.162 304.768 145.162 304.48C145.162 304.216 145.186 303.94 145.234 303.652C145.282 303.364 145.33 302.944 145.378 302.392C145.426 301.84 145.45 301.048 145.45 300.016V293.176C145.45 291.592 145.51 290.308 145.63 289.324C145.774 288.316 145.918 287.536 146.062 286.984H144.838L143.038 284.572L143.326 283.996H146.71C147.454 283.972 148.198 283.948 148.942 283.924C149.71 283.876 150.31 283.852 150.742 283.852C151.39 283.852 152.098 284.044 152.866 284.428C153.658 284.812 154.402 285.304 155.098 285.904C155.818 286.504 156.406 287.128 156.862 287.776C157.318 288.4 157.546 288.952 157.546 289.432V292.636C157.546 294.7 156.646 296.176 154.846 297.064C156.742 298.096 157.69 299.176 157.69 300.304C157.69 300.832 157.678 301.48 157.654 302.248C157.63 303.016 157.618 303.676 157.618 304.228C157.618 304.612 157.75 304.936 158.014 305.2C158.278 305.44 158.722 305.728 159.346 306.064L158.806 307.144C157.198 306.448 155.962 305.848 155.098 305.344C154.234 304.84 153.802 304.288 153.802 303.688C153.802 303.088 153.826 302.452 153.874 301.78C153.922 301.084 153.946 300.508 153.946 300.052C153.946 299.236 153.61 298.612 152.938 298.18C152.266 297.724 151.198 297.496 149.734 297.496H149.086V300.808C149.086 301.84 149.05 302.668 148.978 303.292C148.93 303.892 148.906 304.36 148.906 304.696C148.906 305.104 149.422 305.548 150.454 306.028L149.986 307.072ZM152.542 286.984C152.086 286.984 151.618 287.008 151.138 287.056C150.682 287.08 150.214 287.128 149.734 287.2C149.566 287.848 149.41 288.652 149.266 289.612C149.146 290.548 149.086 291.652 149.086 292.924V294.472H151.318C152.158 294.472 152.806 294.184 153.262 293.608C153.742 293.008 153.982 292.156 153.982 291.052V289.072C153.982 288.304 153.874 287.764 153.658 287.452C153.442 287.14 153.07 286.984 152.542 286.984ZM164.781 307.072C164.181 306.856 163.533 306.628 162.837 306.388C162.165 306.124 161.589 305.872 161.109 305.632C160.629 305.392 160.389 305.224 160.389 305.128C160.389 305.032 160.473 304.624 160.641 303.904C160.833 303.16 161.073 302.224 161.361 301.096C161.673 299.944 161.997 298.696 162.333 297.352C162.693 296.008 163.053 294.676 163.413 293.356C163.773 292.012 164.109 290.788 164.421 289.684C164.733 288.556 164.985 287.656 165.177 286.984H163.305L161.685 284.572L161.901 283.996H169.317L171.405 287.02C171.693 288.196 171.993 289.528 172.305 291.016C172.617 292.48 172.929 293.98 173.241 295.516C173.553 297.028 173.841 298.432 174.105 299.728C174.369 301.024 174.585 302.104 174.753 302.968C174.921 303.832 175.017 304.324 175.041 304.444C175.089 304.756 175.221 304.996 175.437 305.164C175.653 305.332 176.037 305.56 176.589 305.848L176.157 307C175.437 306.76 174.717 306.484 173.997 306.172C173.301 305.86 172.725 305.56 172.269 305.272C171.813 304.984 171.573 304.78 171.549 304.66C171.477 303.892 171.393 303.112 171.297 302.32C171.201 301.504 171.093 300.7 170.973 299.908C170.757 299.884 170.541 299.872 170.325 299.872C169.461 299.872 168.561 299.968 167.625 300.16C166.689 300.352 165.837 300.7 165.069 301.204C164.901 301.876 164.721 302.56 164.529 303.256C164.361 303.952 164.193 304.648 164.025 305.344L165.213 305.92L164.781 307.072ZM167.841 296.956C168.801 296.956 169.737 297.22 170.649 297.748C170.361 295.828 170.037 293.968 169.677 292.168C169.341 290.344 169.041 288.724 168.777 287.308C168.441 288.532 168.045 289.972 167.589 291.628C167.157 293.284 166.677 295.12 166.149 297.136C166.725 297.016 167.289 296.956 167.841 296.956ZM190.09 306.712C189.466 306.712 188.71 306.556 187.822 306.244C186.958 305.908 186.094 305.488 185.23 304.984C184.39 304.48 183.682 303.964 183.106 303.436C182.554 302.884 182.278 302.38 182.278 301.924C182.278 301.3 182.314 300.508 182.386 299.548C182.458 298.564 182.494 297.532 182.494 296.452V288.964C182.494 287.02 182.95 285.652 183.862 284.86C184.798 284.068 186.25 283.672 188.218 283.672C188.89 283.672 189.634 283.876 190.45 284.284C191.266 284.692 192.046 285.208 192.79 285.832C193.558 286.432 194.182 287.068 194.662 287.74C195.166 288.412 195.418 289.012 195.418 289.54C195.418 289.996 195.406 290.68 195.382 291.592C195.382 292.48 195.37 293.488 195.346 294.616C195.322 295.72 195.298 296.824 195.274 297.928C195.274 299.032 195.274 300.016 195.274 300.88C195.274 302.776 194.83 304.228 193.942 305.236C193.078 306.22 191.794 306.712 190.09 306.712ZM187.318 303.436C188.974 303.436 190.102 303.04 190.702 302.248C191.302 301.456 191.602 300.148 191.602 298.324C191.602 297.988 191.602 297.484 191.602 296.812C191.626 296.14 191.65 295.396 191.674 294.58C191.722 293.74 191.758 292.912 191.782 292.096C191.806 291.256 191.818 290.512 191.818 289.864C191.842 289.216 191.854 288.736 191.854 288.424C191.854 287.92 191.734 287.56 191.494 287.344C191.254 287.128 190.846 287.02 190.27 287.02C189.142 287.02 188.278 287.14 187.678 287.38C187.078 287.62 186.67 287.98 186.454 288.46C186.262 288.94 186.166 289.564 186.166 290.332V298C186.166 299.152 186.13 300.1 186.058 300.844C186.01 301.588 185.986 302.104 185.986 302.392C185.986 303.088 186.43 303.436 187.318 303.436ZM204.024 306.964C202.44 306.436 201.24 305.944 200.424 305.488C199.608 305.032 199.2 304.66 199.2 304.372C199.2 304.108 199.224 303.832 199.272 303.544C199.32 303.256 199.368 302.836 199.416 302.284C199.464 301.732 199.488 300.94 199.488 299.908V293.176C199.488 291.592 199.548 290.308 199.668 289.324C199.812 288.316 199.956 287.536 200.1 286.984H198.876L197.076 284.572L197.364 283.996H208.812L210.576 286.516L208.74 288.136H208.02C207.78 287.776 207.48 287.5 207.12 287.308C206.784 287.092 206.34 286.984 205.788 286.984H203.844C203.676 287.632 203.508 288.448 203.34 289.432C203.196 290.416 203.124 291.58 203.124 292.924V293.86H208.128L209.676 296.344L209.424 296.956H203.124V300.7C203.124 301.732 203.088 302.56 203.016 303.184C202.968 303.784 202.944 304.252 202.944 304.588C202.944 304.996 203.46 305.44 204.492 305.92L204.024 306.964ZM220.68 307.072C220.08 306.856 219.432 306.628 218.736 306.388C218.064 306.124 217.488 305.872 217.008 305.632C216.528 305.392 216.288 305.224 216.288 305.128C216.288 305.032 216.372 304.624 216.54 303.904C216.732 303.16 216.972 302.224 217.26 301.096C217.572 299.944 217.896 298.696 218.232 297.352C218.592 296.008 218.952 294.676 219.312 293.356C219.672 292.012 220.008 290.788 220.32 289.684C220.632 288.556 220.884 287.656 221.076 286.984H219.204L217.584 284.572L217.8 283.996H225.216L227.304 287.02C227.592 288.196 227.892 289.528 228.204 291.016C228.516 292.48 228.828 293.98 229.14 295.516C229.452 297.028 229.74 298.432 230.004 299.728C230.268 301.024 230.484 302.104 230.652 302.968C230.82 303.832 230.916 304.324 230.94 304.444C230.988 304.756 231.12 304.996 231.336 305.164C231.552 305.332 231.936 305.56 232.488 305.848L232.056 307C231.336 306.76 230.616 306.484 229.896 306.172C229.2 305.86 228.624 305.56 228.168 305.272C227.712 304.984 227.472 304.78 227.448 304.66C227.376 303.892 227.292 303.112 227.196 302.32C227.1 301.504 226.992 300.7 226.872 299.908C226.656 299.884 226.44 299.872 226.224 299.872C225.36 299.872 224.46 299.968 223.524 300.16C222.588 300.352 221.736 300.7 220.968 301.204C220.8 301.876 220.62 302.56 220.428 303.256C220.26 303.952 220.092 304.648 219.924 305.344L221.112 305.92L220.68 307.072ZM223.74 296.956C224.7 296.956 225.636 297.22 226.548 297.748C226.26 295.828 225.936 293.968 225.576 292.168C225.24 290.344 224.94 288.724 224.676 287.308C224.34 288.532 223.944 289.972 223.488 291.628C223.056 293.284 222.576 295.12 222.048 297.136C222.624 297.016 223.188 296.956 223.74 296.956ZM239.116 307C237.532 306.472 236.332 305.98 235.516 305.524C234.7 305.068 234.292 304.696 234.292 304.408C234.292 304.144 234.316 303.868 234.364 303.58C234.412 303.292 234.46 302.872 234.508 302.32C234.556 301.768 234.58 300.976 234.58 299.944V292.996C234.58 291.844 234.628 290.716 234.724 289.612C234.82 288.508 235 287.632 235.264 286.984H233.968L232.204 284.572L232.456 283.996H237.064L239.08 286.804C238.816 287.548 238.6 288.46 238.432 289.54C238.288 290.62 238.216 291.832 238.216 293.176V300.736C238.216 301.768 238.18 302.596 238.108 303.22C238.06 303.82 238.036 304.288 238.036 304.624C238.036 305.032 238.552 305.476 239.584 305.956L239.116 307Z" fill="black"/>
<defs>
<linearGradient id="paint0_linear_2906_202" x1="103.028" y1="148.102" x2="102.561" y2="148.986" gradientUnits="userSpaceOnUse">
<stop stop-color="#7F7F7F" stop-opacity="0.22"/>
<stop offset="1" stop-color="white"/>
</linearGradient>
<linearGradient id="paint1_linear_2906_202" x1="95.6281" y1="169.561" x2="95.4545" y2="170.546" gradientUnits="userSpaceOnUse">
<stop stop-color="#7F7F7F" stop-opacity="0.22"/>
<stop offset="1" stop-color="white"/>
</linearGradient>
<linearGradient id="paint2_linear_2906_202" x1="95.1435" y1="192.256" x2="95.2792" y2="193.247" gradientUnits="userSpaceOnUse">
<stop stop-color="#7F7F7F" stop-opacity="0.22"/>
<stop offset="1" stop-color="white"/>
</linearGradient>
<linearGradient id="paint3_linear_2906_202" x1="101.62" y1="214.012" x2="102.052" y2="214.914" gradientUnits="userSpaceOnUse">
<stop stop-color="#7F7F7F" stop-opacity="0.22"/>
<stop offset="1" stop-color="white"/>
</linearGradient>
<linearGradient id="paint4_linear_2906_202" x1="114.436" y1="232.747" x2="115.123" y2="233.473" gradientUnits="userSpaceOnUse">
<stop stop-color="#7F7F7F" stop-opacity="0.22"/>
<stop offset="1" stop-color="white"/>
</linearGradient>
<linearGradient id="paint5_linear_2906_202" x1="132.369" y1="246.665" x2="133.245" y2="247.147" gradientUnits="userSpaceOnUse">
<stop stop-color="#7F7F7F" stop-opacity="0.22"/>
<stop offset="1" stop-color="white"/>
</linearGradient>
<linearGradient id="paint6_linear_2906_202" x1="153.697" y1="254.436" x2="154.679" y2="254.626" gradientUnits="userSpaceOnUse">
<stop stop-color="#7F7F7F" stop-opacity="0.22"/>
<stop offset="1" stop-color="white"/>
</linearGradient>
<linearGradient id="paint7_linear_2906_202" x1="176.381" y1="255.314" x2="177.374" y2="255.195" gradientUnits="userSpaceOnUse">
<stop stop-color="#7F7F7F" stop-opacity="0.22"/>
<stop offset="1" stop-color="white"/>
</linearGradient>
<linearGradient id="paint8_linear_2906_202" x1="198.245" y1="249.215" x2="199.155" y2="248.798" gradientUnits="userSpaceOnUse">
<stop stop-color="#7F7F7F" stop-opacity="0.22"/>
<stop offset="1" stop-color="white"/>
</linearGradient>
<linearGradient id="paint9_linear_2906_202" x1="217.2" y1="236.724" x2="217.939" y2="236.049" gradientUnits="userSpaceOnUse">
<stop stop-color="#7F7F7F" stop-opacity="0.22"/>
<stop offset="1" stop-color="white"/>
</linearGradient>
<linearGradient id="paint10_linear_2906_202" x1="231.428" y1="219.036" x2="231.924" y2="218.168" gradientUnits="userSpaceOnUse">
<stop stop-color="#7F7F7F" stop-opacity="0.22"/>
<stop offset="1" stop-color="white"/>
</linearGradient>
<linearGradient id="paint11_linear_2906_202" x1="239.566" y1="197.845" x2="239.774" y2="196.867" gradientUnits="userSpaceOnUse">
<stop stop-color="#7F7F7F" stop-opacity="0.22"/>
<stop offset="1" stop-color="white"/>
</linearGradient>
<linearGradient id="paint12_linear_2906_202" x1="240.835" y1="175.181" x2="240.734" y2="174.186" gradientUnits="userSpaceOnUse">
<stop stop-color="#7F7F7F" stop-opacity="0.22"/>
<stop offset="1" stop-color="white"/>
</linearGradient>
<linearGradient id="paint13_linear_2906_202" x1="235.117" y1="153.214" x2="234.716" y2="152.298" gradientUnits="userSpaceOnUse">
<stop stop-color="#7F7F7F" stop-opacity="0.22"/>
<stop offset="1" stop-color="white"/>
</linearGradient>
<linearGradient id="paint14_linear_2906_202" x1="222.956" y1="134.047" x2="222.294" y2="133.297" gradientUnits="userSpaceOnUse">
<stop stop-color="#7F7F7F" stop-opacity="0.22"/>
<stop offset="1" stop-color="white"/>
</linearGradient>
<linearGradient id="paint15_linear_2906_202" x1="205.515" y1="119.515" x2="204.656" y2="119.004" gradientUnits="userSpaceOnUse">
<stop stop-color="#7F7F7F" stop-opacity="0.22"/>
<stop offset="1" stop-color="white"/>
</linearGradient>
<linearGradient id="paint16_linear_2906_202" x1="184.47" y1="111.011" x2="183.495" y2="110.786" gradientUnits="userSpaceOnUse">
<stop stop-color="#7F7F7F" stop-opacity="0.22"/>
<stop offset="1" stop-color="white"/>
</linearGradient>
<linearGradient id="paint17_linear_2906_202" x1="161.832" y1="109.348" x2="160.835" y2="109.432" gradientUnits="userSpaceOnUse">
<stop stop-color="#7F7F7F" stop-opacity="0.22"/>
<stop offset="1" stop-color="white"/>
</linearGradient>
<linearGradient id="paint18_linear_2906_202" x1="139.768" y1="114.685" x2="138.845" y2="115.07" gradientUnits="userSpaceOnUse">
<stop stop-color="#7F7F7F" stop-opacity="0.22"/>
<stop offset="1" stop-color="white"/>
</linearGradient>
<linearGradient id="paint19_linear_2906_202" x1="120.393" y1="126.512" x2="119.632" y2="127.161" gradientUnits="userSpaceOnUse">
<stop stop-color="#7F7F7F" stop-opacity="0.22"/>
<stop offset="1" stop-color="white"/>
</linearGradient>
</defs>
</svg>
