<svg width="336" height="336" viewBox="0 0 336 336" fill="none" xmlns="http://www.w3.org/2000/svg">
<circle cx="168" cy="168" r="168" fill="white"/>
<path d="M100.473 159V132.818H110.802C112.788 132.818 114.48 133.197 115.878 133.956C117.275 134.706 118.341 135.75 119.074 137.088C119.815 138.418 120.186 139.952 120.186 141.69C120.186 143.429 119.811 144.963 119.061 146.293C118.311 147.622 117.224 148.658 115.801 149.399C114.386 150.141 112.673 150.511 110.662 150.511H104.078V146.075H109.767C110.832 146.075 111.71 145.892 112.4 145.526C113.099 145.151 113.619 144.635 113.96 143.979C114.309 143.314 114.484 142.551 114.484 141.69C114.484 140.821 114.309 140.062 113.96 139.415C113.619 138.759 113.099 138.251 112.4 137.893C111.702 137.527 110.815 137.344 109.741 137.344H106.008V159H100.473ZM123.679 159V139.364H128.959V142.79H129.164C129.521 141.571 130.122 140.651 130.966 140.028C131.81 139.398 132.781 139.082 133.881 139.082C134.154 139.082 134.448 139.099 134.763 139.134C135.078 139.168 135.355 139.214 135.594 139.274V144.107C135.338 144.03 134.985 143.962 134.533 143.902C134.081 143.842 133.668 143.812 133.293 143.812C132.492 143.812 131.776 143.987 131.145 144.337C130.523 144.678 130.029 145.155 129.662 145.768C129.304 146.382 129.125 147.089 129.125 147.891V159H123.679ZM146.368 159.384C144.382 159.384 142.665 158.962 141.216 158.118C139.775 157.266 138.663 156.081 137.879 154.564C137.095 153.038 136.703 151.27 136.703 149.259C136.703 147.23 137.095 145.457 137.879 143.94C138.663 142.415 139.775 141.23 141.216 140.386C142.665 139.534 144.382 139.108 146.368 139.108C148.354 139.108 150.067 139.534 151.507 140.386C152.956 141.23 154.072 142.415 154.856 143.94C155.64 145.457 156.032 147.23 156.032 149.259C156.032 151.27 155.64 153.038 154.856 154.564C154.072 156.081 152.956 157.266 151.507 158.118C150.067 158.962 148.354 159.384 146.368 159.384ZM146.393 155.165C147.297 155.165 148.051 154.909 148.656 154.398C149.261 153.878 149.717 153.17 150.024 152.276C150.339 151.381 150.497 150.362 150.497 149.22C150.497 148.078 150.339 147.06 150.024 146.165C149.717 145.27 149.261 144.562 148.656 144.043C148.051 143.523 147.297 143.263 146.393 143.263C145.481 143.263 144.714 143.523 144.092 144.043C143.479 144.562 143.014 145.27 142.699 146.165C142.392 147.06 142.238 148.078 142.238 149.22C142.238 150.362 142.392 151.381 142.699 152.276C143.014 153.17 143.479 153.878 144.092 154.398C144.714 154.909 145.481 155.165 146.393 155.165ZM166.809 159.32C165.318 159.32 163.967 158.936 162.757 158.169C161.555 157.393 160.601 156.256 159.893 154.756C159.194 153.247 158.845 151.398 158.845 149.207C158.845 146.957 159.207 145.087 159.932 143.595C160.656 142.095 161.619 140.974 162.821 140.233C164.031 139.483 165.356 139.108 166.797 139.108C167.896 139.108 168.812 139.295 169.545 139.67C170.287 140.037 170.883 140.497 171.335 141.051C171.795 141.597 172.145 142.134 172.383 142.662H172.55V132.818H177.983V159H172.613V155.855H172.383C172.128 156.401 171.765 156.942 171.297 157.479C170.836 158.007 170.236 158.446 169.494 158.795C168.761 159.145 167.866 159.32 166.809 159.32ZM168.535 154.986C169.413 154.986 170.155 154.747 170.76 154.27C171.373 153.784 171.842 153.107 172.166 152.237C172.498 151.368 172.665 150.349 172.665 149.182C172.665 148.014 172.503 147 172.179 146.139C171.855 145.278 171.386 144.614 170.773 144.145C170.159 143.676 169.413 143.442 168.535 143.442C167.64 143.442 166.886 143.685 166.273 144.17C165.659 144.656 165.194 145.33 164.879 146.19C164.564 147.051 164.406 148.048 164.406 149.182C164.406 150.324 164.564 151.334 164.879 152.212C165.203 153.081 165.667 153.763 166.273 154.257C166.886 154.743 167.64 154.986 168.535 154.986ZM195.053 150.639V139.364H200.499V159H195.27V155.433H195.066C194.622 156.584 193.885 157.509 192.854 158.207C191.831 158.906 190.583 159.256 189.108 159.256C187.796 159.256 186.641 158.957 185.644 158.361C184.646 157.764 183.867 156.916 183.304 155.817C182.75 154.717 182.469 153.401 182.46 151.866V139.364H187.906V150.895C187.915 152.054 188.226 152.97 188.84 153.643C189.453 154.317 190.276 154.653 191.307 154.653C191.963 154.653 192.577 154.504 193.148 154.206C193.719 153.899 194.179 153.447 194.529 152.851C194.887 152.254 195.061 151.517 195.053 150.639ZM213.727 159.384C211.716 159.384 209.986 158.957 208.537 158.105C207.096 157.244 205.988 156.051 205.213 154.526C204.446 153 204.062 151.244 204.062 149.259C204.062 147.247 204.45 145.483 205.226 143.966C206.01 142.44 207.122 141.251 208.562 140.399C210.003 139.538 211.716 139.108 213.702 139.108C215.415 139.108 216.915 139.419 218.202 140.041C219.488 140.663 220.507 141.537 221.257 142.662C222.007 143.787 222.42 145.108 222.497 146.625H217.358C217.213 145.645 216.829 144.857 216.207 144.26C215.594 143.655 214.788 143.352 213.791 143.352C212.947 143.352 212.21 143.582 211.579 144.043C210.957 144.494 210.471 145.155 210.122 146.024C209.773 146.893 209.598 147.946 209.598 149.182C209.598 150.435 209.768 151.5 210.109 152.378C210.459 153.256 210.949 153.925 211.579 154.385C212.21 154.845 212.947 155.075 213.791 155.075C214.413 155.075 214.971 154.947 215.466 154.692C215.969 154.436 216.382 154.065 216.706 153.58C217.038 153.085 217.256 152.493 217.358 151.803H222.497C222.412 153.303 222.003 154.624 221.27 155.766C220.545 156.899 219.544 157.786 218.265 158.425C216.987 159.064 215.474 159.384 213.727 159.384ZM236.428 139.364V143.455H224.603V139.364H236.428ZM227.288 134.659H232.734V152.966C232.734 153.469 232.811 153.861 232.964 154.142C233.117 154.415 233.33 154.607 233.603 154.717C233.884 154.828 234.208 154.884 234.575 154.884C234.83 154.884 235.086 154.862 235.342 154.82C235.597 154.768 235.794 154.73 235.93 154.705L236.786 158.757C236.514 158.842 236.13 158.94 235.636 159.051C235.142 159.17 234.541 159.243 233.833 159.268C232.521 159.32 231.37 159.145 230.382 158.744C229.401 158.344 228.639 157.722 228.093 156.878C227.548 156.034 227.279 154.969 227.288 153.682V134.659ZM62.2756 203H52.9943V176.818H62.3523C64.9858 176.818 67.2528 177.342 69.1534 178.391C71.054 179.43 72.5156 180.926 73.5384 182.878C74.5696 184.83 75.0852 187.165 75.0852 189.884C75.0852 192.611 74.5696 194.955 73.5384 196.915C72.5156 198.875 71.0455 200.379 69.1278 201.428C67.2188 202.476 64.9347 203 62.2756 203ZM58.5298 198.257H62.0455C63.6818 198.257 65.0582 197.967 66.1747 197.388C67.2997 196.8 68.1435 195.892 68.706 194.665C69.277 193.429 69.5625 191.835 69.5625 189.884C69.5625 187.949 69.277 186.368 68.706 185.141C68.1435 183.913 67.304 183.01 66.1875 182.43C65.071 181.851 63.6946 181.561 62.0582 181.561H58.5298V198.257ZM88.0323 203.384C86.0124 203.384 84.2738 202.974 82.8164 202.156C81.3675 201.33 80.2511 200.162 79.467 198.653C78.6829 197.136 78.2908 195.342 78.2908 193.271C78.2908 191.251 78.6829 189.479 79.467 187.953C80.2511 186.428 81.3548 185.239 82.7781 184.386C84.2099 183.534 85.8888 183.108 87.815 183.108C89.1104 183.108 90.3164 183.317 91.4329 183.734C92.5579 184.143 93.538 184.761 94.3732 185.588C95.217 186.415 95.8732 187.455 96.342 188.707C96.8107 189.952 97.0451 191.409 97.0451 193.08V194.575H80.4641V191.2H91.9187C91.9187 190.416 91.7482 189.722 91.4073 189.116C91.0664 188.511 90.5934 188.038 89.9883 187.697C89.3917 187.348 88.6971 187.173 87.9045 187.173C87.0778 187.173 86.3448 187.365 85.7056 187.749C85.0749 188.124 84.5806 188.631 84.2227 189.27C83.8647 189.901 83.6815 190.604 83.6729 191.379V194.588C83.6729 195.56 83.8519 196.399 84.2099 197.107C84.5763 197.814 85.092 198.359 85.7567 198.743C86.4215 199.126 87.2099 199.318 88.1218 199.318C88.7269 199.318 89.2809 199.233 89.7837 199.062C90.2866 198.892 90.717 198.636 91.0749 198.295C91.4329 197.955 91.7056 197.537 91.8931 197.043L96.93 197.375C96.6744 198.585 96.1502 199.642 95.3576 200.545C94.5735 201.44 93.5593 202.139 92.315 202.642C91.0792 203.136 89.6516 203.384 88.0323 203.384ZM118.379 183.364L111.513 203H105.377L98.5121 183.364H104.265L108.343 197.413H108.548L112.613 183.364H118.379ZM129.482 203.384C127.462 203.384 125.723 202.974 124.266 202.156C122.817 201.33 121.7 200.162 120.916 198.653C120.132 197.136 119.74 195.342 119.74 193.271C119.74 191.251 120.132 189.479 120.916 187.953C121.7 186.428 122.804 185.239 124.227 184.386C125.659 183.534 127.338 183.108 129.264 183.108C130.56 183.108 131.766 183.317 132.882 183.734C134.007 184.143 134.987 184.761 135.822 185.588C136.666 186.415 137.322 187.455 137.791 188.707C138.26 189.952 138.494 191.409 138.494 193.08V194.575H121.913V191.2H133.368C133.368 190.416 133.197 189.722 132.857 189.116C132.516 188.511 132.043 188.038 131.438 187.697C130.841 187.348 130.146 187.173 129.354 187.173C128.527 187.173 127.794 187.365 127.155 187.749C126.524 188.124 126.03 188.631 125.672 189.27C125.314 189.901 125.131 190.604 125.122 191.379V194.588C125.122 195.56 125.301 196.399 125.659 197.107C126.026 197.814 126.541 198.359 127.206 198.743C127.871 199.126 128.659 199.318 129.571 199.318C130.176 199.318 130.73 199.233 131.233 199.062C131.736 198.892 132.166 198.636 132.524 198.295C132.882 197.955 133.155 197.537 133.342 197.043L138.379 197.375C138.124 198.585 137.599 199.642 136.807 200.545C136.023 201.44 135.009 202.139 133.764 202.642C132.528 203.136 131.101 203.384 129.482 203.384ZM147.494 176.818V203H142.048V176.818H147.494ZM160.729 203.384C158.743 203.384 157.026 202.962 155.577 202.118C154.137 201.266 153.025 200.081 152.24 198.564C151.456 197.038 151.064 195.27 151.064 193.259C151.064 191.23 151.456 189.457 152.24 187.94C153.025 186.415 154.137 185.23 155.577 184.386C157.026 183.534 158.743 183.108 160.729 183.108C162.715 183.108 164.428 183.534 165.868 184.386C167.317 185.23 168.434 186.415 169.218 187.94C170.002 189.457 170.394 191.23 170.394 193.259C170.394 195.27 170.002 197.038 169.218 198.564C168.434 200.081 167.317 201.266 165.868 202.118C164.428 202.962 162.715 203.384 160.729 203.384ZM160.755 199.165C161.658 199.165 162.412 198.909 163.017 198.398C163.623 197.878 164.078 197.17 164.385 196.276C164.701 195.381 164.858 194.362 164.858 193.22C164.858 192.078 164.701 191.06 164.385 190.165C164.078 189.27 163.623 188.562 163.017 188.043C162.412 187.523 161.658 187.263 160.755 187.263C159.843 187.263 159.076 187.523 158.453 188.043C157.84 188.562 157.375 189.27 157.06 190.165C156.753 191.06 156.6 192.078 156.6 193.22C156.6 194.362 156.753 195.381 157.06 196.276C157.375 197.17 157.84 197.878 158.453 198.398C159.076 198.909 159.843 199.165 160.755 199.165ZM173.935 210.364V183.364H179.304V186.662H179.547C179.786 186.134 180.131 185.597 180.583 185.051C181.043 184.497 181.64 184.037 182.373 183.67C183.114 183.295 184.034 183.108 185.134 183.108C186.566 183.108 187.887 183.483 189.097 184.233C190.307 184.974 191.275 186.095 191.999 187.595C192.723 189.087 193.086 190.957 193.086 193.207C193.086 195.398 192.732 197.247 192.025 198.756C191.326 200.256 190.371 201.393 189.161 202.169C187.959 202.936 186.613 203.32 185.121 203.32C184.064 203.32 183.165 203.145 182.424 202.795C181.691 202.446 181.09 202.007 180.621 201.479C180.152 200.942 179.794 200.401 179.547 199.855H179.381V210.364H173.935ZM179.266 193.182C179.266 194.349 179.428 195.368 179.752 196.237C180.076 197.107 180.544 197.784 181.158 198.27C181.772 198.747 182.517 198.986 183.395 198.986C184.282 198.986 185.032 198.743 185.645 198.257C186.259 197.763 186.723 197.081 187.039 196.212C187.363 195.334 187.525 194.324 187.525 193.182C187.525 192.048 187.367 191.051 187.051 190.19C186.736 189.33 186.272 188.656 185.658 188.17C185.044 187.685 184.29 187.442 183.395 187.442C182.509 187.442 181.759 187.676 181.145 188.145C180.54 188.614 180.076 189.278 179.752 190.139C179.428 191 179.266 192.014 179.266 193.182ZM196.716 203V183.364H201.907V186.828H202.137C202.546 185.678 203.228 184.77 204.182 184.105C205.137 183.44 206.279 183.108 207.608 183.108C208.955 183.108 210.101 183.445 211.047 184.118C211.993 184.783 212.624 185.686 212.939 186.828H213.144C213.544 185.703 214.269 184.804 215.317 184.131C216.374 183.449 217.623 183.108 219.063 183.108C220.895 183.108 222.382 183.692 223.525 184.859C224.675 186.018 225.25 187.663 225.25 189.794V203H219.817V190.868C219.817 189.777 219.527 188.959 218.948 188.413C218.368 187.868 217.644 187.595 216.775 187.595C215.786 187.595 215.015 187.911 214.461 188.541C213.907 189.163 213.63 189.986 213.63 191.009V203H208.35V190.753C208.35 189.79 208.073 189.023 207.519 188.452C206.973 187.881 206.253 187.595 205.358 187.595C204.753 187.595 204.208 187.749 203.722 188.055C203.245 188.354 202.865 188.776 202.584 189.321C202.303 189.858 202.162 190.489 202.162 191.213V203H196.716ZM238.501 203.384C236.481 203.384 234.743 202.974 233.285 202.156C231.836 201.33 230.72 200.162 229.936 198.653C229.152 197.136 228.76 195.342 228.76 193.271C228.76 191.251 229.152 189.479 229.936 187.953C230.72 186.428 231.824 185.239 233.247 184.386C234.679 183.534 236.358 183.108 238.284 183.108C239.579 183.108 240.785 183.317 241.902 183.734C243.027 184.143 244.007 184.761 244.842 185.588C245.686 186.415 246.342 187.455 246.811 188.707C247.279 189.952 247.514 191.409 247.514 193.08V194.575H230.933V191.2H242.387C242.387 190.416 242.217 189.722 241.876 189.116C241.535 188.511 241.062 188.038 240.457 187.697C239.86 187.348 239.166 187.173 238.373 187.173C237.547 187.173 236.814 187.365 236.174 187.749C235.544 188.124 235.049 188.631 234.691 189.27C234.333 189.901 234.15 190.604 234.142 191.379V194.588C234.142 195.56 234.321 196.399 234.679 197.107C235.045 197.814 235.561 198.359 236.225 198.743C236.89 199.126 237.679 199.318 238.591 199.318C239.196 199.318 239.75 199.233 240.252 199.062C240.755 198.892 241.186 198.636 241.544 198.295C241.902 197.955 242.174 197.537 242.362 197.043L247.399 197.375C247.143 198.585 246.619 199.642 245.826 200.545C245.042 201.44 244.028 202.139 242.784 202.642C241.548 203.136 240.12 203.384 238.501 203.384ZM256.514 191.648V203H251.068V183.364H256.258V186.828H256.488C256.923 185.686 257.652 184.783 258.674 184.118C259.697 183.445 260.937 183.108 262.395 183.108C263.758 183.108 264.947 183.406 265.961 184.003C266.975 184.599 267.764 185.452 268.326 186.56C268.889 187.659 269.17 188.972 269.17 190.497V203H263.724V191.469C263.733 190.267 263.426 189.33 262.804 188.656C262.181 187.974 261.325 187.634 260.234 187.634C259.501 187.634 258.853 187.791 258.291 188.107C257.737 188.422 257.302 188.882 256.987 189.487C256.68 190.084 256.522 190.804 256.514 191.648ZM283.907 183.364V187.455H272.082V183.364H283.907ZM274.766 178.659H280.212V196.966C280.212 197.469 280.289 197.861 280.442 198.142C280.596 198.415 280.809 198.607 281.082 198.717C281.363 198.828 281.687 198.884 282.053 198.884C282.309 198.884 282.565 198.862 282.82 198.82C283.076 198.768 283.272 198.73 283.408 198.705L284.265 202.757C283.992 202.842 283.609 202.94 283.114 203.051C282.62 203.17 282.019 203.243 281.312 203.268C279.999 203.32 278.849 203.145 277.86 202.744C276.88 202.344 276.117 201.722 275.572 200.878C275.026 200.034 274.758 198.969 274.766 197.682V178.659Z" fill="black"/>
</svg>
