<svg width="336" height="336" viewBox="0 0 336 336" fill="none" xmlns="http://www.w3.org/2000/svg">
<circle cx="168" cy="168" r="168" fill="white"/>
<path d="M120.384 141.984H114.785C114.683 141.26 114.474 140.616 114.158 140.054C113.843 139.483 113.438 138.997 112.944 138.597C112.45 138.196 111.879 137.889 111.231 137.676C110.592 137.463 109.897 137.357 109.147 137.357C107.792 137.357 106.612 137.693 105.606 138.366C104.6 139.031 103.82 140.003 103.266 141.281C102.712 142.551 102.435 144.094 102.435 145.909C102.435 147.776 102.712 149.344 103.266 150.614C103.829 151.884 104.613 152.842 105.619 153.49C106.624 154.138 107.788 154.462 109.109 154.462C109.85 154.462 110.536 154.364 111.167 154.168C111.806 153.972 112.373 153.686 112.867 153.311C113.362 152.928 113.771 152.463 114.094 151.918C114.427 151.372 114.657 150.75 114.785 150.051L120.384 150.077C120.239 151.278 119.877 152.438 119.298 153.554C118.727 154.662 117.955 155.655 116.984 156.533C116.021 157.402 114.87 158.092 113.532 158.604C112.202 159.107 110.698 159.358 109.019 159.358C106.684 159.358 104.596 158.83 102.755 157.773C100.923 156.716 99.4737 155.186 98.4084 153.183C97.3516 151.18 96.8232 148.756 96.8232 145.909C96.8232 143.054 97.3601 140.625 98.4339 138.622C99.5078 136.619 100.965 135.094 102.806 134.045C104.647 132.989 106.718 132.46 109.019 132.46C110.536 132.46 111.942 132.673 113.238 133.099C114.542 133.526 115.697 134.148 116.702 134.966C117.708 135.776 118.526 136.768 119.157 137.945C119.796 139.121 120.205 140.467 120.384 141.984ZM124.251 159V139.364H129.531V142.79H129.736C130.094 141.571 130.695 140.651 131.538 140.028C132.382 139.398 133.354 139.082 134.453 139.082C134.726 139.082 135.02 139.099 135.335 139.134C135.651 139.168 135.928 139.214 136.166 139.274V144.107C135.911 144.03 135.557 143.962 135.105 143.902C134.653 143.842 134.24 143.812 133.865 143.812C133.064 143.812 132.348 143.987 131.717 144.337C131.095 144.678 130.601 145.155 130.234 145.768C129.876 146.382 129.697 147.089 129.697 147.891V159H124.251ZM144.019 159.371C142.766 159.371 141.65 159.153 140.669 158.719C139.689 158.276 138.914 157.624 138.343 156.763C137.78 155.893 137.499 154.811 137.499 153.516C137.499 152.425 137.699 151.509 138.1 150.767C138.5 150.026 139.046 149.429 139.736 148.977C140.426 148.526 141.211 148.185 142.088 147.955C142.975 147.724 143.904 147.562 144.875 147.469C146.017 147.349 146.938 147.239 147.637 147.136C148.336 147.026 148.843 146.864 149.158 146.651C149.473 146.437 149.631 146.122 149.631 145.705V145.628C149.631 144.818 149.375 144.192 148.864 143.749C148.361 143.305 147.645 143.084 146.716 143.084C145.736 143.084 144.956 143.301 144.377 143.736C143.797 144.162 143.414 144.699 143.226 145.347L138.189 144.938C138.445 143.744 138.948 142.713 139.698 141.844C140.448 140.966 141.415 140.293 142.6 139.824C143.793 139.347 145.174 139.108 146.742 139.108C147.833 139.108 148.877 139.236 149.874 139.491C150.88 139.747 151.77 140.143 152.546 140.68C153.33 141.217 153.948 141.908 154.4 142.751C154.851 143.587 155.077 144.588 155.077 145.756V159H149.912V156.277H149.759C149.444 156.891 149.022 157.432 148.493 157.901C147.965 158.361 147.33 158.723 146.588 158.987C145.847 159.243 144.99 159.371 144.019 159.371ZM145.578 155.612C146.38 155.612 147.087 155.455 147.701 155.139C148.314 154.815 148.796 154.381 149.145 153.835C149.495 153.29 149.669 152.672 149.669 151.982V149.898C149.499 150.009 149.265 150.111 148.966 150.205C148.676 150.29 148.348 150.371 147.982 150.447C147.615 150.516 147.249 150.58 146.882 150.639C146.516 150.69 146.184 150.737 145.885 150.78C145.246 150.874 144.688 151.023 144.211 151.227C143.733 151.432 143.363 151.709 143.098 152.058C142.834 152.399 142.702 152.825 142.702 153.337C142.702 154.078 142.971 154.645 143.507 155.037C144.053 155.42 144.743 155.612 145.578 155.612ZM169.862 139.364V143.455H157.743V139.364H169.862ZM160.517 159V137.945C160.517 136.521 160.794 135.341 161.348 134.403C161.91 133.466 162.677 132.763 163.649 132.294C164.62 131.825 165.724 131.591 166.96 131.591C167.795 131.591 168.558 131.655 169.248 131.783C169.947 131.911 170.467 132.026 170.808 132.128L169.836 136.219C169.623 136.151 169.359 136.087 169.044 136.027C168.737 135.967 168.422 135.938 168.098 135.938C167.297 135.938 166.738 136.125 166.423 136.5C166.108 136.866 165.95 137.382 165.95 138.047V159H160.517ZM183.634 139.364V143.455H171.808V139.364H183.634ZM174.493 134.659H179.939V152.966C179.939 153.469 180.016 153.861 180.169 154.142C180.322 154.415 180.536 154.607 180.808 154.717C181.089 154.828 181.413 154.884 181.78 154.884C182.036 154.884 182.291 154.862 182.547 154.82C182.803 154.768 182.999 154.73 183.135 154.705L183.991 158.757C183.719 158.842 183.335 158.94 182.841 159.051C182.347 159.17 181.746 159.243 181.038 159.268C179.726 159.32 178.575 159.145 177.587 158.744C176.607 158.344 175.844 157.722 175.298 156.878C174.753 156.034 174.484 154.969 174.493 153.682V134.659ZM187.181 159V139.364H192.627V159H187.181ZM189.917 136.832C189.107 136.832 188.413 136.564 187.833 136.027C187.262 135.482 186.977 134.83 186.977 134.071C186.977 133.321 187.262 132.678 187.833 132.141C188.413 131.595 189.107 131.322 189.917 131.322C190.727 131.322 191.417 131.595 191.988 132.141C192.567 132.678 192.857 133.321 192.857 134.071C192.857 134.83 192.567 135.482 191.988 136.027C191.417 136.564 190.727 136.832 189.917 136.832ZM202.436 147.648V159H196.99V139.364H202.18V142.828H202.41C202.845 141.686 203.574 140.783 204.596 140.118C205.619 139.445 206.859 139.108 208.316 139.108C209.68 139.108 210.869 139.406 211.883 140.003C212.897 140.599 213.686 141.452 214.248 142.56C214.811 143.659 215.092 144.972 215.092 146.497V159H209.646V147.469C209.654 146.267 209.348 145.33 208.725 144.656C208.103 143.974 207.247 143.634 206.156 143.634C205.423 143.634 204.775 143.791 204.213 144.107C203.659 144.422 203.224 144.882 202.909 145.487C202.602 146.084 202.444 146.804 202.436 147.648ZM228.231 166.773C226.467 166.773 224.954 166.53 223.692 166.044C222.44 165.567 221.442 164.915 220.701 164.088C219.96 163.261 219.478 162.332 219.256 161.301L224.293 160.624C224.447 161.016 224.69 161.382 225.022 161.723C225.354 162.064 225.793 162.337 226.339 162.541C226.893 162.754 227.566 162.861 228.359 162.861C229.543 162.861 230.519 162.571 231.286 161.991C232.062 161.42 232.45 160.462 232.45 159.115V155.523H232.219C231.981 156.068 231.623 156.584 231.146 157.07C230.668 157.555 230.055 157.952 229.305 158.259C228.555 158.565 227.66 158.719 226.62 158.719C225.146 158.719 223.803 158.378 222.593 157.696C221.391 157.006 220.433 155.953 219.717 154.538C219.009 153.115 218.656 151.317 218.656 149.143C218.656 146.919 219.018 145.061 219.742 143.57C220.467 142.078 221.43 140.962 222.631 140.22C223.842 139.479 225.167 139.108 226.607 139.108C227.707 139.108 228.627 139.295 229.369 139.67C230.11 140.037 230.707 140.497 231.158 141.051C231.619 141.597 231.972 142.134 232.219 142.662H232.424V139.364H237.832V159.192C237.832 160.862 237.423 162.26 236.604 163.385C235.786 164.51 234.653 165.354 233.204 165.916C231.763 166.487 230.106 166.773 228.231 166.773ZM228.346 154.628C229.224 154.628 229.965 154.411 230.57 153.976C231.184 153.533 231.653 152.902 231.977 152.084C232.309 151.257 232.475 150.268 232.475 149.118C232.475 147.967 232.313 146.97 231.989 146.126C231.665 145.274 231.197 144.614 230.583 144.145C229.969 143.676 229.224 143.442 228.346 143.442C227.451 143.442 226.697 143.685 226.083 144.17C225.469 144.648 225.005 145.312 224.69 146.165C224.374 147.017 224.217 148.001 224.217 149.118C224.217 150.251 224.374 151.232 224.69 152.058C225.013 152.876 225.478 153.511 226.083 153.963C226.697 154.406 227.451 154.628 228.346 154.628ZM71.4212 176.818H77.6214L83.5916 188.094H83.8473L89.8175 176.818H96.0178L86.468 193.744V203H80.9709V193.744L71.4212 176.818ZM103.698 203.384C101.712 203.384 99.9947 202.962 98.5458 202.118C97.1055 201.266 95.9933 200.081 95.2092 198.564C94.4251 197.038 94.033 195.27 94.033 193.259C94.033 191.23 94.4251 189.457 95.2092 187.94C95.9933 186.415 97.1055 185.23 98.5458 184.386C99.9947 183.534 101.712 183.108 103.698 183.108C105.684 183.108 107.397 183.534 108.837 184.386C110.286 185.23 111.402 186.415 112.186 187.94C112.971 189.457 113.363 191.23 113.363 193.259C113.363 195.27 112.971 197.038 112.186 198.564C111.402 200.081 110.286 201.266 108.837 202.118C107.397 202.962 105.684 203.384 103.698 203.384ZM103.723 199.165C104.627 199.165 105.381 198.909 105.986 198.398C106.591 197.878 107.047 197.17 107.354 196.276C107.669 195.381 107.827 194.362 107.827 193.22C107.827 192.078 107.669 191.06 107.354 190.165C107.047 189.27 106.591 188.562 105.986 188.043C105.381 187.523 104.627 187.263 103.723 187.263C102.811 187.263 102.044 187.523 101.422 188.043C100.809 188.562 100.344 189.27 100.029 190.165C99.7219 191.06 99.5685 192.078 99.5685 193.22C99.5685 194.362 99.7219 195.381 100.029 196.276C100.344 197.17 100.809 197.878 101.422 198.398C102.044 198.909 102.811 199.165 103.723 199.165ZM129.496 194.639V183.364H134.942V203H129.713V199.433H129.509C129.066 200.584 128.328 201.509 127.297 202.207C126.275 202.906 125.026 203.256 123.551 203.256C122.239 203.256 121.084 202.957 120.087 202.361C119.09 201.764 118.31 200.916 117.748 199.817C117.194 198.717 116.912 197.401 116.904 195.866V183.364H122.35V194.895C122.358 196.054 122.669 196.97 123.283 197.643C123.897 198.317 124.719 198.653 125.75 198.653C126.407 198.653 127.02 198.504 127.591 198.206C128.162 197.899 128.623 197.447 128.972 196.851C129.33 196.254 129.505 195.517 129.496 194.639ZM139.298 203V183.364H144.578V186.79H144.783C145.141 185.571 145.741 184.651 146.585 184.028C147.429 183.398 148.401 183.082 149.5 183.082C149.773 183.082 150.067 183.099 150.382 183.134C150.697 183.168 150.974 183.214 151.213 183.274V188.107C150.957 188.03 150.604 187.962 150.152 187.902C149.7 187.842 149.287 187.812 148.912 187.812C148.111 187.812 147.395 187.987 146.764 188.337C146.142 188.678 145.648 189.155 145.281 189.768C144.923 190.382 144.744 191.089 144.744 191.891V203H139.298ZM162.463 203V176.818H172.946C174.872 176.818 176.479 177.104 177.766 177.675C179.053 178.246 180.02 179.038 180.668 180.053C181.315 181.058 181.639 182.217 181.639 183.53C181.639 184.553 181.435 185.452 181.026 186.227C180.616 186.994 180.054 187.625 179.338 188.119C178.631 188.605 177.821 188.95 176.909 189.155V189.411C177.906 189.453 178.839 189.734 179.709 190.254C180.587 190.774 181.298 191.503 181.844 192.44C182.389 193.369 182.662 194.477 182.662 195.764C182.662 197.153 182.317 198.393 181.626 199.484C180.945 200.567 179.935 201.423 178.597 202.054C177.259 202.685 175.609 203 173.649 203H162.463ZM167.999 198.474H172.511C174.054 198.474 175.179 198.18 175.886 197.592C176.594 196.996 176.947 196.203 176.947 195.214C176.947 194.49 176.773 193.851 176.423 193.297C176.074 192.743 175.575 192.308 174.928 191.993C174.288 191.678 173.526 191.52 172.639 191.52H167.999V198.474ZM167.999 187.774H172.102C172.861 187.774 173.534 187.642 174.122 187.378C174.719 187.105 175.188 186.722 175.528 186.227C175.878 185.733 176.053 185.141 176.053 184.45C176.053 183.504 175.716 182.741 175.043 182.162C174.378 181.582 173.432 181.293 172.205 181.293H167.999V187.774ZM186.162 203V183.364H191.441V186.79H191.646C192.004 185.571 192.605 184.651 193.449 184.028C194.292 183.398 195.264 183.082 196.363 183.082C196.636 183.082 196.93 183.099 197.245 183.134C197.561 183.168 197.838 183.214 198.076 183.274V188.107C197.821 188.03 197.467 187.962 197.015 187.902C196.564 187.842 196.15 187.812 195.775 187.812C194.974 187.812 194.258 187.987 193.627 188.337C193.005 188.678 192.511 189.155 192.145 189.768C191.787 190.382 191.608 191.089 191.608 191.891V203H186.162ZM205.929 203.371C204.676 203.371 203.56 203.153 202.58 202.719C201.599 202.276 200.824 201.624 200.253 200.763C199.69 199.893 199.409 198.811 199.409 197.516C199.409 196.425 199.609 195.509 200.01 194.767C200.411 194.026 200.956 193.429 201.646 192.977C202.337 192.526 203.121 192.185 203.999 191.955C204.885 191.724 205.814 191.562 206.786 191.469C207.928 191.349 208.848 191.239 209.547 191.136C210.246 191.026 210.753 190.864 211.068 190.651C211.384 190.437 211.541 190.122 211.541 189.705V189.628C211.541 188.818 211.286 188.192 210.774 187.749C210.271 187.305 209.555 187.084 208.626 187.084C207.646 187.084 206.866 187.301 206.287 187.736C205.707 188.162 205.324 188.699 205.136 189.347L200.099 188.938C200.355 187.744 200.858 186.713 201.608 185.844C202.358 184.966 203.325 184.293 204.51 183.824C205.703 183.347 207.084 183.108 208.652 183.108C209.743 183.108 210.787 183.236 211.784 183.491C212.79 183.747 213.68 184.143 214.456 184.68C215.24 185.217 215.858 185.908 216.31 186.751C216.761 187.587 216.987 188.588 216.987 189.756V203H211.822V200.277H211.669C211.354 200.891 210.932 201.432 210.403 201.901C209.875 202.361 209.24 202.723 208.499 202.987C207.757 203.243 206.901 203.371 205.929 203.371ZM207.489 199.612C208.29 199.612 208.997 199.455 209.611 199.139C210.224 198.815 210.706 198.381 211.055 197.835C211.405 197.29 211.58 196.672 211.58 195.982V193.898C211.409 194.009 211.175 194.111 210.876 194.205C210.587 194.29 210.259 194.371 209.892 194.447C209.526 194.516 209.159 194.58 208.793 194.639C208.426 194.69 208.094 194.737 207.795 194.78C207.156 194.874 206.598 195.023 206.121 195.227C205.643 195.432 205.273 195.709 205.009 196.058C204.744 196.399 204.612 196.825 204.612 197.337C204.612 198.078 204.881 198.645 205.418 199.037C205.963 199.42 206.653 199.612 207.489 199.612ZM226.658 191.648V203H221.212V183.364H226.403V186.828H226.633C227.067 185.686 227.796 184.783 228.819 184.118C229.842 183.445 231.082 183.108 232.539 183.108C233.903 183.108 235.092 183.406 236.106 184.003C237.12 184.599 237.908 185.452 238.471 186.56C239.033 187.659 239.315 188.972 239.315 190.497V203H233.869V191.469C233.877 190.267 233.57 189.33 232.948 188.656C232.326 187.974 231.469 187.634 230.379 187.634C229.646 187.634 228.998 187.791 228.435 188.107C227.881 188.422 227.447 188.882 227.131 189.487C226.825 190.084 226.667 190.804 226.658 191.648ZM250.843 203.32C249.351 203.32 248 202.936 246.79 202.169C245.588 201.393 244.634 200.256 243.926 198.756C243.228 197.247 242.878 195.398 242.878 193.207C242.878 190.957 243.24 189.087 243.965 187.595C244.689 186.095 245.652 184.974 246.854 184.233C248.064 183.483 249.39 183.108 250.83 183.108C251.929 183.108 252.846 183.295 253.578 183.67C254.32 184.037 254.917 184.497 255.368 185.051C255.828 185.597 256.178 186.134 256.417 186.662H256.583V176.818H262.016V203H256.647V199.855H256.417C256.161 200.401 255.799 200.942 255.33 201.479C254.87 202.007 254.269 202.446 253.527 202.795C252.794 203.145 251.9 203.32 250.843 203.32ZM252.569 198.986C253.446 198.986 254.188 198.747 254.793 198.27C255.407 197.784 255.875 197.107 256.199 196.237C256.532 195.368 256.698 194.349 256.698 193.182C256.698 192.014 256.536 191 256.212 190.139C255.888 189.278 255.419 188.614 254.806 188.145C254.192 187.676 253.446 187.442 252.569 187.442C251.674 187.442 250.919 187.685 250.306 188.17C249.692 188.656 249.228 189.33 248.912 190.19C248.597 191.051 248.439 192.048 248.439 193.182C248.439 194.324 248.597 195.334 248.912 196.212C249.236 197.081 249.701 197.763 250.306 198.257C250.919 198.743 251.674 198.986 252.569 198.986Z" fill="black"/>
</svg>
