<svg width="336" height="336" viewBox="0 0 336 336" fill="none" xmlns="http://www.w3.org/2000/svg">
<circle cx="168" cy="168" r="168" fill="white"/>
<path d="M95.8665 97.3182C95.4877 96.0909 94.965 94.9924 94.2983 94.0227C93.6468 93.0379 92.8589 92.197 91.9347 91.5C91.0256 90.803 89.9801 90.2803 88.7983 89.9318C87.6165 89.5682 86.3286 89.3864 84.9347 89.3864C82.4347 89.3864 80.2074 90.0152 78.2528 91.2727C76.2983 92.5303 74.7604 94.3788 73.6392 96.8182C72.5331 99.2424 71.9801 102.197 71.9801 105.682C71.9801 109.197 72.5331 112.174 73.6392 114.614C74.7453 117.053 76.2831 118.909 78.2528 120.182C80.2225 121.439 82.5104 122.068 85.1165 122.068C87.4801 122.068 89.5256 121.614 91.2528 120.705C92.9953 119.795 94.3362 118.508 95.2756 116.841C96.215 115.159 96.6847 113.189 96.6847 110.932L98.5938 111.227H85.9574V104.636H104.844V110.227C104.844 114.212 103.995 117.659 102.298 120.568C100.601 123.477 98.268 125.72 95.2983 127.295C92.3286 128.856 88.9195 129.636 85.071 129.636C80.7831 129.636 77.018 128.674 73.7756 126.75C70.5483 124.811 68.0256 122.061 66.2074 118.5C64.4044 114.924 63.5028 110.682 63.5028 105.773C63.5028 102.015 64.0331 98.6591 65.0938 95.7045C66.1695 92.75 67.6695 90.2424 69.5938 88.1818C71.518 86.1061 73.7756 84.5303 76.3665 83.4545C78.9574 82.3636 81.7756 81.8182 84.821 81.8182C87.3968 81.8182 89.7983 82.197 92.0256 82.9545C94.2528 83.697 96.2301 84.7576 97.9574 86.1364C99.6998 87.5152 101.132 89.1515 102.253 91.0455C103.374 92.9394 104.109 95.0303 104.457 97.3182H95.8665ZM205.69 142.818C202.736 142.818 200.198 142.417 198.077 141.614C195.955 140.826 194.251 139.765 192.963 138.432C191.675 137.098 190.781 135.621 190.281 134L197.69 132.205C198.024 132.886 198.509 133.561 199.145 134.227C199.781 134.909 200.637 135.47 201.713 135.909C202.804 136.364 204.175 136.591 205.827 136.591C208.16 136.591 210.092 136.023 211.622 134.886C213.152 133.765 213.918 131.917 213.918 129.341V122.727H213.509C213.084 123.576 212.463 124.447 211.645 125.341C210.842 126.235 209.774 126.985 208.44 127.591C207.122 128.197 205.463 128.5 203.463 128.5C200.781 128.5 198.349 127.871 196.168 126.614C194.001 125.341 192.274 123.447 190.986 120.932C189.713 118.402 189.077 115.235 189.077 111.432C189.077 107.598 189.713 104.364 190.986 101.727C192.274 99.0758 194.009 97.0682 196.19 95.7045C198.372 94.3258 200.804 93.6364 203.486 93.6364C205.531 93.6364 207.213 93.9848 208.531 94.6818C209.865 95.3636 210.925 96.1894 211.713 97.1591C212.501 98.1136 213.099 99.0152 213.509 99.8636H213.963V94.0909H222.077V129.568C222.077 132.553 221.365 135.023 219.94 136.977C218.516 138.932 216.569 140.394 214.099 141.364C211.63 142.333 208.827 142.818 205.69 142.818ZM205.759 122.045C207.501 122.045 208.986 121.621 210.213 120.773C211.44 119.924 212.372 118.705 213.009 117.114C213.645 115.523 213.963 113.614 213.963 111.386C213.963 109.189 213.645 107.265 213.009 105.614C212.387 103.962 211.463 102.682 210.236 101.773C209.024 100.848 207.531 100.386 205.759 100.386C203.925 100.386 202.395 100.864 201.168 101.818C199.94 102.773 199.016 104.083 198.395 105.75C197.774 107.402 197.463 109.28 197.463 111.386C197.463 113.523 197.774 115.394 198.395 117C199.031 118.591 199.963 119.833 201.19 120.727C202.433 121.606 203.955 122.045 205.759 122.045Z" fill="#4184F3"/>
<path d="M127.861 129.682C124.452 129.682 121.497 128.932 118.997 127.432C116.497 125.932 114.558 123.833 113.179 121.136C111.815 118.439 111.134 115.288 111.134 111.682C111.134 108.076 111.815 104.917 113.179 102.205C114.558 99.4924 116.497 97.3864 118.997 95.8864C121.497 94.3864 124.452 93.6364 127.861 93.6364C131.27 93.6364 134.224 94.3864 136.724 95.8864C139.224 97.3864 141.156 99.4924 142.52 102.205C143.899 104.917 144.588 108.076 144.588 111.682C144.588 115.288 143.899 118.439 142.52 121.136C141.156 123.833 139.224 125.932 136.724 127.432C134.224 128.932 131.27 129.682 127.861 129.682ZM127.906 123.091C129.755 123.091 131.3 122.583 132.543 121.568C133.785 120.538 134.709 119.159 135.315 117.432C135.937 115.705 136.247 113.78 136.247 111.659C136.247 109.523 135.937 107.591 135.315 105.864C134.709 104.121 133.785 102.735 132.543 101.705C131.3 100.674 129.755 100.159 127.906 100.159C126.012 100.159 124.437 100.674 123.179 101.705C121.937 102.735 121.005 104.121 120.384 105.864C119.777 107.591 119.474 109.523 119.474 111.659C119.474 113.78 119.777 115.705 120.384 117.432C121.005 119.159 121.937 120.538 123.179 121.568C124.437 122.583 126.012 123.091 127.906 123.091ZM262.651 129.682C259.151 129.682 256.128 128.955 253.582 127.5C251.052 126.03 249.105 123.955 247.741 121.273C246.378 118.576 245.696 115.402 245.696 111.75C245.696 108.159 246.378 105.008 247.741 102.295C249.12 99.5682 251.045 97.447 253.514 95.9318C255.984 94.4015 258.885 93.6364 262.219 93.6364C264.37 93.6364 266.401 93.9848 268.31 94.6818C270.234 95.3636 271.931 96.4242 273.401 97.8636C274.885 99.303 276.052 101.136 276.901 103.364C277.749 105.576 278.173 108.212 278.173 111.273V113.795H249.56V108.25H270.287C270.272 106.674 269.931 105.273 269.264 104.045C268.598 102.803 267.666 101.826 266.469 101.114C265.287 100.402 263.908 100.045 262.332 100.045C260.651 100.045 259.173 100.455 257.901 101.273C256.628 102.076 255.635 103.136 254.923 104.455C254.226 105.758 253.87 107.189 253.855 108.75V113.591C253.855 115.621 254.226 117.364 254.969 118.818C255.711 120.258 256.749 121.364 258.082 122.136C259.416 122.894 260.976 123.273 262.764 123.273C263.961 123.273 265.045 123.106 266.014 122.773C266.984 122.424 267.825 121.917 268.537 121.25C269.249 120.583 269.787 119.758 270.151 118.773L277.832 119.636C277.348 121.667 276.423 123.439 275.06 124.955C273.711 126.455 271.984 127.621 269.878 128.455C267.772 129.273 265.363 129.682 262.651 129.682Z" fill="#E94235"/>
<path d="M166.798 129.682C163.389 129.682 160.435 128.932 157.935 127.432C155.435 125.932 153.495 123.833 152.116 121.136C150.753 118.439 150.071 115.288 150.071 111.682C150.071 108.076 150.753 104.917 152.116 102.205C153.495 99.4924 155.435 97.3864 157.935 95.8864C160.435 94.3864 163.389 93.6364 166.798 93.6364C170.207 93.6364 173.162 94.3864 175.662 95.8864C178.162 97.3864 180.094 99.4924 181.457 102.205C182.836 104.917 183.526 108.076 183.526 111.682C183.526 115.288 182.836 118.439 181.457 121.136C180.094 123.833 178.162 125.932 175.662 127.432C173.162 128.932 170.207 129.682 166.798 129.682ZM166.844 123.091C168.692 123.091 170.238 122.583 171.48 121.568C172.723 120.538 173.647 119.159 174.253 117.432C174.874 115.705 175.185 113.78 175.185 111.659C175.185 109.523 174.874 107.591 174.253 105.864C173.647 104.121 172.723 102.735 171.48 101.705C170.238 100.674 168.692 100.159 166.844 100.159C164.95 100.159 163.374 100.674 162.116 101.705C160.874 102.735 159.942 104.121 159.321 105.864C158.715 107.591 158.412 109.523 158.412 111.659C158.412 113.78 158.715 115.705 159.321 117.432C159.942 119.159 160.874 120.538 162.116 121.568C163.374 122.583 164.95 123.091 166.844 123.091Z" fill="#F9BA05"/>
<path d="M238.736 82.4545V129H230.509V82.4545H238.736Z" fill="#34A852"/>
<line y1="167.5" x2="336" y2="167.5" stroke="black" stroke-dasharray="16 16"/>
<path d="M62.9634 241L54.9947 211.909H57.6935L64.2844 236.923H64.5117L71.1026 211.909H74.1708L80.7617 236.923H80.989L87.5799 211.909H90.293L82.3242 241H79.4833L72.7362 216.327H72.5515L65.8043 241H62.9634ZM117.576 226.455C117.576 229.485 117.037 232.122 115.957 234.366C114.877 236.601 113.391 238.334 111.497 239.565C109.612 240.787 107.444 241.398 104.991 241.398C102.538 241.398 100.365 240.787 98.4712 239.565C96.5868 238.334 95.1048 236.601 94.0252 234.366C92.9551 232.122 92.4201 229.485 92.4201 226.455C92.4201 223.424 92.9551 220.792 94.0252 218.557C95.1048 216.312 96.5915 214.58 98.4854 213.358C100.379 212.127 102.548 211.511 104.991 211.511C107.444 211.511 109.612 212.127 111.497 213.358C113.391 214.58 114.877 216.312 115.957 218.557C117.037 220.792 117.576 223.424 117.576 226.455ZM114.991 226.455C114.991 223.85 114.556 221.62 113.684 219.764C112.813 217.899 111.625 216.473 110.119 215.489C108.613 214.504 106.904 214.011 104.991 214.011C103.088 214.011 101.383 214.504 99.8775 215.489C98.3718 216.473 97.1786 217.894 96.2979 219.75C95.4267 221.606 94.9911 223.841 94.9911 226.455C94.9911 229.059 95.4267 231.289 96.2979 233.145C97.1692 235.001 98.3576 236.426 99.8633 237.42C101.369 238.405 103.078 238.898 104.991 238.898C106.904 238.898 108.613 238.405 110.119 237.42C111.634 236.436 112.827 235.015 113.699 233.159C114.57 231.294 115.001 229.059 114.991 226.455ZM124 241V211.909H133.39C135.454 211.909 137.177 212.283 138.56 213.031C139.952 213.77 140.998 214.797 141.699 216.114C142.409 217.42 142.765 218.921 142.765 220.616C142.765 222.312 142.409 223.808 141.699 225.105C140.998 226.402 139.957 227.416 138.574 228.145C137.192 228.874 135.478 229.239 133.432 229.239H125.435V226.81H133.361C134.876 226.81 136.136 226.559 137.14 226.057C138.153 225.555 138.906 224.84 139.398 223.912C139.9 222.984 140.151 221.885 140.151 220.616C140.151 219.348 139.9 218.24 139.398 217.293C138.896 216.336 138.139 215.598 137.125 215.077C136.122 214.556 134.853 214.295 133.319 214.295H126.657V241H124ZM136.827 227.875L143.986 241H140.918L133.83 227.875H136.827ZM149.235 241V211.909H151.891V227.577H152.147L166.351 211.909H169.846L157.417 225.361L169.789 241H166.55L155.769 227.207L151.891 231.554V241H149.235ZM190.655 219.182C190.494 217.562 189.779 216.275 188.51 215.318C187.241 214.362 185.646 213.884 183.723 213.884C182.369 213.884 181.176 214.116 180.144 214.58C179.121 215.044 178.316 215.687 177.729 216.511C177.151 217.326 176.863 218.254 176.863 219.295C176.863 220.062 177.028 220.735 177.36 221.312C177.691 221.89 178.136 222.387 178.695 222.804C179.263 223.211 179.888 223.562 180.57 223.855C181.261 224.149 181.957 224.395 182.658 224.594L185.726 225.474C186.654 225.73 187.582 226.057 188.51 226.455C189.438 226.852 190.286 227.354 191.053 227.96C191.829 228.557 192.45 229.291 192.914 230.162C193.387 231.024 193.624 232.061 193.624 233.273C193.624 234.826 193.221 236.223 192.417 237.463C191.612 238.704 190.456 239.688 188.951 240.418C187.445 241.137 185.641 241.497 183.539 241.497C181.56 241.497 179.841 241.17 178.382 240.517C176.924 239.854 175.778 238.94 174.945 237.776C174.112 236.611 173.643 235.261 173.539 233.727H176.266C176.361 234.873 176.739 235.844 177.402 236.639C178.065 237.435 178.927 238.041 179.988 238.457C181.048 238.865 182.232 239.068 183.539 239.068C184.988 239.068 186.275 238.827 187.402 238.344C188.539 237.851 189.429 237.17 190.073 236.298C190.726 235.418 191.053 234.395 191.053 233.23C191.053 232.245 190.797 231.421 190.286 230.759C189.775 230.086 189.06 229.523 188.141 229.068C187.232 228.614 186.176 228.211 184.973 227.861L181.493 226.838C179.211 226.156 177.44 225.214 176.181 224.011C174.921 222.809 174.292 221.275 174.292 219.409C174.292 217.847 174.708 216.473 175.542 215.29C176.384 214.097 177.521 213.169 178.951 212.506C180.39 211.833 182.005 211.497 183.794 211.497C185.603 211.497 187.203 211.829 188.596 212.491C189.988 213.154 191.091 214.068 191.905 215.233C192.729 216.388 193.169 217.705 193.226 219.182H190.655ZM200.016 241V211.909H202.672V225.247H219.178V211.909H221.834V241H219.178V227.634H202.672V241H200.016ZM253.397 226.455C253.397 229.485 252.857 232.122 251.777 234.366C250.698 236.601 249.211 238.334 247.317 239.565C245.433 240.787 243.264 241.398 240.811 241.398C238.359 241.398 236.185 240.787 234.292 239.565C232.407 238.334 230.925 236.601 229.846 234.366C228.775 232.122 228.24 229.485 228.24 226.455C228.24 223.424 228.775 220.792 229.846 218.557C230.925 216.312 232.412 214.58 234.306 213.358C236.2 212.127 238.368 211.511 240.811 211.511C243.264 211.511 245.433 212.127 247.317 213.358C249.211 214.58 250.698 216.312 251.777 218.557C252.857 220.792 253.397 223.424 253.397 226.455ZM250.811 226.455C250.811 223.85 250.376 221.62 249.505 219.764C248.633 217.899 247.445 216.473 245.939 215.489C244.434 214.504 242.724 214.011 240.811 214.011C238.908 214.011 237.203 214.504 235.698 215.489C234.192 216.473 232.999 217.894 232.118 219.75C231.247 221.606 230.811 223.841 230.811 226.455C230.811 229.059 231.247 231.289 232.118 233.145C232.989 235.001 234.178 236.426 235.684 237.42C237.189 238.405 238.899 238.898 240.811 238.898C242.724 238.898 244.434 238.405 245.939 237.42C247.454 236.436 248.648 235.015 249.519 233.159C250.39 231.294 250.821 229.059 250.811 226.455ZM259.821 241V211.909H269.21C271.274 211.909 272.998 212.307 274.38 213.102C275.772 213.888 276.819 214.958 277.52 216.312C278.23 217.667 278.585 219.191 278.585 220.886C278.585 222.581 278.234 224.111 277.534 225.474C276.833 226.829 275.791 227.903 274.409 228.699C273.026 229.485 271.307 229.878 269.252 229.878H261.866V227.491H269.181C270.706 227.491 271.97 227.207 272.974 226.639C273.978 226.062 274.726 225.276 275.218 224.281C275.72 223.287 275.971 222.155 275.971 220.886C275.971 219.617 275.72 218.486 275.218 217.491C274.726 216.497 273.973 215.716 272.96 215.148C271.956 214.58 270.682 214.295 269.139 214.295H262.477V241H259.821Z" fill="black"/>
</svg>
