<svg width="336" height="336" viewBox="0 0 336 336" fill="none" xmlns="http://www.w3.org/2000/svg">
<circle cx="168" cy="168" r="168" fill="white"/>
<path d="M95.8665 160.318C95.4877 159.091 94.965 157.992 94.2983 157.023C93.6468 156.038 92.8589 155.197 91.9347 154.5C91.0256 153.803 89.9801 153.28 88.7983 152.932C87.6165 152.568 86.3286 152.386 84.9347 152.386C82.4347 152.386 80.2074 153.015 78.2528 154.273C76.2983 155.53 74.7604 157.379 73.6392 159.818C72.5331 162.242 71.9801 165.197 71.9801 168.682C71.9801 172.197 72.5331 175.174 73.6392 177.614C74.7453 180.053 76.2831 181.909 78.2528 183.182C80.2225 184.439 82.5104 185.068 85.1165 185.068C87.4801 185.068 89.5256 184.614 91.2528 183.705C92.9953 182.795 94.3362 181.508 95.2756 179.841C96.215 178.159 96.6847 176.189 96.6847 173.932L98.5938 174.227H85.9574V167.636H104.844V173.227C104.844 177.212 103.995 180.659 102.298 183.568C100.601 186.477 98.268 188.72 95.2983 190.295C92.3286 191.856 88.9195 192.636 85.071 192.636C80.7831 192.636 77.018 191.674 73.7756 189.75C70.5483 187.811 68.0256 185.061 66.2074 181.5C64.4044 177.924 63.5028 173.682 63.5028 168.773C63.5028 165.015 64.0331 161.659 65.0938 158.705C66.1695 155.75 67.6695 153.242 69.5938 151.182C71.518 149.106 73.7756 147.53 76.3665 146.455C78.9574 145.364 81.7756 144.818 84.821 144.818C87.3968 144.818 89.7983 145.197 92.0256 145.955C94.2528 146.697 96.2301 147.758 97.9574 149.136C99.6998 150.515 101.132 152.152 102.253 154.045C103.374 155.939 104.109 158.03 104.457 160.318H95.8665ZM205.69 205.818C202.736 205.818 200.198 205.417 198.077 204.614C195.955 203.826 194.251 202.765 192.963 201.432C191.675 200.098 190.781 198.621 190.281 197L197.69 195.205C198.024 195.886 198.509 196.561 199.145 197.227C199.781 197.909 200.637 198.47 201.713 198.909C202.804 199.364 204.175 199.591 205.827 199.591C208.16 199.591 210.092 199.023 211.622 197.886C213.152 196.765 213.918 194.917 213.918 192.341V185.727H213.509C213.084 186.576 212.463 187.447 211.645 188.341C210.842 189.235 209.774 189.985 208.44 190.591C207.122 191.197 205.463 191.5 203.463 191.5C200.781 191.5 198.349 190.871 196.168 189.614C194.001 188.341 192.274 186.447 190.986 183.932C189.713 181.402 189.077 178.235 189.077 174.432C189.077 170.598 189.713 167.364 190.986 164.727C192.274 162.076 194.009 160.068 196.19 158.705C198.372 157.326 200.804 156.636 203.486 156.636C205.531 156.636 207.213 156.985 208.531 157.682C209.865 158.364 210.925 159.189 211.713 160.159C212.501 161.114 213.099 162.015 213.509 162.864H213.963V157.091H222.077V192.568C222.077 195.553 221.365 198.023 219.94 199.977C218.516 201.932 216.569 203.394 214.099 204.364C211.63 205.333 208.827 205.818 205.69 205.818ZM205.759 185.045C207.501 185.045 208.986 184.621 210.213 183.773C211.44 182.924 212.372 181.705 213.009 180.114C213.645 178.523 213.963 176.614 213.963 174.386C213.963 172.189 213.645 170.265 213.009 168.614C212.387 166.962 211.463 165.682 210.236 164.773C209.024 163.848 207.531 163.386 205.759 163.386C203.925 163.386 202.395 163.864 201.168 164.818C199.94 165.773 199.016 167.083 198.395 168.75C197.774 170.402 197.463 172.28 197.463 174.386C197.463 176.523 197.774 178.394 198.395 180C199.031 181.591 199.963 182.833 201.19 183.727C202.433 184.606 203.955 185.045 205.759 185.045Z" fill="#4184F3"/>
<path d="M127.861 192.682C124.452 192.682 121.497 191.932 118.997 190.432C116.497 188.932 114.558 186.833 113.179 184.136C111.815 181.439 111.134 178.288 111.134 174.682C111.134 171.076 111.815 167.917 113.179 165.205C114.558 162.492 116.497 160.386 118.997 158.886C121.497 157.386 124.452 156.636 127.861 156.636C131.27 156.636 134.224 157.386 136.724 158.886C139.224 160.386 141.156 162.492 142.52 165.205C143.899 167.917 144.588 171.076 144.588 174.682C144.588 178.288 143.899 181.439 142.52 184.136C141.156 186.833 139.224 188.932 136.724 190.432C134.224 191.932 131.27 192.682 127.861 192.682ZM127.906 186.091C129.755 186.091 131.3 185.583 132.543 184.568C133.785 183.538 134.709 182.159 135.315 180.432C135.937 178.705 136.247 176.78 136.247 174.659C136.247 172.523 135.937 170.591 135.315 168.864C134.709 167.121 133.785 165.735 132.543 164.705C131.3 163.674 129.755 163.159 127.906 163.159C126.012 163.159 124.437 163.674 123.179 164.705C121.937 165.735 121.005 167.121 120.384 168.864C119.777 170.591 119.474 172.523 119.474 174.659C119.474 176.78 119.777 178.705 120.384 180.432C121.005 182.159 121.937 183.538 123.179 184.568C124.437 185.583 126.012 186.091 127.906 186.091ZM262.651 192.682C259.151 192.682 256.128 191.955 253.582 190.5C251.052 189.03 249.105 186.955 247.741 184.273C246.378 181.576 245.696 178.402 245.696 174.75C245.696 171.159 246.378 168.008 247.741 165.295C249.12 162.568 251.045 160.447 253.514 158.932C255.984 157.402 258.885 156.636 262.219 156.636C264.37 156.636 266.401 156.985 268.31 157.682C270.234 158.364 271.931 159.424 273.401 160.864C274.885 162.303 276.052 164.136 276.901 166.364C277.749 168.576 278.173 171.212 278.173 174.273V176.795H249.56V171.25H270.287C270.272 169.674 269.931 168.273 269.264 167.045C268.598 165.803 267.666 164.826 266.469 164.114C265.287 163.402 263.908 163.045 262.332 163.045C260.651 163.045 259.173 163.455 257.901 164.273C256.628 165.076 255.635 166.136 254.923 167.455C254.226 168.758 253.87 170.189 253.855 171.75V176.591C253.855 178.621 254.226 180.364 254.969 181.818C255.711 183.258 256.749 184.364 258.082 185.136C259.416 185.894 260.976 186.273 262.764 186.273C263.961 186.273 265.045 186.106 266.014 185.773C266.984 185.424 267.825 184.917 268.537 184.25C269.249 183.583 269.787 182.758 270.151 181.773L277.832 182.636C277.348 184.667 276.423 186.439 275.06 187.955C273.711 189.455 271.984 190.621 269.878 191.455C267.772 192.273 265.363 192.682 262.651 192.682Z" fill="#E94235"/>
<path d="M166.798 192.682C163.389 192.682 160.435 191.932 157.935 190.432C155.435 188.932 153.495 186.833 152.116 184.136C150.753 181.439 150.071 178.288 150.071 174.682C150.071 171.076 150.753 167.917 152.116 165.205C153.495 162.492 155.435 160.386 157.935 158.886C160.435 157.386 163.389 156.636 166.798 156.636C170.207 156.636 173.162 157.386 175.662 158.886C178.162 160.386 180.094 162.492 181.457 165.205C182.836 167.917 183.526 171.076 183.526 174.682C183.526 178.288 182.836 181.439 181.457 184.136C180.094 186.833 178.162 188.932 175.662 190.432C173.162 191.932 170.207 192.682 166.798 192.682ZM166.844 186.091C168.692 186.091 170.238 185.583 171.48 184.568C172.723 183.538 173.647 182.159 174.253 180.432C174.874 178.705 175.185 176.78 175.185 174.659C175.185 172.523 174.874 170.591 174.253 168.864C173.647 167.121 172.723 165.735 171.48 164.705C170.238 163.674 168.692 163.159 166.844 163.159C164.95 163.159 163.374 163.674 162.116 164.705C160.874 165.735 159.942 167.121 159.321 168.864C158.715 170.591 158.412 172.523 158.412 174.659C158.412 176.78 158.715 178.705 159.321 180.432C159.942 182.159 160.874 183.538 162.116 184.568C163.374 185.583 164.95 186.091 166.844 186.091Z" fill="#F9BA05"/>
<path d="M238.736 145.455V192H230.509V145.455H238.736Z" fill="#34A852"/>
</svg>
