<svg width="336" height="336" viewBox="0 0 336 336" fill="none" xmlns="http://www.w3.org/2000/svg">
<circle cx="168" cy="168" r="168" fill="white"/>
<rect x="88.1172" y="54" width="76.9232" height="76.9232" fill="#F25022"/>
<rect x="171.191" y="54" width="76.9232" height="76.9232" fill="#7FBA00"/>
<rect x="171.191" y="137.077" width="76.9232" height="76.9232" fill="#FEB801"/>
<rect x="88.1172" y="137.077" width="76.9232" height="76.9232" fill="#01A4EF"/>
<path d="M86.0445 246.545H93.6635L100.127 262.305H100.425L106.888 246.545H114.507V272H108.516V256.364H108.305L102.19 271.838H98.3617L92.2466 256.277H92.0353V272H86.0445V246.545ZM118.344 272V252.909H124.422V272H118.344ZM121.389 250.684C120.536 250.684 119.803 250.403 119.19 249.839C118.576 249.267 118.27 248.58 118.27 247.776C118.27 246.98 118.576 246.301 119.19 245.738C119.803 245.166 120.536 244.88 121.389 244.88C122.251 244.88 122.984 245.166 123.589 245.738C124.203 246.301 124.509 246.98 124.509 247.776C124.509 248.58 124.203 249.267 123.589 249.839C122.984 250.403 122.251 250.684 121.389 250.684ZM137.202 272.36C135.189 272.36 133.461 271.946 132.019 271.118C130.586 270.289 129.484 269.137 128.713 267.662C127.943 266.179 127.557 264.464 127.557 262.517C127.557 260.561 127.943 258.846 128.713 257.371C129.492 255.888 130.598 254.732 132.032 253.903C133.474 253.075 135.193 252.661 137.19 252.661C138.955 252.661 140.492 252.98 141.801 253.618C143.118 254.256 144.146 255.159 144.883 256.327C145.629 257.487 146.023 258.85 146.064 260.416H140.384C140.268 259.438 139.937 258.672 139.39 258.117C138.851 257.562 138.147 257.284 137.277 257.284C136.572 257.284 135.955 257.483 135.425 257.881C134.895 258.27 134.48 258.85 134.182 259.621C133.892 260.383 133.747 261.328 133.747 262.455C133.747 263.581 133.892 264.534 134.182 265.313C134.48 266.084 134.895 266.668 135.425 267.066C135.955 267.455 136.572 267.65 137.277 267.65C137.84 267.65 138.337 267.53 138.768 267.289C139.207 267.049 139.568 266.697 139.85 266.233C140.131 265.761 140.309 265.189 140.384 264.518H146.064C146.006 266.092 145.612 267.468 144.883 268.644C144.162 269.821 143.147 270.736 141.838 271.391C140.537 272.037 138.992 272.36 137.202 272.36ZM149.174 272V252.909H155.078V256.389H155.277C155.625 255.13 156.193 254.193 156.98 253.58C157.767 252.959 158.683 252.648 159.727 252.648C160.008 252.648 160.298 252.669 160.597 252.71C160.895 252.743 161.173 252.797 161.429 252.872V258.154C161.139 258.055 160.758 257.976 160.286 257.918C159.822 257.86 159.408 257.831 159.043 257.831C158.322 257.831 157.672 257.993 157.092 258.316C156.52 258.631 156.068 259.074 155.737 259.646C155.414 260.209 155.252 260.872 155.252 261.634V272H149.174ZM171.826 272.36C169.821 272.36 168.098 271.95 166.656 271.13C165.222 270.301 164.116 269.15 163.337 267.675C162.567 266.192 162.181 264.472 162.181 262.517C162.181 260.553 162.567 258.834 163.337 257.359C164.116 255.875 165.222 254.724 166.656 253.903C168.098 253.075 169.821 252.661 171.826 252.661C173.831 252.661 175.551 253.075 176.984 253.903C178.426 254.724 179.532 255.875 180.303 257.359C181.082 258.834 181.471 260.553 181.471 262.517C181.471 264.472 181.082 266.192 180.303 267.675C179.532 269.15 178.426 270.301 176.984 271.13C175.551 271.95 173.831 272.36 171.826 272.36ZM171.864 267.774C172.593 267.774 173.21 267.55 173.715 267.103C174.221 266.656 174.606 266.034 174.871 265.239C175.145 264.443 175.281 263.523 175.281 262.479C175.281 261.419 175.145 260.491 174.871 259.695C174.606 258.9 174.221 258.278 173.715 257.831C173.21 257.384 172.593 257.16 171.864 257.16C171.109 257.16 170.471 257.384 169.949 257.831C169.436 258.278 169.042 258.9 168.769 259.695C168.504 260.491 168.371 261.419 168.371 262.479C168.371 263.523 168.504 264.443 168.769 265.239C169.042 266.034 169.436 266.656 169.949 267.103C170.471 267.55 171.109 267.774 171.864 267.774ZM201.252 258.738L195.671 258.887C195.613 258.49 195.456 258.138 195.199 257.831C194.942 257.516 194.606 257.272 194.192 257.098C193.786 256.915 193.314 256.824 192.775 256.824C192.071 256.824 191.47 256.965 190.973 257.247C190.484 257.529 190.244 257.91 190.252 258.39C190.244 258.763 190.393 259.086 190.7 259.36C191.015 259.633 191.574 259.853 192.378 260.018L196.057 260.714C197.962 261.079 199.379 261.684 200.307 262.529C201.244 263.374 201.716 264.493 201.724 265.885C201.716 267.194 201.326 268.333 200.556 269.303C199.794 270.272 198.749 271.026 197.424 271.565C196.098 272.095 194.582 272.36 192.875 272.36C190.149 272.36 187.998 271.801 186.424 270.683C184.858 269.556 183.963 268.048 183.739 266.158L189.743 266.009C189.875 266.705 190.219 267.236 190.774 267.6C191.329 267.965 192.038 268.147 192.9 268.147C193.678 268.147 194.312 268.002 194.801 267.712C195.29 267.422 195.539 267.037 195.547 266.556C195.539 266.125 195.348 265.781 194.975 265.525C194.602 265.259 194.018 265.052 193.223 264.903L189.892 264.269C187.978 263.921 186.553 263.279 185.616 262.343C184.68 261.398 184.216 260.197 184.224 258.738C184.216 257.462 184.556 256.373 185.243 255.469C185.931 254.558 186.909 253.862 188.177 253.381C189.444 252.901 190.94 252.661 192.663 252.661C195.249 252.661 197.287 253.203 198.778 254.289C200.27 255.366 201.094 256.849 201.252 258.738ZM213.628 272.36C211.623 272.36 209.899 271.95 208.458 271.13C207.024 270.301 205.918 269.15 205.139 267.675C204.368 266.192 203.983 264.472 203.983 262.517C203.983 260.553 204.368 258.834 205.139 257.359C205.918 255.875 207.024 254.724 208.458 253.903C209.899 253.075 211.623 252.661 213.628 252.661C215.633 252.661 217.353 253.075 218.786 253.903C220.228 254.724 221.334 255.875 222.105 257.359C222.883 258.834 223.273 260.553 223.273 262.517C223.273 264.472 222.883 266.192 222.105 267.675C221.334 269.15 220.228 270.301 218.786 271.13C217.353 271.95 215.633 272.36 213.628 272.36ZM213.665 267.774C214.394 267.774 215.012 267.55 215.517 267.103C216.023 266.656 216.408 266.034 216.673 265.239C216.947 264.443 217.083 263.523 217.083 262.479C217.083 261.419 216.947 260.491 216.673 259.695C216.408 258.9 216.023 258.278 215.517 257.831C215.012 257.384 214.394 257.16 213.665 257.16C212.911 257.16 212.273 257.384 211.751 257.831C211.237 258.278 210.844 258.9 210.57 259.695C210.305 260.491 210.173 261.419 210.173 262.479C210.173 263.523 210.305 264.443 210.57 265.239C210.844 266.034 211.237 266.656 211.751 267.103C212.273 267.55 212.911 267.774 213.665 267.774ZM237.237 252.909V257.384H224.957V252.909H237.237ZM227.517 272V251.94C227.517 250.465 227.795 249.243 228.35 248.273C228.905 247.295 229.676 246.566 230.662 246.086C231.648 245.597 232.787 245.352 234.08 245.352C234.925 245.352 235.72 245.419 236.466 245.551C237.22 245.675 237.78 245.787 238.144 245.887L237.175 250.336C236.951 250.262 236.678 250.2 236.354 250.15C236.04 250.1 235.741 250.075 235.459 250.075C234.747 250.075 234.258 250.233 233.993 250.548C233.728 250.862 233.595 251.293 233.595 251.84V272H227.517ZM250.937 252.909V257.384H238.893V252.909H250.937ZM241.416 248.335H247.494V265.997C247.494 266.37 247.552 266.672 247.668 266.904C247.792 267.128 247.97 267.289 248.202 267.389C248.434 267.48 248.712 267.526 249.035 267.526C249.267 267.526 249.511 267.505 249.768 267.463C250.033 267.414 250.232 267.372 250.365 267.339L251.285 271.727C250.995 271.809 250.585 271.913 250.054 272.037C249.532 272.162 248.907 272.24 248.177 272.273C246.752 272.34 245.53 272.174 244.511 271.776C243.5 271.37 242.725 270.741 242.187 269.887C241.656 269.034 241.399 267.961 241.416 266.668V248.335Z" fill="black"/>
</svg>
