<svg width="111" height="255" viewBox="0 0 111 255" fill="none" xmlns="http://www.w3.org/2000/svg">
<path fill-rule="evenodd" clip-rule="evenodd" d="M29.3867 132.513C-23.648 46.6105 42.3477 7.83263 79.4339 0C-22.2006 4.23732 -1.41133 92.4507 9.36814 113.252C12.0168 118.363 15.0452 124.352 17.2239 128.385C24.6314 142.098 29.2432 150.635 33.0113 159.863C34.8326 164.601 34.7825 168.057 35.2217 172.497C35.711 177.441 36.1319 181.695 38.2415 184.131C42.2453 188.753 44.5295 195.816 45.1711 198.769C45.8127 200.695 46.2498 204.929 45.1711 207.629C43.6318 211.481 44.9151 214.819 45.5567 216.103C46.1984 218.415 46.711 221.959 45.1711 223.808C43.2469 225.734 43.7595 230.87 45.1711 232.668C45.4791 239.139 51.4591 244.352 54.4106 246.15H57.4904L75.97 189.909H55.5662C53.128 189.395 47.327 187.444 43.6312 174.501C39.3194 152.929 32.3383 137.52 29.3867 132.513Z" fill="#4973AE"/>
<path d="M109.848 199.539C111.388 194.3 110.012 190.679 109.37 189.139L75.97 189.909L57.4904 246.15C72.5815 264.024 87.9395 250.516 92.8159 243.068H97.4357C100.515 240.629 108.143 234.264 109.463 230.741C110.618 227.66 110.618 226.504 109.848 224.578C108.522 221.261 107.923 220.341 109.37 217.259C111.005 213.776 111.388 213.022 110.618 210.71C109.035 205.96 107.923 206.088 109.848 199.539Z" fill="#2F5F9F"/>
<rect x="33.3262" y="53.6082" width="65.5773" height="53.7845" rx="2" stroke="black" stroke-width="4"/>
<path d="M46.3105 61.3879L56.924 72.0014" stroke="black" stroke-width="2" stroke-linecap="round"/>
<path d="M57.2715 72.2455L46.658 82.859M69.0642 84.0382H58.4508" stroke="black" stroke-width="2" stroke-linecap="round"/>
<line x1="109" y1="204.5" x2="47" y2="204.5" stroke="white"/>
<line x1="109" y1="220.5" x2="47" y2="220.5" stroke="white"/>
<line x1="108" y1="233.5" x2="46" y2="233.5" stroke="white"/>
</svg>
