<svg width="344" height="344" viewBox="0 0 344 344" fill="none" xmlns="http://www.w3.org/2000/svg">
<g filter="url(#filter0_d_2900_202)">
<circle cx="172" cy="168" r="168" fill="white"/>
</g>
<g clip-path="url(#clip0_2900_202)">
<rect width="146" height="273.5" transform="translate(99.5 30.75)" fill="white"/>
<path d="M163.75 67.2256L158.25 60.4207L108.75 101.25L158.25 46.75L168.25 62.689L187.75 39.25L204.25 67.2256L224.75 41.25L221.25 34.75H237.25L233.75 54.372L230.75 48.75L184.25 91.4207L200.25 71.0061L187.75 56.6402L140.75 97.4695L163.75 67.2256Z" fill="black"/>
<path d="M162.75 64.2256L157.25 57.4207L107.75 98.25L157.25 43.75L167.25 59.689L186.75 36.25L203.25 64.2256L223.75 38.25L220.25 31.75H236.25L232.75 51.372L229.75 45.75L183.25 88.4207L199.25 68.0061L186.75 53.6402L139.75 94.4695L162.75 64.2256Z" fill="#3399FF"/>
<g filter="url(#filter1_d_2900_202)">
<path d="M105.742 142.871H128.633L129.102 151.289H127.734C127.552 149.831 127.318 148.652 127.031 147.754C126.745 146.855 126.335 146.165 125.801 145.684C125.28 145.189 124.603 144.857 123.77 144.688C122.936 144.518 121.888 144.434 120.625 144.434H119.043V169.688H123.34V171.25H110.938V169.688H115.234V144.434H113.75C112.904 144.434 112.155 144.466 111.504 144.531C110.853 144.596 110.28 144.72 109.785 144.902C109.303 145.085 108.887 145.339 108.535 145.664C108.184 145.99 107.884 146.406 107.637 146.914C107.389 147.422 107.174 148.034 106.992 148.75C106.823 149.466 106.673 150.312 106.543 151.289H105.176L105.742 142.871ZM142.52 142.871C144.59 142.871 146.335 143.027 147.754 143.34C149.173 143.652 150.319 144.095 151.191 144.668C152.064 145.241 152.689 145.938 153.066 146.758C153.444 147.565 153.633 148.464 153.633 149.453C153.633 150.312 153.496 151.126 153.223 151.895C152.962 152.663 152.565 153.359 152.031 153.984C151.497 154.609 150.827 155.15 150.02 155.605C149.225 156.048 148.288 156.387 147.207 156.621V156.699C148.105 156.908 148.841 157.214 149.414 157.617C150 158.021 150.469 158.516 150.82 159.102C151.185 159.688 151.465 160.358 151.66 161.113C151.868 161.855 152.051 162.676 152.207 163.574C152.363 164.499 152.5 165.345 152.617 166.113C152.747 166.868 152.917 167.526 153.125 168.086C153.333 168.633 153.613 169.062 153.965 169.375C154.329 169.674 154.831 169.824 155.469 169.824C155.586 169.824 155.749 169.818 155.957 169.805C156.178 169.792 156.419 169.766 156.68 169.727V171.23C156.458 171.283 156.217 171.328 155.957 171.367C155.697 171.406 155.43 171.432 155.156 171.445C154.896 171.471 154.635 171.484 154.375 171.484C154.128 171.497 153.906 171.504 153.711 171.504C152.578 171.504 151.686 171.387 151.035 171.152C150.397 170.905 149.902 170.527 149.551 170.02C149.212 169.512 148.971 168.874 148.828 168.105C148.685 167.337 148.548 166.426 148.418 165.371C148.223 163.835 148.027 162.546 147.832 161.504C147.637 160.462 147.363 159.629 147.012 159.004C146.66 158.366 146.185 157.917 145.586 157.656C144.987 157.383 144.173 157.246 143.145 157.246H139.473V169.688H143.574V171.25H131.758V169.688H135.664V144.434H131.758V142.871H142.52ZM139.473 155.684H142.07C143.477 155.684 144.648 155.566 145.586 155.332C146.536 155.098 147.298 154.733 147.871 154.238C148.457 153.73 148.867 153.092 149.102 152.324C149.349 151.543 149.473 150.605 149.473 149.512C149.473 148.6 149.375 147.826 149.18 147.188C148.984 146.536 148.62 146.009 148.086 145.605C147.565 145.202 146.836 144.909 145.898 144.727C144.974 144.531 143.77 144.434 142.285 144.434H139.473V155.684ZM165.898 169.688V171.25H156.387V169.688H160.098L170.254 142.578H171.797L181.328 169.688H185.195V171.25H173.184V169.688H177.246L174.316 161.348H165.098L161.992 169.688H165.898ZM169.824 148.75L165.703 159.766H173.77L169.902 148.75H169.824ZM186.094 171.25V169.688H190V144.434H186.094V142.871H197.891C200.521 142.871 202.721 143.197 204.492 143.848C206.276 144.499 207.708 145.43 208.789 146.641C209.87 147.839 210.638 149.29 211.094 150.996C211.562 152.702 211.797 154.609 211.797 156.719C211.797 157.943 211.712 159.154 211.543 160.352C211.387 161.536 211.107 162.669 210.703 163.75C210.299 164.818 209.753 165.814 209.062 166.738C208.385 167.65 207.52 168.444 206.465 169.121C205.41 169.785 204.154 170.306 202.695 170.684C201.237 171.061 199.538 171.25 197.598 171.25H186.094ZM193.809 169.688H197.344C199.349 169.688 201.009 169.492 202.324 169.102C203.652 168.711 204.701 168.027 205.469 167.051C206.237 166.074 206.777 164.753 207.09 163.086C207.402 161.419 207.559 159.31 207.559 156.758C207.559 155.365 207.507 154.089 207.402 152.93C207.311 151.771 207.135 150.736 206.875 149.824C206.615 148.913 206.25 148.118 205.781 147.441C205.326 146.764 204.733 146.204 204.004 145.762C203.288 145.319 202.415 144.987 201.387 144.766C200.358 144.544 199.147 144.434 197.754 144.434H193.809V169.688ZM223.418 155.742H225.977C226.849 155.742 227.578 155.71 228.164 155.645C228.75 155.579 229.219 155.397 229.57 155.098C229.935 154.785 230.208 154.31 230.391 153.672C230.573 153.021 230.703 152.109 230.781 150.938H232.168V162.5H230.781C230.716 161.315 230.605 160.384 230.449 159.707C230.293 159.017 230.039 158.496 229.688 158.145C229.336 157.793 228.861 157.572 228.262 157.48C227.676 157.389 226.914 157.344 225.977 157.344H223.418V169.688H228.594C229.609 169.688 230.501 169.648 231.27 169.57C232.038 169.492 232.708 169.349 233.281 169.141C233.854 168.932 234.342 168.639 234.746 168.262C235.163 167.884 235.521 167.396 235.82 166.797C236.12 166.198 236.374 165.469 236.582 164.609C236.79 163.75 236.986 162.734 237.168 161.562H238.535L238.145 171.25H215.703V169.688H219.609V144.434H215.703V142.871H237.656L238.047 150.703H236.68C236.484 149.401 236.243 148.346 235.957 147.539C235.671 146.719 235.267 146.081 234.746 145.625C234.238 145.156 233.568 144.844 232.734 144.688C231.914 144.518 230.872 144.434 229.609 144.434H223.418V155.742ZM104.766 253.754H106.133C106.276 255.238 106.562 256.475 106.992 257.465C107.422 258.454 107.949 259.242 108.574 259.828C109.212 260.414 109.935 260.831 110.742 261.078C111.562 261.312 112.428 261.43 113.34 261.43C114.434 261.43 115.365 261.293 116.133 261.02C116.914 260.746 117.552 260.368 118.047 259.887C118.555 259.392 118.919 258.806 119.141 258.129C119.375 257.439 119.492 256.684 119.492 255.863C119.492 254.848 119.323 254.014 118.984 253.363C118.646 252.699 118.171 252.139 117.559 251.684C116.96 251.215 116.237 250.811 115.391 250.473C114.544 250.134 113.613 249.783 112.598 249.418C111.582 249.053 110.612 248.669 109.688 248.266C108.776 247.862 107.969 247.361 107.266 246.762C106.562 246.163 106.003 245.434 105.586 244.574C105.182 243.702 104.98 242.621 104.98 241.332C104.98 240.121 105.176 239.014 105.566 238.012C105.957 237.009 106.536 236.156 107.305 235.453C108.073 234.737 109.023 234.184 110.156 233.793C111.302 233.402 112.63 233.207 114.141 233.207C114.74 233.207 115.358 233.24 115.996 233.305C116.634 233.357 117.266 233.441 117.891 233.559C118.529 233.676 119.154 233.819 119.766 233.988C120.378 234.145 120.957 234.32 121.504 234.516L121.738 241.605H120.371C120.254 240.199 119.993 239.053 119.59 238.168C119.186 237.283 118.691 236.592 118.105 236.098C117.533 235.59 116.888 235.245 116.172 235.062C115.469 234.867 114.746 234.77 114.004 234.77C113.014 234.77 112.155 234.893 111.426 235.141C110.697 235.375 110.091 235.72 109.609 236.176C109.128 236.618 108.763 237.165 108.516 237.816C108.281 238.454 108.164 239.177 108.164 239.984C108.164 240.948 108.333 241.749 108.672 242.387C109.01 243.025 109.486 243.578 110.098 244.047C110.723 244.503 111.465 244.913 112.324 245.277C113.197 245.629 114.154 246 115.195 246.391C116.146 246.755 117.077 247.146 117.988 247.562C118.913 247.966 119.733 248.48 120.449 249.105C121.178 249.717 121.764 250.479 122.207 251.391C122.65 252.289 122.871 253.409 122.871 254.75C122.871 256.052 122.643 257.211 122.188 258.227C121.745 259.242 121.1 260.095 120.254 260.785C119.421 261.475 118.398 262.003 117.188 262.367C115.977 262.732 114.609 262.914 113.086 262.914C112.422 262.914 111.732 262.882 111.016 262.816C110.312 262.751 109.609 262.654 108.906 262.523C108.216 262.393 107.539 262.243 106.875 262.074C106.211 261.905 105.592 261.71 105.02 261.488L104.766 253.754ZM153.184 260.688V235.941H153.086L142.93 262.543H141.387L131.855 235.98H131.758V260.688H135.273V262.25H126.094V260.688H130V235.434H126.094V233.871H135.137L143.281 256.469H143.359L152.031 233.871H160.898V235.434H156.992V260.688H160.898V262.25H149.668V260.688H153.184ZM170.898 260.688V262.25H161.387V260.688H165.098L175.254 233.578H176.797L186.328 260.688H190.195V262.25H178.184V260.688H182.246L179.316 252.348H170.098L166.992 260.688H170.898ZM174.824 239.75L170.703 250.766H178.77L174.902 239.75H174.824ZM201.855 233.871C203.926 233.871 205.671 234.027 207.09 234.34C208.509 234.652 209.655 235.095 210.527 235.668C211.4 236.241 212.025 236.938 212.402 237.758C212.78 238.565 212.969 239.464 212.969 240.453C212.969 241.312 212.832 242.126 212.559 242.895C212.298 243.663 211.901 244.359 211.367 244.984C210.833 245.609 210.163 246.15 209.355 246.605C208.561 247.048 207.624 247.387 206.543 247.621V247.699C207.441 247.908 208.177 248.214 208.75 248.617C209.336 249.021 209.805 249.516 210.156 250.102C210.521 250.688 210.801 251.358 210.996 252.113C211.204 252.855 211.387 253.676 211.543 254.574C211.699 255.499 211.836 256.345 211.953 257.113C212.083 257.868 212.253 258.526 212.461 259.086C212.669 259.633 212.949 260.062 213.301 260.375C213.665 260.674 214.167 260.824 214.805 260.824C214.922 260.824 215.085 260.818 215.293 260.805C215.514 260.792 215.755 260.766 216.016 260.727V262.23C215.794 262.283 215.553 262.328 215.293 262.367C215.033 262.406 214.766 262.432 214.492 262.445C214.232 262.471 213.971 262.484 213.711 262.484C213.464 262.497 213.242 262.504 213.047 262.504C211.914 262.504 211.022 262.387 210.371 262.152C209.733 261.905 209.238 261.527 208.887 261.02C208.548 260.512 208.307 259.874 208.164 259.105C208.021 258.337 207.884 257.426 207.754 256.371C207.559 254.835 207.363 253.546 207.168 252.504C206.973 251.462 206.699 250.629 206.348 250.004C205.996 249.366 205.521 248.917 204.922 248.656C204.323 248.383 203.509 248.246 202.48 248.246H198.809V260.688H202.91V262.25H191.094V260.688H195V235.434H191.094V233.871H201.855ZM198.809 246.684H201.406C202.812 246.684 203.984 246.566 204.922 246.332C205.872 246.098 206.634 245.733 207.207 245.238C207.793 244.73 208.203 244.092 208.438 243.324C208.685 242.543 208.809 241.605 208.809 240.512C208.809 239.6 208.711 238.826 208.516 238.188C208.32 237.536 207.956 237.009 207.422 236.605C206.901 236.202 206.172 235.909 205.234 235.727C204.31 235.531 203.105 235.434 201.621 235.434H198.809V246.684ZM217.656 233.871H240.547L241.016 242.289H239.648C239.466 240.831 239.232 239.652 238.945 238.754C238.659 237.855 238.249 237.165 237.715 236.684C237.194 236.189 236.517 235.857 235.684 235.688C234.85 235.518 233.802 235.434 232.539 235.434H230.957V260.688H235.254V262.25H222.852V260.688H227.148V235.434H225.664C224.818 235.434 224.069 235.466 223.418 235.531C222.767 235.596 222.194 235.72 221.699 235.902C221.217 236.085 220.801 236.339 220.449 236.664C220.098 236.99 219.798 237.406 219.551 237.914C219.303 238.422 219.089 239.034 218.906 239.75C218.737 240.466 218.587 241.312 218.457 242.289H217.09L217.656 233.871Z" fill="black"/>
</g>
</g>
<defs>
<filter id="filter0_d_2900_202" x="0" y="0" width="344" height="344" filterUnits="userSpaceOnUse" color-interpolation-filters="sRGB">
<feFlood flood-opacity="0" result="BackgroundImageFix"/>
<feColorMatrix in="SourceAlpha" type="matrix" values="0 0 0 0 0 0 0 0 0 0 0 0 0 0 0 0 0 0 127 0" result="hardAlpha"/>
<feOffset dy="4"/>
<feGaussianBlur stdDeviation="2"/>
<feComposite in2="hardAlpha" operator="out"/>
<feColorMatrix type="matrix" values="0 0 0 0 0 0 0 0 0 0 0 0 0 0 0 0 0 0 0.25 0"/>
<feBlend mode="normal" in2="BackgroundImageFix" result="effect1_dropShadow_2900_202"/>
<feBlend mode="normal" in="SourceGraphic" in2="effect1_dropShadow_2900_202" result="shape"/>
</filter>
<filter id="filter1_d_2900_202" x="104.766" y="142.578" width="136.75" height="120.336" filterUnits="userSpaceOnUse" color-interpolation-filters="sRGB">
<feFlood flood-opacity="0" result="BackgroundImageFix"/>
<feColorMatrix in="SourceAlpha" type="matrix" values="0 0 0 0 0 0 0 0 0 0 0 0 0 0 0 0 0 0 127 0" result="hardAlpha"/>
<feOffset dx="0.5"/>
<feComposite in2="hardAlpha" operator="out"/>
<feColorMatrix type="matrix" values="0 0 0 0 0 0 0 0 0 0 0 0 0 0 0 0 0 0 1 0"/>
<feBlend mode="normal" in2="BackgroundImageFix" result="effect1_dropShadow_2900_202"/>
<feBlend mode="normal" in="SourceGraphic" in2="effect1_dropShadow_2900_202" result="shape"/>
</filter>
<clipPath id="clip0_2900_202">
<rect width="146" height="287.5" fill="white" transform="translate(99.5 23.75)"/>
</clipPath>
</defs>
</svg>
