<svg width="344" height="344" viewBox="0 0 344 344" fill="none" xmlns="http://www.w3.org/2000/svg">
<g filter="url(#filter0_d_2900_202)">
<circle cx="172" cy="168" r="168" fill="white"/>
</g>
<g clip-path="url(#clip0_2900_202)">
<rect width="219.608" height="249.639" transform="translate(62 45)" fill="white"/>
<path d="M157.37 104.516L148.298 93.2919L66.6484 160.639L148.298 70.7423L164.793 97.0334L196.958 58.3712L224.174 104.516L257.989 61.6701L252.215 50.9485H278.607L272.834 83.3146L267.885 74.0413L191.184 144.426L217.576 110.752L196.958 87.0561L119.432 154.403L157.37 104.516Z" fill="black"/>
<path d="M155.722 99.568L146.649 88.3434L65 155.691L146.649 65.7938L163.144 92.0849L195.309 53.4227L222.526 99.568L256.34 56.7216L250.567 46H276.959L271.185 78.3661L266.237 69.0928L189.536 139.477L215.928 105.804L195.309 82.1076L117.783 149.455L155.722 99.568Z" fill="#3399FF"/>
<g filter="url(#filter1_d_2900_202)">
<path d="M134.911 189.383C131.071 187.164 126.954 185.735 122.559 185.095V221.639H112.191V185.095C107.796 185.735 103.658 187.164 99.775 189.383L96.255 181.639C99.327 179.804 102.655 178.418 106.239 177.479C109.823 176.54 113.514 176.071 117.311 176.071C121.151 176.071 124.863 176.54 128.447 177.479C132.074 178.418 135.402 179.804 138.431 181.639L134.911 189.383ZM110.51 281.215C107.854 281.215 105.278 280.863 102.782 280.159C100.318 279.423 98.3343 278.479 96.8303 277.327L99.4703 271.471C100.91 272.527 102.622 273.375 104.606 274.015C106.59 274.655 108.574 274.975 110.558 274.975C112.766 274.975 114.398 274.655 115.454 274.015C116.51 273.343 117.038 272.463 117.038 271.375C117.038 270.575 116.718 269.919 116.078 269.407C115.47 268.863 114.67 268.431 113.678 268.111C112.718 267.791 111.406 267.439 109.742 267.055C107.182 266.447 105.086 265.839 103.454 265.231C101.822 264.623 100.414 263.647 99.2303 262.303C98.0783 260.959 97.5023 259.167 97.5023 256.927C97.5023 254.975 98.0303 253.215 99.0863 251.647C100.142 250.047 101.726 248.783 103.838 247.855C105.982 246.927 108.59 246.463 111.662 246.463C113.806 246.463 115.902 246.719 117.95 247.231C119.998 247.743 121.79 248.479 123.326 249.439L120.926 255.343C117.822 253.583 114.718 252.703 111.614 252.703C109.438 252.703 107.822 253.055 106.766 253.759C105.742 254.463 105.23 255.391 105.23 256.543C105.23 257.695 105.822 258.559 107.006 259.135C108.222 259.679 110.062 260.223 112.526 260.767C115.086 261.375 117.182 261.983 118.814 262.591C120.446 263.199 121.838 264.159 122.99 265.471C124.174 266.783 124.766 268.559 124.766 270.799C124.766 272.719 124.222 274.479 123.134 276.079C122.078 277.647 120.478 278.895 118.334 279.823C116.19 280.751 113.582 281.215 110.51 281.215Z" fill="#3399FF"/>
<path d="M156.815 221.639L151.955 214.619H151.667H146.591V221.639H140.759V196.439H151.667C153.899 196.439 155.831 196.811 157.463 197.555C159.119 198.299 160.391 199.355 161.279 200.723C162.167 202.091 162.611 203.711 162.611 205.583C162.611 207.455 162.155 209.075 161.243 210.443C160.355 211.787 159.083 212.819 157.427 213.539L163.079 221.639H156.815ZM156.707 205.583C156.707 204.167 156.251 203.087 155.339 202.343C154.427 201.575 153.095 201.191 151.343 201.191H146.591V209.975H151.343C153.095 209.975 154.427 209.591 155.339 208.823C156.251 208.055 156.707 206.975 156.707 205.583ZM178.572 196.007C180.9 196.007 182.928 196.463 184.656 197.375C186.384 198.287 187.728 199.631 188.688 201.407C189.648 203.183 190.128 205.331 190.128 207.851V221.639H184.296V215.591H172.776V221.639H167.016V207.851C167.016 205.331 167.496 203.183 168.456 201.407C169.416 199.631 170.76 198.287 172.488 197.375C174.216 196.463 176.244 196.007 178.572 196.007ZM184.296 210.911V207.311C184.296 205.223 183.78 203.651 182.748 202.595C181.716 201.515 180.312 200.975 178.536 200.975C176.736 200.975 175.32 201.515 174.288 202.595C173.28 203.651 172.776 205.223 172.776 207.311V210.911H184.296ZM195.884 196.439H207.332C210.068 196.439 212.48 196.967 214.568 198.023C216.68 199.055 218.312 200.519 219.464 202.415C220.64 204.311 221.228 206.519 221.228 209.039C221.228 211.559 220.64 213.767 219.464 215.663C218.312 217.559 216.68 219.035 214.568 220.091C212.48 221.123 210.068 221.639 207.332 221.639H195.884V196.439ZM207.044 216.851C209.564 216.851 211.568 216.155 213.056 214.763C214.568 213.347 215.324 211.439 215.324 209.039C215.324 206.639 214.568 204.743 213.056 203.351C211.568 201.935 209.564 201.227 207.044 201.227H201.716V216.851H207.044ZM246.219 219.479C245.019 220.295 243.507 220.931 241.683 221.387C239.883 221.843 237.963 222.071 235.923 222.071C233.379 222.071 231.219 221.759 229.443 221.135C227.667 220.487 226.323 219.599 225.411 218.471C224.499 217.319 224.043 216.011 224.043 214.547C224.043 213.203 224.415 212.015 225.159 210.983C225.903 209.951 226.923 209.183 228.219 208.679C227.235 208.151 226.467 207.431 225.915 206.519C225.387 205.607 225.123 204.587 225.123 203.459C225.123 202.091 225.543 200.843 226.383 199.715C227.223 198.587 228.495 197.687 230.199 197.015C231.903 196.343 233.991 196.007 236.463 196.007C238.095 196.007 239.691 196.175 241.251 196.511C242.811 196.823 244.167 197.255 245.319 197.807L243.699 202.271C241.491 201.239 239.151 200.723 236.679 200.723C234.807 200.723 233.391 201.011 232.431 201.587C231.495 202.139 231.027 202.895 231.027 203.855C231.027 204.743 231.339 205.427 231.963 205.907C232.611 206.363 233.583 206.591 234.879 206.591H241.755V211.199H234.519C233.055 211.199 231.927 211.451 231.135 211.955C230.343 212.459 229.947 213.191 229.947 214.151C229.947 215.159 230.451 215.951 231.459 216.527C232.491 217.079 234.063 217.355 236.175 217.355C237.663 217.355 239.151 217.163 240.639 216.779C242.127 216.371 243.387 215.807 244.419 215.087L246.219 219.479ZM157.848 255.007C160.824 255.007 163.14 255.883 164.796 257.635C166.452 259.363 167.28 261.871 167.28 265.159V280.639H161.448V265.339C161.448 263.563 160.98 262.231 160.044 261.343C159.132 260.431 157.92 259.975 156.408 259.975C154.752 259.975 153.432 260.455 152.448 261.415C151.464 262.351 150.972 263.779 150.972 265.699V280.639H145.14V265.339C145.14 263.563 144.708 262.231 143.844 261.343C142.98 260.431 141.804 259.975 140.316 259.975C138.684 259.975 137.376 260.455 136.392 261.415C135.408 262.351 134.916 263.779 134.916 265.699V280.639H129.084V255.439H134.736V258.535C135.504 257.407 136.524 256.543 137.796 255.943C139.068 255.319 140.532 255.007 142.188 255.007C143.916 255.007 145.428 255.331 146.724 255.979C148.02 256.603 149.016 257.515 149.712 258.715C150.576 257.515 151.704 256.603 153.096 255.979C154.512 255.331 156.096 255.007 157.848 255.007ZM184.369 255.007C186.697 255.007 188.725 255.463 190.453 256.375C192.181 257.287 193.525 258.631 194.485 260.407C195.445 262.183 195.925 264.331 195.925 266.851V280.639H190.093V274.591H178.573V280.639H172.813V266.851C172.813 264.331 173.293 262.183 174.253 260.407C175.213 258.631 176.557 257.287 178.285 256.375C180.013 255.463 182.041 255.007 184.369 255.007ZM190.093 269.911V266.311C190.093 264.223 189.577 262.651 188.545 261.595C187.513 260.515 186.109 259.975 184.333 259.975C182.533 259.975 181.117 260.515 180.085 261.595C179.077 262.651 178.573 264.223 178.573 266.311V269.911H190.093ZM217.737 280.639L212.877 273.619H212.589H207.513V280.639H201.681V255.439H212.589C214.821 255.439 216.753 255.811 218.385 256.555C220.041 257.299 221.313 258.355 222.201 259.723C223.089 261.091 223.533 262.711 223.533 264.583C223.533 266.455 223.077 268.075 222.165 269.443C221.277 270.787 220.005 271.819 218.349 272.539L224.001 280.639H217.737ZM217.629 264.583C217.629 263.167 217.173 262.087 216.261 261.343C215.349 260.575 214.017 260.191 212.265 260.191H207.513V268.975H212.265C214.017 268.975 215.349 268.591 216.261 267.823C217.173 267.055 217.629 265.975 217.629 264.583ZM246.514 262.495C244.354 261.247 242.038 260.443 239.566 260.083V280.639H233.734V260.083C231.262 260.443 228.934 261.247 226.75 262.495L224.77 258.139C226.498 257.107 228.37 256.327 230.386 255.799C232.402 255.271 234.478 255.007 236.614 255.007C238.774 255.007 240.862 255.271 242.878 255.799C244.918 256.327 246.79 257.107 248.494 258.139L246.514 262.495Z" fill="black"/>
</g>
</g>
<defs>
<filter id="filter0_d_2900_202" x="0" y="0" width="344" height="344" filterUnits="userSpaceOnUse" color-interpolation-filters="sRGB">
<feFlood flood-opacity="0" result="BackgroundImageFix"/>
<feColorMatrix in="SourceAlpha" type="matrix" values="0 0 0 0 0 0 0 0 0 0 0 0 0 0 0 0 0 0 127 0" result="hardAlpha"/>
<feOffset dy="4"/>
<feGaussianBlur stdDeviation="2"/>
<feComposite in2="hardAlpha" operator="out"/>
<feColorMatrix type="matrix" values="0 0 0 0 0 0 0 0 0 0 0 0 0 0 0 0 0 0 0.25 0"/>
<feBlend mode="normal" in2="BackgroundImageFix" result="effect1_dropShadow_2900_202"/>
<feBlend mode="normal" in="SourceGraphic" in2="effect1_dropShadow_2900_202" result="shape"/>
</filter>
<filter id="filter1_d_2900_202" x="96.2559" y="176.071" width="152.738" height="105.144" filterUnits="userSpaceOnUse" color-interpolation-filters="sRGB">
<feFlood flood-opacity="0" result="BackgroundImageFix"/>
<feColorMatrix in="SourceAlpha" type="matrix" values="0 0 0 0 0 0 0 0 0 0 0 0 0 0 0 0 0 0 127 0" result="hardAlpha"/>
<feOffset dx="0.5"/>
<feComposite in2="hardAlpha" operator="out"/>
<feColorMatrix type="matrix" values="0 0 0 0 0 0 0 0 0 0 0 0 0 0 0 0 0 0 1 0"/>
<feBlend mode="normal" in2="BackgroundImageFix" result="effect1_dropShadow_2900_202"/>
<feBlend mode="normal" in="SourceGraphic" in2="effect1_dropShadow_2900_202" result="shape"/>
</filter>
<clipPath id="clip0_2900_202">
<rect width="219.608" height="263.639" fill="white" transform="translate(62 38)"/>
</clipPath>
</defs>
</svg>
