<svg width="344" height="344" viewBox="0 0 344 344" fill="none" xmlns="http://www.w3.org/2000/svg">
<g filter="url(#filter0_d_2900_202)">
<circle cx="172" cy="168" r="168" fill="white"/>
</g>
<g clip-path="url(#clip0_2900_202)">
<rect width="219.608" height="238.639" transform="translate(62 45)" fill="white"/>
<path d="M157.37 104.516L148.298 93.2919L66.6484 160.639L148.298 70.7423L164.793 97.0334L196.958 58.3712L224.174 104.516L257.989 61.6701L252.215 50.9485H278.607L272.834 83.3146L267.885 74.0413L191.184 144.426L217.576 110.752L196.958 87.0561L119.432 154.403L157.37 104.516Z" fill="black"/>
<path d="M155.722 99.568L146.649 88.3434L65 155.691L146.649 65.7938L163.144 92.0849L195.309 53.4227L222.526 99.568L256.34 56.7216L250.567 46H276.959L271.185 78.3661L266.237 69.0928L189.536 139.477L215.928 105.804L195.309 82.1076L117.783 149.455L155.722 99.568Z" fill="#3399FF"/>
<g filter="url(#filter1_d_2900_202)">
<path d="M97.4844 222.639V198.452H83.9844V195.639H114.359V198.452H100.859V222.639H97.4844ZM119.457 195.639H137.527C140.164 195.639 142.285 195.756 143.891 195.991C145.508 196.225 146.732 196.629 147.564 197.204C148.396 197.778 148.959 198.563 149.252 199.559C149.545 200.555 149.691 201.815 149.691 203.338V204.042C149.691 205.448 149.521 206.661 149.182 207.68C148.854 208.688 148.215 209.508 147.266 210.141C146.316 210.762 144.91 211.202 143.047 211.459L148.918 222.639H145.543L139.795 211.706C139.561 211.717 139.314 211.723 139.057 211.723C138.811 211.723 138.553 211.723 138.283 211.723H122.832V222.639H119.457V195.639ZM122.832 208.805H137.756C139.76 208.805 141.336 208.741 142.484 208.612C143.645 208.471 144.494 208.231 145.033 207.891C145.584 207.551 145.936 207.071 146.088 206.45C146.24 205.829 146.316 205.026 146.316 204.042V203.338C146.316 202.225 146.211 201.346 146 200.702C145.789 200.057 145.367 199.583 144.734 199.278C144.102 198.973 143.158 198.78 141.904 198.698C140.65 198.604 138.975 198.557 136.877 198.557H122.832V208.805ZM153.84 222.639L169.59 195.639H174.09L189.84 222.639H185.902L182.527 216.452H161.152L157.777 222.639H153.84ZM162.84 213.639H180.84L171.84 197.889L162.84 213.639ZM194.41 222.639V195.639H214.449C217.086 195.639 219.254 195.797 220.953 196.114C222.652 196.43 223.977 197.045 224.926 197.959C225.887 198.862 226.555 200.18 226.93 201.915C227.316 203.649 227.51 205.94 227.51 208.788V209.491C227.51 212.245 227.316 214.489 226.93 216.223C226.555 217.946 225.887 219.276 224.926 220.213C223.977 221.139 222.652 221.778 220.953 222.129C219.254 222.469 217.086 222.639 214.449 222.639H194.41ZM197.785 219.721H214.449C216.547 219.721 218.234 219.622 219.512 219.422C220.789 219.223 221.762 218.79 222.43 218.122C223.098 217.454 223.549 216.434 223.783 215.063C224.018 213.692 224.135 211.834 224.135 209.491V208.788C224.135 206.842 224.064 205.237 223.924 203.971C223.783 202.706 223.52 201.709 223.133 200.983C222.758 200.245 222.207 199.706 221.48 199.366C220.766 199.014 219.834 198.792 218.686 198.698C217.537 198.604 216.125 198.557 214.449 198.557H197.785V219.721ZM233.152 222.639V195.639H259.66V198.452H236.527V207.452H258.693V210.264H236.527V219.827H260.152V222.639H233.152ZM106.098 265.834C106.098 264.792 106.016 263.971 105.852 263.374C105.688 262.776 105.318 262.336 104.744 262.055C104.17 261.762 103.279 261.575 102.072 261.493C100.865 261.399 99.2129 261.334 97.1152 261.299L87.3418 261.159C84.9277 261.124 82.9883 260.977 81.5234 260.719C80.0586 260.461 78.9512 260.057 78.2012 259.506C77.4512 258.944 76.9473 258.194 76.6895 257.256C76.4434 256.319 76.3203 255.147 76.3203 253.741C76.3203 252.206 76.4902 250.94 76.8301 249.944C77.1816 248.948 77.8086 248.168 78.7109 247.606C79.625 247.043 80.9141 246.651 82.5781 246.428C84.2422 246.194 86.3926 246.077 89.0293 246.077H96.5527C98.9434 246.077 100.936 246.153 102.529 246.305C104.123 246.458 105.389 246.809 106.326 247.36C107.264 247.911 107.932 248.766 108.33 249.926C108.74 251.086 108.945 252.68 108.945 254.708H105.57C105.57 253.137 105.418 251.954 105.113 251.157C104.82 250.348 104.328 249.797 103.637 249.504C102.957 249.211 102.037 249.053 100.877 249.03C99.7168 249.006 98.2754 248.995 96.5527 248.995H89.2051C87.1074 248.995 85.4258 249.036 84.1602 249.118C82.9062 249.2 81.957 249.387 81.3125 249.68C80.668 249.973 80.2344 250.442 80.0117 251.086C79.8008 251.731 79.6953 252.616 79.6953 253.741C79.6953 254.69 79.7715 255.452 79.9238 256.026C80.0762 256.6 80.416 257.04 80.9434 257.344C81.4824 257.637 82.3086 257.842 83.4219 257.959C84.5352 258.065 86.0527 258.129 87.9746 258.153L98.4512 258.293C100.912 258.329 102.875 258.475 104.34 258.733C105.816 258.979 106.918 259.383 107.645 259.946C108.383 260.508 108.869 261.27 109.104 262.231C109.35 263.18 109.473 264.381 109.473 265.834C109.473 267.417 109.32 268.747 109.016 269.825C108.723 270.891 108.148 271.747 107.293 272.391C106.438 273.036 105.201 273.499 103.584 273.78C101.967 274.061 99.8398 274.202 97.2031 274.202H88.9766C86.5742 274.202 84.5586 274.096 82.9297 273.885C81.3008 273.674 80 273.252 79.0273 272.62C78.0664 271.975 77.375 271.02 76.9531 269.754C76.5312 268.489 76.3203 266.801 76.3203 264.692H79.6953C79.6953 266.344 79.8301 267.622 80.0996 268.524C80.3691 269.426 80.8379 270.077 81.5059 270.475C82.1855 270.862 83.1289 271.096 84.3359 271.178C85.5547 271.249 87.1016 271.284 88.9766 271.284H97.0273C99.125 271.284 100.783 271.219 102.002 271.09C103.221 270.95 104.123 270.692 104.709 270.317C105.295 269.93 105.67 269.379 105.834 268.665C106.01 267.95 106.098 267.006 106.098 265.834ZM115.08 273.639V246.639H120.107L136.438 268.665L152.521 246.639H157.549V273.639H154.174V249.698L138.055 271.864H134.996L118.455 249.698V273.639H115.08ZM162.119 273.639L177.869 246.639H182.369L198.119 273.639H194.182L190.807 267.452H169.432L166.057 273.639H162.119ZM171.119 264.639H189.119L180.119 248.889L171.119 264.639ZM202.689 246.639H220.76C223.396 246.639 225.518 246.756 227.123 246.991C228.74 247.225 229.965 247.629 230.797 248.204C231.629 248.778 232.191 249.563 232.484 250.559C232.777 251.555 232.924 252.815 232.924 254.338V255.042C232.924 256.448 232.754 257.661 232.414 258.68C232.086 259.688 231.447 260.508 230.498 261.141C229.549 261.762 228.143 262.202 226.279 262.459L232.15 273.639H228.775L223.027 262.706C222.793 262.717 222.547 262.723 222.289 262.723C222.043 262.723 221.785 262.723 221.516 262.723H206.064V273.639H202.689V246.639ZM206.064 259.805H220.988C222.992 259.805 224.568 259.741 225.717 259.612C226.877 259.471 227.727 259.231 228.266 258.891C228.816 258.551 229.168 258.071 229.32 257.45C229.473 256.829 229.549 256.026 229.549 255.042V254.338C229.549 253.225 229.443 252.346 229.232 251.702C229.021 251.057 228.6 250.583 227.967 250.278C227.334 249.973 226.391 249.78 225.137 249.698C223.883 249.604 222.207 249.557 220.109 249.557H206.064V259.805ZM251.1 273.639V249.452H237.6V246.639H267.975V249.452H254.475V273.639H251.1Z" fill="black"/>
</g>
</g>
<defs>
<filter id="filter0_d_2900_202" x="0" y="0" width="344" height="344" filterUnits="userSpaceOnUse" color-interpolation-filters="sRGB">
<feFlood flood-opacity="0" result="BackgroundImageFix"/>
<feColorMatrix in="SourceAlpha" type="matrix" values="0 0 0 0 0 0 0 0 0 0 0 0 0 0 0 0 0 0 127 0" result="hardAlpha"/>
<feOffset dy="4"/>
<feGaussianBlur stdDeviation="2"/>
<feComposite in2="hardAlpha" operator="out"/>
<feColorMatrix type="matrix" values="0 0 0 0 0 0 0 0 0 0 0 0 0 0 0 0 0 0 0.25 0"/>
<feBlend mode="normal" in2="BackgroundImageFix" result="effect1_dropShadow_2900_202"/>
<feBlend mode="normal" in="SourceGraphic" in2="effect1_dropShadow_2900_202" result="shape"/>
</filter>
<filter id="filter1_d_2900_202" x="76.3203" y="195.639" width="192.154" height="78.5625" filterUnits="userSpaceOnUse" color-interpolation-filters="sRGB">
<feFlood flood-opacity="0" result="BackgroundImageFix"/>
<feColorMatrix in="SourceAlpha" type="matrix" values="0 0 0 0 0 0 0 0 0 0 0 0 0 0 0 0 0 0 127 0" result="hardAlpha"/>
<feOffset dx="0.5"/>
<feComposite in2="hardAlpha" operator="out"/>
<feColorMatrix type="matrix" values="0 0 0 0 0 0 0 0 0 0 0 0 0 0 0 0 0 0 1 0"/>
<feBlend mode="normal" in2="BackgroundImageFix" result="effect1_dropShadow_2900_202"/>
<feBlend mode="normal" in="SourceGraphic" in2="effect1_dropShadow_2900_202" result="shape"/>
</filter>
<clipPath id="clip0_2900_202">
<rect width="219.608" height="252.639" fill="white" transform="translate(62 38)"/>
</clipPath>
</defs>
</svg>
