<svg width="344" height="344" viewBox="0 0 344 344" fill="none" xmlns="http://www.w3.org/2000/svg">
<g filter="url(#filter0_d_2900_202)">
<circle cx="172" cy="168" r="168" fill="white"/>
</g>
<g clip-path="url(#clip0_2900_202)">
<rect width="135.5" height="217.5" transform="translate(104.75 58.75)" fill="white"/>
<path d="M163.75 95.2256L158.25 88.4207L108.75 129.25L158.25 74.75L168.25 90.689L187.75 67.25L204.25 95.2256L224.75 69.25L221.25 62.75H237.25L233.75 82.372L230.75 76.75L184.25 119.421L200.25 99.0061L187.75 84.6402L140.75 125.47L163.75 95.2256Z" fill="black"/>
<path d="M162.75 92.2256L157.25 85.4207L107.75 126.25L157.25 71.75L167.25 87.689L186.75 64.25L203.25 92.2256L223.75 66.25L220.25 59.75H236.25L232.75 79.372L229.75 73.75L183.25 116.421L199.25 96.0061L186.75 81.6402L139.75 122.47L162.75 92.2256Z" fill="#3399FF"/>
<g filter="url(#filter1_d_2900_202)">
<path d="M133.189 199.154C131.077 198.45 129.477 197.794 128.389 197.186C127.301 196.578 126.757 196.082 126.757 195.698C126.757 195.346 126.789 194.978 126.853 194.594C126.917 194.21 126.981 193.65 127.045 192.914C127.109 192.178 127.141 191.122 127.141 189.746V178.322C127.141 175.858 127.317 173.938 127.669 172.562H126.997C126.293 172.562 125.605 172.706 124.933 172.994C124.293 173.282 123.829 173.602 123.541 173.954H122.533L119.413 169.346L119.749 168.578H137.365L139.669 171.938L137.269 173.954H136.453C135.845 173.378 135.301 173.01 134.821 172.85C134.373 172.658 133.765 172.562 132.997 172.562H132.757C132.245 173.874 131.989 175.714 131.989 178.082V190.802C131.989 192.178 131.941 193.282 131.845 194.114C131.781 194.914 131.749 195.538 131.749 195.986C131.749 196.53 132.437 197.122 133.813 197.762L133.189 199.154ZM149.14 199.346C147.028 198.642 145.428 197.986 144.34 197.378C143.252 196.77 142.708 196.274 142.708 195.89C142.708 195.538 142.74 195.17 142.804 194.786C142.868 194.402 142.932 193.842 142.996 193.106C143.06 192.37 143.092 191.314 143.092 189.938V180.818C143.092 178.706 143.172 176.994 143.332 175.682C143.524 174.338 143.716 173.298 143.908 172.562H142.276L139.876 169.346L140.26 168.578H144.772C145.764 168.546 146.756 168.514 147.748 168.482C148.772 168.418 149.572 168.386 150.148 168.386C151.012 168.386 151.956 168.642 152.98 169.154C154.036 169.666 155.028 170.322 155.956 171.122C156.916 171.922 157.7 172.754 158.308 173.618C158.916 174.45 159.22 175.186 159.22 175.826V180.098C159.22 182.85 158.02 184.818 155.62 186.002C158.148 187.378 159.412 188.818 159.412 190.322C159.412 191.026 159.396 191.89 159.364 192.914C159.332 193.938 159.316 194.818 159.316 195.554C159.316 196.066 159.492 196.498 159.844 196.85C160.196 197.17 160.788 197.554 161.62 198.002L160.9 199.442C158.756 198.514 157.108 197.714 155.956 197.042C154.804 196.37 154.228 195.634 154.228 194.834C154.228 194.034 154.26 193.186 154.324 192.29C154.388 191.362 154.42 190.594 154.42 189.986C154.42 188.898 153.972 188.066 153.076 187.49C152.18 186.882 150.756 186.578 148.804 186.578H147.94V190.994C147.94 192.37 147.892 193.474 147.796 194.306C147.732 195.106 147.7 195.73 147.7 196.178C147.7 196.722 148.388 197.314 149.764 197.954L149.14 199.346ZM152.548 172.562C151.94 172.562 151.316 172.594 150.676 172.658C150.068 172.69 149.444 172.754 148.804 172.85C148.58 173.714 148.372 174.786 148.18 176.066C148.02 177.314 147.94 178.786 147.94 180.482V182.546H150.916C152.036 182.546 152.9 182.162 153.508 181.394C154.148 180.594 154.468 179.458 154.468 177.986V175.346C154.468 174.322 154.324 173.602 154.036 173.186C153.748 172.77 153.252 172.562 152.548 172.562ZM168.867 199.346C168.067 199.058 167.203 198.754 166.275 198.434C165.379 198.082 164.611 197.746 163.971 197.426C163.331 197.106 163.011 196.882 163.011 196.754C163.011 196.626 163.123 196.082 163.347 195.122C163.603 194.13 163.923 192.882 164.307 191.378C164.723 189.842 165.155 188.178 165.603 186.386C166.083 184.594 166.563 182.818 167.043 181.058C167.523 179.266 167.971 177.634 168.387 176.162C168.803 174.658 169.139 173.458 169.395 172.562H166.899L164.739 169.346L165.027 168.578H174.915L177.699 172.61C178.083 174.178 178.483 175.954 178.899 177.938C179.315 179.89 179.731 181.89 180.147 183.938C180.563 185.954 180.947 187.826 181.299 189.554C181.651 191.282 181.939 192.722 182.163 193.874C182.387 195.026 182.515 195.682 182.547 195.842C182.611 196.258 182.787 196.578 183.075 196.802C183.363 197.026 183.875 197.33 184.611 197.714L184.035 199.25C183.075 198.93 182.115 198.562 181.155 198.146C180.227 197.73 179.459 197.33 178.851 196.946C178.243 196.562 177.923 196.29 177.891 196.13C177.795 195.106 177.683 194.066 177.555 193.01C177.427 191.922 177.283 190.85 177.123 189.794C176.835 189.762 176.547 189.746 176.259 189.746C175.107 189.746 173.907 189.874 172.659 190.13C171.411 190.386 170.275 190.85 169.251 191.522C169.027 192.418 168.787 193.33 168.531 194.258C168.307 195.186 168.083 196.114 167.859 197.042L169.443 197.81L168.867 199.346ZM172.947 185.858C174.227 185.858 175.475 186.21 176.691 186.914C176.307 184.354 175.875 181.874 175.395 179.474C174.947 177.042 174.547 174.882 174.195 172.994C173.747 174.626 173.219 176.546 172.611 178.754C172.035 180.962 171.395 183.41 170.691 186.098C171.459 185.938 172.211 185.858 172.947 185.858ZM194.649 198.578C193.273 198.578 191.945 198.466 190.665 198.242C189.417 197.986 188.377 197.682 187.545 197.33C186.745 196.946 186.345 196.578 186.345 196.226C186.345 195.394 186.425 194.146 186.585 192.482C186.777 190.818 186.873 188.738 186.873 186.242V180.818C186.873 178.706 186.953 176.994 187.113 175.682C187.305 174.338 187.497 173.298 187.689 172.562H186.057L183.657 169.346L184.041 168.578H188.073C189.481 168.578 190.809 168.562 192.057 168.53C193.305 168.498 194.345 168.482 195.177 168.482C196.041 168.482 196.969 168.77 197.961 169.346C198.985 169.89 199.929 170.594 200.793 171.458C201.689 172.29 202.409 173.17 202.953 174.098C203.529 175.026 203.817 175.874 203.817 176.642C203.817 178.594 203.769 180.594 203.673 182.642C203.609 184.69 203.577 186.898 203.577 189.266C203.577 191.858 203.209 193.826 202.473 195.17C201.737 196.514 200.697 197.426 199.353 197.906C198.041 198.354 196.473 198.578 194.649 198.578ZM196.761 172.754C195.993 172.754 195.273 172.786 194.601 172.85C193.961 172.882 193.273 172.978 192.537 173.138C192.313 173.97 192.121 175.01 191.961 176.258C191.801 177.474 191.721 178.882 191.721 180.482V187.442C191.721 189.266 191.689 190.738 191.625 191.858C191.593 192.978 191.513 193.922 191.385 194.69C191.769 194.786 192.233 194.834 192.777 194.834C194.697 194.834 196.153 194.274 197.145 193.154C198.137 192.002 198.633 190.018 198.633 187.202C198.633 185.57 198.665 183.97 198.729 182.402C198.793 180.802 198.841 179.362 198.873 178.082C198.937 176.802 198.969 175.826 198.969 175.154C198.969 174.322 198.793 173.714 198.441 173.33C198.121 172.946 197.561 172.754 196.761 172.754ZM219.132 198.29C215.324 198.29 212.524 198.034 210.732 197.522C208.94 196.978 208.044 196.562 208.044 196.274C208.044 195.634 208.156 194.434 208.38 192.674C208.636 190.914 208.764 188.706 208.764 186.05V179.954C208.796 178.098 208.892 176.578 209.052 175.394C209.212 174.178 209.388 173.234 209.58 172.562H207.948L205.548 169.346L205.932 168.578H221.484L224.172 172.034L221.82 174.098H220.812C220.46 173.522 220.044 173.122 219.564 172.898C219.116 172.674 218.46 172.562 217.596 172.562H214.572C214.348 173.426 214.124 174.514 213.9 175.826C213.708 177.138 213.612 178.69 213.612 180.482V181.154H220.044L222.204 184.61L221.58 185.33H213.612V187.25C213.612 188.626 213.58 189.81 213.516 190.802C213.484 191.762 213.404 192.738 213.276 193.73C213.788 193.826 214.412 193.906 215.148 193.97C215.884 194.002 216.7 194.018 217.596 194.018C218.46 194.018 219.292 193.986 220.092 193.922C220.924 193.858 221.692 193.778 222.396 193.682L224.604 197.474L224.028 198.29H219.132Z" fill="#3399FF"/>
<path d="M128.202 261.866C125.61 261.866 123.514 261.002 121.914 259.274C120.314 257.546 119.13 254.938 118.362 251.45L119.994 251.018C120.73 252.778 121.546 254.09 122.442 254.954C123.37 255.786 124.57 256.202 126.042 256.202C127.258 256.202 128.346 255.93 129.306 255.386C130.266 254.842 131.018 254.106 131.562 253.178C132.138 252.218 132.426 251.162 132.426 250.01C132.426 248.794 132.074 248.186 131.37 248.186C130.826 248.186 130.154 248.282 129.354 248.474C128.586 248.666 127.818 248.858 127.05 249.05C126.282 249.242 125.658 249.338 125.178 249.338C124.538 249.338 123.866 249.034 123.162 248.426C122.458 247.786 121.802 246.954 121.194 245.93C120.586 244.874 120.09 243.754 119.706 242.57C119.354 241.354 119.178 240.17 119.178 239.018C119.178 236.458 119.866 234.522 121.242 233.21C122.65 231.866 124.554 231.194 126.954 231.194C131.05 231.194 133.802 233.834 135.21 239.114L133.578 239.546C133.066 238.458 132.362 237.674 131.466 237.194C130.57 236.714 129.562 236.474 128.442 236.474C126.682 236.474 125.306 236.954 124.314 237.914C123.354 238.874 122.874 240.266 122.874 242.09C122.874 242.698 122.97 243.13 123.162 243.386C123.386 243.642 123.626 243.77 123.882 243.77C124.522 243.77 125.258 243.642 126.09 243.386C126.954 243.13 127.786 242.89 128.586 242.666C129.418 242.41 130.09 242.282 130.602 242.282C131.274 242.282 131.994 242.746 132.762 243.674C133.53 244.57 134.186 245.786 134.73 247.322C135.306 248.858 135.594 250.554 135.594 252.41C135.594 255.386 135.002 257.706 133.818 259.37C132.634 261.034 130.762 261.866 128.202 261.866ZM145.781 262.106C144.981 261.786 144.069 261.386 143.045 260.906C142.053 260.394 141.189 259.914 140.453 259.466C139.717 258.986 139.349 258.634 139.349 258.41C139.349 258.058 139.445 257.274 139.637 256.058C139.861 254.842 139.973 253.338 139.973 251.546V246.314C139.973 243.658 140.053 241.498 140.213 239.834C140.373 238.138 140.613 236.714 140.933 235.562H139.013L136.853 232.442L137.285 231.578H146.405C146.949 232.698 147.493 234.074 148.037 235.706C148.613 237.306 149.157 239.034 149.669 240.89C150.181 242.714 150.629 244.474 151.013 246.17C151.589 243.45 152.357 240.842 153.317 238.346C154.277 235.818 155.381 233.562 156.629 231.578H161.045L163.781 235.418C163.557 236.154 163.381 237.05 163.253 238.106C163.125 239.13 163.061 240.49 163.061 242.186V252.218C163.061 253.658 163.013 254.81 162.917 255.674C162.853 256.506 162.773 257.162 162.677 257.642C162.581 258.122 162.533 258.538 162.533 258.89C162.533 259.114 162.725 259.386 163.109 259.706C163.493 260.026 164.005 260.378 164.645 260.762L164.021 262.106C163.221 261.786 162.309 261.386 161.285 260.906C160.293 260.394 159.429 259.914 158.693 259.466C157.957 258.986 157.589 258.634 157.589 258.41C157.589 257.962 157.685 257.226 157.877 256.202C158.101 255.146 158.213 253.594 158.213 251.546V244.25C158.213 242.714 158.245 241.29 158.309 239.978C158.405 238.634 158.549 237.45 158.741 236.426C158.037 238.026 157.365 239.882 156.725 241.994C156.085 244.106 155.493 246.282 154.949 248.522C154.437 250.762 154.037 252.906 153.749 254.954L152.933 255.434L149.093 253.322C148.869 251.498 148.549 249.578 148.133 247.562C147.717 245.514 147.253 243.546 146.741 241.658C146.229 239.77 145.717 238.074 145.205 236.57C145.109 237.562 145.029 238.698 144.965 239.978C144.901 241.258 144.853 242.538 144.821 243.818C144.821 245.066 144.821 246.17 144.821 247.13V252.218C144.821 253.658 144.773 254.81 144.677 255.674C144.613 256.506 144.533 257.162 144.437 257.642C144.341 258.122 144.293 258.538 144.293 258.89C144.293 259.114 144.485 259.386 144.869 259.706C145.253 260.026 145.765 260.378 146.405 260.762L145.781 262.106ZM172.735 262.346C171.935 262.058 171.071 261.754 170.143 261.434C169.247 261.082 168.479 260.746 167.839 260.426C167.199 260.106 166.879 259.882 166.879 259.754C166.879 259.626 166.991 259.082 167.215 258.122C167.471 257.13 167.791 255.882 168.175 254.378C168.591 252.842 169.023 251.178 169.471 249.386C169.951 247.594 170.431 245.818 170.911 244.058C171.391 242.266 171.839 240.634 172.255 239.162C172.671 237.658 173.007 236.458 173.263 235.562H170.767L168.607 232.346L168.895 231.578H178.783L181.567 235.61C181.951 237.178 182.351 238.954 182.767 240.938C183.183 242.89 183.599 244.89 184.015 246.938C184.431 248.954 184.815 250.826 185.167 252.554C185.519 254.282 185.807 255.722 186.031 256.874C186.255 258.026 186.383 258.682 186.415 258.842C186.479 259.258 186.655 259.578 186.943 259.802C187.231 260.026 187.743 260.33 188.479 260.714L187.903 262.25C186.943 261.93 185.983 261.562 185.023 261.146C184.095 260.73 183.327 260.33 182.719 259.946C182.111 259.562 181.791 259.29 181.759 259.13C181.663 258.106 181.551 257.066 181.423 256.01C181.295 254.922 181.151 253.85 180.991 252.794C180.703 252.762 180.415 252.746 180.127 252.746C178.975 252.746 177.775 252.874 176.527 253.13C175.279 253.386 174.143 253.85 173.119 254.522C172.895 255.418 172.655 256.33 172.399 257.258C172.175 258.186 171.951 259.114 171.727 260.042L173.311 260.81L172.735 262.346ZM176.815 248.858C178.095 248.858 179.343 249.21 180.559 249.914C180.175 247.354 179.743 244.874 179.263 242.474C178.815 240.042 178.415 237.882 178.063 235.994C177.615 237.626 177.087 239.546 176.479 241.754C175.903 243.962 175.263 246.41 174.559 249.098C175.327 248.938 176.079 248.858 176.815 248.858ZM196.789 262.346C194.677 261.642 193.077 260.986 191.989 260.378C190.901 259.77 190.357 259.274 190.357 258.89C190.357 258.538 190.389 258.17 190.453 257.786C190.517 257.402 190.581 256.842 190.645 256.106C190.709 255.37 190.741 254.314 190.741 252.938V243.818C190.741 241.706 190.821 239.994 190.981 238.682C191.173 237.338 191.365 236.298 191.557 235.562H189.925L187.525 232.346L187.909 231.578H192.421C193.413 231.546 194.405 231.514 195.397 231.482C196.421 231.418 197.221 231.386 197.797 231.386C198.661 231.386 199.605 231.642 200.629 232.154C201.685 232.666 202.677 233.322 203.605 234.122C204.565 234.922 205.349 235.754 205.957 236.618C206.565 237.45 206.869 238.186 206.869 238.826V243.098C206.869 245.85 205.669 247.818 203.269 249.002C205.797 250.378 207.061 251.818 207.061 253.322C207.061 254.026 207.045 254.89 207.013 255.914C206.981 256.938 206.965 257.818 206.965 258.554C206.965 259.066 207.141 259.498 207.493 259.85C207.845 260.17 208.437 260.554 209.269 261.002L208.549 262.442C206.405 261.514 204.757 260.714 203.605 260.042C202.453 259.37 201.877 258.634 201.877 257.834C201.877 257.034 201.909 256.186 201.973 255.29C202.037 254.362 202.069 253.594 202.069 252.986C202.069 251.898 201.621 251.066 200.725 250.49C199.829 249.882 198.405 249.578 196.453 249.578H195.589V253.994C195.589 255.37 195.541 256.474 195.445 257.306C195.381 258.106 195.349 258.73 195.349 259.178C195.349 259.722 196.037 260.314 197.413 260.954L196.789 262.346ZM200.197 235.562C199.589 235.562 198.965 235.594 198.325 235.658C197.717 235.69 197.093 235.754 196.453 235.85C196.229 236.714 196.021 237.786 195.829 239.066C195.669 240.314 195.589 241.786 195.589 243.482V245.546H198.565C199.685 245.546 200.549 245.162 201.157 244.394C201.797 243.594 202.117 242.458 202.117 240.986V238.346C202.117 237.322 201.973 236.602 201.685 236.186C201.397 235.77 200.901 235.562 200.197 235.562ZM221.103 262.154C218.991 261.45 217.391 260.794 216.303 260.186C215.215 259.578 214.671 259.082 214.671 258.698C214.671 258.346 214.703 257.978 214.767 257.594C214.831 257.21 214.895 256.65 214.959 255.914C215.023 255.178 215.055 254.122 215.055 252.746V241.322C215.055 238.858 215.231 236.938 215.583 235.562H214.911C214.207 235.562 213.519 235.706 212.847 235.994C212.207 236.282 211.743 236.602 211.455 236.954H210.447L207.327 232.346L207.663 231.578H225.279L227.583 234.938L225.183 236.954H224.367C223.759 236.378 223.215 236.01 222.735 235.85C222.287 235.658 221.679 235.562 220.911 235.562H220.671C220.159 236.874 219.903 238.714 219.903 241.082V253.802C219.903 255.178 219.855 256.282 219.759 257.114C219.695 257.914 219.663 258.538 219.663 258.986C219.663 259.53 220.351 260.122 221.727 260.762L221.103 262.154Z" fill="black"/>
</g>
</g>
<defs>
<filter id="filter0_d_2900_202" x="0" y="0" width="344" height="344" filterUnits="userSpaceOnUse" color-interpolation-filters="sRGB">
<feFlood flood-opacity="0" result="BackgroundImageFix"/>
<feColorMatrix in="SourceAlpha" type="matrix" values="0 0 0 0 0 0 0 0 0 0 0 0 0 0 0 0 0 0 127 0" result="hardAlpha"/>
<feOffset dy="4"/>
<feGaussianBlur stdDeviation="2"/>
<feComposite in2="hardAlpha" operator="out"/>
<feColorMatrix type="matrix" values="0 0 0 0 0 0 0 0 0 0 0 0 0 0 0 0 0 0 0.25 0"/>
<feBlend mode="normal" in2="BackgroundImageFix" result="effect1_dropShadow_2900_202"/>
<feBlend mode="normal" in="SourceGraphic" in2="effect1_dropShadow_2900_202" result="shape"/>
</filter>
<filter id="filter1_d_2900_202" x="118.361" y="168.386" width="109.721" height="94.056" filterUnits="userSpaceOnUse" color-interpolation-filters="sRGB">
<feFlood flood-opacity="0" result="BackgroundImageFix"/>
<feColorMatrix in="SourceAlpha" type="matrix" values="0 0 0 0 0 0 0 0 0 0 0 0 0 0 0 0 0 0 127 0" result="hardAlpha"/>
<feOffset dx="0.5"/>
<feComposite in2="hardAlpha" operator="out"/>
<feColorMatrix type="matrix" values="0 0 0 0 0 0 0 0 0 0 0 0 0 0 0 0 0 0 1 0"/>
<feBlend mode="normal" in2="BackgroundImageFix" result="effect1_dropShadow_2900_202"/>
<feBlend mode="normal" in="SourceGraphic" in2="effect1_dropShadow_2900_202" result="shape"/>
</filter>
<clipPath id="clip0_2900_202">
<rect width="135.5" height="231.5" fill="white" transform="translate(104.75 51.75)"/>
</clipPath>
</defs>
</svg>
