<svg width="336" height="336" viewBox="0 0 336 336" fill="none" xmlns="http://www.w3.org/2000/svg">
<circle cx="168" cy="168" r="168" fill="white"/>
<path d="M107.86 137.382V132.818H129.363V137.382H121.348V159H115.876V137.382H107.86ZM132.904 159V132.818H143.234C145.211 132.818 146.899 133.172 148.297 133.879C149.703 134.578 150.772 135.571 151.505 136.858C152.247 138.136 152.618 139.641 152.618 141.371C152.618 143.109 152.243 144.605 151.493 145.858C150.743 147.102 149.656 148.057 148.233 148.722C146.818 149.386 145.105 149.719 143.093 149.719H136.177V145.27H142.199C143.255 145.27 144.133 145.125 144.832 144.835C145.531 144.545 146.051 144.111 146.392 143.531C146.741 142.952 146.916 142.232 146.916 141.371C146.916 140.501 146.741 139.768 146.392 139.172C146.051 138.575 145.527 138.124 144.819 137.817C144.12 137.501 143.238 137.344 142.173 137.344H138.44V159H132.904ZM147.044 147.085L153.551 159H147.44L141.074 147.085H147.044ZM161.042 159H155.11L164.149 132.818H171.282L180.308 159H174.376L167.818 138.801H167.613L161.042 159ZM160.672 148.709H174.683V153.03H160.672V148.709ZM192.74 159H183.459V132.818H192.817C195.451 132.818 197.718 133.342 199.618 134.391C201.519 135.43 202.98 136.926 204.003 138.878C205.034 140.83 205.55 143.165 205.55 145.884C205.55 148.611 205.034 150.955 204.003 152.915C202.98 154.875 201.51 156.379 199.593 157.428C197.684 158.476 195.4 159 192.74 159ZM188.995 154.257H192.51C194.147 154.257 195.523 153.967 196.64 153.388C197.765 152.8 198.608 151.892 199.171 150.665C199.742 149.429 200.027 147.835 200.027 145.884C200.027 143.949 199.742 142.368 199.171 141.141C198.608 139.913 197.769 139.01 196.652 138.43C195.536 137.851 194.159 137.561 192.523 137.561H188.995V154.257ZM209.651 159V132.818H227.293V137.382H215.186V143.621H226.385V148.185H215.186V154.436H227.344V159H209.651ZM118.912 184.348C118.81 183.317 118.371 182.516 117.596 181.945C116.82 181.374 115.767 181.088 114.438 181.088C113.534 181.088 112.772 181.216 112.15 181.472C111.527 181.719 111.05 182.064 110.718 182.507C110.394 182.95 110.232 183.453 110.232 184.016C110.215 184.484 110.313 184.893 110.526 185.243C110.748 185.592 111.05 185.895 111.434 186.151C111.817 186.398 112.26 186.615 112.763 186.803C113.266 186.982 113.803 187.135 114.374 187.263L116.726 187.825C117.868 188.081 118.917 188.422 119.871 188.848C120.826 189.274 121.652 189.798 122.351 190.42C123.05 191.043 123.591 191.776 123.975 192.619C124.367 193.463 124.567 194.43 124.576 195.521C124.567 197.124 124.158 198.513 123.348 199.689C122.547 200.857 121.388 201.764 119.871 202.412C118.363 203.051 116.543 203.371 114.412 203.371C112.299 203.371 110.458 203.047 108.89 202.399C107.33 201.751 106.111 200.793 105.233 199.523C104.364 198.244 103.908 196.663 103.865 194.78H109.222C109.282 195.658 109.533 196.391 109.976 196.979C110.428 197.558 111.029 197.997 111.779 198.295C112.537 198.585 113.394 198.73 114.348 198.73C115.286 198.73 116.1 198.594 116.79 198.321C117.489 198.048 118.03 197.669 118.414 197.183C118.797 196.697 118.989 196.139 118.989 195.509C118.989 194.92 118.814 194.426 118.465 194.026C118.124 193.625 117.621 193.284 116.956 193.003C116.3 192.722 115.495 192.466 114.54 192.236L111.689 191.52C109.482 190.983 107.739 190.143 106.461 189.001C105.182 187.859 104.547 186.321 104.556 184.386C104.547 182.801 104.969 181.416 105.821 180.232C106.682 179.047 107.863 178.122 109.363 177.457C110.863 176.793 112.567 176.46 114.476 176.46C116.419 176.46 118.115 176.793 119.564 177.457C121.022 178.122 122.155 179.047 122.965 180.232C123.775 181.416 124.192 182.788 124.218 184.348H118.912ZM128.299 176.818H135.126L142.336 194.409H142.643L149.853 176.818H156.68V203H151.31V185.959H151.093L144.317 202.872H140.661L133.886 185.895H133.668V203H128.299V176.818ZM165.753 203H159.821L168.86 176.818H175.993L185.019 203H179.087L172.529 182.801H172.324L165.753 203ZM165.382 192.709H179.394V197.03H165.382V192.709ZM188.17 203V176.818H198.5C200.477 176.818 202.164 177.172 203.562 177.879C204.968 178.578 206.038 179.571 206.771 180.858C207.512 182.136 207.883 183.641 207.883 185.371C207.883 187.109 207.508 188.605 206.758 189.858C206.008 191.102 204.922 192.057 203.498 192.722C202.083 193.386 200.37 193.719 198.359 193.719H191.443V189.27H197.464C198.521 189.27 199.399 189.125 200.098 188.835C200.797 188.545 201.316 188.111 201.657 187.531C202.007 186.952 202.181 186.232 202.181 185.371C202.181 184.501 202.007 183.768 201.657 183.172C201.316 182.575 200.792 182.124 200.085 181.817C199.386 181.501 198.504 181.344 197.439 181.344H193.706V203H188.17ZM202.309 191.085L208.816 203H202.706L196.339 191.085H202.309ZM210.798 181.382V176.818H232.301V181.382H224.285V203H218.814V181.382H210.798Z" fill="black"/>
</svg>
