<svg width="344" height="344" viewBox="0 0 344 344" fill="none" xmlns="http://www.w3.org/2000/svg">
<g filter="url(#filter0_d_2840_225)">
<circle cx="172" cy="168" r="168" fill="white"/>
</g>
<g clip-path="url(#clip0_2840_225)">
<path d="M159.55 113.07L151.479 103.082L78.8379 163.01L151.479 83.0166L166.154 106.411L194.77 72.0083L218.983 113.07L249.067 74.9439L243.931 65.4034H267.41L262.274 94.204L257.872 85.9522L189.633 148.583L213.113 118.619L194.77 97.5332L125.798 157.461L159.55 113.07Z" fill="black"/>
<path d="M158.083 108.667L150.012 98.6787L77.3711 158.607L150.012 78.6132L164.687 102.008L193.303 67.605L217.516 108.667L247.6 70.5405L242.464 61H265.944L260.807 89.8006L256.405 81.5488L188.167 144.18L211.646 114.216L193.303 93.1298L124.331 153.058L158.083 108.667Z" fill="#3399FF"/>
<g filter="url(#filter1_d_2840_225)">
<path d="M74.1928 185.462C73.028 185.004 72.2599 184.409 71.8906 183.677C72.7667 182.029 73.3501 180.922 73.6408 180.358C73.9472 179.793 74.2929 178.931 74.6759 177.771C75.0747 176.596 75.3517 175.414 75.5049 174.223H91.4566H110.632C111.015 177.214 112.213 180.365 114.222 183.677C113.869 184.409 113.048 185.004 111.759 185.462C110.502 183.189 108.644 181.296 106.188 179.786C103.749 178.26 100.58 177.497 96.6815 177.497C96.5597 181.281 96.4988 185.768 96.4988 190.956C96.4988 197.579 96.5754 202.409 96.7286 205.446C96.76 206.01 98.4709 206.46 101.861 206.796C102.122 207.773 102.091 208.757 101.769 209.749C96.7974 209.627 93.904 209.566 93.0908 209.566C91.8631 209.566 88.4257 209.627 82.7785 209.749C82.3954 208.696 82.3954 207.712 82.7785 206.796C86.1098 206.46 87.7893 206.026 87.8207 205.491C87.9739 201.646 88.0505 196.801 88.0505 190.956C88.0505 186.073 87.9897 181.632 87.8659 177.634C81.4821 178.458 76.925 181.067 74.1928 185.462ZM80.7082 176.695L88.7636 176.467C88.9168 181.533 88.9934 186.363 88.9934 190.956C88.9934 196.862 88.9168 201.707 88.7636 205.491C88.7341 206.621 86.9525 207.353 83.4228 207.689C83.301 207.933 83.301 208.292 83.4228 208.765C86.0332 208.673 88.7105 208.627 91.4566 208.627C94.7251 208.627 97.864 208.673 100.871 208.765C100.995 208.49 100.995 208.131 100.871 207.689C95.7779 207.384 93.2146 206.651 93.1831 205.491C93.0299 200.425 92.9533 195.58 92.9533 190.956C92.9533 185.081 93.0299 180.251 93.1831 176.467L96.7286 176.558C104.372 176.741 109.528 179.32 112.197 184.295C112.596 184.142 112.857 183.936 112.979 183.677C111.445 180.564 109.726 178.366 107.823 177.085C105.921 175.803 103.089 175.162 99.3293 175.162H91.4566C89.785 175.162 87.2609 175.154 83.8844 175.139C80.5078 175.124 77.9995 175.116 76.3573 175.116C76.2964 175.635 76.1884 176.177 76.0352 176.741C75.882 177.306 75.7347 177.786 75.5972 178.183C75.4754 178.565 75.2593 179.076 74.9529 179.717C74.6622 180.358 74.4619 180.793 74.3538 181.022C74.2478 181.235 74.0022 181.708 73.6172 182.441C73.2499 183.173 73.0338 183.585 72.9729 183.677C73.0967 183.936 73.3638 184.142 73.7783 184.295C74.8685 182.51 75.7131 181.189 76.3102 180.335C76.9093 179.48 77.6145 178.664 78.4296 177.886C79.2566 177.092 80.0168 176.695 80.7082 176.695ZM124.374 176.558H124.421C125.371 176.497 126.599 176.467 128.104 176.467C130.435 176.467 132.215 177.184 133.442 178.618C134.686 180.053 135.308 181.914 135.308 184.203C135.308 186.523 134.739 188.537 133.604 190.246C132.484 191.94 130.726 192.787 128.333 192.787C126.921 192.787 125.525 192.612 124.144 192.261C124.144 186.889 124.22 181.655 124.374 176.558ZM134.364 184.203C134.364 182.235 133.765 180.579 132.568 179.236C131.386 177.893 129.822 177.298 127.872 177.451C127.75 183.326 127.689 188.034 127.689 191.574C127.996 191.666 128.463 191.742 129.092 191.803C130.889 191.605 132.215 190.765 133.075 189.285C133.934 187.805 134.364 186.111 134.364 184.203ZM119.954 205.491C119.923 206.621 118.143 207.353 114.613 207.689C114.491 207.933 114.491 208.292 114.613 208.765C117.224 208.673 119.901 208.627 122.647 208.627C125.915 208.627 129.054 208.673 132.062 208.765C132.185 208.521 132.185 208.162 132.062 207.689C126.966 207.384 124.405 206.651 124.374 205.491C124.22 201.203 124.144 197.373 124.144 194C125.878 194.351 127.481 194.527 128.954 194.527C131.47 199.181 134.786 203.881 138.899 208.627C139.681 208.627 140.808 208.635 142.282 208.65C143.771 208.665 145.106 208.681 146.287 208.696C147.485 208.711 148.62 208.734 149.695 208.765C149.816 208.49 149.816 208.131 149.695 207.689C147.178 207.506 145.051 206.895 143.319 205.858C141.6 204.805 139.589 202.867 137.286 200.044C135.721 198.075 134.311 196 133.052 193.817C135.322 193.07 137.11 191.826 138.416 190.086C139.72 188.347 140.372 186.386 140.372 184.203C140.372 181.456 139.483 179.236 137.701 177.542C135.921 175.833 133.458 174.979 130.313 174.979C119.938 175.101 114.721 175.101 114.66 174.979C114.568 175.345 114.568 175.703 114.66 176.054C118.19 176.39 119.97 177.123 120.001 178.252C120.154 181.838 120.231 186.103 120.231 191.048C120.231 195.885 120.139 200.7 119.954 205.491ZM119.011 205.446C119.194 201.631 119.286 196.831 119.286 191.048C119.286 186.134 119.209 181.884 119.056 178.298C119.025 177.733 117.314 177.283 113.924 176.947C113.662 175.94 113.694 174.956 114.016 173.994C115.703 174.086 117.538 174.132 119.516 174.132C121.496 174.132 123.769 174.116 126.33 174.086C128.893 174.055 130.773 174.04 131.969 174.04C135.684 174.04 138.599 174.979 140.716 176.856C142.835 178.717 143.894 181.167 143.894 184.203C143.894 186.355 143.272 188.339 142.028 190.155C140.787 191.971 139.113 193.344 137.011 194.275C138.055 195.969 139.266 197.709 140.647 199.494C142.274 201.646 143.871 203.355 145.436 204.622C147.015 205.888 148.766 206.613 150.685 206.796C150.93 207.773 150.899 208.757 150.592 209.749C148.398 209.688 144.362 209.627 138.485 209.566C134.171 204.561 130.804 199.86 128.379 195.465H127.689C127.689 198.304 127.766 201.631 127.919 205.446C127.919 205.537 127.956 205.629 128.033 205.72C128.109 205.812 128.41 205.957 128.931 206.155C129.453 206.354 130.243 206.529 131.301 206.682C132.376 206.819 132.975 206.903 133.099 206.933C133.358 207.788 133.313 208.727 132.959 209.749C127.296 209.627 123.859 209.566 122.647 209.566C121.818 209.566 118.927 209.627 113.969 209.749C113.586 208.696 113.586 207.712 113.969 206.796C117.3 206.46 118.98 206.01 119.011 205.446ZM189.263 207.689C188.404 207.643 187.567 207.582 186.754 207.506C185.957 207.414 185.228 207.292 184.568 207.14C183.908 206.987 183.348 206.789 182.887 206.544C182.443 206.285 182.15 205.964 182.013 205.583L169.282 174.315C169.023 174.33 168.77 174.437 168.524 174.635C168.416 176.528 167.833 178.046 166.774 179.19L167.304 180.541L157.589 204.828C156.976 206.353 155.089 207.307 151.926 207.689C151.836 207.902 151.789 208.093 151.789 208.261C151.789 208.444 151.836 208.627 151.926 208.811C153.676 208.749 155.081 208.704 156.139 208.673C157.214 208.643 157.95 208.627 158.349 208.627C158.703 208.627 159.5 208.643 160.744 208.673C162.001 208.704 163.706 208.749 165.853 208.811C165.945 208.627 165.992 208.444 165.992 208.261C165.992 208.093 165.945 207.902 165.853 207.689C164.58 207.567 163.545 207.437 162.745 207.3C161.948 207.147 161.327 206.987 160.881 206.819C160.437 206.651 160.137 206.468 159.983 206.27C159.83 206.056 159.754 205.819 159.754 205.56C159.754 205.392 159.783 205.224 159.846 205.057L163.207 196.679C164.91 196.648 166.283 196.625 167.326 196.61C168.385 196.595 169.113 196.587 169.514 196.587C170.388 196.587 171.162 196.595 171.838 196.61C172.529 196.61 173.12 196.618 173.611 196.633L176.949 205.057C177.025 205.285 177.063 205.461 177.063 205.583C177.063 205.995 176.849 206.361 176.418 206.682C176.004 207.002 175.491 207.223 174.876 207.346L172.39 207.689C172.299 207.902 172.252 208.093 172.252 208.261C172.252 208.444 172.299 208.627 172.39 208.811C173.696 208.765 175.014 208.727 176.35 208.696C177.701 208.665 179.082 208.65 180.492 208.65C181.904 208.65 183.333 208.665 184.774 208.696C186.232 208.727 187.729 208.765 189.263 208.811C189.371 208.597 189.424 208.414 189.424 208.261C189.424 208.169 189.41 208.078 189.378 207.986C189.347 207.895 189.31 207.796 189.263 207.689ZM169.514 194.802C167.288 194.802 165.454 194.771 164.012 194.71L168.385 183.494H168.477L172.875 194.756C172.046 194.786 170.924 194.802 169.514 194.802ZM168.432 185.897L165.369 193.817C167.228 193.909 169.268 193.924 171.492 193.863L168.432 185.897ZM189.978 206.842C190.361 207.758 190.345 208.727 189.93 209.749H171.677C171.309 208.696 171.309 207.727 171.677 206.842C173.35 206.75 174.531 206.582 175.222 206.338C175.912 206.079 176.151 205.667 175.935 205.102L172.92 197.526C170.082 197.419 167.043 197.449 163.804 197.617L160.836 205.194C160.744 205.453 160.812 205.69 161.042 205.903C161.288 206.102 161.679 206.262 162.217 206.384C162.753 206.506 163.384 206.605 164.104 206.682C164.825 206.758 165.639 206.811 166.544 206.842C166.927 207.758 166.911 208.727 166.497 209.749C161.464 209.566 156.393 209.566 151.282 209.749C150.867 208.727 150.854 207.758 151.237 206.842C154.397 206.476 156.185 205.789 156.599 204.782L166.314 180.495C166.251 180.373 166.13 180.098 165.945 179.671C165.776 179.229 165.676 178.939 165.646 178.801C166.843 177.596 167.503 176.039 167.626 174.132C168.976 173.475 170.565 173.102 172.39 173.01L185.305 204.873C185.595 205.591 186.055 206.071 186.685 206.315C187.314 206.544 188.412 206.72 189.978 206.842ZM203.097 176.901C204.77 176.703 206.534 176.604 208.392 176.604C210.433 176.604 212.258 176.924 213.871 177.565C215.497 178.206 216.809 179.03 217.807 180.037C218.819 181.029 219.648 182.204 220.292 183.563C220.936 184.921 221.382 186.271 221.628 187.614C221.889 188.942 222.018 190.307 222.018 191.711C222.018 196.335 220.714 200.036 218.106 202.813C215.497 205.591 211.738 206.979 206.827 206.979L203.052 206.933C202.898 200.6 202.822 195.87 202.822 192.742C202.822 187.08 202.912 181.8 203.097 176.901ZM208.047 209.566C202.906 209.566 197.772 209.627 192.647 209.749C192.264 208.696 192.264 207.712 192.647 206.796C195.976 206.46 197.658 206.01 197.687 205.446C197.872 200.654 197.964 195.854 197.964 191.048C197.964 186.134 197.888 181.884 197.734 178.298C197.703 177.733 195.992 177.283 192.6 176.947C192.341 175.97 192.37 174.986 192.692 173.994C194.58 174.025 200.457 174.04 210.325 174.04C212.458 174.04 214.415 174.17 216.194 174.429C217.99 174.689 219.817 175.215 221.673 176.009C223.531 176.787 225.094 177.809 226.369 179.076C227.642 180.343 228.679 182.052 229.477 184.203C230.274 186.355 230.673 188.873 230.673 191.757C230.673 194.504 230.205 196.938 229.268 199.059C228.334 201.18 227.106 202.89 225.586 204.187C224.083 205.484 222.311 206.552 220.268 207.391C218.227 208.215 216.218 208.78 214.238 209.085C212.258 209.406 210.196 209.566 208.047 209.566ZM206.642 177.725C206.458 183.082 206.365 188.087 206.365 192.742C206.365 196.526 206.428 200.959 206.55 206.041C211.384 205.919 215.014 204.568 217.438 201.989C219.862 199.41 221.076 195.984 221.076 191.711C221.076 190.048 220.875 188.461 220.477 186.95C220.078 185.424 219.441 183.944 218.565 182.51C217.691 181.075 216.411 179.915 214.721 179.03C213.05 178.13 211.078 177.649 208.805 177.588C208.055 177.588 207.332 177.634 206.642 177.725ZM193.291 208.765C196.591 208.673 200.964 208.627 206.412 208.627C208.361 208.627 210.241 208.482 212.052 208.192C213.879 207.887 215.727 207.338 217.599 206.544C219.471 205.751 221.089 204.744 222.456 203.523C223.822 202.302 224.941 200.677 225.817 198.647C226.707 196.618 227.151 194.306 227.151 191.711C227.151 180.556 220.991 174.979 208.667 174.979C207.532 174.979 205.921 175.002 203.833 175.047C201.747 175.093 199.852 175.116 198.149 175.116C196.46 175.116 194.857 175.07 193.338 174.979C193.215 175.253 193.215 175.612 193.338 176.054C196.866 176.39 198.648 177.123 198.677 178.252C198.83 181.838 198.907 186.103 198.907 191.048C198.907 195.885 198.817 200.7 198.632 205.491C198.601 206.621 196.821 207.353 193.291 207.689C193.138 208.04 193.138 208.398 193.291 208.765ZM254.981 175.162H243.403C241.484 175.162 238.791 175.101 235.322 174.979V176.054C238.852 176.39 240.634 177.123 240.663 178.252C240.816 181.838 240.893 186.103 240.893 191.048C240.893 195.885 240.803 200.7 240.618 205.491C240.587 206.621 238.807 207.353 235.277 207.689C235.216 208.223 235.216 208.582 235.277 208.765C238.239 208.673 245.122 208.627 255.925 208.627C259.701 208.627 262.539 207.986 264.442 206.705C266.344 205.423 268.062 203.218 269.599 200.089C269.475 199.845 269.206 199.647 268.793 199.494C266 204.652 260.852 207.231 253.346 207.231H245.038C244.884 200.562 244.808 195.687 244.808 192.604L252.311 192.558C252.971 192.558 253.584 192.665 254.152 192.879C254.735 193.093 255.197 193.314 255.535 193.543C255.886 193.756 256.293 194.176 256.754 194.802C257.214 195.427 257.536 195.885 257.721 196.175C257.905 196.45 258.227 197.03 258.687 197.915C259.147 198.8 259.455 199.372 259.608 199.631C260.084 199.433 260.382 199.227 260.506 199.013C258.972 196.419 258.204 194.031 258.204 191.849C258.204 190.903 258.418 189.75 258.848 188.392C259.294 187.034 259.846 185.79 260.506 184.661C260.382 184.448 260.084 184.249 259.608 184.066C259.485 184.28 259.239 184.737 258.872 185.439C258.518 186.141 258.281 186.599 258.159 186.813C258.051 187.011 257.829 187.385 257.491 187.934C257.169 188.484 256.915 188.85 256.731 189.033C256.546 189.216 256.271 189.491 255.902 189.857C255.548 190.208 255.204 190.452 254.867 190.59C254.544 190.712 254.159 190.826 253.716 190.933C253.27 191.04 252.802 191.093 252.311 191.093C249.011 191.093 246.511 191.063 244.808 191.002C244.808 187.309 244.9 182.494 245.083 176.558H252.403C259.907 176.558 265.055 179.137 267.848 184.295C268.263 184.142 268.532 183.936 268.654 183.677C267.12 180.564 265.401 178.366 263.498 177.085C261.596 175.803 258.756 175.162 254.981 175.162ZM258.159 184.821L259.147 182.899C260.437 183.356 261.25 183.944 261.588 184.661C260.897 185.851 260.314 187.141 259.838 188.53C259.379 189.903 259.147 191.01 259.147 191.849C259.147 193.878 259.96 196.267 261.588 199.013C261.219 199.792 260.437 200.387 259.239 200.799C258.671 199.868 258.257 199.151 257.996 198.647C257.367 197.61 256.868 196.839 256.501 196.335C256.147 195.816 255.611 195.298 254.888 194.779C254.167 194.26 253.37 193.985 252.496 193.955H248.351C248.351 197.327 248.414 201.44 248.536 206.293H253.301C257.198 206.293 260.367 205.537 262.808 204.026C265.263 202.5 267.12 200.593 268.379 198.304C269.667 198.777 270.48 199.372 270.818 200.089C268.807 203.401 267.619 206.56 267.249 209.566H248.145C242.083 209.566 237.579 209.612 234.633 209.703C234.311 208.711 234.295 207.742 234.588 206.796C237.947 206.46 239.644 206.01 239.673 205.446C239.858 200.654 239.95 195.854 239.95 191.048C239.95 186.134 239.873 181.884 239.72 178.298C239.689 177.733 237.978 177.283 234.588 176.947C234.295 175.879 234.326 174.895 234.678 173.994C239.39 174.147 242.513 174.223 244.048 174.223H266.306C266.674 177.214 267.872 180.365 269.897 183.677C269.544 184.409 268.722 185.004 267.434 185.462C266.177 183.189 264.319 181.296 261.863 179.786C259.424 178.26 256.255 177.497 252.356 177.497H248.581C248.428 182.975 248.351 187.179 248.351 190.109C249.32 190.14 250.714 190.155 252.541 190.155C253.83 190.155 254.859 189.728 255.625 188.873C256.393 188.003 257.238 186.653 258.159 184.821ZM89.4078 235.79C91.6039 235.79 93.6211 236.096 95.4617 236.706C97.3041 237.316 98.962 237.713 100.435 237.896C99.622 240.735 99.5905 243.794 100.343 247.075C99.5591 247.732 98.6614 248.113 97.6499 248.22C97.5261 247.93 97.3041 247.327 96.982 246.412C96.6756 245.481 96.375 244.718 96.0843 244.123C95.8074 243.527 95.4165 242.848 94.9097 242.085C94.4187 241.322 93.7587 240.72 92.9298 240.277C92.1166 239.819 91.1816 239.506 90.1228 239.339C88.573 239.476 87.3748 239.949 86.5302 240.758C85.6875 241.567 85.2652 242.612 85.2652 243.894C85.2652 245.206 85.6031 246.289 86.2788 247.144C86.9525 247.983 87.8286 248.617 88.903 249.044C89.9912 249.456 91.1894 249.822 92.4937 250.143C93.798 250.448 95.0944 250.829 96.3829 251.287C97.6715 251.73 98.8539 252.317 99.9284 253.05C101.019 253.767 101.9 254.843 102.574 256.277C103.25 257.712 103.588 259.459 103.588 261.519C103.588 264.022 102.859 266.173 101.402 267.974C99.9441 269.775 98.2254 271.064 96.2454 271.843C94.2654 272.621 92.2403 273.01 90.168 273.01C85.6109 273.01 81.099 272.011 76.6323 270.011C76.7247 268.043 76.7718 266.837 76.7718 266.395C76.7718 263.923 76.5341 261.267 76.0568 258.429C77.4396 257.773 78.9816 257.742 80.6846 258.337C81.2523 261.802 82.3503 264.457 83.9767 266.303C85.6188 268.15 87.4141 269.18 89.3627 269.393C91.1894 269.271 92.5919 268.684 93.574 267.631C94.5718 266.563 95.0708 265.212 95.0708 263.579C95.0708 262.206 94.7486 261.046 94.1044 260.1C93.4601 259.139 92.6076 258.399 91.5489 257.88C90.4902 257.345 89.3391 256.865 88.0957 256.438C86.868 256.01 85.6267 255.56 84.3676 255.087C83.1085 254.599 81.9496 254.019 80.8908 253.347C79.8478 252.676 79.0032 251.737 78.3589 250.532C77.7146 249.326 77.3925 247.861 77.3925 246.137C77.3925 244.58 77.638 243.184 78.1291 241.948C78.6359 240.712 79.288 239.72 80.0855 238.972C80.8987 238.224 81.8435 237.599 82.918 237.095C84.0062 236.592 85.0806 236.248 86.1393 236.065C87.2138 235.882 88.3039 235.79 89.4078 235.79ZM89.4078 236.729C88.1193 236.729 86.8681 236.881 85.6561 237.187C84.4442 237.477 83.2617 237.957 82.1106 238.629C80.9753 239.3 80.0639 240.285 79.3725 241.582C78.6811 242.879 78.3373 244.397 78.3373 246.137C78.3373 247.678 78.6594 249.006 79.3037 250.12C79.948 251.219 80.7926 252.073 81.8356 252.684C82.8944 253.294 84.0533 253.836 85.3104 254.309C86.5695 254.767 87.8129 255.232 89.0405 255.705C90.2839 256.178 91.435 256.712 92.4937 257.307C93.5524 257.903 94.4029 258.734 95.0472 259.802C95.6934 260.855 96.0156 262.114 96.0156 263.579C96.0156 265.609 95.3635 267.249 94.0592 268.501C92.753 269.752 90.9046 270.378 88.5102 270.378C86.2081 270.378 84.069 269.424 82.089 267.516C80.1091 265.609 78.8048 262.755 78.1763 258.955C77.8679 258.757 77.5084 258.757 77.0939 258.955C77.5084 261.351 77.7147 263.831 77.7147 266.395C77.7147 267.112 77.6852 268.127 77.6223 269.439C81.429 271.194 85.057 272.072 88.5102 272.072C91.3642 272.072 94.0042 271.232 96.4301 269.554C98.8539 267.86 100.066 265.494 100.066 262.458C100.066 260.733 99.728 259.276 99.0543 258.086C98.3786 256.88 97.4966 255.942 96.4065 255.27C95.3163 254.599 94.1201 254.019 92.8158 253.53C91.5115 253.042 90.2152 252.584 88.9246 252.157C87.6361 251.715 86.4477 251.226 85.3575 250.692C84.2831 250.158 83.409 249.403 82.7333 248.426C82.0576 247.434 81.7198 246.236 81.7198 244.832C81.7198 242.863 82.3876 241.292 83.7233 240.117C85.057 238.942 86.9525 238.354 89.4078 238.354C93.6742 238.354 96.6127 241.292 98.2254 247.167C98.7007 247.243 99.0307 247.136 99.2154 246.846C98.7086 243.123 97.5949 240.506 95.8761 238.995C94.1731 237.484 92.0164 236.729 89.4078 236.729ZM113.095 267.654C113.034 269.042 111.337 269.889 108.007 270.195C107.886 270.439 107.886 270.797 108.007 271.27C110.909 271.179 112.965 271.133 114.177 271.133C116.094 271.133 118.282 271.179 120.738 271.27C120.859 270.797 120.859 270.439 120.738 270.195C117.377 269.889 115.68 269.042 115.65 267.654C115.497 262.908 115.42 258.772 115.42 255.247C115.42 250.425 115.481 246.16 115.603 242.452H115.833L127.066 270.561H127.296L137.793 243.001H138.001C138.155 247.594 138.231 251.676 138.231 255.247C138.231 260.207 138.155 264.441 138.001 267.951C137.97 268.348 137.785 268.691 137.448 268.981C137.125 269.256 136.642 269.477 135.998 269.645C135.354 269.798 134.81 269.905 134.364 269.966C133.92 270.027 133.35 270.088 132.661 270.149C132.537 270.393 132.537 270.752 132.661 271.225C135.269 271.133 137.939 271.087 140.671 271.087C143.939 271.087 147.086 271.133 150.109 271.225C150.231 270.95 150.231 270.591 150.109 270.149C145.014 269.844 142.451 269.126 142.421 267.997C142.236 263.205 142.144 258.391 142.144 253.553C142.144 248.869 142.205 244.603 142.329 240.758C142.358 239.628 144.922 238.911 150.017 238.606C150.139 238.163 150.139 237.805 150.017 237.53C146.994 237.622 142.973 237.668 137.954 237.668L128.149 263.121L118.711 237.668C114.967 237.668 111.653 237.606 108.768 237.484C108.614 237.79 108.614 238.079 108.768 238.354C110.592 238.614 111.783 238.995 112.335 239.499C112.902 239.987 113.203 241.124 113.232 242.909C113.34 246.663 113.393 250.211 113.393 253.553C113.393 258.177 113.295 262.877 113.095 267.654ZM112.15 267.654C112.35 262.847 112.45 258.147 112.45 253.553C112.45 250.211 112.395 246.663 112.289 242.909C112.258 241.505 111.983 240.605 111.46 240.208C110.954 239.796 109.85 239.476 108.145 239.247C107.717 238.316 107.73 237.4 108.192 236.5C111.722 236.653 116.31 236.729 121.957 236.729L129.506 256.781L137.286 236.729C141.4 236.729 145.943 236.668 150.914 236.546C151.221 237.538 151.252 238.522 151.007 239.499C147.615 239.835 145.904 240.285 145.872 240.849C145.735 243.718 145.666 247.953 145.666 253.553C145.666 259.337 145.766 264.121 145.965 267.906C145.996 268.47 147.707 268.92 151.099 269.256C151.345 270.233 151.313 271.217 151.007 272.209C146.033 272.087 143.142 272.026 142.329 272.026C141.101 272.026 137.664 272.087 132.016 272.209C131.631 271.141 131.631 270.156 132.016 269.256C135.346 268.92 137.027 268.485 137.057 267.951C137.21 264.381 137.286 260.146 137.286 255.247C137.286 251.432 137.273 248.632 137.241 246.846L127.943 271.499H126.399L116.363 246.343V255.247C116.363 258.772 116.44 262.908 116.593 267.654C116.625 268.478 118.304 269.027 121.635 269.302C122.018 270.217 122.018 271.202 121.635 272.255C117.047 272.072 112.282 272.072 107.34 272.255C106.972 271.202 106.972 270.217 107.34 269.302C110.516 268.997 112.12 268.447 112.15 267.654ZM191.081 270.195C190.223 270.149 189.386 270.088 188.573 270.011C187.774 269.92 187.045 269.798 186.385 269.645C185.725 269.493 185.165 269.294 184.706 269.05C184.26 268.791 183.969 268.47 183.831 268.089L171.101 236.821C170.84 236.836 170.586 236.943 170.341 237.141C170.235 239.033 169.651 240.552 168.593 241.696L169.121 243.047L159.408 267.333C158.795 268.859 156.907 269.813 153.745 270.195C153.653 270.408 153.607 270.599 153.607 270.767C153.607 270.95 153.653 271.133 153.745 271.316C155.495 271.255 156.9 271.209 157.958 271.179C159.033 271.148 159.769 271.133 160.168 271.133C160.52 271.133 161.319 271.148 162.562 271.179C163.82 271.209 165.523 271.255 167.672 271.316C167.764 271.133 167.809 270.95 167.809 270.767C167.809 270.599 167.764 270.408 167.672 270.195C166.399 270.072 165.362 269.943 164.564 269.805C163.767 269.653 163.144 269.493 162.7 269.325C162.254 269.157 161.956 268.974 161.802 268.775C161.649 268.562 161.573 268.325 161.573 268.066C161.573 267.898 161.602 267.73 161.663 267.562L165.024 259.184C166.729 259.154 168.102 259.131 169.145 259.116C170.203 259.1 170.932 259.093 171.331 259.093C172.207 259.093 172.981 259.1 173.657 259.116C174.348 259.116 174.937 259.123 175.428 259.139L178.768 267.562C178.844 267.791 178.882 267.967 178.882 268.089C178.882 268.501 178.667 268.867 178.237 269.187C177.823 269.508 177.308 269.729 176.695 269.851L174.209 270.195C174.116 270.408 174.071 270.599 174.071 270.767C174.071 270.95 174.116 271.133 174.209 271.316C175.513 271.27 176.833 271.232 178.168 271.202C179.518 271.171 180.899 271.156 182.311 271.156C183.723 271.156 185.151 271.171 186.593 271.202C188.051 271.232 189.547 271.27 191.081 271.316C191.19 271.103 191.243 270.919 191.243 270.767C191.243 270.675 191.227 270.584 191.197 270.492C191.166 270.401 191.127 270.301 191.081 270.195ZM171.331 257.307C169.107 257.307 167.273 257.277 165.831 257.216L170.203 246H170.296L174.692 257.261C173.863 257.292 172.743 257.307 171.331 257.307ZM170.251 248.403L167.188 256.323C169.045 256.415 171.085 256.43 173.311 256.369L170.251 248.403ZM191.794 269.348C192.179 270.263 192.164 271.232 191.749 272.255H173.496C173.126 271.202 173.126 270.233 173.496 269.348C175.169 269.256 176.35 269.088 177.041 268.844C177.73 268.585 177.968 268.173 177.754 267.608L174.739 260.031C171.899 259.924 168.862 259.955 165.623 260.123L162.653 267.7C162.562 267.959 162.631 268.196 162.861 268.409C163.107 268.607 163.497 268.768 164.036 268.89C164.572 269.012 165.2 269.111 165.921 269.187C166.644 269.264 167.457 269.317 168.363 269.348C168.746 270.263 168.73 271.232 168.316 272.255C163.283 272.072 158.212 272.072 153.101 272.255C152.686 271.232 152.671 270.263 153.055 269.348C156.216 268.981 158.003 268.295 158.418 267.287L168.131 243.001C168.07 242.879 167.948 242.604 167.764 242.177C167.595 241.734 167.495 241.444 167.465 241.307C168.662 240.102 169.321 238.545 169.443 236.637C170.795 235.981 172.384 235.607 174.209 235.516L187.122 267.379C187.414 268.096 187.874 268.577 188.504 268.821C189.133 269.05 190.229 269.225 191.794 269.348ZM204.871 239.064H204.916C205.866 239.003 207.094 238.972 208.599 238.972C210.932 238.972 212.712 239.689 213.939 241.124C215.183 242.558 215.804 244.42 215.804 246.709C215.804 249.029 215.236 251.043 214.101 252.752C212.981 254.446 211.223 255.293 208.829 255.293C207.416 255.293 206.022 255.118 204.639 254.767C204.639 249.395 204.715 244.161 204.871 239.064ZM214.861 246.709C214.861 244.741 214.262 243.085 213.063 241.742C211.883 240.399 210.317 239.804 208.369 239.957C208.245 245.832 208.184 250.539 208.184 254.08C208.491 254.171 208.96 254.248 209.589 254.309C211.384 254.11 212.712 253.271 213.57 251.791C214.431 250.31 214.861 248.617 214.861 246.709ZM200.451 267.997C200.42 269.126 198.64 269.859 195.11 270.195C194.986 270.439 194.986 270.797 195.11 271.27C197.719 271.179 200.396 271.133 203.144 271.133C206.412 271.133 209.549 271.179 212.559 271.27C212.68 271.026 212.68 270.668 212.559 270.195C207.463 269.889 204.9 269.157 204.871 267.997C204.715 263.709 204.639 259.879 204.639 256.506C206.373 256.857 207.978 257.033 209.451 257.033C211.967 261.687 215.281 266.387 219.394 271.133C220.178 271.133 221.305 271.141 222.779 271.156C224.267 271.171 225.601 271.186 226.784 271.202C227.98 271.217 229.115 271.24 230.19 271.27C230.313 270.996 230.313 270.637 230.19 270.195C227.674 270.011 225.548 269.401 223.814 268.363C222.095 267.31 220.086 265.372 217.784 262.549C216.218 260.581 214.806 258.505 213.549 256.323C215.819 255.575 217.607 254.332 218.911 252.592C220.215 250.852 220.867 248.891 220.867 246.709C220.867 243.962 219.978 241.742 218.198 240.048C216.418 238.339 213.955 237.484 210.808 237.484C200.435 237.606 195.218 237.606 195.155 237.484C195.063 237.851 195.063 238.209 195.155 238.56C198.685 238.896 200.465 239.628 200.496 240.758C200.649 244.344 200.726 248.609 200.726 253.553C200.726 258.391 200.634 263.205 200.451 267.997ZM199.506 267.951C199.691 264.136 199.783 259.337 199.783 253.553C199.783 248.64 199.707 244.39 199.553 240.804C199.522 240.239 197.811 239.789 194.419 239.453C194.158 238.446 194.189 237.461 194.511 236.5C196.2 236.592 198.033 236.637 200.013 236.637C201.993 236.637 204.264 236.622 206.827 236.592C209.388 236.561 211.268 236.546 212.466 236.546C216.179 236.546 219.096 237.484 221.213 239.361C223.331 241.223 224.389 243.672 224.389 246.709C224.389 248.861 223.769 250.845 222.525 252.661C221.282 254.477 219.608 255.85 217.507 256.781C218.55 258.475 219.763 260.215 221.144 262C222.771 264.152 224.366 265.861 225.931 267.127C227.512 268.394 229.263 269.119 231.18 269.302C231.425 270.279 231.394 271.263 231.087 272.255C228.893 272.194 224.857 272.133 218.98 272.072C214.668 267.066 211.3 262.366 208.876 257.971H208.184C208.184 260.809 208.261 264.136 208.414 267.951C208.414 268.043 208.453 268.134 208.53 268.226C208.607 268.318 208.905 268.463 209.428 268.661C209.95 268.859 210.74 269.035 211.798 269.187C212.873 269.325 213.472 269.409 213.594 269.439C213.855 270.294 213.808 271.232 213.456 272.255C207.793 272.133 204.356 272.072 203.144 272.072C202.315 272.072 199.422 272.133 194.466 272.255C194.081 271.202 194.081 270.217 194.466 269.302C197.795 268.966 199.475 268.516 199.506 267.951ZM232.861 247.968C231.694 247.51 230.926 246.915 230.559 246.183C231.433 244.535 232.016 243.428 232.307 242.864C232.616 242.299 232.959 241.437 233.344 240.277C233.743 239.102 234.018 237.919 234.173 236.729H250.125H269.298C269.683 239.72 270.879 242.871 272.891 246.183C272.537 246.915 271.716 247.51 270.427 247.968C269.168 245.694 267.312 243.802 264.857 242.291C262.415 240.765 259.247 240.002 255.35 240.002C255.226 243.787 255.165 248.273 255.165 253.462C255.165 260.085 255.242 264.915 255.395 267.951C255.426 268.516 257.137 268.966 260.53 269.302C260.789 270.279 260.759 271.263 260.437 272.255C255.464 272.133 252.572 272.072 251.759 272.072C250.532 272.072 247.094 272.133 241.447 272.255C241.062 271.202 241.062 270.217 241.447 269.302C244.776 268.966 246.456 268.531 246.487 267.997C246.64 264.152 246.717 259.306 246.717 253.462C246.717 248.578 246.656 244.138 246.534 240.14C240.15 240.964 235.591 243.573 232.861 247.968ZM239.375 239.201L247.432 238.972C247.585 244.039 247.662 248.869 247.662 253.462C247.662 259.368 247.585 264.213 247.432 267.997C247.401 269.126 245.621 269.859 242.091 270.195C241.967 270.439 241.967 270.797 242.091 271.27C244.7 271.179 247.377 271.133 250.125 271.133C253.393 271.133 256.53 271.179 259.54 271.27C259.661 270.996 259.661 270.637 259.54 270.195C254.444 269.889 251.881 269.157 251.852 267.997C251.696 262.931 251.62 258.086 251.62 253.462C251.62 247.587 251.696 242.757 251.852 238.972L255.395 239.064C263.038 239.247 268.194 241.826 270.864 246.801C271.262 246.648 271.523 246.442 271.647 246.183C270.111 243.07 268.392 240.872 266.491 239.59C264.588 238.308 261.757 237.668 257.996 237.668H250.125C248.451 237.668 245.927 237.66 242.551 237.645C239.174 237.629 236.666 237.622 235.024 237.622C234.963 238.141 234.855 238.682 234.702 239.247C234.548 239.811 234.403 240.292 234.264 240.689C234.142 241.071 233.928 241.582 233.619 242.223C233.329 242.863 233.128 243.299 233.022 243.527C232.914 243.741 232.669 244.214 232.286 244.947C231.916 245.679 231.702 246.091 231.641 246.183C231.763 246.442 232.032 246.648 232.447 246.801C233.535 245.015 234.379 243.695 234.979 242.841C235.576 241.986 236.283 241.17 237.096 240.391C237.925 239.598 238.683 239.201 239.375 239.201Z" fill="#3399FF"/>
</g>
</g>
<defs>
<filter id="filter0_d_2840_225" x="0" y="0" width="344" height="344" filterUnits="userSpaceOnUse" color-interpolation-filters="sRGB">
<feFlood flood-opacity="0" result="BackgroundImageFix"/>
<feColorMatrix in="SourceAlpha" type="matrix" values="0 0 0 0 0 0 0 0 0 0 0 0 0 0 0 0 0 0 127 0" result="hardAlpha"/>
<feOffset dy="4"/>
<feGaussianBlur stdDeviation="2"/>
<feComposite in2="hardAlpha" operator="out"/>
<feColorMatrix type="matrix" values="0 0 0 0 0 0 0 0 0 0 0 0 0 0 0 0 0 0 0.25 0"/>
<feBlend mode="normal" in2="BackgroundImageFix" result="effect1_dropShadow_2840_225"/>
<feBlend mode="normal" in="SourceGraphic" in2="effect1_dropShadow_2840_225" result="shape"/>
</filter>
<filter id="filter1_d_2840_225" x="71.8906" y="173.01" width="202" height="100" filterUnits="userSpaceOnUse" color-interpolation-filters="sRGB">
<feFlood flood-opacity="0" result="BackgroundImageFix"/>
<feColorMatrix in="SourceAlpha" type="matrix" values="0 0 0 0 0 0 0 0 0 0 0 0 0 0 0 0 0 0 127 0" result="hardAlpha"/>
<feOffset dx="1"/>
<feComposite in2="hardAlpha" operator="out"/>
<feColorMatrix type="matrix" values="0 0 0 0 0 0 0 0 0 0 0 0 0 0 0 0 0 0 1 0"/>
<feBlend mode="normal" in2="BackgroundImageFix" result="effect1_dropShadow_2840_225"/>
<feBlend mode="normal" in="SourceGraphic" in2="effect1_dropShadow_2840_225" result="shape"/>
</filter>
<clipPath id="clip0_2840_225">
<rect width="203" height="213" fill="white" transform="translate(71 61)"/>
</clipPath>
</defs>
</svg>
