<svg width="336" height="336" viewBox="0 0 336 336" fill="none" xmlns="http://www.w3.org/2000/svg">
<rect width="336" height="336" fill="white"/>
<path d="M59.2386 170H56.0682C55.8807 169.088 55.5526 168.287 55.0838 167.597C54.6236 166.906 54.0611 166.327 53.3963 165.858C52.7401 165.381 52.0114 165.023 51.2102 164.784C50.4091 164.545 49.5739 164.426 48.7045 164.426C47.1193 164.426 45.6832 164.827 44.3963 165.628C43.1179 166.429 42.0994 167.609 41.3409 169.169C40.5909 170.729 40.2159 172.642 40.2159 174.909C40.2159 177.176 40.5909 179.089 41.3409 180.649C42.0994 182.209 43.1179 183.389 44.3963 184.19C45.6832 184.991 47.1193 185.392 48.7045 185.392C49.5739 185.392 50.4091 185.273 51.2102 185.034C52.0114 184.795 52.7401 184.442 53.3963 183.973C54.0611 183.496 54.6236 182.912 55.0838 182.222C55.5526 181.523 55.8807 180.722 56.0682 179.818H59.2386C59 181.156 58.5653 182.354 57.9347 183.411C57.304 184.467 56.5199 185.366 55.5824 186.108C54.6449 186.841 53.5923 187.399 52.4247 187.783C51.2656 188.166 50.0256 188.358 48.7045 188.358C46.4716 188.358 44.4858 187.812 42.7472 186.722C41.0085 185.631 39.6406 184.08 38.6435 182.068C37.6463 180.057 37.1477 177.67 37.1477 174.909C37.1477 172.148 37.6463 169.761 38.6435 167.75C39.6406 165.739 41.0085 164.188 42.7472 163.097C44.4858 162.006 46.4716 161.46 48.7045 161.46C50.0256 161.46 51.2656 161.652 52.4247 162.036C53.5923 162.419 54.6449 162.982 55.5824 163.723C56.5199 164.456 57.304 165.351 57.9347 166.408C58.5653 167.456 59 168.653 59.2386 170ZM86.4528 174.909C86.4528 177.67 85.9542 180.057 84.957 182.068C83.9599 184.08 82.592 185.631 80.8533 186.722C79.1147 187.812 77.1289 188.358 74.896 188.358C72.663 188.358 70.6772 187.812 68.9386 186.722C67.1999 185.631 65.832 184.08 64.8349 182.068C63.8377 180.057 63.3391 177.67 63.3391 174.909C63.3391 172.148 63.8377 169.761 64.8349 167.75C65.832 165.739 67.1999 164.188 68.9386 163.097C70.6772 162.006 72.663 161.46 74.896 161.46C77.1289 161.46 79.1147 162.006 80.8533 163.097C82.592 164.188 83.9599 165.739 84.957 167.75C85.9542 169.761 86.4528 172.148 86.4528 174.909ZM83.3846 174.909C83.3846 172.642 83.0053 170.729 82.2468 169.169C81.4968 167.609 80.4783 166.429 79.1914 165.628C77.913 164.827 76.4812 164.426 74.896 164.426C73.3107 164.426 71.8746 164.827 70.5877 165.628C69.3093 166.429 68.2908 167.609 67.5323 169.169C66.7823 170.729 66.4073 172.642 66.4073 174.909C66.4073 177.176 66.7823 179.089 67.5323 180.649C68.2908 182.209 69.3093 183.389 70.5877 184.19C71.8746 184.991 73.3107 185.392 74.896 185.392C76.4812 185.392 77.913 184.991 79.1914 184.19C80.4783 183.389 81.4968 182.209 82.2468 180.649C83.0053 179.089 83.3846 177.176 83.3846 174.909ZM91.7837 161.818H95.5678L104.466 183.551H104.772L113.67 161.818H117.454V188H114.488V168.108H114.233L106.051 188H103.187L95.0053 168.108H94.7496V188H91.7837V161.818ZM126.982 161.818V188H123.811V161.818H126.982ZM154.1 161.818V188H151.032L136.765 167.443H136.509V188H133.338V161.818H136.407L150.725 182.426H150.98V161.818H154.1ZM178.342 170C178.06 169.139 177.69 168.368 177.229 167.686C176.778 166.996 176.237 166.408 175.606 165.922C174.984 165.436 174.276 165.065 173.484 164.81C172.691 164.554 171.822 164.426 170.876 164.426C169.325 164.426 167.914 164.827 166.644 165.628C165.374 166.429 164.364 167.609 163.614 169.169C162.864 170.729 162.489 172.642 162.489 174.909C162.489 177.176 162.869 179.089 163.627 180.649C164.386 182.209 165.413 183.389 166.708 184.19C168.004 184.991 169.461 185.392 171.08 185.392C172.58 185.392 173.901 185.072 175.043 184.433C176.194 183.786 177.089 182.874 177.728 181.697C178.376 180.513 178.7 179.119 178.7 177.517L179.671 177.722H171.796V174.909H181.768V177.722C181.768 179.878 181.308 181.753 180.387 183.347C179.475 184.94 178.214 186.176 176.603 187.054C175.001 187.923 173.16 188.358 171.08 188.358C168.762 188.358 166.725 187.812 164.969 186.722C163.222 185.631 161.859 184.08 160.879 182.068C159.907 180.057 159.421 177.67 159.421 174.909C159.421 172.838 159.698 170.976 160.252 169.322C160.815 167.661 161.607 166.246 162.63 165.078C163.653 163.911 164.863 163.016 166.261 162.393C167.658 161.771 169.197 161.46 170.876 161.46C172.256 161.46 173.543 161.669 174.737 162.087C175.938 162.496 177.008 163.08 177.945 163.838C178.891 164.588 179.68 165.487 180.31 166.536C180.941 167.575 181.376 168.73 181.614 170H178.342ZM211.641 168.364C211.488 167.068 210.865 166.062 209.775 165.347C208.684 164.631 207.346 164.273 205.76 164.273C204.601 164.273 203.587 164.46 202.718 164.835C201.857 165.21 201.184 165.726 200.698 166.382C200.221 167.038 199.982 167.784 199.982 168.619C199.982 169.318 200.148 169.919 200.48 170.422C200.821 170.916 201.256 171.33 201.784 171.662C202.313 171.986 202.867 172.254 203.446 172.467C204.026 172.672 204.559 172.838 205.044 172.966L207.703 173.682C208.385 173.861 209.144 174.108 209.979 174.423C210.823 174.739 211.628 175.169 212.395 175.714C213.171 176.251 213.81 176.942 214.313 177.786C214.816 178.629 215.067 179.665 215.067 180.892C215.067 182.307 214.696 183.585 213.955 184.727C213.222 185.869 212.148 186.777 210.733 187.45C209.327 188.124 207.618 188.46 205.607 188.46C203.732 188.46 202.108 188.158 200.736 187.553C199.373 186.947 198.299 186.104 197.515 185.021C196.739 183.939 196.3 182.682 196.198 181.25H199.471C199.556 182.239 199.888 183.057 200.468 183.705C201.056 184.344 201.797 184.821 202.692 185.136C203.596 185.443 204.567 185.597 205.607 185.597C206.817 185.597 207.904 185.401 208.867 185.009C209.83 184.608 210.593 184.054 211.155 183.347C211.718 182.631 211.999 181.795 211.999 180.841C211.999 179.972 211.756 179.264 211.27 178.719C210.784 178.173 210.145 177.73 209.353 177.389C208.56 177.048 207.703 176.75 206.783 176.494L203.561 175.574C201.516 174.986 199.897 174.146 198.703 173.055C197.51 171.964 196.914 170.537 196.914 168.773C196.914 167.307 197.31 166.028 198.103 164.938C198.904 163.838 199.978 162.986 201.324 162.381C202.679 161.767 204.192 161.46 205.863 161.46C207.55 161.46 209.05 161.763 210.363 162.368C211.675 162.964 212.715 163.783 213.482 164.822C214.257 165.862 214.667 167.043 214.709 168.364H211.641ZM242.371 174.909C242.371 177.67 241.872 180.057 240.875 182.068C239.878 184.08 238.51 185.631 236.771 186.722C235.033 187.812 233.047 188.358 230.814 188.358C228.581 188.358 226.595 187.812 224.857 186.722C223.118 185.631 221.75 184.08 220.753 182.068C219.756 180.057 219.257 177.67 219.257 174.909C219.257 172.148 219.756 169.761 220.753 167.75C221.75 165.739 223.118 164.188 224.857 163.097C226.595 162.006 228.581 161.46 230.814 161.46C233.047 161.46 235.033 162.006 236.771 163.097C238.51 164.188 239.878 165.739 240.875 167.75C241.872 169.761 242.371 172.148 242.371 174.909ZM239.303 174.909C239.303 172.642 238.923 170.729 238.165 169.169C237.415 167.609 236.396 166.429 235.109 165.628C233.831 164.827 232.399 164.426 230.814 164.426C229.229 164.426 227.793 164.827 226.506 165.628C225.227 166.429 224.209 167.609 223.45 169.169C222.7 170.729 222.325 172.642 222.325 174.909C222.325 177.176 222.7 179.089 223.45 180.649C224.209 182.209 225.227 183.389 226.506 184.19C227.793 184.991 229.229 185.392 230.814 185.392C232.399 185.392 233.831 184.991 235.109 184.19C236.396 183.389 237.415 182.209 238.165 180.649C238.923 179.089 239.303 177.176 239.303 174.909ZM269.793 174.909C269.793 177.67 269.294 180.057 268.297 182.068C267.3 184.08 265.932 185.631 264.193 186.722C262.455 187.812 260.469 188.358 258.236 188.358C256.003 188.358 254.017 187.812 252.278 186.722C250.54 185.631 249.172 184.08 248.175 182.068C247.178 180.057 246.679 177.67 246.679 174.909C246.679 172.148 247.178 169.761 248.175 167.75C249.172 165.739 250.54 164.188 252.278 163.097C254.017 162.006 256.003 161.46 258.236 161.46C260.469 161.46 262.455 162.006 264.193 163.097C265.932 164.188 267.3 165.739 268.297 167.75C269.294 169.761 269.793 172.148 269.793 174.909ZM266.724 174.909C266.724 172.642 266.345 170.729 265.587 169.169C264.837 167.609 263.818 166.429 262.531 165.628C261.253 164.827 259.821 164.426 258.236 164.426C256.651 164.426 255.214 164.827 253.928 165.628C252.649 166.429 251.631 167.609 250.872 169.169C250.122 170.729 249.747 172.642 249.747 174.909C249.747 177.176 250.122 179.089 250.872 180.649C251.631 182.209 252.649 183.389 253.928 184.19C255.214 184.991 256.651 185.392 258.236 185.392C259.821 185.392 261.253 184.991 262.531 184.19C263.818 183.389 264.837 182.209 265.587 180.649C266.345 179.089 266.724 177.176 266.724 174.909ZM295.885 161.818V188H292.817L278.55 167.443H278.294V188H275.124V161.818H278.192L292.51 182.426H292.766V161.818H295.885Z" fill="black"/>
</svg>
