<svg width="336" height="336" viewBox="0 0 336 336" fill="none" xmlns="http://www.w3.org/2000/svg">
<rect width="336" height="336" fill="white"/>
<path fill-rule="evenodd" clip-rule="evenodd" d="M64.089 154.99H43.2784L41.1211 163.057H42.0611C45.228 157.752 46.3415 156.205 49.2298 156.205H51.4219L47.2111 177.127C46.7931 179.19 46.2022 179.411 43.4178 179.742L43.2087 180.848H53.8572L54.1004 179.742C51.6296 179.484 50.8645 179.301 51.3167 177.127L55.4926 156.205H58.068C60.9563 156.205 60.3428 157.753 61.2131 163.057H62.1182L64.089 154.99Z" fill="black"/>
<path fill-rule="evenodd" clip-rule="evenodd" d="M76.5563 178.49C76.2434 178.49 76.0692 178.306 76.0692 177.938C76.0692 177.643 76.2086 177.017 76.3821 176.354L79.0961 165.599C79.2007 165.046 79.3052 164.383 79.3052 163.904C79.3052 162.21 78.6788 161.179 76.9388 161.179C73.5977 161.179 69.7005 166.078 67.647 170.277L71.9971 152.007H71.4752L65.3852 153.48L65.2465 154.07L67.4735 155.212L61.4531 180.849H65.2465L66.4994 175.581C68.0302 169.062 72.8326 163.831 74.8164 163.831C75.2686 163.831 75.4428 164.089 75.4428 164.605C75.4428 164.9 75.3731 165.341 75.2686 165.784L72.7629 175.36C72.4152 176.723 72.2758 177.643 72.2758 178.491C72.2758 180.112 73.1461 181.217 74.677 181.217C76.5911 181.217 78.0182 179.633 80.2103 176.244L79.6187 175.766C78.1227 177.718 77.2176 178.491 76.5563 178.491V178.49Z" fill="black"/>
<path fill-rule="evenodd" clip-rule="evenodd" d="M95.3984 164.898C95.3984 162.872 94.041 161.178 91.0482 161.178C85.4111 161.178 80.6777 167.955 80.6777 174.401C80.6777 178.49 82.835 181.216 86.4194 181.216C89.4818 181.216 91.8482 179.374 94.0751 175.912L93.4139 175.359C91.7088 177.642 90.0734 178.858 88.0896 178.858C85.8278 178.858 84.4704 176.979 84.4704 173.665C84.4704 173.222 84.5053 172.743 84.5401 172.302C90.1076 171.123 95.3977 169.539 95.3977 164.898H95.3984ZM90.4566 162.393C91.6746 162.393 92.1617 163.351 92.1617 164.53C92.1617 168.14 89.656 170.166 84.6446 171.418C85.2711 166.961 87.6722 162.394 90.456 162.394L90.4566 162.393Z" fill="black"/>
<path fill-rule="evenodd" clip-rule="evenodd" d="M109.168 158.71C109.586 156.648 110.038 156.427 112.613 156.095L112.857 154.99H102.869L102.66 156.095C104.922 156.39 105.513 156.537 105.061 158.71L101.337 177.127C100.955 179.19 100.467 179.411 97.8923 179.742L97.6484 180.848H107.636L107.88 179.742C105.583 179.448 104.991 179.301 105.444 177.127L109.167 158.71H109.168Z" fill="black"/>
<path fill-rule="evenodd" clip-rule="evenodd" d="M124.582 178.491C124.269 178.491 124.095 178.306 124.095 177.938C124.095 177.643 124.234 177.017 124.407 176.354L127.122 165.599C127.226 165.046 127.331 164.383 127.331 163.904C127.331 162.21 126.704 161.179 124.964 161.179C121.624 161.179 117.726 166.114 115.638 170.277L117.97 161.179H117.448L111.393 162.762L111.288 163.315L113.342 164.531L109.479 180.849H113.272L114.525 175.581C116.056 169.061 120.858 163.831 122.842 163.831C123.294 163.831 123.468 164.089 123.468 164.604C123.468 164.899 123.364 165.341 123.259 165.783L120.788 175.36C120.441 176.723 120.301 177.643 120.301 178.491C120.301 180.112 121.172 181.217 122.702 181.217C124.617 181.217 126.044 179.633 128.236 176.244L127.644 175.766C126.147 177.718 125.243 178.491 124.582 178.491V178.491Z" fill="black"/>
<path fill-rule="evenodd" clip-rule="evenodd" d="M143.668 178.49C143.355 178.49 143.181 178.306 143.181 177.938C143.181 177.643 143.32 177.017 143.495 176.354L149.167 152.006H148.68L142.555 153.48L142.451 154.069L144.678 155.211L142.973 162.393C142.068 161.509 141.198 161.178 139.737 161.178C134.308 161.178 128.705 168.14 128.705 175.728C128.705 179.116 130.097 181.216 132.498 181.216C135.352 181.216 138.798 176.87 140.85 172.155C140.225 174.107 139.458 177.423 139.458 178.491C139.458 180.148 140.259 181.216 141.79 181.216C143.704 181.216 145.13 179.633 147.323 176.244L146.731 175.765C145.235 177.717 144.33 178.491 143.669 178.491L143.668 178.49ZM134.133 178.379C132.985 178.379 132.567 177.091 132.567 175.248C132.567 169.502 136.012 162.319 140.084 162.319C141.232 162.319 142.206 163.019 142.624 164.125C140.606 172.818 136.674 178.379 134.133 178.379Z" fill="black"/>
<path fill-rule="evenodd" clip-rule="evenodd" d="M173.802 175.763C172.271 177.715 171.366 178.488 170.739 178.488C170.427 178.488 170.252 178.305 170.252 177.936C170.252 177.641 170.391 177.015 170.53 176.352L173.106 165.228L174.359 160.918H173.523L170.67 162.723C169.73 161.729 168.651 161.176 167.016 161.176C161.552 161.176 156.158 168.138 156.158 175.726C156.158 179.114 157.516 181.214 159.917 181.214C162.77 181.214 165.693 177.272 167.782 172.595C167.12 174.51 166.494 177.42 166.494 178.488C166.494 180.145 167.329 181.213 168.86 181.213C170.739 181.213 172.201 179.63 174.393 176.241L173.802 175.762V175.763ZM161.552 178.378C160.473 178.378 159.986 177.237 159.986 175.468C159.986 169.28 163.431 162.318 167.329 162.318C168.477 162.318 169.382 163.018 169.799 164.122C167.676 172.889 164.092 178.377 161.552 178.377V178.378Z" fill="black"/>
<path fill-rule="evenodd" clip-rule="evenodd" d="M189.496 178.491C189.182 178.491 189.009 178.306 189.009 177.938C189.009 177.643 189.148 177.017 189.322 176.354L192.036 165.599C192.14 165.046 192.245 164.383 192.245 163.904C192.245 162.21 191.618 161.179 189.878 161.179C186.538 161.179 182.64 166.114 180.552 170.277L182.884 161.179H182.362L176.307 162.762L176.202 163.315L178.256 164.531L174.393 180.849H178.186L179.439 175.581C180.97 169.061 185.772 163.831 187.756 163.831C188.208 163.831 188.382 164.089 188.382 164.604C188.382 164.899 188.278 165.341 188.173 165.783L185.702 175.36C185.354 176.723 185.215 177.643 185.215 178.491C185.215 180.112 186.086 181.217 187.616 181.217C189.531 181.217 190.958 179.633 193.15 176.244L192.558 175.766C191.061 177.718 190.157 178.491 189.496 178.491V178.491Z" fill="black"/>
<path fill-rule="evenodd" clip-rule="evenodd" d="M154.613 158.489C156.005 158.489 157.118 157.274 157.118 155.837C157.118 154.548 156.144 153.48 154.787 153.48C153.36 153.48 152.281 154.658 152.281 156.131C152.281 157.421 153.256 158.489 154.613 158.489V158.489Z" fill="black"/>
<path fill-rule="evenodd" clip-rule="evenodd" d="M152.039 178.491C151.726 178.491 151.552 178.306 151.552 177.938C151.552 177.643 151.691 177.017 151.864 176.354L155.449 161.178H154.927L148.906 162.762L148.767 163.315L150.821 164.53L148.245 175.359C147.897 176.759 147.793 177.643 147.793 178.491C147.793 180.111 148.628 181.216 150.159 181.216C152.039 181.216 153.5 179.633 155.693 176.244L155.101 175.765C153.57 177.717 152.7 178.491 152.039 178.491Z" fill="black"/>
<path fill-rule="evenodd" clip-rule="evenodd" d="M37.2044 164.471L27.4357 155.291C26.1549 154.119 26.9985 152.185 26.9985 152.185L26.7977 152L24.7545 154.664C23.6068 156.136 23.8084 158.352 25.1787 159.604L34.948 168.784C36.2282 169.956 35.3852 171.89 35.3852 171.89L35.5861 172.076L37.6293 169.412C38.7769 167.939 38.5754 165.724 37.2051 164.471H37.2044Z" fill="#FF1204"/>
<path fill-rule="evenodd" clip-rule="evenodd" d="M32.7019 170.353L22.9325 161.172C21.6523 160 22.4953 158.066 22.4953 158.066L22.2938 157.881L20.2506 160.545C19.1029 162.018 19.3045 164.233 20.6748 165.485L30.4441 174.665C31.7243 175.837 30.8813 177.772 30.8813 177.772L31.0829 177.957L33.1261 175.293C34.2737 173.82 34.0722 171.605 32.7019 170.353Z" fill="#FF1204"/>
<path fill-rule="evenodd" clip-rule="evenodd" d="M28.1973 176.234L18.4279 167.054C17.1478 165.881 17.9907 163.948 17.9907 163.948L17.7899 163.762L15.7467 166.426C14.599 167.899 14.8005 170.114 16.1709 171.367L25.9395 180.547C27.2204 181.719 26.3767 183.653 26.3767 183.653L26.5776 183.839L28.6208 181.175C29.7685 179.702 29.5669 177.487 28.1966 176.234H28.1973Z" fill="#FF1204"/>
<path fill-rule="evenodd" clip-rule="evenodd" d="M197.59 180.876H212.445V176.159H203.365V169.701H210.219V165.312H203.365V159.651H211.958V154.934H197.59V180.876ZM212.746 180.876H218.626L222.627 171.371L226.663 180.876H233.168L226.871 167.343L232.438 154.935H226.593L223.149 163.352L219.635 154.935H213.164L219.043 167.525L212.746 180.877V180.876ZM233.76 180.876H239.535V171.189H241.866C247.293 171.189 250.32 168.758 250.32 163.715V162.626C250.32 157.547 247.537 154.934 241.692 154.934H233.76V180.876ZM239.535 166.981V159.507H241.483C243.641 159.507 244.718 160.341 244.718 162.7V163.679C244.718 165.929 243.64 166.981 241.483 166.981H239.535V166.981ZM251.42 180.876H257.195V170.681H258.934L263.318 180.876H269.406L264.396 169.592C266.692 168.686 268.327 166.907 268.327 163.315V162.372C268.327 157.365 265.3 154.934 259.56 154.934H251.419V180.876H251.42ZM257.195 166.654V159.542H259.352C261.544 159.542 262.692 160.377 262.692 162.554V163.424C262.692 165.71 261.579 166.654 259.352 166.654H257.195ZM270.235 180.876H285.09V176.159H276.01V169.701H282.864V165.312H276.01V159.651H284.603V154.934H270.235V180.876ZM294.611 181.275C299.969 181.275 303.1 178.155 303.1 173.33C303.1 167.96 300.004 166.291 295.411 164.949C292.489 164.041 291.689 163.316 291.689 161.539C291.689 159.978 292.593 159.035 294.263 159.035C295.968 159.035 297.012 159.869 297.151 162.119H302.578C302.334 156.967 299.342 154.573 294.297 154.573C289.253 154.573 286.157 157.548 286.157 161.974C286.157 166.726 288.488 168.686 293.463 170.246C296.315 171.117 297.464 171.77 297.464 173.911C297.464 175.798 296.42 176.813 294.611 176.813C292.176 176.813 291.341 175.58 291.236 173.076H285.67C285.809 178.555 288.906 181.276 294.612 181.276L294.611 181.275ZM312.551 181.275C317.908 181.275 321.039 178.155 321.039 173.33C321.039 167.96 317.943 166.291 313.35 164.949C310.428 164.041 309.628 163.316 309.628 161.539C309.628 159.978 310.533 159.035 312.202 159.035C313.907 159.035 314.95 159.869 315.09 162.119H320.517C320.273 156.967 317.282 154.573 312.237 154.573C307.192 154.573 304.096 157.548 304.096 161.974C304.096 166.726 306.427 168.686 311.402 170.246C314.255 171.117 315.403 171.77 315.403 173.911C315.403 175.798 314.359 176.813 312.551 176.813C310.115 176.813 309.28 175.58 309.176 173.076H303.61C303.748 178.555 306.845 181.276 312.551 181.276L312.551 181.275Z" fill="black"/>
</svg>
