<svg width="336" height="336" viewBox="0 0 336 336" fill="none" xmlns="http://www.w3.org/2000/svg">
<rect width="336" height="336" fill="white"/>
<path d="M198.268 169.774C192.792 165.263 185.715 162.346 179.471 159.783C170.856 156.231 163.411 153.184 163.411 147.51C163.411 145.034 164.58 142.762 166.701 141.115C168.93 139.392 172.047 138.423 175.466 138.423C186.245 138.423 194.838 146.013 194.913 146.067L197.013 147.984L206.558 130.176L205.465 129.024C205.043 128.594 195 118.258 175.596 118.258C166.3 118.258 157.74 121.219 151.507 126.591C148.415 129.197 145.932 132.443 144.233 136.103C142.534 139.763 141.659 143.748 141.67 147.779C141.67 155.778 144.797 162.249 151.204 167.557C156.593 172.014 163.313 174.888 169.817 177.677C178.67 181.477 186.332 184.761 186.332 190.596C186.332 195.053 183.302 199.812 174.806 199.812C162.621 199.812 152.838 190.585 152.751 190.488L150.912 188.723L139.051 205.087L140.241 206.401C140.371 206.53 143.434 209.9 149.202 213.259C156.898 217.694 165.641 220.017 174.536 219.988C184.481 219.988 192.955 216.952 199.047 211.213C204.783 205.819 207.932 198.358 207.932 190.219C207.932 181.822 204.772 175.147 198.268 169.774ZM298.566 218.513H320.805V119.733H298.576L298.566 218.513ZM255.116 200.016H238.179V138.219H253.103C259.791 138.219 263.622 141.944 263.622 148.436C263.622 154.992 260.18 158.308 253.363 158.308H248.222V176.503H255.105C258.86 176.503 261.998 177.666 264.163 179.884C265.234 180.905 266.074 182.142 266.624 183.512C267.175 184.883 267.424 186.355 267.355 187.829C267.355 195.366 262.669 200.027 255.105 200.027M284.627 174.135C282.464 170.729 279.422 167.963 275.818 166.125C281.608 161.506 284.887 154.422 284.887 146.315C284.887 138.133 281.748 131.307 275.818 126.559C270.234 122.091 262.475 119.733 253.363 119.733H217.185V218.513H253.763C263.47 218.513 271.868 216.08 278.047 211.461C285.049 206.218 288.761 198.412 288.761 188.884C288.761 183.458 287.332 178.355 284.627 174.135Z" fill="#292075"/>
<path d="M72.5735 117.96C65.8236 117.967 59.1411 119.297 52.9078 121.873C46.6745 124.45 41.0125 128.223 36.245 132.977C31.4776 137.731 27.6982 143.372 25.1227 149.579C22.5471 155.786 21.2259 162.438 21.2344 169.153C21.2196 181.809 25.9226 194.021 34.4341 203.427C42.9456 212.834 54.6608 218.766 67.3141 220.077V182.88C64.5154 181.818 62.1066 179.936 60.4061 177.483C58.7056 175.03 57.7937 172.122 57.7908 169.142C57.7908 161.035 64.4246 154.435 72.5735 154.435C80.7224 154.435 87.3562 161.035 87.3562 169.142C87.3562 175.408 83.3846 180.769 77.8221 182.88V220.055C90.4754 218.744 102.191 212.812 110.702 203.406C119.214 193.999 123.917 181.787 123.902 169.131C123.91 155.577 118.509 142.573 108.884 132.98C99.2585 123.386 86.1982 117.988 72.5735 117.97" fill="#00B5EF"/>
</svg>
