<svg width="336" height="336" viewBox="0 0 336 336" fill="none" xmlns="http://www.w3.org/2000/svg">
<rect width="336" height="336" fill="white"/>
<g clip-path="url(#clip0_2848_251)">
<path d="M25 141C119.38 141 213.76 141 311 141C311 159.15 311 177.3 311 196C216.62 196 122.24 196 25 196C25 177.85 25 159.7 25 141Z" fill="#FCFDFD"/>
<path d="M45.5701 141.728C46.6251 141.728 46.6251 141.728 47.7014 141.728C48.8416 141.734 48.8416 141.734 50.0049 141.741C50.7825 141.742 51.5601 141.743 52.3612 141.744C54.8508 141.749 57.3402 141.759 59.8298 141.77C61.5151 141.774 63.2005 141.778 64.8858 141.781C69.0226 141.79 73.1594 141.804 77.2962 141.821C77.4382 146.728 77.5417 151.633 77.6104 156.541C77.6391 158.209 77.678 159.876 77.7277 161.543C77.7976 163.948 77.8296 166.351 77.8548 168.757C77.8843 169.495 77.9138 170.233 77.9442 170.994C77.9474 176.178 76.6008 178.689 72.9705 182.359C72.5104 182.797 72.0503 183.235 71.5762 183.687C71.0263 184.313 70.4765 184.94 69.91 185.585C66.4152 189.321 66.4152 189.321 63.558 189.895C61.7705 189.433 61.7705 189.433 60.1362 187.791C59.8858 185.546 59.7184 183.372 59.6255 181.121C59.5781 180.193 59.5781 180.193 59.5297 179.245C59.4526 177.716 59.3849 176.187 59.319 174.657C55.7693 175.037 54.2208 177.141 51.8786 179.688C51.067 180.546 50.2546 181.404 49.4415 182.261C48.1726 183.612 46.9103 184.967 45.6612 186.337C38.6411 193.996 38.6411 193.996 35.0134 194.945C32.9758 194.945 32.9758 194.945 29.9019 194.358C35.0084 188.252 40.5342 182.615 46.1221 176.955C47.3333 175.725 48.5401 174.49 49.7425 173.251C51.4875 171.453 53.2454 169.669 55.0067 167.888C55.8099 167.053 55.8099 167.053 56.6294 166.201C60.4091 162.421 60.4091 162.421 63.3678 161.997C63.9193 162.111 64.4708 162.226 65.039 162.343C65.9759 164.226 66.0174 165.462 66.1147 167.557C66.149 168.256 66.1832 168.954 66.2185 169.674C66.2506 170.404 66.2827 171.134 66.3158 171.886C66.3511 172.623 66.3864 173.359 66.4228 174.118C66.5095 175.939 66.5929 177.761 66.6733 179.582C69.1073 177.984 70.1597 177.157 71.5762 174.657C72.2116 170.03 72.0376 165.462 71.8826 160.804C71.858 159.522 71.8356 158.239 71.8156 156.956C71.7618 153.825 71.6773 150.697 71.5762 147.567C67.8257 147.445 64.0765 147.356 60.3245 147.297C59.0499 147.272 57.7755 147.238 56.5013 147.196C49.3298 146.7 49.3298 146.7 42.6546 148.686C41.1298 150.124 41.1298 150.124 39.7076 152.493C40.1984 152.513 40.6892 152.534 41.1949 152.555C43.4061 152.65 45.617 152.751 47.828 152.852C48.9869 152.9 48.9869 152.9 50.1693 152.95C51.2713 153.001 51.2713 153.001 52.3957 153.054C53.0761 153.084 53.7565 153.114 54.4575 153.145C56.0505 153.313 56.0505 153.313 56.8676 154.134C57.168 156.627 57.1499 157.835 55.6943 159.917C55.1451 160.462 54.596 161.007 54.0302 161.568C53.4111 162.193 52.7921 162.817 52.1543 163.46C51.4776 164.121 50.801 164.782 50.1038 165.463C49.4166 166.15 48.7293 166.837 48.0212 167.544C45.8211 169.737 43.6071 171.914 41.393 174.092C39.903 175.576 38.414 177.06 36.9258 178.545C34.2087 181.247 31.4913 183.948 28.7594 186.635C28.2096 187.176 27.6598 187.718 27.0933 188.276C25.8162 189.433 25.8162 189.433 24.999 189.433C24.3956 186.421 24.2151 184.964 24.999 182.045C27.8817 178.255 31.319 175.109 34.8048 171.886C36.2093 170.562 37.6083 169.232 39.0014 167.895C39.8668 167.068 40.7396 166.248 41.6204 165.437C42.6633 164.453 43.6432 163.402 44.6105 162.343C44.6105 161.531 44.6105 160.718 44.6105 159.881C43.6856 159.84 42.7608 159.8 41.8079 159.759C40.5971 159.697 39.3863 159.635 38.1755 159.573C37.5656 159.547 36.9557 159.522 36.3273 159.496C31.7213 159.246 31.7213 159.246 29.9019 157.418C29.4742 155.609 29.4742 155.609 29.9019 153.313C31.4304 151.247 33.2464 149.531 35.1112 147.772C35.8506 147.047 35.8506 147.047 36.605 146.307C41.3333 141.715 41.3333 141.715 45.5701 141.728Z" fill="#0790C1"/>
<path d="M25 141C42.2581 141 59.5161 141 77.2971 141C77.2971 141.271 77.2971 141.542 77.2971 141.821C76.267 141.816 75.2368 141.81 74.1754 141.805C70.3312 141.793 66.488 141.819 62.644 141.856C60.9845 141.867 59.3249 141.867 57.6654 141.858C55.2708 141.845 52.879 141.87 50.4846 141.901C49.3824 141.884 49.3824 141.884 48.2578 141.866C42.359 142 39.6217 144.206 35.6229 148.388C35.1327 148.824 34.6426 149.26 34.1376 149.71C32.0378 151.609 30.8051 152.764 30.3625 155.622C30.5429 157.392 30.5429 157.392 31.5371 158.239C33.7372 158.433 35.9211 158.585 38.1254 158.701C38.7453 158.736 39.3651 158.771 40.0038 158.808C41.5395 158.895 43.0754 158.978 44.6114 159.06C45.2813 160.412 45.2813 160.412 45.4286 162.343C44.0886 164.068 42.8079 165.473 41.2471 166.974C40.8126 167.406 40.3781 167.839 39.9304 168.285C38.5379 169.666 37.1316 171.032 35.725 172.399C34.7825 173.333 33.8408 174.267 32.9001 175.202C25.9766 182.045 25.9766 182.045 25 182.045C25 168.5 25 154.955 25 141Z" fill="#FBFDFE"/>
<path d="M225.199 153.313C226.687 153.336 226.687 153.336 228.468 154.134C229.909 155.627 231.177 157.077 232.451 158.701C233.123 159.531 233.796 160.362 234.488 161.218C236.882 164.297 239.209 167.427 241.542 170.552C241.812 165.134 242.081 159.716 242.359 154.134C243.708 153.863 245.056 153.593 246.445 153.313C248.789 155.668 248.291 157.333 248.296 160.625C248.298 161.183 248.299 161.742 248.301 162.317C248.302 163.499 248.299 164.68 248.292 165.861C248.284 167.672 248.292 169.482 248.303 171.293C248.302 172.44 248.3 173.587 248.296 174.734C248.295 175.781 248.293 176.828 248.291 177.907C248.079 180.403 248.079 180.403 246.445 182.045C244.054 181.889 242.752 181.574 240.946 179.964C240.533 179.434 240.12 178.904 239.694 178.357C239.006 177.489 239.006 177.489 238.304 176.603C237.839 175.995 237.374 175.386 236.895 174.759C236.42 174.157 235.946 173.555 235.457 172.935C233.581 170.543 231.784 168.161 230.102 165.627C230.053 166.675 230.003 167.722 229.952 168.801C229.883 170.172 229.814 171.542 229.745 172.912C229.696 173.949 229.696 173.949 229.647 175.006C229.613 175.668 229.579 176.329 229.544 177.01C229.514 177.621 229.484 178.231 229.453 178.86C229.285 180.403 229.285 180.403 228.468 182.045C227.106 182.08 225.744 182.078 224.382 182.045C222.819 180.475 223.431 177.594 223.428 175.455C223.425 174.877 223.422 174.299 223.42 173.704C223.415 172.479 223.413 171.254 223.414 170.029C223.412 168.152 223.397 166.275 223.381 164.397C223.379 163.209 223.377 162.021 223.377 160.833C223.371 160.269 223.365 159.706 223.359 159.125C223.378 155.143 223.378 155.143 225.199 153.313Z" fill="#464646"/>
<path d="M63.3683 161.997C63.9198 162.111 64.4713 162.226 65.0395 162.343C65.9764 164.226 66.0178 165.462 66.1152 167.557C66.1494 168.256 66.1836 168.954 66.2189 169.674C66.251 170.404 66.2832 171.134 66.3163 171.886C66.3516 172.623 66.3868 173.359 66.4232 174.118C66.51 175.939 66.5934 177.761 66.6738 179.582C68.6962 177.55 68.6962 177.55 70.7595 175.478C72.6471 176.019 74.5347 176.561 76.4795 177.119C75.1598 180.376 72.9254 182.662 70.5041 185.123C69.9235 185.747 69.9235 185.747 69.3311 186.383C67.4735 188.278 66.2722 189.364 63.6254 189.805C61.7709 189.433 61.7709 189.433 60.1366 187.791C59.8863 185.546 59.7188 183.372 59.6259 181.121C59.5785 180.193 59.5785 180.193 59.5302 179.245C59.4531 177.716 59.3854 176.187 59.3195 174.657C55.7698 175.037 54.2213 177.141 51.879 179.688C51.0674 180.546 50.255 181.404 49.442 182.261C48.1731 183.612 46.9108 184.967 45.6617 186.337C38.6416 193.996 38.6416 193.996 35.0139 194.945C32.9762 194.945 32.9762 194.945 29.9023 194.358C35.0089 188.252 40.5347 182.615 46.1225 176.955C47.3337 175.725 48.5405 174.49 49.743 173.251C51.4879 171.453 53.2458 169.669 55.0071 167.888C55.8104 167.053 55.8104 167.053 56.6299 166.201C60.4095 162.421 60.4095 162.421 63.3683 161.997Z" fill="#0790C1"/>
<path d="M43.5931 141.722C44.2155 141.724 44.8379 141.726 45.4791 141.728C46.1924 141.728 46.9057 141.728 47.6406 141.728C48.7723 141.734 48.7723 141.734 49.9269 141.741C50.6169 141.742 51.3068 141.742 52.0176 141.743C54.6052 141.748 57.1929 141.759 59.7805 141.77C65.5613 141.787 71.3421 141.803 77.298 141.821C77.298 153.469 77.298 165.118 77.298 177.119C74.8711 176.713 74.8711 176.713 72.3952 176.298C71.1645 173.826 71.4787 171.281 71.4982 168.571C71.4994 167.972 71.5005 167.373 71.5017 166.756C71.5063 164.84 71.5166 162.925 71.527 161.009C71.5311 159.712 71.5348 158.414 71.5381 157.116C71.5472 153.933 71.5613 150.75 71.578 147.567C70.774 147.58 69.97 147.593 69.1416 147.606C66.1583 147.651 63.1752 147.679 60.1917 147.702C58.9005 147.715 57.6093 147.732 56.3183 147.753C54.4622 147.783 52.6067 147.797 50.7505 147.808C49.8847 147.827 49.8847 147.827 49.0014 147.846C45.0123 147.848 45.0123 147.848 43.054 146.475C42.1609 145.104 42.1609 145.104 41.3438 142.642C42.1609 141.821 42.1609 141.821 43.5931 141.722Z" fill="#40BBE6"/>
<path d="M147.572 162.343C148.381 162.343 149.19 162.343 150.023 162.343C150.293 163.156 150.563 163.969 150.841 164.806C151.171 164.408 151.502 164.01 151.843 163.6C154.075 161.664 155.978 161.907 158.827 161.991C161.712 162.55 163.002 164.166 164.732 166.448C166.237 169.472 165.845 172.99 165.549 176.299C164.231 179.325 163.4 180.201 160.646 182.045C158.884 182.292 158.884 182.292 156.969 182.301C156.021 182.322 156.021 182.322 155.054 182.343C153.292 182.045 153.292 182.045 150.841 179.582C150.571 182.833 150.301 186.084 150.023 189.433C148.945 189.162 147.866 188.891 146.755 188.612C146.735 185.003 146.72 181.394 146.71 177.785C146.706 176.556 146.7 175.327 146.693 174.099C146.683 172.336 146.679 170.574 146.675 168.811C146.671 167.749 146.667 166.687 146.662 165.593C146.755 163.164 146.755 163.164 147.572 162.343Z" fill="#4F4F4F"/>
<path d="M170.451 162.343C171.53 162.343 172.608 162.343 173.72 162.343C173.989 162.885 174.259 163.427 174.537 163.985C175.076 163.443 175.616 162.901 176.171 162.343C179.905 161.71 182.749 161.856 185.977 163.882C189.093 167.208 188.694 170.306 188.668 174.714C188.364 177.769 187.476 179.239 185.16 181.224C182.604 182.507 179.783 182.373 176.988 182.045C176.179 181.503 175.37 180.961 174.537 180.403C174.267 183.112 173.998 185.821 173.72 188.612C172.641 188.612 171.562 188.612 170.451 188.612C170.451 179.943 170.451 171.275 170.451 162.343Z" fill="#484848"/>
<path d="M266.875 162.343C270.035 163.762 271.297 164.911 272.595 168.09C273.073 171.579 272.976 174.596 271.573 177.838C269.549 180.307 267.959 181.847 264.762 182.43C257.849 182.507 257.849 182.507 254.924 180.146C252.072 176.905 251.838 174.134 251.879 169.969C252.374 166.726 253.886 165.379 256.252 163.164C259.839 160.935 262.885 161.47 266.875 162.343Z" fill="#454545"/>
<path d="M302.829 161.522C305.818 163.197 307.462 164.399 309.366 167.269C309.366 169.165 309.366 171.061 309.366 173.015C305.321 173.015 301.276 173.015 297.109 173.015C297.378 174.098 297.648 175.182 297.926 176.298C301.73 176.986 304.766 177.133 308.549 176.298C308.818 177.382 309.088 178.466 309.366 179.582C305.957 182.416 302.665 182.506 298.414 182.391C296.292 182.045 296.292 182.045 293.789 180.198C290.991 176.209 290.053 173.943 290.572 168.91C293.314 163.605 296.703 160.643 302.829 161.522Z" fill="#494949"/>
<path d="M281.226 156.443C283.218 156.597 283.218 156.597 284.035 157.418C284.068 159.059 284.07 160.702 284.035 162.343C285.383 162.343 286.732 162.343 288.121 162.343C288.39 163.698 288.66 165.052 288.938 166.448C287.32 166.448 285.702 166.448 284.035 166.448C284.305 169.969 284.574 173.491 284.852 177.119C286.47 177.661 288.088 178.203 289.755 178.761C289.485 179.845 289.216 180.928 288.938 182.045C284.916 182.52 282.433 182.671 279.081 180.198C276.435 176.429 277.18 171.652 277.498 167.269C276.419 166.998 275.341 166.727 274.229 166.448C273.96 165.364 273.69 164.281 273.412 163.164C274.76 162.893 276.109 162.622 277.498 162.343C277.464 161.7 277.43 161.057 277.396 160.394C277.537 157.407 278.256 156.661 281.226 156.443Z" fill="#4B4B4B"/>
<path d="M114.078 153.75C116.444 154.666 117.922 155.421 119.329 157.572C119.481 158.063 119.632 158.554 119.789 159.06C115.907 158.341 115.907 158.341 114.069 157.418C112.573 157.318 111.073 157.274 109.574 157.264C108.374 157.247 108.374 157.247 107.149 157.229C104.941 157.207 104.941 157.207 103.446 159.06C103.173 161.112 103.173 161.112 103.446 163.164C105.98 165.71 109.462 166.266 112.845 167.243C115.296 168.005 117.09 168.669 118.946 170.482C120.159 172.947 120.012 174.543 119.524 177.196C118.795 179.261 117.739 180.482 115.818 181.532C111.357 182.84 106.057 183.01 101.668 181.387C100.33 180.557 100.33 180.557 98.543 178.761C98.543 177.948 98.543 177.136 98.543 176.298C102.304 176.928 102.304 176.928 104.11 177.992C107.671 179.525 112.061 179.16 115.703 177.94C116.044 175.581 116.044 175.581 115.703 173.015C113.297 170.839 110.587 170.253 107.532 169.423C103.842 168.35 101.594 167.276 99.3601 163.985C98.7983 161.112 98.7983 161.112 99.3601 158.239C103.324 153.518 108.218 152.195 114.078 153.75Z" fill="#4E4E4E"/>
<path d="M124.691 162.343C125.769 162.343 126.848 162.343 127.959 162.343C127.98 162.811 128 163.28 128.021 163.762C128.116 165.872 128.216 167.981 128.317 170.09C128.349 170.827 128.381 171.565 128.414 172.324C128.448 173.025 128.482 173.726 128.518 174.448C128.548 175.097 128.578 175.747 128.608 176.415C128.617 177.952 128.617 177.952 129.593 178.761C132.979 178.964 132.979 178.964 136.131 177.94C137.142 174.892 137.239 171.937 137.407 168.757C137.443 168.141 137.478 167.526 137.514 166.892C137.601 165.376 137.683 163.86 137.765 162.343C138.843 162.343 139.922 162.343 141.033 162.343C141.033 168.845 141.033 175.346 141.033 182.045C139.955 182.045 138.876 182.045 137.765 182.045C137.495 181.503 137.225 180.961 136.948 180.403C136.139 180.945 135.33 181.487 134.496 182.045C129.843 182.564 129.843 182.564 127.959 182.045C125.896 180.272 124.825 178.88 124.434 176.141C124.369 174.046 124.405 171.979 124.486 169.885C124.501 169.16 124.516 168.434 124.531 167.687C124.569 165.905 124.628 164.124 124.691 162.343Z" fill="#474747"/>
<path d="M181.89 164.806C183.831 165.935 183.831 165.935 185.159 168.09C185.777 171.904 185.886 175.119 183.831 178.453C181.274 179.941 179.895 180.13 176.988 179.582C174.824 177.809 173.889 176.457 173.406 173.676C173.252 170.549 173.357 168.663 175.047 165.986C177.58 164.446 178.976 164.318 181.89 164.806Z" fill="#F9F9F9"/>
<path d="M159.011 164.806C161.106 166.533 162.047 167.82 162.618 170.501C162.854 173.796 162.488 175.181 160.543 177.94C157.8 179.857 156.56 180.153 153.291 179.582C151.937 178.633 151.937 178.633 150.839 177.119C150.514 174.811 150.514 174.811 150.533 172.194C150.527 171.331 150.52 170.467 150.514 169.577C150.839 167.269 150.839 167.269 151.909 165.755C154.298 164.114 156.225 164.413 159.011 164.806Z" fill="#F8F8F8"/>
<path d="M200.686 162.343C202.222 162.584 202.222 162.584 203.954 163.164C205.136 165.208 206.095 167.114 207.018 169.27C207.276 169.839 207.535 170.409 207.8 170.996C209.674 175.205 209.674 175.205 209.674 177.119C210.213 177.119 210.753 177.119 211.308 177.119C211.392 176.557 211.475 175.996 211.561 175.417C212.238 172.537 213.365 170.095 214.628 167.423C215.3 165.992 215.3 165.992 215.985 164.533C216.501 163.449 216.501 163.449 217.028 162.343C217.837 162.343 218.646 162.343 219.48 162.343C219.011 166.068 218.026 169.026 216.438 172.418C215.998 173.366 215.558 174.313 215.105 175.288C214.644 176.265 214.184 177.242 213.709 178.248C213.24 179.254 212.771 180.259 212.303 181.266C211.159 183.717 210.011 186.166 208.857 188.612C207.778 188.612 206.7 188.612 205.588 188.612C205.841 187.867 206.094 187.122 206.354 186.354C206.641 185.474 206.927 184.594 207.223 183.687C207.407 183.165 207.591 182.643 207.781 182.106C208.124 179.847 207.531 178.783 206.511 176.757C206.176 176.075 205.842 175.393 205.497 174.69C205.14 173.985 204.782 173.28 204.414 172.553C203.713 171.152 203.016 169.748 202.323 168.343C202.01 167.723 201.696 167.104 201.374 166.465C200.686 164.806 200.686 164.806 200.686 162.343Z" fill="#4B4B4B"/>
<path d="M194.148 153.313C194.957 153.313 195.766 153.313 196.599 153.313C196.599 162.795 196.599 172.276 196.599 182.045C195.521 181.774 194.442 181.503 193.331 181.224C193.311 177.381 193.296 173.538 193.286 169.695C193.282 168.387 193.276 167.079 193.269 165.77C193.259 163.894 193.255 162.017 193.251 160.14C193.247 159.552 193.243 158.964 193.238 158.358C193.238 156.95 193.28 155.542 193.331 154.134C193.601 153.863 193.87 153.593 194.148 153.313Z" fill="#555555"/>
<path d="M264.424 166.448C265.905 167.32 265.905 167.32 266.875 168.91C267.202 171.92 267.234 173.917 265.905 176.658C264.424 177.94 264.424 177.94 262.381 178.351C260.338 177.94 260.338 177.94 258.857 176.658C257.528 173.917 257.56 171.92 257.886 168.91C259.56 166.167 261.355 165.985 264.424 166.448Z" fill="#F4F4F4"/>
<path d="M297.927 166.448C300.276 166.345 300.276 166.345 302.829 166.448C304.464 168.09 304.464 168.09 304.464 170.552C302.037 170.552 299.61 170.552 297.109 170.552C297.379 169.198 297.649 167.843 297.927 166.448Z" fill="#E8E8E8"/>
</g>
<defs>
<clipPath id="clip0_2848_251">
<rect width="286" height="55" fill="white" transform="translate(25 141)"/>
</clipPath>
</defs>
</svg>
