<svg width="40" height="31" viewBox="0 0 40 31" fill="none" xmlns="http://www.w3.org/2000/svg">
<path fill-rule="evenodd" clip-rule="evenodd" d="M22.9105 9.08459L18.2001 0.839844L9.53799 15.9167H26.8139L23.5079 10.1302H15.9345V9.08459H22.9105ZM0.876953 30.9917L8.95602 16.9296H27.3927L30.9806 23.2096H15.9338V24.2225H31.5593L35.4266 30.9917H0.876953Z" fill="url(#paint0_linear_11_6746)"/>
<path fill-rule="evenodd" clip-rule="evenodd" d="M0.951172 30.9917L9.00367 16.9155H21.0837C21.0108 18.8959 20.769 21.0005 20.3035 23.2015H15.9779V24.2153H20.0746C19.5518 26.3947 18.8072 28.6621 17.7902 30.9917H0.951172ZM21.1067 15.9017H9.58368L17.7902 1.55615C18.7317 3.08951 19.8148 5.68606 20.4803 9.06122H15.9786V10.1078H20.6687C20.9552 11.8649 21.1242 13.8079 21.1067 15.9017Z" fill="url(#paint1_linear_11_6746)"/>
<path d="M23.1738 9.11084H39.8573V10.0187H23.5467L23.1738 9.11084Z" fill="url(#paint2_linear_11_6746)"/>
<path d="M26.998 15.916H33.17V16.8239H27.3945L26.998 15.916Z" fill="url(#paint3_linear_11_6746)"/>
<path d="M31.3223 23.2539H39.993V24.1618H31.9357L31.3223 23.2539Z" fill="url(#paint4_linear_11_6746)"/>
<defs>
<linearGradient id="paint0_linear_11_6746" x1="28.8091" y1="2.63063" x2="35.5298" y2="33.972" gradientUnits="userSpaceOnUse">
<stop stop-color="#510752"/>
<stop offset="0.467294" stop-color="#8A178C"/>
<stop offset="1" stop-color="#510752"/>
</linearGradient>
<linearGradient id="paint1_linear_11_6746" x1="-4.93972" y1="16.2711" x2="47.1728" y2="16.2711" gradientUnits="userSpaceOnUse">
<stop stop-color="#F09EFF"/>
<stop offset="0.109666" stop-color="#F47FDF"/>
<stop offset="0.279666" stop-color="#D953E8"/>
<stop offset="0.504666" stop-color="#9501A0"/>
<stop offset="0.95263" stop-color="#810197"/>
</linearGradient>
<linearGradient id="paint2_linear_11_6746" x1="31.5155" y1="9.11084" x2="31.5155" y2="10.0187" gradientUnits="userSpaceOnUse">
<stop stop-color="#510752"/>
<stop offset="1" stop-color="#870F88"/>
</linearGradient>
<linearGradient id="paint3_linear_11_6746" x1="30.0841" y1="15.916" x2="30.0841" y2="16.8239" gradientUnits="userSpaceOnUse">
<stop stop-color="#510752"/>
<stop offset="1" stop-color="#870F88"/>
</linearGradient>
<linearGradient id="paint4_linear_11_6746" x1="35.6576" y1="23.2539" x2="35.6576" y2="24.1618" gradientUnits="userSpaceOnUse">
<stop stop-color="#510752"/>
<stop offset="1" stop-color="#870F88"/>
</linearGradient>
</defs>
</svg>
