<svg width="459" height="199" viewBox="0 0 459 199" fill="none" xmlns="http://www.w3.org/2000/svg">
<path d="M83.2008 75.3559H83.2388L83.275 75.344C91.366 72.6852 97.8484 68.398 102.712 62.4786C107.732 56.4013 110.234 48.7734 110.234 39.6124C110.234 32.2197 108.393 25.5598 104.708 19.6389C101.019 13.7129 95.4897 9.05355 88.1343 5.65594C80.7734 2.10874 71.8781 0.340427 61.4565 0.340427H6.54688H6.30918V0.578125V75.1182V75.3559H6.54688H83.2008ZM60.1387 66.7207H26.7717V17.3558H59.6994C69.3307 17.3558 76.6614 19.5538 81.7279 23.9142C86.792 28.2726 89.3326 34.3036 89.3326 42.0383C89.3326 49.7729 86.792 55.8039 81.7279 60.1623C76.6602 64.5237 69.4749 66.7207 60.1387 66.7207Z" fill="url(#paint0_linear_2249_170)" stroke="#E5E5E5" stroke-width="0.475396"/>
<mask id="path-2-outside-1_2249_170" maskUnits="userSpaceOnUse" x="0.296875" y="48.3848" width="106" height="125" fill="black">
<rect fill="white" x="0.296875" y="48.3848" width="106" height="125"/>
<path fill-rule="evenodd" clip-rule="evenodd" d="M57.9458 124.482C72.6217 124.482 87.2976 122.135 101.974 117.442C104.126 112.357 105.104 104.045 104.909 92.507C104.909 83.4033 102.317 75.3003 97.1349 68.1978C95.6375 66.1457 93.9239 64.1771 91.9939 62.2921C90.0418 60.2958 87.9371 58.5311 85.6796 56.9979C78.2064 51.9225 69.0597 49.3848 58.2393 49.3848C45.715 49.3848 35.3441 51.839 27.1267 56.7476V66.499H49.5262C51.612 66.0412 53.8315 65.8123 56.1847 65.8123C64.5989 65.8123 70.7628 68.5502 74.6764 74.026C74.9332 74.3855 75.1817 74.7495 75.4217 75.1182C78.8384 80.3665 80.5467 86.5539 80.5467 93.6804C80.5467 93.876 80.1554 97.4939 79.3726 104.534C73.3066 106.49 64.8924 107.468 54.1301 107.468C43.5635 107.468 34.073 106.979 25.6589 106.001C26.8712 92.1677 30.1702 81.9056 35.5556 75.2146H10.4615C4.35176 87.1092 1.29688 102.261 1.29688 120.668C3.20555 139.466 3.52658 140.134 6.99882 147.363C7.6973 148.817 8.52329 150.537 9.51538 152.723C17.5382 166.021 31.8227 172.671 52.369 172.671C69.5887 172.671 86.1236 167.293 101.974 156.537C100.408 146.954 96.788 139.229 91.1134 133.362C78.0029 145.487 65.8708 151.55 54.7171 151.55C43.5634 151.55 30.616 141.513 30.0616 140.109C29.9555 139.84 29.7162 139.598 29.3988 139.277C28.0577 137.921 25.3237 135.156 25.3653 123.015C32.6054 123.993 43.4656 124.482 57.9458 124.482Z"/>
</mask>
<path fill-rule="evenodd" clip-rule="evenodd" d="M57.9458 124.482C72.6217 124.482 87.2976 122.135 101.974 117.442C104.126 112.357 105.104 104.045 104.909 92.507C104.909 83.4033 102.317 75.3003 97.1349 68.1978C95.6375 66.1457 93.9239 64.1771 91.9939 62.2921C90.0418 60.2958 87.9371 58.5311 85.6796 56.9979C78.2064 51.9225 69.0597 49.3848 58.2393 49.3848C45.715 49.3848 35.3441 51.839 27.1267 56.7476V66.499H49.5262C51.612 66.0412 53.8315 65.8123 56.1847 65.8123C64.5989 65.8123 70.7628 68.5502 74.6764 74.026C74.9332 74.3855 75.1817 74.7495 75.4217 75.1182C78.8384 80.3665 80.5467 86.5539 80.5467 93.6804C80.5467 93.876 80.1554 97.4939 79.3726 104.534C73.3066 106.49 64.8924 107.468 54.1301 107.468C43.5635 107.468 34.073 106.979 25.6589 106.001C26.8712 92.1677 30.1702 81.9056 35.5556 75.2146H10.4615C4.35176 87.1092 1.29688 102.261 1.29688 120.668C3.20555 139.466 3.52658 140.134 6.99882 147.363C7.6973 148.817 8.52329 150.537 9.51538 152.723C17.5382 166.021 31.8227 172.671 52.369 172.671C69.5887 172.671 86.1236 167.293 101.974 156.537C100.408 146.954 96.788 139.229 91.1134 133.362C78.0029 145.487 65.8708 151.55 54.7171 151.55C43.5634 151.55 30.616 141.513 30.0616 140.109C29.9555 139.84 29.7162 139.598 29.3988 139.277C28.0577 137.921 25.3237 135.156 25.3653 123.015C32.6054 123.993 43.4656 124.482 57.9458 124.482Z" fill="url(#paint1_linear_2249_170)"/>
<path d="M83.8573 74.6428L83.8706 74.8801L83.9039 74.8782L83.9354 74.8673L83.8573 74.6428ZM64.3069 66.6063C69.6237 66.1554 73.5956 65.4325 76.9486 63.9984C80.3072 62.5619 83.0291 60.4188 85.8592 57.1536L85.5 56.8422C82.7046 60.0673 80.0387 62.1597 76.7616 63.5613C73.4788 64.9654 69.567 65.6831 64.2667 66.1326L64.3069 66.6063ZM75.435 75.3555L83.8706 74.8801L83.8439 74.4055L75.4083 74.8808L75.435 75.3555ZM83.9354 74.8673C90.0261 72.7485 92.7891 71.5939 97.2731 68.3912L96.9968 68.0044C92.5656 71.1693 89.8508 72.3062 83.7792 74.4183L83.9354 74.8673ZM35.5556 75.4523H35.9215V74.9769H35.5556V75.4523ZM49.5262 66.7367H49.5351V66.2613H49.5262V66.7367ZM26.889 56.4365V56.7476H27.3644V56.4365H26.889ZM101.974 117.442L102.118 117.894L102.326 117.828L102.411 117.627L101.974 117.442ZM25.3653 123.015L25.429 122.544L24.8918 122.472L24.8899 123.014L25.3653 123.015ZM30.0616 140.109L29.6194 140.284L30.0616 140.109ZM91.1134 133.362L91.4551 133.031L91.1319 132.697L90.7906 133.013L91.1134 133.362ZM101.974 156.537L102.24 156.93L102.492 156.759L102.443 156.46L101.974 156.537ZM9.51538 152.723L9.08247 152.919L9.09396 152.945L9.10832 152.969L9.51538 152.723ZM1.29688 120.668H0.821479V120.693L0.823911 120.716L1.29688 120.668ZM91.9939 62.2921L91.6539 62.6246L91.6617 62.6322L91.9939 62.2921ZM104.909 92.507H104.433L104.433 92.5151L104.909 92.507ZM25.6589 106.001L25.1853 105.96L25.1449 106.42L25.604 106.473L25.6589 106.001ZM79.3726 104.534L79.5185 104.987L79.8111 104.892L79.8451 104.587L79.3726 104.534ZM74.6764 74.026L74.2896 74.3025L74.6764 74.026ZM10.4615 75.2146V74.7392H10.1713L10.0386 74.9974L10.4615 75.2146ZM27.1267 66.499H26.6513V66.9744H27.1267V66.499ZM85.6796 56.9979L85.9467 56.6047L85.6796 56.9979ZM75.4217 75.1182L75.8201 74.8588L75.4217 75.1182ZM97.1349 68.1978L96.7509 68.478L97.1349 68.1978ZM27.1267 56.7476L26.8829 56.3395L26.6513 56.4778V56.7476H27.1267ZM49.5262 66.499V66.9744H49.5777L49.6281 66.9634L49.5262 66.499ZM35.5556 75.2146L35.926 75.5127L36.5485 74.7392H35.5556V75.2146ZM6.99882 147.363L7.42735 147.157L6.99882 147.363ZM29.3988 139.277L29.0608 139.611H29.0608L29.3988 139.277ZM101.829 116.989C87.1973 121.668 72.5702 124.007 57.9458 124.007V124.957C72.6733 124.957 87.398 122.602 102.118 117.894L101.829 116.989ZM57.9458 124.007C43.4705 124.007 32.6363 123.518 25.429 122.544L25.3017 123.486C32.5745 124.469 43.4607 124.957 57.9458 124.957V124.007ZM29.6194 140.284C29.6847 140.449 29.8122 140.62 29.9451 140.777C30.0875 140.944 30.2732 141.137 30.4947 141.348C30.9386 141.771 31.5465 142.289 32.2879 142.865C33.7717 144.017 35.8093 145.415 38.1789 146.769C42.904 149.468 49.0165 152.025 54.7171 152.025V151.074C49.2641 151.074 43.326 148.614 38.6504 145.943C36.3196 144.612 34.3193 143.238 32.871 142.114C32.1464 141.551 31.5647 141.054 31.1508 140.66C30.9434 140.462 30.7832 140.295 30.6696 140.161C30.6129 140.094 30.5711 140.04 30.5421 139.997C30.5112 139.952 30.503 139.933 30.5038 139.934L29.6194 140.284ZM54.7171 152.025C66.0447 152.025 78.288 145.871 91.4361 133.711L90.7906 133.013C77.7177 145.103 65.6969 151.074 54.7171 151.074V152.025ZM90.7716 133.693C96.367 139.477 99.9515 147.108 101.504 156.613L102.443 156.46C100.865 146.8 97.2091 138.98 91.4551 133.031L90.7716 133.693ZM101.707 156.143C85.9262 166.852 69.483 172.195 52.369 172.195V173.146C69.6944 173.146 86.3209 167.733 102.24 156.93L101.707 156.143ZM52.369 172.195C31.9284 172.195 17.8318 165.588 9.92243 152.477L9.10832 152.969C17.2446 166.455 31.7171 173.146 52.369 173.146V172.195ZM104.433 92.5151C104.629 104.044 103.647 112.269 101.536 117.256L102.411 117.627C104.605 112.444 105.58 104.047 105.384 92.4989L104.433 92.5151ZM25.604 106.473C34.0402 107.454 43.5494 107.943 54.1301 107.943V106.992C43.5775 106.992 34.1059 106.504 25.7137 105.529L25.604 106.473ZM54.1301 107.943C64.9128 107.943 73.3839 106.965 79.5185 104.987L79.2268 104.082C73.2293 106.015 64.872 106.992 54.1301 106.992V107.943ZM79.8451 104.587C80.2365 101.067 80.5301 98.4014 80.7258 96.5917C80.8237 95.6869 80.8972 94.9953 80.9462 94.5173C80.9708 94.2785 80.9893 94.0919 81.0017 93.9582C81.0128 93.8393 81.0221 93.7328 81.0221 93.6804H80.0713C80.0713 93.6768 80.0684 93.7263 80.055 93.8701C80.043 93.9993 80.0248 94.1824 80.0004 94.4202C79.9516 94.8956 79.8784 95.5852 79.7806 96.4894C79.585 98.2977 79.2915 100.962 78.9002 104.482L79.8451 104.587ZM75.0631 73.7496C71.038 68.1176 64.7094 65.3369 56.1847 65.3369V66.2877C64.4884 66.2877 70.4876 68.9828 74.2896 74.3025L75.0631 73.7496ZM1.77227 120.668C1.77227 102.309 4.81965 87.2388 10.8844 75.4318L10.0386 74.9974C3.88386 86.9797 0.821479 102.212 0.821479 120.668H1.77227ZM58.2393 49.8602C68.9836 49.8602 78.0326 52.3791 85.4125 57.3912L85.9467 56.6047C78.3802 51.4659 69.1357 48.9094 58.2393 48.9094V49.8602ZM85.4125 57.3912C87.6431 58.9061 89.7236 60.6503 91.654 62.6245L92.3338 61.9597C90.3601 59.9413 88.231 58.156 85.9467 56.6047L85.4125 57.3912ZM81.0221 93.6804C81.0221 86.4749 79.2937 80.1946 75.8201 74.8588L75.0233 75.3775C78.383 80.5385 80.0713 86.633 80.0713 93.6804H81.0221ZM75.8201 74.8588C75.5763 74.4843 75.324 74.1146 75.0631 73.7496L74.2896 74.3025C74.5425 74.6563 74.787 75.0147 75.0233 75.3775L75.8201 74.8588ZM91.6617 62.6322C93.5739 64.4999 95.27 66.4486 96.7509 68.478L97.5189 67.9176C96.0051 65.8429 94.2738 63.8544 92.326 61.952L91.6617 62.6322ZM96.7509 68.478C101.872 75.4961 104.433 83.5003 104.433 92.507H105.384C105.384 83.3064 102.763 75.1045 97.5189 67.9176L96.7509 68.478ZM58.2393 48.9094C45.655 48.9094 35.1934 51.3753 26.8829 56.3395L27.3705 57.1557C35.4948 52.3028 45.775 49.8602 58.2393 49.8602V48.9094ZM26.6513 56.7476V66.499H27.6021V56.7476H26.6513ZM27.1267 66.9744H49.5262V66.0236H27.1267V66.9744ZM49.6281 66.9634C51.6772 66.5136 53.8623 66.2877 56.1847 66.2877V65.3369C53.8006 65.3369 51.5467 65.5688 49.4243 66.0347L49.6281 66.9634ZM26.1324 106.043C27.3412 92.2504 30.6258 82.0977 35.926 75.5127L35.1853 74.9165C29.7145 81.7135 26.4013 92.0851 25.1853 105.96L26.1324 106.043ZM35.5556 74.7392H10.4615V75.69H35.5556V74.7392ZM0.823911 120.716C1.77723 130.105 2.33712 135.003 3.09723 138.456C3.86318 141.936 4.83417 143.955 6.5703 147.569L7.42735 147.157C5.69123 143.543 4.76559 141.613 4.02579 138.252C3.28015 134.864 2.72519 130.029 1.76984 120.62L0.823911 120.716ZM6.5703 147.569C7.26866 149.023 8.0927 150.738 9.08247 152.919L9.94828 152.527C8.95388 150.335 8.12594 148.612 7.42735 147.157L6.5703 147.569ZM30.5038 139.934C30.354 139.555 30.0283 139.238 29.7369 138.943L29.0608 139.611C29.404 139.959 29.5571 140.126 29.6194 140.284L30.5038 139.934ZM29.7369 138.943C29.092 138.291 28.125 137.318 27.3115 135.031C26.4904 132.723 25.82 129.056 25.8407 123.017L24.8899 123.014C24.869 129.115 25.5448 132.901 26.4156 135.35C27.294 137.819 28.3646 138.907 29.0608 139.611L29.7369 138.943Z" fill="#E5E5E5" mask="url(#path-2-outside-1_2249_170)"/>
<path d="M123.383 37.0924C121.763 37.0924 120.391 36.5315 119.269 35.4095C118.147 34.2876 117.586 32.9164 117.586 31.2958C117.586 29.6752 118.147 28.304 119.269 27.182C120.391 26.0601 121.763 25.4991 123.383 25.4991C124.941 25.4991 126.25 26.0601 127.31 27.182C128.432 28.304 128.993 29.6752 128.993 31.2958C128.993 32.9164 128.432 34.2876 127.31 35.4095C126.25 36.5315 124.941 37.0924 123.383 37.0924ZM127.497 45.4135V96.6484H118.989V45.4135H127.497ZM152.095 89.6364H177.245V96.6484H142.371V89.6364L167.241 52.332H142.558V45.4135H177.058V52.332L152.095 89.6364Z" fill="white"/>
<path d="M144.073 120.225C150.306 120.225 155.354 122.126 159.219 125.928C163.083 129.668 165.015 135.09 165.015 142.196V172.395H156.601V143.411C156.601 138.3 155.323 134.405 152.768 131.724C150.212 128.982 146.722 127.611 142.296 127.611C137.809 127.611 134.225 129.013 131.544 131.818C128.927 134.623 127.618 138.705 127.618 144.066V172.395H119.11V121.16H127.618V128.452C129.301 125.834 131.576 123.809 134.443 122.375C137.372 120.941 140.582 120.225 144.073 120.225ZM193.031 128.172V158.37C193.031 160.864 193.561 162.64 194.62 163.7C195.68 164.697 197.519 165.195 200.137 165.195H206.401V172.395H198.734C193.997 172.395 190.444 171.304 188.076 169.122C185.707 166.941 184.523 163.357 184.523 158.37V128.172H177.885V121.16H184.523V108.257H193.031V121.16H206.401V128.172H193.031ZM209.791 146.59C209.791 141.354 210.85 136.773 212.969 132.846C215.089 128.857 217.987 125.772 221.664 123.59C225.404 121.409 229.549 120.318 234.099 120.318C238.587 120.318 242.482 121.284 245.786 123.216C249.089 125.149 251.551 127.58 253.172 130.509V121.16H261.774V172.395H253.172V162.858C251.489 165.85 248.965 168.343 245.599 170.338C242.295 172.27 238.431 173.236 234.006 173.236C229.456 173.236 225.342 172.114 221.664 169.87C217.987 167.626 215.089 164.479 212.969 160.427C210.85 156.376 209.791 151.763 209.791 146.59ZM253.172 146.684C253.172 142.819 252.393 139.453 250.835 136.586C249.276 133.719 247.157 131.537 244.477 130.042C241.859 128.483 238.961 127.704 235.782 127.704C232.603 127.704 229.705 128.452 227.087 129.948C224.469 131.444 222.381 133.625 220.823 136.493C219.265 139.36 218.486 142.726 218.486 146.59C218.486 150.517 219.265 153.945 220.823 156.874C222.381 159.742 224.469 161.954 227.087 163.513C229.705 165.008 232.603 165.756 235.782 165.756C238.961 165.756 241.859 165.008 244.477 163.513C247.157 161.954 249.276 159.742 250.835 156.874C252.393 153.945 253.172 150.548 253.172 146.684ZM297.374 120.225C303.607 120.225 308.656 122.126 312.521 125.928C316.385 129.668 318.317 135.09 318.317 142.196V172.395H309.903V143.411C309.903 138.3 308.625 134.405 306.069 131.724C303.514 128.982 300.023 127.611 295.598 127.611C291.11 127.611 287.526 129.013 284.846 131.818C282.228 134.623 280.919 138.705 280.919 144.066V172.395H272.411V121.16H280.919V128.452C282.602 125.834 284.877 123.809 287.745 122.375C290.674 120.941 293.884 120.225 297.374 120.225ZM349.605 120.318C354.03 120.318 357.895 121.284 361.198 123.216C364.564 125.149 367.057 127.58 368.678 130.509V121.16H377.279V173.516C377.279 178.191 376.282 182.336 374.288 185.951C372.293 189.629 369.426 192.496 365.686 194.553C362.009 196.61 357.708 197.638 352.784 197.638C346.052 197.638 340.443 196.049 335.955 192.87C331.467 189.691 328.818 185.359 328.008 179.874H336.422C337.357 182.991 339.289 185.484 342.219 187.354C345.148 189.286 348.67 190.252 352.784 190.252C357.459 190.252 361.261 188.787 364.19 185.858C367.182 182.928 368.678 178.814 368.678 173.516V162.765C366.995 165.756 364.502 168.25 361.198 170.244C357.895 172.239 354.03 173.236 349.605 173.236C345.055 173.236 340.91 172.114 337.17 169.87C333.493 167.626 330.594 164.479 328.475 160.427C326.356 156.376 325.296 151.763 325.296 146.59C325.296 141.354 326.356 136.773 328.475 132.846C330.594 128.857 333.493 125.772 337.17 123.59C340.91 121.409 345.055 120.318 349.605 120.318ZM368.678 146.684C368.678 142.819 367.899 139.453 366.341 136.586C364.782 133.719 362.663 131.537 359.983 130.042C357.365 128.483 354.467 127.704 351.288 127.704C348.109 127.704 345.211 128.452 342.593 129.948C339.975 131.444 337.887 133.625 336.329 136.493C334.771 139.36 333.991 142.726 333.991 146.59C333.991 150.517 334.771 153.945 336.329 156.874C337.887 159.742 339.975 161.954 342.593 163.513C345.211 165.008 348.109 165.756 351.288 165.756C354.467 165.756 357.365 165.008 359.983 163.513C362.663 161.954 364.782 159.742 366.341 156.874C367.899 153.945 368.678 150.548 368.678 146.684ZM396.425 103.209V172.395H387.917V103.209H396.425ZM453.933 144.814C453.933 146.434 453.84 148.148 453.653 149.956H412.702C413.014 155.005 414.728 158.962 417.844 161.83C421.023 164.634 424.856 166.037 429.344 166.037C433.022 166.037 436.076 165.195 438.507 163.513C441 161.767 442.745 159.461 443.742 156.594H452.905C451.533 161.518 448.791 165.538 444.677 168.655C440.563 171.709 435.452 173.236 429.344 173.236C424.482 173.236 420.119 172.145 416.255 169.964C412.453 167.782 409.461 164.697 407.279 160.708C405.098 156.656 404.007 151.982 404.007 146.684C404.007 141.386 405.067 136.742 407.186 132.753C409.305 128.764 412.266 125.71 416.068 123.59C419.932 121.409 424.358 120.318 429.344 120.318C434.206 120.318 438.507 121.378 442.246 123.497C445.986 125.616 448.853 128.546 450.848 132.285C452.905 135.963 453.933 140.139 453.933 144.814ZM445.145 143.037C445.145 139.796 444.428 137.022 442.994 134.716C441.561 132.348 439.597 130.571 437.104 129.387C434.673 128.14 431.962 127.517 428.97 127.517C424.669 127.517 420.992 128.888 417.938 131.631C414.946 134.373 413.232 138.176 412.796 143.037H445.145Z" fill="white"/>
<defs>
<linearGradient id="paint0_linear_2249_170" x1="89.345" y1="5.49055" x2="4.09066" y2="77.4338" gradientUnits="userSpaceOnUse">
<stop stop-color="#B46EFF"/>
<stop offset="1" stop-color="#6C4299"/>
</linearGradient>
<linearGradient id="paint1_linear_2249_170" x1="72.7647" y1="49.2263" x2="22.8482" y2="172.512" gradientUnits="userSpaceOnUse">
<stop stop-color="#C792FF"/>
<stop offset="1" stop-color="#6932A4"/>
</linearGradient>
</defs>
</svg>
