<svg width="1927" height="970" viewBox="0 0 1927 970" fill="none" xmlns="http://www.w3.org/2000/svg">
<path d="M1371.2 573.987H1320.18V420.924C1320.18 400.515 1328.68 395.413 1332.93 395.413H1492.38V478.322C1492.38 498.731 1479.62 503.833 1473.24 503.833H1383.96C1378.85 478.322 1394.59 467.693 1403.09 465.567H1441.35V440.056H1371.2V573.987Z" fill="#D9D9D9"/>
<path d="M1517.89 440.056V395.413H1715.59C1715.59 420.924 1702.84 435.805 1696.46 440.056H1632.68V573.987H1581.66V440.056H1517.89Z" fill="#D9D9D9"/>
<path d="M178.574 395.413V573.987H229.595V446.434H318.882V529.343H274.239C248.728 529.343 244.607 554.854 245.736 567.609H350.77C366.077 567.609 369.903 559.106 369.903 554.854V414.546C369.903 404.342 361.4 397.539 357.148 395.413H178.574Z" fill="#D9D9D9"/>
<path d="M637.756 395.413C637.756 431.128 616.497 440.056 605.868 440.056H452.805V395.413H637.756Z" fill="#A200EB"/>
<path d="M605.858 503.834C631.368 508.936 633.494 474.072 631.368 459.191H459.172V573.988H612.235C647.95 573.988 648.375 544.226 644.123 529.345H503.815V503.834H605.858Z" fill="#D9D9D9"/>
<path d="M1071.45 440.056H676.035V408.168C676.035 397.964 684.539 395.413 688.79 395.413H1071.45V440.056Z" fill="#A200EB"/>
<path d="M676.035 573.986V446.433H724.463V529.342H860.987C855.885 554.853 837.602 569.734 829.098 573.986H676.035Z" fill="#D9D9D9"/>
<path d="M950.283 573.986H899.262V471.944H1020.44V446.433H1071.46V491.077C1071.46 506.383 1045.95 510.21 1033.19 510.21L1071.46 573.986H1014.06L982.171 510.21H950.283V573.986Z" fill="#D9D9D9"/>
<path d="M1109.73 395.416C1109.73 395.416 1141.61 395.413 1160.75 395.414V465.567H1230.9V395.413H1281.92V491.078C1281.92 501.282 1273.42 508.085 1269.17 510.211H1218.15V573.987H1173.5V510.211H1109.73V395.416Z" fill="#D9D9D9"/>
<path d="M160.139 319.17C134.628 319.17 119.747 340.429 115.495 351.059C83.6069 433.968 18.555 609.991 13.4529 625.297C8.35081 640.604 32.5858 648.682 45.3411 650.808H1760.93C1801.74 661.012 1820.45 633.801 1824.7 618.92C1843.83 559.395 1887.2 427.59 1907.61 376.569C1928.02 325.548 1903.36 317.045 1888.48 319.17H160.139Z" stroke="#A200EB" stroke-width="12.7553"/>
</svg>
