<svg width="1061" height="614" viewBox="0 0 1061 614" fill="none" xmlns="http://www.w3.org/2000/svg">
<path d="M75.291 0.00012207L76.0836 48.0807C76.0836 48.0807 51.2507 52.0434 45.703 53.6285C40.1552 55.2136 12.1522 66.0449 6.86866 90.0852C1.58507 114.126 4.22686 119.673 9.51045 134.996C14.794 150.318 38.0418 159.3 50.7224 163.527C63.403 167.754 82.6881 170.924 82.6881 170.924C82.6881 170.924 102.766 172.773 113.333 177C123.9 181.227 123.9 183.869 123.9 188.624C123.9 193.379 113.597 197.87 108.313 198.399L108.107 198.419C102.591 198.972 85.4606 200.689 75.0269 193.908C64.4597 187.039 66.309 175.943 66.309 175.943H0C1.3209 205.796 9.77463 212.136 23.2478 223.231C29.978 228.774 43.4323 235.186 55.2134 238.554C67.0166 241.928 77.1403 242.252 77.1403 242.252L75.291 290.597H116.239L114.125 242.252C114.125 242.252 143.978 239.082 154.016 234.327C164.055 229.572 180.434 220.854 187.567 204.211C194.7 187.567 193.379 173.566 191.266 159.564C189.152 145.563 178.321 137.902 170.66 131.561C162.999 125.221 134.731 119.673 129.184 118.617C123.636 117.56 99.0672 114.654 94.5761 113.597C90.0851 112.54 83.4806 111.484 79.2537 109.106C75.0269 106.728 73.706 104.087 73.4418 101.973C73.1776 99.8598 73.1776 98.5389 77.6687 95.1046C82.1597 91.6703 93.2552 91.4061 98.803 91.6703C104.351 91.9345 111.219 92.727 116.239 96.9539C121.258 101.181 120.466 108.842 120.466 108.842H188.624C188.624 83.7449 176.736 72.6494 169.339 66.3091C161.942 59.9688 152.96 56.4844 145.827 53.6285C138.694 50.7726 114.125 48.0807 114.125 48.0807L115.975 0.00012207H75.291Z" fill="white"/>
<path d="M131.056 306.188C131.043 306.193 131.031 306.197 131.021 306.201L89.5154 306.979C87.9293 306.056 87.0138 305.273 86.469 304.416C85.9751 303.638 85.7607 302.758 85.6785 301.562H124.321H124.385L124.447 301.542C125.417 301.234 126.199 300.913 126.774 300.342C127.36 299.758 127.681 298.965 127.859 297.822L127.865 297.784L127.864 297.745L126.572 253.043C129.11 252.683 131.546 252.35 133.889 252.03C145.193 250.486 154.322 249.239 162.311 246.648C172.071 243.484 180.139 238.316 188.477 228.195C202.048 211.722 206.04 190.72 203.94 175.763C202.909 168.412 202.194 164.392 200.961 161.037C200.107 158.714 199.007 156.715 197.403 154.158C201.525 158.877 204.117 163.02 206.788 169.722C209.543 176.634 210.771 182.531 210.861 188.496C210.951 194.466 209.901 200.525 208.074 207.766C206.335 214.657 204.366 220.038 201.589 224.95C198.811 229.861 195.216 234.321 190.205 239.361C181.911 247.702 167.62 252.632 155.328 255.473C149.195 256.891 143.582 257.783 139.504 258.321C137.464 258.59 135.809 258.77 134.664 258.883C134.092 258.939 133.647 258.979 133.346 259.004C133.195 259.017 133.081 259.026 133.004 259.032L132.917 259.039L132.896 259.04L132.89 259.041L132.889 259.041C132.889 259.041 132.889 259.041 132.892 259.084L132.889 259.041L132.491 259.07L132.502 259.468L133.544 296.987L133.545 296.998L133.545 297.008L133.545 297.008L133.545 297.009L133.546 297.012L133.547 297.027L133.551 297.083C133.555 297.132 133.56 297.205 133.567 297.298C133.58 297.485 133.598 297.752 133.618 298.077C133.659 298.726 133.707 299.601 133.74 300.508C133.772 301.417 133.788 302.35 133.764 303.118C133.752 303.503 133.73 303.839 133.697 304.106C133.662 304.388 133.619 304.545 133.588 304.606C133.5 304.782 133.315 304.979 133.043 305.184C132.777 305.383 132.459 305.566 132.146 305.722C131.835 305.878 131.537 306.003 131.317 306.09C131.207 306.133 131.118 306.166 131.056 306.188Z" stroke="white" stroke-width="0.833758"/>
<path d="M143.048 319.223C143.035 319.228 143.024 319.232 143.013 319.236L101.508 320.014C99.9215 319.091 99.006 318.309 98.4612 317.451C97.9673 316.673 97.7529 315.794 97.6707 314.597H136.313H136.377L136.439 314.577C137.409 314.269 138.192 313.948 138.766 313.377C139.352 312.793 139.673 312 139.851 310.857L139.857 310.819L139.856 310.781L138.564 266.078C141.103 265.718 143.538 265.385 145.881 265.065C157.186 263.521 166.314 262.274 174.303 259.683C184.063 256.519 192.131 251.351 200.469 241.231C214.04 224.757 218.032 203.755 215.933 188.798C214.901 181.447 214.186 177.428 212.953 174.072C212.1 171.749 211 169.75 209.395 167.193C213.517 171.913 216.11 176.055 218.78 182.757C221.535 189.669 222.763 195.566 222.853 201.531C222.943 207.501 221.893 213.56 220.066 220.801C218.327 227.692 216.358 233.073 213.581 237.985C210.804 242.896 207.208 247.357 202.197 252.396C193.903 260.737 179.612 265.667 167.32 268.508C161.187 269.926 155.575 270.818 151.496 271.356C149.457 271.625 147.801 271.805 146.657 271.918C146.084 271.974 145.639 272.014 145.338 272.039C145.262 272.046 145.195 272.051 145.137 272.056C145.081 272.061 145.034 272.064 144.996 272.067L144.909 272.074L144.888 272.076L144.883 272.076L144.881 272.076C144.881 272.076 144.881 272.076 144.911 272.492L144.881 272.076L144.483 272.105L144.494 272.504L145.536 310.023L145.537 310.033L145.538 310.043L145.538 310.043L145.538 310.044L145.538 310.048L145.539 310.062L145.543 310.118C145.547 310.168 145.552 310.24 145.559 310.334C145.572 310.52 145.59 310.787 145.61 311.112C145.651 311.761 145.7 312.636 145.732 313.543C145.764 314.452 145.78 315.386 145.756 316.153C145.744 316.538 145.723 316.874 145.689 317.141C145.654 317.423 145.611 317.58 145.58 317.641C145.492 317.817 145.307 318.015 145.035 318.219C144.769 318.418 144.451 318.601 144.138 318.757C143.827 318.913 143.529 319.038 143.309 319.125C143.199 319.168 143.11 319.201 143.048 319.223Z" stroke="white" stroke-width="0.833758"/>
<path d="M127.825 42.777L128.211 4.38365C128.211 4.38365 131.057 4.23772 132.471 5.16605C133.888 6.0959 134.885 8.7715 134.885 8.7715L134.384 43.8106C132.056 43.3115 130.534 43.0597 127.825 42.777Z" stroke="white" stroke-width="0.9921"/>
<path d="M141.072 45.2415L141.293 19.2857C141.293 19.2857 143.189 19.1886 144.131 19.807C145.074 20.4265 145.738 22.2087 145.738 22.2087L145.347 46.1491C143.711 45.6874 141.072 45.2415 141.072 45.2415Z" stroke="white" stroke-width="0.66081"/>
<path d="M152.757 48.789L152.93 28.6812C152.93 28.6812 154.416 28.6051 155.154 29.0899C155.894 29.5755 156.415 30.9727 156.415 30.9727L156.415 49.8405C155.473 49.5332 154.091 48.8985 152.757 48.789Z" stroke="white" stroke-width="0.518056"/>
<path d="M211.565 141.585V128.451H303.263V141.585H264.817V250.715H250.011V141.585H211.565ZM424.184 189.583C424.184 202.478 421.856 213.622 417.199 223.015C412.543 232.408 406.155 239.651 398.036 244.745C389.916 249.84 380.643 252.387 370.216 252.387C359.788 252.387 350.515 249.84 342.396 244.745C334.277 239.651 327.889 232.408 323.232 223.015C318.576 213.622 316.248 202.478 316.248 189.583C316.248 176.688 318.576 165.544 323.232 156.152C327.889 146.759 334.277 139.515 342.396 134.421C350.515 129.327 359.788 126.78 370.216 126.78C380.643 126.78 389.916 129.327 398.036 134.421C406.155 139.515 412.543 146.759 417.199 156.152C421.856 165.544 424.184 176.688 424.184 189.583ZM409.856 189.583C409.856 178.997 408.085 170.062 404.543 162.778C401.04 155.495 396.284 149.983 390.275 146.242C384.305 142.5 377.618 140.63 370.216 140.63C362.813 140.63 356.107 142.5 350.097 146.242C344.127 149.983 339.371 155.495 335.829 162.778C332.327 170.062 330.575 178.997 330.575 189.583C330.575 200.17 332.327 209.105 335.829 216.388C339.371 223.672 344.127 229.184 350.097 232.925C356.107 236.666 362.813 238.537 370.216 238.537C377.618 238.537 384.305 236.666 390.275 232.925C396.284 229.184 401.04 223.672 404.543 216.388C408.085 209.105 409.856 200.17 409.856 189.583ZM547.463 166.659H532.657C531.782 162.4 530.25 158.659 528.061 155.435C525.911 152.212 523.285 149.505 520.18 147.316C517.116 145.087 513.713 143.416 509.972 142.301C506.231 141.187 502.33 140.63 498.271 140.63C490.868 140.63 484.162 142.5 478.152 146.242C472.182 149.983 467.426 155.495 463.884 162.778C460.382 170.062 458.63 178.997 458.63 189.583C458.63 200.17 460.382 209.105 463.884 216.388C467.426 223.672 472.182 229.184 478.152 232.925C484.162 236.666 490.868 238.537 498.271 238.537C502.33 238.537 506.231 237.979 509.972 236.865C513.713 235.751 517.116 234.099 520.18 231.91C523.285 229.681 525.911 226.955 528.061 223.731C530.25 220.468 531.782 216.727 532.657 212.508H547.463C546.349 218.756 544.319 224.348 541.374 229.283C538.428 234.218 534.767 238.417 530.389 241.88C526.011 245.303 521.096 247.909 515.643 249.7C510.23 251.491 504.44 252.387 498.271 252.387C487.843 252.387 478.57 249.84 470.451 244.745C462.332 239.651 455.944 232.408 451.287 223.015C446.631 213.622 444.303 202.478 444.303 189.583C444.303 176.688 446.631 165.544 451.287 156.152C455.944 146.759 462.332 139.515 470.451 134.421C478.57 129.327 487.843 126.78 498.271 126.78C504.44 126.78 510.23 127.675 515.643 129.466C521.096 131.257 526.011 133.884 530.389 137.346C534.767 140.769 538.428 144.948 541.374 149.883C544.319 154.779 546.349 160.37 547.463 166.659ZM571.387 250.715V128.451H586.193V189.106H587.626L642.549 128.451H661.892L610.55 183.613L661.892 250.715H643.982L601.476 193.882L586.193 211.075V250.715H571.387Z" fill="white"/>
<path d="M729.987 138.945V125.613H823.073V138.945H784.044V249.727H769.015V138.945H729.987ZM846.268 249.727V125.613H861.298V180.883H927.476V125.613H942.506V249.727H927.476V194.215H861.298V249.727H846.268ZM972.595 249.727V125.613H1047.5V138.945H987.624V180.883H1043.62V194.215H987.624V236.395H1048.47V249.727H972.595Z" fill="white"/>
<path d="M135.858 421.239C135.014 412.737 131.396 406.132 125.002 401.424C118.608 396.716 109.93 394.363 98.9685 394.363C91.5203 394.363 85.2316 395.417 80.1023 397.525C74.9729 399.562 71.0381 402.408 68.2977 406.062C65.6276 409.716 64.2926 413.861 64.2926 418.499C64.1521 422.363 64.9601 425.736 66.7168 428.617C68.5436 431.498 71.0381 433.992 74.2 436.1C77.3619 438.138 81.0157 439.93 85.1613 441.475C89.307 442.951 93.7337 444.216 98.4415 445.27L117.835 449.907C127.25 452.015 135.893 454.826 143.762 458.339C151.632 461.852 158.448 466.174 164.21 471.303C169.971 476.432 174.433 482.475 177.595 489.431C180.827 496.388 182.479 504.363 182.549 513.357C182.479 526.566 179.106 538.02 172.431 547.716C165.826 557.343 156.27 564.826 143.762 570.166C131.326 575.436 116.324 578.071 98.7577 578.071C81.3319 578.071 66.1546 575.401 53.2258 570.061C40.3673 564.72 30.3194 556.816 23.0821 546.346C15.9151 535.806 12.1559 522.772 11.8045 507.244H55.9662C56.458 514.481 58.5309 520.524 62.1847 525.372C65.9087 530.15 70.8624 533.769 77.0457 536.228C83.2993 538.617 90.361 539.811 98.2307 539.811C105.96 539.811 112.67 538.687 118.362 536.439C124.123 534.19 128.585 531.063 131.747 527.058C134.909 523.053 136.49 518.451 136.49 513.251C136.49 508.403 135.05 504.328 132.169 501.025C129.358 497.723 125.212 494.912 119.732 492.593C114.321 490.275 107.681 488.167 99.8116 486.269L76.3079 480.367C58.1093 475.94 43.7401 469.019 33.2003 459.604C22.6605 450.188 17.4258 437.505 17.496 421.555C17.4258 408.486 20.9039 397.068 27.9304 387.301C35.0272 377.534 44.7589 369.91 57.1256 364.43C69.4922 358.949 83.5453 356.209 99.2846 356.209C115.305 356.209 129.288 358.949 141.233 364.43C153.248 369.91 162.594 377.534 169.269 387.301C175.944 397.068 179.387 408.38 179.598 421.239H135.858ZM205.025 396.787V359.16H382.304V396.787H316.219V575.014H271.109V396.787H205.025ZM600.003 467.087C600.003 490.626 595.541 510.651 586.617 527.164C577.764 543.676 565.678 556.289 550.361 565.001C535.113 573.644 517.968 577.965 498.926 577.965C479.744 577.965 462.529 573.609 447.282 564.896C432.034 556.183 419.984 543.571 411.13 527.058C402.277 510.546 397.85 490.556 397.85 467.087C397.85 443.548 402.277 423.523 411.13 407.01C419.984 390.498 432.034 377.921 447.282 369.278C462.529 360.565 479.744 356.209 498.926 356.209C517.968 356.209 535.113 360.565 550.361 369.278C565.678 377.921 577.764 390.498 586.617 407.01C595.541 423.523 600.003 443.548 600.003 467.087ZM553.733 467.087C553.733 451.839 551.45 438.981 546.882 428.511C542.385 418.042 536.026 410.102 527.805 404.692C519.584 399.281 509.958 396.576 498.926 396.576C487.895 396.576 478.268 399.281 470.047 404.692C461.826 410.102 455.432 418.042 450.865 428.511C446.368 438.981 444.12 451.839 444.12 467.087C444.12 482.335 446.368 495.193 450.865 505.663C455.432 516.132 461.826 524.072 470.047 529.482C478.268 534.893 487.895 537.598 498.926 537.598C509.958 537.598 519.584 534.893 527.805 529.482C536.026 524.072 542.385 516.132 546.882 505.663C551.45 495.193 553.733 482.335 553.733 467.087ZM824.263 434.73H778.099C777.255 428.757 775.534 423.452 772.934 418.815C770.334 414.107 766.997 410.102 762.921 406.8C758.846 403.497 754.138 400.968 748.798 399.211C743.528 397.454 737.802 396.576 731.618 396.576C720.446 396.576 710.714 399.351 702.423 404.902C694.132 410.383 687.703 418.393 683.135 428.933C678.568 439.403 676.284 452.121 676.284 467.087C676.284 482.475 678.568 495.404 683.135 505.873C687.773 516.343 694.237 524.248 702.528 529.588C710.82 534.928 720.411 537.598 731.302 537.598C737.415 537.598 743.071 536.79 748.271 535.174C753.541 533.558 758.214 531.204 762.289 528.112C766.364 524.95 769.737 521.121 772.407 516.624C775.147 512.127 777.045 506.998 778.099 501.236L824.263 501.447C823.068 511.354 820.082 520.91 815.304 530.115C810.596 539.249 804.237 547.435 796.227 554.673C788.287 561.84 778.801 567.531 767.77 571.747C756.808 575.893 744.406 577.965 730.564 577.965C711.312 577.965 694.097 573.609 678.919 564.896C663.812 556.183 651.867 543.571 643.084 527.058C634.371 510.546 630.015 490.556 630.015 467.087C630.015 443.548 634.442 423.523 643.295 407.01C652.148 390.498 664.164 377.921 679.341 369.278C694.518 360.565 711.593 356.209 730.564 356.209C743.071 356.209 754.665 357.965 765.345 361.479C776.096 364.992 785.617 370.121 793.908 376.867C802.2 383.542 808.945 391.728 814.145 401.424C819.415 411.121 822.787 422.223 824.263 434.73ZM856.989 575.014V359.16H902.626V454.334H905.472L983.15 359.16H1037.85L957.749 455.809L1038.8 575.014H984.204L925.076 486.269L902.626 513.673V575.014H856.989Z" fill="white"/>
</svg>
