<svg width="2003" height="461" viewBox="0 0 2003 461" fill="none" xmlns="http://www.w3.org/2000/svg">
<g clip-path="url(#clip0_2987_351)">
<path d="M247.093 362.337C135.518 357.265 154.114 292.602 177.358 260.905C53.2051 394.991 263.374 386.027 391.211 363.771C375.18 365.368 333.91 366.283 247.093 362.337Z" fill="#A200EB"/>
<path d="M247.094 400.374C34.0872 390.231 82.2674 294.716 132.983 248.226C-69.8787 400.374 132.983 425.732 240.753 419.392C316.963 414.909 428.509 396.887 491.321 385.466C459.589 388.856 388.782 393.933 247.094 400.374Z" fill="white"/>
<path d="M308.188 351.441C294.19 351.441 283.946 349.514 277.454 345.66C271.165 341.602 268.021 337.444 268.021 333.184C268.021 330.749 268.528 327.909 269.543 324.663C270.557 321.215 272.18 318.172 274.411 315.534C277.657 318.577 281.816 321.113 286.887 323.142C292.162 325.17 298.451 326.185 305.754 326.185C316.505 326.185 324.113 323.345 328.576 317.664C333.242 311.984 335.575 304.478 335.575 295.147C335.575 288.249 334.256 281.859 331.619 275.976C329.184 270.093 324.62 263.297 317.925 255.588L287.496 219.986C280.599 211.465 275.628 203.858 272.585 197.163C269.745 190.266 268.325 183.166 268.325 175.863C268.325 163.082 272.788 152.635 281.714 144.52C290.843 136.406 303.826 132.348 320.664 132.348C335.067 132.348 345.312 133.87 351.398 136.913C357.484 139.753 360.527 143.303 360.527 147.563C360.527 149.592 360.02 151.925 359.005 154.562C357.991 156.996 356.47 159.329 354.441 161.561C352.412 160.141 348.659 158.619 343.182 156.996C337.908 155.171 331.72 154.258 324.62 154.258C315.491 154.258 308.188 156.084 302.711 159.735C297.436 163.387 294.799 168.56 294.799 175.254C294.799 180.731 296.016 185.803 298.451 190.469C301.088 194.932 304.638 199.902 309.101 205.379L341.965 242.808C349.877 252.139 355.252 260.66 358.093 268.369C360.933 276.077 362.353 284.699 362.353 294.234C362.353 304.377 360.628 313.81 357.18 322.533C353.934 331.256 348.355 338.255 340.443 343.53C332.735 348.804 321.983 351.441 308.188 351.441ZM463.5 351.441C456.603 351.441 450.111 350.427 444.025 348.398C438.142 346.573 432.969 343.124 428.506 338.052C424.246 332.981 420.899 325.779 418.464 316.447C416.233 307.116 415.117 295.045 415.117 280.236C415.117 261.167 416.638 245.851 419.681 234.287C422.724 222.724 426.782 214.001 431.853 208.118C436.925 202.235 442.706 198.279 449.198 196.251C455.69 194.222 462.283 193.208 468.977 193.208C481.758 193.208 491.394 197.265 497.885 205.379C504.377 213.494 507.623 225.767 507.623 242.199C507.623 248.894 507.319 255.791 506.71 262.891C506.304 269.991 505.391 276.28 503.971 281.758C497.074 283.178 489.365 284.192 480.845 284.801C472.325 285.409 464.21 285.916 456.501 286.322C448.792 286.525 442.402 286.626 437.331 286.626C432.462 286.626 430.027 286.626 430.027 286.626L430.332 266.543C430.332 266.543 432.259 266.644 436.113 266.847C439.968 266.847 444.634 266.847 450.111 266.847C455.791 266.644 461.471 266.34 467.152 265.934C473.035 265.326 478.005 264.413 482.062 263.196C482.671 260.355 483.076 257.313 483.279 254.067C483.482 250.821 483.584 247.778 483.584 244.938C483.381 233.983 482.062 226.274 479.628 221.811C477.396 217.146 472.933 214.813 466.239 214.813C462.79 214.813 459.443 215.827 456.197 217.856C453.154 219.681 450.415 223.029 447.981 227.897C445.547 232.563 443.619 239.055 442.199 247.372C440.982 255.69 440.374 266.34 440.374 279.323C440.374 288.858 440.881 296.77 441.895 303.058C443.112 309.347 444.837 314.216 447.068 317.664C449.502 321.113 452.444 323.649 455.893 325.272C459.544 326.692 463.906 327.402 468.977 327.402C475.063 327.402 481.048 326.59 486.931 324.968C493.017 323.345 498.494 321.012 503.363 317.969C504.377 320.403 504.986 323.243 505.188 326.489C505.594 329.532 505.797 332.271 505.797 334.705C505.797 337.748 503.87 340.588 500.015 343.225C496.161 345.863 490.988 347.891 484.496 349.311C478.208 350.731 471.209 351.441 463.5 351.441ZM566.155 348.398V136C566.155 132.146 566.763 129.508 567.98 128.088C569.4 126.465 571.936 125.553 575.588 125.35C579.239 124.944 584.311 124.741 590.803 124.741V343.53C590.803 345.152 590.397 346.268 589.585 346.877C588.977 347.485 586.948 347.891 583.499 348.094C580.254 348.297 574.472 348.398 566.155 348.398ZM655.268 348.398V136C655.268 132.146 655.877 129.508 657.094 128.088C658.514 126.465 661.05 125.553 664.701 125.35C668.353 124.944 673.424 124.741 679.916 124.741V343.53C679.916 345.152 679.51 346.268 678.699 346.877C678.09 347.485 676.062 347.891 672.613 348.094C669.367 348.297 663.585 348.398 655.268 348.398ZM1497.97 351.441C1483.97 351.441 1473.73 349.514 1467.24 345.66C1460.95 341.602 1457.8 337.444 1457.8 333.184C1457.8 330.749 1458.31 327.909 1459.33 324.663C1460.34 321.215 1461.96 318.172 1464.19 315.534C1467.44 318.577 1471.6 321.113 1476.67 323.142C1481.95 325.17 1488.23 326.185 1495.54 326.185C1506.29 326.185 1513.9 323.345 1518.36 317.664C1523.03 311.984 1525.36 304.478 1525.36 295.147C1525.36 288.249 1524.04 281.859 1521.4 275.976C1518.97 270.093 1514.4 263.297 1507.71 255.588L1477.28 219.986C1470.38 211.465 1465.41 203.858 1462.37 197.163C1459.53 190.266 1458.11 183.166 1458.11 175.863C1458.11 163.082 1462.57 152.635 1471.5 144.52C1480.63 136.406 1493.61 132.348 1510.45 132.348C1524.85 132.348 1535.1 133.87 1541.18 136.913C1547.27 139.753 1550.31 143.303 1550.31 147.563C1550.31 149.592 1549.8 151.925 1548.79 154.562C1547.77 156.996 1546.25 159.329 1544.22 161.561C1542.2 160.141 1538.44 158.619 1532.97 156.996C1527.69 155.171 1521.5 154.258 1514.4 154.258C1505.27 154.258 1497.97 156.084 1492.49 159.735C1487.22 163.387 1484.58 168.56 1484.58 175.254C1484.58 180.731 1485.8 185.803 1488.23 190.469C1490.87 194.932 1494.42 199.902 1498.88 205.379L1531.75 242.808C1539.66 252.139 1545.04 260.66 1547.88 268.369C1550.72 276.077 1552.14 284.699 1552.14 294.234C1552.14 304.377 1550.41 313.81 1546.96 322.533C1543.72 331.256 1538.14 338.255 1530.23 343.53C1522.52 348.804 1511.77 351.441 1497.97 351.441ZM1651.76 351.441C1644.05 351.441 1637.16 350.427 1631.07 348.398C1625.19 346.573 1620.22 342.921 1616.16 337.444C1612.1 331.966 1609.06 324.055 1607.03 313.709C1605 303.16 1603.99 289.365 1603.99 272.324C1603.99 244.532 1608.45 224.449 1617.38 212.074C1626.3 199.496 1638.68 193.208 1654.5 193.208C1665.25 193.208 1674.08 195.439 1680.97 199.902C1688.07 204.365 1693.35 212.277 1696.8 223.637C1700.25 234.998 1701.97 250.922 1701.97 271.412C1701.97 299.812 1697.71 320.302 1689.19 332.879C1680.67 345.254 1668.19 351.441 1651.76 351.441ZM1652.37 330.445C1656.83 330.445 1660.69 328.923 1663.93 325.88C1667.38 322.635 1670.12 316.752 1672.15 308.231C1674.18 299.711 1675.19 287.539 1675.19 271.716C1675.19 255.487 1674.38 243.315 1672.76 235.2C1671.14 226.883 1668.8 221.304 1665.76 218.464C1662.72 215.624 1658.66 214.204 1653.59 214.204C1649.12 214.204 1645.17 215.827 1641.72 219.073C1638.27 222.116 1635.53 227.897 1633.5 236.418C1631.68 244.938 1630.77 257.11 1630.77 272.933C1630.77 285.308 1631.27 295.349 1632.29 303.058C1633.3 310.767 1634.62 316.65 1636.24 320.707C1638.07 324.562 1640.4 327.199 1643.24 328.619C1646.08 329.836 1649.12 330.445 1652.37 330.445ZM1760.69 348.398V136C1760.69 132.146 1761.3 129.508 1762.52 128.088C1763.94 126.465 1766.47 125.553 1770.13 125.35C1773.78 124.944 1778.85 124.741 1785.34 124.741V343.53C1785.34 345.152 1784.94 346.268 1784.12 346.877C1783.52 347.485 1781.49 347.891 1778.04 348.094C1774.79 348.297 1769.01 348.398 1760.69 348.398ZM1893.32 351.441C1886.42 351.441 1879.93 350.427 1873.85 348.398C1867.96 346.573 1862.79 343.124 1858.33 338.052C1854.07 332.981 1850.72 325.779 1848.28 316.447C1846.05 307.116 1844.94 295.045 1844.94 280.236C1844.94 261.167 1846.46 245.851 1849.5 234.287C1852.54 222.724 1856.6 214.001 1861.67 208.118C1866.75 202.235 1872.53 198.279 1879.02 196.251C1885.51 194.222 1892.1 193.208 1898.8 193.208C1911.58 193.208 1921.21 197.265 1927.71 205.379C1934.2 213.494 1937.44 225.767 1937.44 242.199C1937.44 248.894 1937.14 255.791 1936.53 262.891C1936.12 269.991 1935.21 276.28 1933.79 281.758C1926.89 283.178 1919.19 284.192 1910.67 284.801C1902.15 285.409 1894.03 285.916 1886.32 286.322C1878.61 286.525 1872.22 286.626 1867.15 286.626C1862.28 286.626 1859.85 286.626 1859.85 286.626L1860.15 266.543C1860.15 266.543 1862.08 266.644 1865.93 266.847C1869.79 266.847 1874.45 266.847 1879.93 266.847C1885.61 266.644 1891.29 266.34 1896.97 265.934C1902.86 265.326 1907.83 264.413 1911.88 263.196C1912.49 260.355 1912.9 257.313 1913.1 254.067C1913.3 250.821 1913.4 247.778 1913.4 244.938C1913.2 233.983 1911.88 226.274 1909.45 221.811C1907.22 217.146 1902.75 214.813 1896.06 214.813C1892.61 214.813 1889.26 215.827 1886.02 217.856C1882.97 219.681 1880.24 223.029 1877.8 227.897C1875.37 232.563 1873.44 239.055 1872.02 247.372C1870.8 255.69 1870.19 266.34 1870.19 279.323C1870.19 288.858 1870.7 296.77 1871.72 303.058C1872.93 309.347 1874.66 314.216 1876.89 317.664C1879.32 321.113 1882.26 323.649 1885.71 325.272C1889.36 326.692 1893.73 327.402 1898.8 327.402C1904.88 327.402 1910.87 326.59 1916.75 324.968C1922.84 323.345 1928.31 321.012 1933.18 317.969C1934.2 320.403 1934.81 323.243 1935.01 326.489C1935.41 329.532 1935.62 332.271 1935.62 334.705C1935.62 337.748 1933.69 340.588 1929.84 343.225C1925.98 345.863 1920.81 347.891 1914.32 349.311C1908.03 350.731 1901.03 351.441 1893.32 351.441Z" fill="white"/>
<path d="M878.029 277.193L864.031 276.889L816.866 139.347C816.46 137.927 816.561 137.014 817.17 136.609C817.981 136 820.416 135.696 824.473 135.696C828.53 135.493 835.326 135.391 844.861 135.391L857.033 177.08C858.453 181.949 859.974 187.629 861.597 194.12C863.423 200.409 865.046 206.698 866.466 212.987C868.089 219.276 869.306 224.956 870.117 230.027C871.132 234.896 871.74 238.446 871.943 240.678C872.146 238.446 872.755 234.896 873.769 230.027C874.783 224.956 876 219.276 877.42 212.987C879.043 206.698 880.666 200.409 882.289 194.12C884.115 187.629 885.738 181.949 887.158 177.08L897.808 139.956C898.214 138.333 898.823 137.217 899.634 136.609C900.648 136 902.981 135.696 906.633 135.696C910.284 135.493 916.269 135.391 924.586 135.391L878.029 277.193ZM858.858 348.398V244.329H883.506V343.53C883.506 345.152 883.101 346.268 882.289 346.877C881.681 347.485 879.652 347.891 876.203 348.094C872.957 348.297 867.176 348.398 858.858 348.398ZM999.369 351.441C991.66 351.441 984.763 350.427 978.677 348.398C972.794 346.573 967.824 342.921 963.767 337.444C959.709 331.966 956.666 324.055 954.638 313.709C952.609 303.16 951.595 289.365 951.595 272.324C951.595 244.532 956.058 224.449 964.984 212.074C973.91 199.496 986.285 193.208 1002.11 193.208C1012.86 193.208 1021.68 195.439 1028.58 199.902C1035.68 204.365 1040.96 212.277 1044.4 223.637C1047.85 234.998 1049.58 250.922 1049.58 271.412C1049.58 299.812 1045.32 320.302 1036.8 332.879C1028.28 345.254 1015.8 351.441 999.369 351.441ZM999.978 330.445C1004.44 330.445 1008.3 328.923 1011.54 325.88C1014.99 322.635 1017.73 316.752 1019.76 308.231C1021.79 299.711 1022.8 287.539 1022.8 271.716C1022.8 255.487 1021.99 243.315 1020.37 235.2C1018.74 226.883 1016.41 221.304 1013.37 218.464C1010.32 215.624 1006.27 214.204 1001.2 214.204C996.732 214.204 992.776 215.827 989.327 219.073C985.879 222.116 983.14 227.897 981.111 236.418C979.286 244.938 978.373 257.11 978.373 272.933C978.373 285.308 978.88 295.349 979.894 303.058C980.909 310.767 982.227 316.65 983.85 320.707C985.676 324.562 988.009 327.199 990.849 328.619C993.689 329.836 996.732 330.445 999.978 330.445ZM1153.34 351.441C1141.16 351.441 1131.83 349.615 1125.34 345.964C1118.85 342.312 1114.28 336.734 1111.65 329.228C1109.21 321.722 1108 312.289 1108 300.928V201.119C1108 199.496 1108.3 198.381 1108.91 197.772C1109.52 197.163 1111.55 196.758 1114.99 196.555C1118.65 196.352 1124.73 196.251 1133.25 196.251V303.058C1133.25 309.55 1133.76 314.824 1134.77 318.882C1135.99 322.736 1138.02 325.576 1140.86 327.402C1143.9 329.025 1148.16 329.836 1153.64 329.836C1156.48 329.836 1159.83 329.431 1163.68 328.619C1167.54 327.808 1171.09 326.388 1174.33 324.359V201.119C1174.33 199.496 1174.64 198.381 1175.24 197.772C1176.06 197.163 1178.08 196.758 1181.33 196.555C1184.78 196.352 1190.66 196.251 1198.98 196.251V340.487C1193.1 343.732 1186.1 346.37 1177.98 348.398C1169.87 350.427 1161.65 351.441 1153.34 351.441ZM1262.78 348.398V206.901C1268.67 202.641 1275.16 199.293 1282.26 196.859C1289.36 194.425 1296.66 193.208 1304.17 193.208C1312.08 193.208 1317.56 194.323 1320.6 196.555C1323.84 198.583 1325.47 201.728 1325.47 205.988C1325.47 207.611 1325.26 209.842 1324.86 212.683C1324.45 215.32 1323.74 217.957 1322.73 220.594C1320.5 219.377 1318.16 218.464 1315.73 217.856C1313.3 217.247 1310.76 216.943 1308.12 216.943C1304.67 216.943 1301.12 217.551 1297.47 218.768C1294.02 219.783 1290.88 221.406 1288.04 223.637L1287.73 343.53C1287.73 345.152 1287.33 346.268 1286.52 346.877C1285.91 347.485 1283.88 347.891 1280.43 348.094C1276.98 348.297 1271.1 348.398 1262.78 348.398Z" fill="#A200EB"/>
</g>
<defs>
<clipPath id="clip0_2987_351">
<rect width="2002.59" height="460.412" fill="white"/>
</clipPath>
</defs>
</svg>
