<svg width="1936" height="454" viewBox="0 0 1936 454" fill="none" xmlns="http://www.w3.org/2000/svg">
<path d="M380.161 199.221C380.161 305.946 295.4 391.136 192.58 391.136C89.7604 391.136 5 305.946 5 199.221C5 92.4948 89.7604 7.30542 192.58 7.30542C295.4 7.30542 380.161 92.4948 380.161 199.221Z" stroke="white" stroke-width="9.29307"/>
<path d="M83.0234 168.88L152.437 92.5865" stroke="white" stroke-width="7.43446" stroke-linecap="round"/>
<path d="M231.203 312.163L300.617 235.87" stroke="white" stroke-width="7.43446" stroke-linecap="round"/>
<path d="M94.0625 240.205L217.014 96.3671" stroke="white" stroke-width="7.43446" stroke-linecap="round"/>
<path d="M92.0898 318.231L279.67 94.7896" stroke="white" stroke-width="7.43446" stroke-linecap="round"/>
<path d="M166.57 303.258L289.522 159.42" stroke="white" stroke-width="7.43446" stroke-linecap="round"/>
<path d="M438.479 391.135L436.902 1" stroke="white" stroke-width="7.43446"/>
<path d="M1877.26 65.2342C1890.23 40.0775 1906.86 12.5845 1920.61 18.7331C1934.36 24.8817 1904.09 71.7032 1894.21 82.5728L1911.54 120.011C1920.19 120.011 1920.61 129.075 1916.27 131.439L1920.61 148.812C1933.58 148.812 1931.88 159.829 1928.28 166.118L1935.19 191.339C1936.41 197.394 1931.32 199.306 1926.12 203.161L1870.17 117.366L1815.77 192.835C1815.77 192.835 1831.15 229.039 1825.24 230.352C1819.33 231.666 1804.96 205.413 1799.55 199.124C1794.15 192.835 1761.72 192.835 1761.72 186.546C1761.72 181.515 1787.58 178.728 1801.99 178.728L1846.52 102.278L1748.4 80.9975C1740.52 77.8448 1745.64 65.6285 1757.06 65.6285H1785.83C1790.16 55.566 1795.29 59.3233 1796.87 65.6285H1817.75C1824.85 54.9884 1829.58 58.5351 1831.94 65.6285L1877.26 65.2342Z" fill="white"/>
<path d="M1785.99 212.482C1764.56 260.301 1549.4 478.619 1469.94 451.686C1422.65 428.436 1466.79 337.798 1488.85 305.878C1466.93 347.65 1458.45 433.669 1477.03 439.076C1524.96 457.339 1718.46 293.403 1785.99 212.482Z" fill="white"/>
<path d="M1080.27 350.883V324.802C1080.27 323.111 1078.64 321.662 1077.46 321.191C1076.25 321.191 1058.31 320.251 1054.57 320.251H1005.57V309.956H1062.54C1072.19 309.956 1080.67 309.957 1085.08 311.561C1089.61 313.63 1090.3 318.323 1090.3 322.365V351.695C1090.3 355.738 1088.85 361.993 1083.88 364.124C1078.26 366.531 1072.19 366.13 1062.54 366.13H1015.01V355.698C1018.75 355.698 1077.28 356.262 1078.26 355.698C1079.44 355.135 1080.27 352.576 1080.27 350.883ZM1002.02 309.956H1017.67V401.841H1002.02V309.956Z" fill="white"/>
<path d="M586.668 346.999V328.871H527.557V391.529L586.668 391.924V371.037H603.614L604.008 391.924C604.008 391.924 604.008 397.499 599.673 401.775C595.678 405.716 586.668 405.716 586.668 405.716H527.557C527.557 405.716 517.311 405.637 513.764 401.381C510.218 397.125 510.218 391.529 510.218 391.529V328.871C510.218 328.871 509.955 323.748 514.552 319.808C519.15 315.868 527.163 315.473 527.163 315.473H586.668C586.668 315.473 596.088 315.833 600.067 319.414C604.008 322.961 604.008 328.871 604.008 328.871V346.999H586.668Z" fill="white"/>
<path d="M527.163 328.871H527.557M527.557 328.871H586.668V346.999H604.008V328.871C604.008 328.871 604.008 322.961 600.067 319.414C596.088 315.833 586.668 315.473 586.668 315.473H527.163C527.163 315.473 519.15 315.868 514.552 319.808C509.955 323.748 510.218 328.871 510.218 328.871V391.529C510.218 391.529 510.218 397.125 513.764 401.381C517.311 405.637 527.557 405.716 527.557 405.716H586.668C586.668 405.716 595.678 405.716 599.673 401.775C604.008 397.499 604.008 391.924 604.008 391.924L603.614 371.037H586.668V391.924L527.557 391.529V328.871Z" stroke="white" stroke-width="0.788152"/>
<path fill-rule="evenodd" clip-rule="evenodd" d="M676.119 380.191L665.479 402.956H650.504L698.581 312.318H715.921L764.392 402.956H748.629L737.595 380.191H676.119ZM707.246 320.751L683.602 367.124H730.891L707.246 320.751Z" fill="white"/>
<path d="M665.479 402.956V403.35H665.73L665.836 403.122L665.479 402.956ZM676.119 380.191V379.797H675.868L675.762 380.024L676.119 380.191ZM650.504 402.956L650.156 402.771L649.849 403.35H650.504V402.956ZM698.581 312.318V311.924H698.344L698.233 312.133L698.581 312.318ZM715.921 312.318L716.268 312.132L716.157 311.924H715.921V312.318ZM764.392 402.956V403.35H765.05L764.739 402.77L764.392 402.956ZM748.629 402.956L748.274 403.127L748.382 403.35H748.629V402.956ZM737.595 380.191L737.949 380.019L737.842 379.797H737.595V380.191ZM683.602 367.124L683.251 366.945L682.958 367.518H683.602V367.124ZM707.246 320.751L707.597 320.572L707.246 319.883L706.895 320.572L707.246 320.751ZM730.891 367.124V367.518H731.534L731.242 366.945L730.891 367.124ZM730.895 367.122V367.516H731.539L731.247 366.943L730.895 367.122ZM707.251 320.749L707.602 320.57L707.251 319.882L706.9 320.57L707.251 320.749ZM665.836 403.122L676.476 380.358L675.762 380.024L665.122 402.789L665.836 403.122ZM650.504 403.35H665.479V402.562H650.504V403.35ZM698.233 312.133L650.156 402.771L650.852 403.14L698.929 312.503L698.233 312.133ZM715.921 311.924H698.581V312.712H715.921V311.924ZM764.739 402.77L716.268 312.132L715.573 312.504L764.044 403.141L764.739 402.77ZM748.629 403.35H764.392V402.562H748.629V403.35ZM737.24 380.363L748.274 403.127L748.983 402.784L737.949 380.019L737.24 380.363ZM676.119 380.585H737.595V379.797H676.119V380.585ZM683.953 367.303L707.597 320.93L706.895 320.572L683.251 366.945L683.953 367.303ZM730.891 366.73H683.602V367.518H730.891V366.73ZM706.895 320.93L730.54 367.303L731.242 366.945L707.597 320.572L706.895 320.93ZM730.89 367.516H730.895V366.728H730.89V367.516ZM731.247 366.943L707.602 320.57L706.9 320.928L730.544 367.301L731.247 366.943ZM706.9 320.57L706.897 320.576L707.599 320.934L707.602 320.929L706.9 320.57Z" fill="white"/>
<path d="M832.961 402.17H819.168V312.32H832.961L871.186 367.491H877.885L912.564 312.32H928.327V402.17H912.564V336.359L877.885 387.983H871.186L832.961 336.359V402.17Z" fill="white" stroke="white" stroke-width="0.788152"/>
<path d="M1237.29 388.377V312.714H1250.3V388.377C1250.3 393.476 1249.41 396.682 1247.36 398.633C1245.31 400.59 1242 401.381 1236.9 401.381H1171.09C1165.98 401.381 1162.67 400.59 1160.62 398.587C1158.58 396.587 1157.69 393.282 1157.69 387.983L1157.69 346.161L1157.69 322.646L1157.69 315.135L1157.69 313.053L1157.69 312.714H1170.69V387.983V388.375L1171.08 388.377L1236.89 388.771L1237.29 388.773V388.377Z" fill="white" stroke="white" stroke-width="0.788152"/>
<path d="M1410.29 322.566V335.965H1397.28V322.566V322.172H1396.89H1334.62H1334.23V322.566V346.999V347.393H1334.62H1396.89C1402.54 347.393 1406.65 348.853 1409.36 351.657C1412.07 354.463 1413.44 358.681 1413.44 364.338C1413.44 370.064 1413.64 373.324 1413.83 376.481L1413.85 376.65C1414.04 379.741 1414.23 382.771 1414.23 387.983C1414.23 393.255 1413.06 396.651 1410.39 398.757C1407.69 400.885 1403.38 401.776 1396.89 401.776H1334.62C1328.55 401.776 1324.3 400.793 1321.59 399.031C1318.9 397.289 1317.68 394.761 1317.68 391.53L1317.68 380.348L1317.68 375.957L1317.68 374.66L1317.68 374.584H1334.23V387.983V388.377H1334.62H1396.89H1397.28V387.983V364.338V363.944H1396.89H1334.65C1329.99 363.371 1326.84 362.459 1324.71 360.511C1322.58 358.57 1321.4 355.534 1320.83 350.523V322.566C1320.83 321.989 1321.15 321.082 1321.82 320.011C1322.49 318.955 1323.46 317.789 1324.69 316.704C1327.15 314.532 1330.61 312.714 1334.62 312.714H1396.89C1401.98 312.714 1405.32 313.599 1407.38 315.239C1409.42 316.862 1410.29 319.286 1410.29 322.566Z" fill="white" stroke="white" stroke-width="0.788152"/>
<mask id="path-18-inside-1_2987_319" fill="white">
<path fill-rule="evenodd" clip-rule="evenodd" d="M509.413 54.288V186.698C509.413 204.825 529.117 233.987 568.131 233.987L692.265 233.987L692.659 213.101H661.133V147.29C722.214 150.837 760.44 137.832 757.681 85.4202C755.086 36.1092 700.864 37.0286 684.284 37.3098C683.241 37.3274 682.347 37.3426 681.624 37.3426C669.408 37.3423 615.026 37.3428 615.026 37.3428C615.026 37.3428 605.962 36.9489 605.568 44.8302C605.174 52.7115 615.026 54.288 615.026 54.288H633.153V185.909C633.153 185.909 631.577 213.101 588.228 213.101C544.88 213.101 543.698 185.909 543.698 185.909V54.6821L567.342 54.288C567.342 54.288 571.677 51.9236 571.677 45.6184C571.677 39.3131 567.342 37.3428 567.342 37.3428H488.527C488.527 37.3428 484.98 38.1309 484.98 45.6184C484.981 53.1058 488.527 54.288 488.527 54.288H509.413ZM660.74 53.018V125.528H688.325C706.453 125.528 717.695 115.294 722.61 99.1249C725.071 91.0264 725.21 85.5057 722.61 77.4507C717.559 61.8047 702.118 53.018 688.325 53.018H660.74Z"/>
</mask>
<path fill-rule="evenodd" clip-rule="evenodd" d="M509.413 54.288V186.698C509.413 204.825 529.117 233.987 568.131 233.987L692.265 233.987L692.659 213.101H661.133V147.29C722.214 150.837 760.44 137.832 757.681 85.4202C755.086 36.1092 700.864 37.0286 684.284 37.3098C683.241 37.3274 682.347 37.3426 681.624 37.3426C669.408 37.3423 615.026 37.3428 615.026 37.3428C615.026 37.3428 605.962 36.9489 605.568 44.8302C605.174 52.7115 615.026 54.288 615.026 54.288H633.153V185.909C633.153 185.909 631.577 213.101 588.228 213.101C544.88 213.101 543.698 185.909 543.698 185.909V54.6821L567.342 54.288C567.342 54.288 571.677 51.9236 571.677 45.6184C571.677 39.3131 567.342 37.3428 567.342 37.3428H488.527C488.527 37.3428 484.98 38.1309 484.98 45.6184C484.981 53.1058 488.527 54.288 488.527 54.288H509.413ZM660.74 53.018V125.528H688.325C706.453 125.528 717.695 115.294 722.61 99.1249C725.071 91.0264 725.21 85.5057 722.61 77.4507C717.559 61.8047 702.118 53.018 688.325 53.018H660.74Z" fill="white"/>
<path d="M509.413 54.288H510.201V53.4999H509.413V54.288ZM568.131 233.987L568.131 233.198H568.131V233.987ZM692.265 233.987L692.265 234.775L693.038 234.775L693.053 234.002L692.265 233.987ZM692.659 213.101L693.447 213.116L693.462 212.313H692.659V213.101ZM661.133 213.101H660.344V213.889H661.133V213.101ZM661.133 147.29L661.178 146.503L660.344 146.455V147.29H661.133ZM757.681 85.4202L756.894 85.4616L756.894 85.4616L757.681 85.4202ZM684.284 37.3098L684.297 38.0978L684.297 38.0978L684.284 37.3098ZM681.624 37.3426L681.624 38.1307L681.624 38.1307L681.624 37.3426ZM615.026 37.3428L614.991 38.1302L615.009 38.1309L615.026 38.1309L615.026 37.3428ZM605.568 44.8302L606.355 44.8696L606.355 44.8696L605.568 44.8302ZM615.026 54.288L614.901 55.0663L614.963 55.0762H615.026V54.288ZM633.153 54.288H633.941V53.4999H633.153V54.288ZM633.153 185.909L633.94 185.955L633.941 185.932V185.909H633.153ZM543.698 185.909H542.91V185.927L542.91 185.944L543.698 185.909ZM543.698 54.6821L543.685 53.8941L542.91 53.907V54.6821H543.698ZM567.342 54.288L567.356 55.0761L567.549 55.0728L567.72 54.9799L567.342 54.288ZM567.342 37.3428L567.669 36.6252L567.513 36.5546H567.342V37.3428ZM488.527 37.3428V36.5546H488.441L488.356 36.5734L488.527 37.3428ZM484.98 45.6184L484.192 45.6184L484.98 45.6184ZM488.527 54.288L488.278 55.0357L488.399 55.0762H488.527V54.288ZM660.74 125.528H659.952V126.316H660.74V125.528ZM660.74 53.018V52.2298H659.952V53.018H660.74ZM722.61 99.1249L723.364 99.3541L723.364 99.3541L722.61 99.1249ZM722.61 77.4507L723.36 77.2086L723.36 77.2086L722.61 77.4507ZM510.201 186.698V54.288H508.625V186.698H510.201ZM568.131 233.198C529.533 233.198 510.201 204.371 510.201 186.698H508.625C508.625 205.279 528.701 234.775 568.131 234.775V233.198ZM692.265 233.199L568.131 233.198L568.131 234.775L692.265 234.775L692.265 233.199ZM691.871 213.086L691.477 233.972L693.053 234.002L693.447 213.116L691.871 213.086ZM661.133 213.889H692.659V212.313H661.133V213.889ZM660.344 147.29V213.101H661.921V147.29H660.344ZM756.894 85.4616C757.579 98.4702 755.717 108.969 751.64 117.353C747.568 125.727 741.261 132.041 732.964 136.651C716.326 145.894 691.695 148.275 661.178 146.503L661.087 148.077C691.652 149.852 716.674 147.504 733.73 138.029C742.28 133.278 748.83 126.736 753.058 118.042C757.281 109.357 759.163 98.576 758.468 85.3787L756.894 85.4616ZM684.297 38.0978C692.597 37.9571 710.157 37.666 725.954 43.5071C733.84 46.4234 741.249 50.8553 746.844 57.5651C752.433 64.2661 756.253 73.2875 756.894 85.4616L758.468 85.3787C757.811 72.8973 753.881 63.5421 748.055 56.5555C742.236 49.5777 734.566 45.0113 726.5 42.0287C710.392 36.0721 692.551 36.3813 684.27 36.5217L684.297 38.0978ZM681.624 38.1307C682.355 38.1307 683.257 38.1154 684.297 38.0978L684.27 36.5217C683.225 36.5394 682.339 36.5544 681.625 36.5544L681.624 38.1307ZM615.026 37.3428C615.026 38.1309 615.026 38.1309 615.026 38.1309C615.027 38.1309 615.027 38.1309 615.028 38.1309C615.03 38.1309 615.032 38.1309 615.036 38.1309C615.042 38.1309 615.052 38.1309 615.065 38.1309C615.091 38.1309 615.13 38.1309 615.182 38.1309C615.285 38.1309 615.439 38.1309 615.639 38.1309C616.041 38.1309 616.631 38.1309 617.386 38.1309C618.897 38.1309 621.069 38.1309 623.714 38.1308C629.003 38.1308 636.183 38.1307 643.744 38.1307C658.867 38.1306 675.516 38.1306 681.624 38.1307L681.625 36.5544C675.516 36.5543 658.867 36.5543 643.744 36.5544C636.183 36.5544 629.003 36.5545 623.714 36.5545C621.069 36.5546 618.897 36.5546 617.386 36.5546C616.631 36.5546 616.041 36.5546 615.639 36.5546C615.439 36.5546 615.285 36.5546 615.182 36.5546C615.13 36.5546 615.091 36.5546 615.065 36.5546C615.052 36.5546 615.042 36.5546 615.036 36.5546C615.032 36.5546 615.03 36.5546 615.028 36.5546C615.027 36.5546 615.027 36.5546 615.026 36.5546C615.026 36.5546 615.026 36.5546 615.026 37.3428ZM606.355 44.8696C606.445 43.0616 607.027 41.7759 607.814 40.844C608.61 39.9019 609.654 39.2777 610.726 38.867C611.799 38.4562 612.871 38.2702 613.682 38.1885C614.086 38.1479 614.42 38.1335 614.65 38.1292C614.765 38.1271 614.854 38.1275 614.912 38.1283C614.942 38.1287 614.963 38.1293 614.976 38.1297C614.983 38.1299 614.988 38.13 614.99 38.1301C614.992 38.1302 614.992 38.1302 614.992 38.1302C614.993 38.1302 614.993 38.1302 614.992 38.1302C614.992 38.1302 614.992 38.1302 614.992 38.1302C614.992 38.1302 614.991 38.1302 615.026 37.3428C615.06 36.5553 615.059 36.5553 615.059 36.5553C615.059 36.5553 615.058 36.5553 615.058 36.5553C615.057 36.5552 615.056 36.5552 615.055 36.5552C615.053 36.5551 615.051 36.555 615.048 36.5549C615.042 36.5546 615.033 36.5544 615.023 36.5541C615.002 36.5534 614.972 36.5527 614.935 36.5522C614.861 36.5511 614.754 36.5507 614.621 36.5532C614.354 36.5582 613.977 36.5746 613.524 36.6202C612.624 36.7109 611.405 36.9191 610.163 37.395C608.92 37.8709 607.624 38.626 606.61 39.8267C605.587 41.0376 604.887 42.6582 604.781 44.7908L606.355 44.8696ZM615.026 54.288C615.15 53.5098 615.15 53.5098 615.151 53.5099C615.151 53.5099 615.151 53.5099 615.151 53.5099C615.151 53.5099 615.151 53.5099 615.151 53.5099C615.15 53.5098 615.149 53.5096 615.148 53.5094C615.145 53.5089 615.139 53.508 615.132 53.5066C615.116 53.504 615.092 53.4997 615.06 53.4937C614.995 53.4815 614.897 53.4623 614.771 53.4348C614.518 53.3798 614.154 53.292 613.716 53.1627C612.836 52.903 611.678 52.4808 610.54 51.8303C608.264 50.5295 606.179 48.3967 606.355 44.8696L604.781 44.7908C604.563 49.1451 607.207 51.7412 609.758 53.1989C611.033 53.9278 612.313 54.3922 613.269 54.6744C613.749 54.816 614.151 54.913 614.435 54.975C614.578 55.006 614.691 55.0283 614.77 55.0431C614.81 55.0505 614.841 55.0561 614.863 55.0599C614.874 55.0618 614.883 55.0633 614.889 55.0643C614.892 55.0648 614.895 55.0653 614.897 55.0656C614.898 55.0658 614.899 55.0659 614.899 55.066C614.9 55.0661 614.9 55.0661 614.9 55.0662C614.901 55.0662 614.901 55.0663 615.026 54.288ZM633.153 53.4999H615.026V55.0762H633.153V53.4999ZM633.941 185.909V54.288H632.365V185.909H633.941ZM588.228 213.889C610.08 213.889 621.552 207.027 627.545 200.017C630.531 196.525 632.128 193.03 632.979 190.401C633.405 189.086 633.644 187.987 633.777 187.211C633.844 186.823 633.884 186.516 633.908 186.302C633.92 186.195 633.928 186.112 633.933 186.053C633.935 186.024 633.937 186.001 633.938 185.985C633.939 185.976 633.939 185.97 633.939 185.965C633.94 185.962 633.94 185.96 633.94 185.959C633.94 185.958 633.94 185.957 633.94 185.957C633.94 185.956 633.94 185.955 633.153 185.909C632.366 185.864 632.366 185.863 632.366 185.863C632.366 185.863 632.366 185.863 632.366 185.863C632.366 185.863 632.366 185.863 632.366 185.864C632.366 185.866 632.366 185.869 632.366 185.874C632.365 185.883 632.364 185.899 632.362 185.922C632.358 185.966 632.352 186.036 632.342 186.128C632.321 186.312 632.285 186.589 632.224 186.944C632.102 187.655 631.879 188.681 631.48 189.915C630.68 192.385 629.174 195.687 626.347 198.993C620.716 205.579 609.726 212.313 588.228 212.313V213.889ZM543.698 185.909C542.91 185.944 542.91 185.944 542.91 185.945C542.911 185.946 542.911 185.947 542.911 185.947C542.911 185.949 542.911 185.951 542.911 185.954C542.911 185.959 542.911 185.965 542.912 185.973C542.913 185.99 542.914 186.013 542.916 186.042C542.92 186.1 542.927 186.184 542.937 186.291C542.958 186.504 542.994 186.812 543.055 187.2C543.177 187.977 543.4 189.076 543.807 190.391C544.62 193.021 546.167 196.518 549.104 200.012C555.001 207.027 566.378 213.889 588.228 213.889V212.313C566.731 212.313 555.842 205.579 550.311 198.998C547.534 195.694 546.076 192.394 545.313 189.925C544.931 188.691 544.724 187.666 544.612 186.955C544.556 186.6 544.524 186.324 544.506 186.139C544.497 186.047 544.492 185.978 544.489 185.933C544.487 185.911 544.486 185.895 544.486 185.885C544.485 185.88 544.485 185.877 544.485 185.875C544.485 185.874 544.485 185.874 544.485 185.874C544.485 185.874 544.485 185.874 544.485 185.874C544.485 185.875 544.485 185.875 543.698 185.909ZM542.91 54.6821V185.909H544.486V54.6821H542.91ZM567.329 53.5L543.685 53.8941L543.711 55.4701L567.356 55.0761L567.329 53.5ZM570.889 45.6184C570.889 48.5744 569.878 50.5737 568.89 51.8307C568.393 52.4634 567.898 52.9127 567.532 53.201C567.349 53.3449 567.2 53.448 567.099 53.5131C567.049 53.5456 567.012 53.5686 566.989 53.5823C566.977 53.5892 566.969 53.5937 566.965 53.596C566.963 53.5971 566.962 53.5977 566.962 53.5977C566.962 53.5977 566.962 53.5976 566.963 53.5973C566.963 53.5972 566.963 53.597 566.964 53.5968C566.964 53.5967 566.964 53.5965 566.964 53.5965C566.965 53.5963 566.965 53.5961 567.342 54.288C567.72 54.9799 567.72 54.9797 567.721 54.9795C567.721 54.9794 567.721 54.9792 567.722 54.979C567.722 54.9787 567.723 54.9783 567.724 54.9778C567.725 54.977 567.727 54.976 567.729 54.9748C567.733 54.9725 567.738 54.9696 567.745 54.9661C567.757 54.9591 567.773 54.9496 567.794 54.9376C567.834 54.9136 567.889 54.8796 567.958 54.8351C568.095 54.7463 568.284 54.6154 568.507 54.4391C568.954 54.087 569.543 53.5512 570.13 52.8046C571.309 51.303 572.465 48.9675 572.465 45.6184H570.889ZM567.342 37.3428C567.016 38.0603 567.016 38.0601 567.015 38.0599C567.015 38.0598 567.015 38.0597 567.015 38.0596C567.014 38.0594 567.014 38.0592 567.014 38.0591C567.013 38.0588 567.013 38.0586 567.013 38.0586C567.012 38.0585 567.013 38.0588 567.015 38.0597C567.018 38.0614 567.026 38.065 567.037 38.0705C567.059 38.0816 567.095 38.1006 567.144 38.1279C567.242 38.1825 567.389 38.2704 567.569 38.3957C567.929 38.6467 568.418 39.0454 568.908 39.6252C569.88 40.7735 570.889 42.6647 570.889 45.6184H572.465C572.465 42.2668 571.307 40.0201 570.111 38.607C569.518 37.906 568.923 37.418 568.47 37.1025C568.244 36.9446 568.052 36.8293 567.913 36.7516C567.843 36.7127 567.787 36.6832 567.745 36.6623C567.725 36.6519 567.708 36.6437 567.695 36.6375C567.688 36.6344 567.683 36.6319 567.678 36.6298C567.676 36.6288 567.674 36.6279 567.673 36.6272C567.672 36.6268 567.671 36.6264 567.67 36.6261C567.67 36.6259 567.67 36.6257 567.669 36.6257C567.669 36.6254 567.669 36.6252 567.342 37.3428ZM488.527 38.1309H567.342V36.5546H488.527V38.1309ZM485.769 45.6183C485.768 41.9973 486.625 40.1159 487.374 39.1585C487.751 38.6772 488.115 38.4101 488.365 38.2664C488.491 38.1941 488.59 38.152 488.65 38.1297C488.68 38.1186 488.7 38.1124 488.709 38.1099C488.713 38.1086 488.714 38.1083 488.713 38.1087C488.712 38.1089 488.71 38.1093 488.708 38.1099C488.707 38.1102 488.705 38.1105 488.704 38.1109C488.703 38.1111 488.702 38.1113 488.701 38.1115C488.701 38.1116 488.7 38.1118 488.7 38.1118C488.699 38.112 488.698 38.1121 488.527 37.3428C488.356 36.5734 488.355 36.5735 488.355 36.5737C488.354 36.5738 488.354 36.574 488.353 36.5741C488.352 36.5743 488.351 36.5746 488.349 36.5749C488.347 36.5755 488.344 36.5761 488.341 36.5768C488.336 36.5782 488.329 36.5798 488.321 36.5818C488.306 36.5856 488.288 36.5906 488.266 36.597C488.223 36.6097 488.166 36.6278 488.099 36.6528C487.965 36.7028 487.787 36.7808 487.581 36.8994C487.166 37.1374 486.643 37.5353 486.133 38.187C485.109 39.4955 484.192 41.7519 484.192 45.6184L485.769 45.6183ZM488.527 54.288C488.776 53.5403 488.777 53.5406 488.778 53.5408C488.778 53.5408 488.779 53.5411 488.779 53.5412C488.78 53.5415 488.781 53.5417 488.781 53.542C488.783 53.5425 488.784 53.5429 488.785 53.5433C488.787 53.544 488.788 53.5444 488.789 53.5446C488.79 53.5449 488.788 53.5442 488.782 53.5421C488.772 53.5379 488.75 53.5287 488.718 53.5132C488.654 53.4823 488.55 53.4263 488.419 53.3362C488.157 53.1566 487.78 52.8377 487.394 52.3005C486.624 51.2317 485.769 49.2359 485.769 45.6183L484.192 45.6184C484.192 49.4882 485.111 51.8273 486.114 53.2215C486.614 53.9157 487.125 54.3604 487.528 54.6365C487.728 54.7741 487.901 54.869 488.031 54.932C488.096 54.9634 488.151 54.9869 488.192 55.0038C488.213 55.0122 488.231 55.0189 488.245 55.0242C488.252 55.0268 488.259 55.0291 488.264 55.031C488.267 55.032 488.269 55.0328 488.272 55.0336C488.273 55.034 488.274 55.0344 488.275 55.0347C488.275 55.0349 488.276 55.0352 488.276 55.0352C488.277 55.0355 488.278 55.0357 488.527 54.288ZM509.413 53.4999H488.527V55.0762H509.413V53.4999ZM661.528 125.528V53.018H659.952V125.528H661.528ZM688.325 124.74H660.74V126.316H688.325V124.74ZM721.856 98.8957C719.433 106.866 715.469 113.317 709.928 117.776C704.395 122.229 697.233 124.74 688.325 124.74V126.316C697.545 126.316 705.068 123.71 710.917 119.004C716.758 114.303 720.872 107.552 723.364 99.3541L721.856 98.8957ZM721.86 77.6928C723.142 81.664 723.737 84.9729 723.72 88.2674C723.703 91.5647 723.073 94.8898 721.856 98.8957L723.364 99.3541C724.608 95.2615 725.278 91.777 725.296 88.2755C725.314 84.7713 724.678 81.2924 723.36 77.2086L721.86 77.6928ZM688.325 53.8061C701.83 53.8061 716.93 62.4207 721.86 77.6928L723.36 77.2086C718.189 61.1886 702.406 52.2298 688.325 52.2298V53.8061ZM660.74 53.8061H688.325V52.2298H660.74V53.8061Z" fill="white" mask="url(#path-18-inside-1_2987_319)"/>
<path d="M1699.91 72.3278H1527.31V34.4965H1699.91V72.3278Z" fill="white"/>
<path d="M1634.5 99.9131H1593.12V101.095V220.895H1634.5V99.9131Z" fill="white"/>
<path d="M1527.31 34.1024V34.4965M1527.31 34.4965V72.3278H1699.91V34.4965H1527.31ZM1593.12 99.9131H1634.5V220.895H1593.12V101.095V99.9131Z" stroke="white" stroke-width="0.788152"/>
<path d="M1132.84 72.3278H960.238V34.4965H1132.84V72.3278Z" fill="white"/>
<path d="M1067.43 99.9131H1026.05V101.095V220.895H1067.43V99.9131Z" fill="white"/>
<path d="M960.238 34.1024V34.4965M960.238 34.4965V72.3278H1132.84V34.4965H960.238ZM1026.05 99.9131H1067.43V220.895H1026.05V101.095V99.9131Z" stroke="white" stroke-width="0.788152"/>
<path d="M858.958 70.7501V70.356H869.598H869.625L869.651 70.3596C887.197 72.7253 896.238 75.1397 903.306 78.8397C906.839 80.6893 909.868 82.8542 913.209 85.4753C914.54 86.5192 915.914 87.63 917.388 88.8215C919.539 90.5609 921.903 92.4724 924.658 94.5995L945.145 60.1966C930.67 48.0795 917.679 39.9962 904.076 34.9333C890.393 29.8409 876.068 27.7959 858.958 27.7958C841.871 27.7958 826.306 31.7242 814.528 41.2544C802.76 50.7764 794.718 65.9338 792.753 88.5056C792.488 99.1528 794.623 107.63 798.82 114.597C803.019 121.568 809.301 127.058 817.374 131.696C832.326 140.286 853.336 145.913 878.454 152.639C880.501 153.187 882.575 153.743 884.676 154.308L884.676 154.308C887.702 155.123 891.886 156.816 895.324 159.309C898.752 161.795 901.519 165.139 901.519 169.269V169.276L901.518 169.284C901.318 174.685 899.642 178.397 896.597 180.972C893.574 183.53 889.25 184.924 883.849 185.815L883.841 185.816L883.785 185.426C883.841 185.816 883.841 185.816 883.84 185.816L883.84 185.817L883.839 185.817L883.836 185.817L883.826 185.818L883.794 185.822C883.765 185.825 883.723 185.83 883.665 185.835C883.547 185.845 883.361 185.86 883.08 185.875C882.52 185.906 881.578 185.943 880.048 185.968C876.987 186.017 871.563 186.017 862.103 185.82C843.188 185.426 823.417 175.432 805.476 160.806L786.143 194.832C795.299 204.949 809.034 212.731 823.444 217.992C837.95 223.288 853.1 226.016 864.869 226.016H870.781C880.969 226.016 899.235 222.876 915.084 214.193C930.923 205.516 944.296 191.337 944.867 169.259C945.161 157.897 942.688 148.843 937.91 141.418C933.129 133.99 926.021 128.161 916.996 123.284C900.143 114.177 876.7 108.432 849.465 101.759C847.494 101.276 845.504 100.789 843.495 100.294L843.46 100.286L843.426 100.271C841.206 99.2612 839.368 97.8381 838.088 95.892C836.81 93.9492 836.105 91.5122 836.102 88.5021M858.958 70.7501L836.102 88.4835C836.102 88.4897 836.102 88.4959 836.102 88.5021M858.958 70.7501C858.958 70.356 858.958 70.356 858.958 70.356H858.957L858.955 70.356L858.948 70.3561L858.921 70.3562C858.898 70.3564 858.864 70.3568 858.819 70.3576C858.73 70.3592 858.599 70.3624 858.431 70.3686C858.096 70.3811 857.612 70.4061 857.014 70.4559C855.819 70.5555 854.166 70.7546 852.333 71.1532C848.68 71.9472 844.247 73.5466 841.326 76.7917C838.447 79.9903 837.137 82.9019 836.55 85.029C836.256 86.0915 836.144 86.9558 836.105 87.5595C836.086 87.8612 836.085 88.0978 836.089 88.2614C836.092 88.3433 836.095 88.4068 836.098 88.4512C836.099 88.4727 836.101 88.4897 836.102 88.5021M858.958 70.7501L836.102 88.5021" fill="white" stroke="white" stroke-width="0.788152"/>
<path d="M1245.15 30.1587V94.3931L1197.07 224.438H1143.87L1225.05 30.1587H1245.15Z" fill="#A200EB" stroke="#A200EB" stroke-width="0.788152"/>
<path d="M1244.76 30.1587V94.3931L1292.83 224.438H1346.04L1264.86 30.1587H1244.76Z" fill="#A200EB" stroke="#A200EB" stroke-width="0.788152"/>
<path d="M1426.37 152.124L1426.26 151.929H1426.03H1353.91V111.339H1444.55C1448.15 111.339 1452.18 110.542 1455.32 108.311C1458.49 106.065 1460.71 102.396 1460.71 96.7586V90.0593C1460.71 85.1883 1458.37 81.5324 1455.18 79.1058C1452.01 76.6868 1447.98 75.4785 1444.55 75.4785H1353.91V35.2827H1454.01C1466.67 35.2827 1478.1 41.9093 1486.37 51.2577C1494.65 60.6088 1499.72 72.637 1499.72 83.36V103.852C1499.72 125.737 1486.05 140.174 1471.23 144.854L1470.95 144.941V145.23V152.323V152.443L1471.02 152.542L1518.69 224.045H1468.42L1426.37 152.124Z" fill="white" stroke="white" stroke-width="0.788152"/>
</svg>
